<svg xmlns="http://www.w3.org/2000/svg" viewBox="0 0 694.83 115.53"><title>Asset 7</title><rect x="164.33" y="39.87" width="112.23" height="33.89" rx="4.83" ry="4.83" fill="#fff"/><path d="M271.74 74H169.16a5.08 5.08 0 0 1-5.08-5.08V44.69a5.08 5.08 0 0 1 5.08-5.08h102.58a5.08 5.08 0 0 1 5.08 5.08v24.24a5.08 5.08 0 0 1-5.08 5.07zM169.16 40.12a4.58 4.58 0 0 0-4.58 4.58v24.23a4.58 4.58 0 0 0 4.58 4.58h102.58a4.58 4.58 0 0 0 4.58-4.58V44.69a4.58 4.58 0 0 0-4.58-4.58z" fill="#18b2d6"/><rect x=".25" y=".25" width="112.23" height="33.89" rx="4.83" ry="4.83" fill="#fff"/><path d="M107.66 34.39H5.08A5.08 5.08 0 0 1 0 29.31V5.08A5.08 5.08 0 0 1 5.08 0h102.58a5.08 5.08 0 0 1 5.08 5.08v24.23a5.08 5.08 0 0 1-5.08 5.08zM5.08.5A4.58 4.58 0 0 0 .5 5.08v24.23a4.58 4.58 0 0 0 4.58 4.58h102.58a4.58 4.58 0 0 0 4.58-4.58V5.08A4.58 4.58 0 0 0 107.66.5z" fill="#18b2d6"/><rect x=".25" y="81.39" width="112.23" height="33.89" rx="4.83" ry="4.83" fill="#fff"/><path d="M107.66 115.53H5.08A5.08 5.08 0 0 1 0 110.45V86.21a5.08 5.08 0 0 1 5.08-5.08h102.58a5.08 5.08 0 0 1 5.08 5.08v24.24a5.08 5.08 0 0 1-5.08 5.08zM5.08 81.64A4.58 4.58 0 0 0 .5 86.21v24.24A4.58 4.58 0 0 0 5.08 115h102.58a4.58 4.58 0 0 0 4.58-4.58V86.21a4.58 4.58 0 0 0-4.58-4.58z" fill="#18b2d6"/><rect x="303.15" y="39.87" width="112.23" height="33.89" rx="4.83" ry="4.83" fill="#fff"/><path d="M410.56 74H308a5.08 5.08 0 0 1-5.08-5.08V44.69a5.08 5.08 0 0 1 5.08-5.07h102.56a5.08 5.08 0 0 1 5.08 5.08v24.23a5.08 5.08 0 0 1-5.08 5.07zM308 40.12a4.58 4.58 0 0 0-4.58 4.58v24.23a4.58 4.58 0 0 0 4.58 4.58h102.56a4.58 4.58 0 0 0 4.58-4.58V44.69a4.58 4.58 0 0 0-4.58-4.58z" fill="#18b2d6"/><rect x="442.87" y="39.87" width="112.23" height="33.89" rx="4.83" ry="4.83" fill="#fff"/><path d="M550.27 74H447.7a5.08 5.08 0 0 1-5.08-5.08V44.69a5.08 5.08 0 0 1 5.08-5.08h102.57a5.08 5.08 0 0 1 5.08 5.08v24.24a5.08 5.08 0 0 1-5.08 5.07zM447.7 40.12a4.58 4.58 0 0 0-4.58 4.58v24.23a4.58 4.58 0 0 0 4.58 4.58h102.57a4.58 4.58 0 0 0 4.58-4.58V44.69a4.58 4.58 0 0 0-4.58-4.58z" fill="#18b2d6"/><rect x="582.34" y="40.13" width="112.23" height="33.89" rx="4.83" ry="4.83" fill="#fff"/><path d="M689.75 74.27H587.17a5.08 5.08 0 0 1-5.08-5.08V45a5.08 5.08 0 0 1 5.08-5.08h102.58a5.08 5.08 0 0 1 5.08 5.08v24.2a5.08 5.08 0 0 1-5.08 5.07zM587.17 40.38a4.58 4.58 0 0 0-4.58 4.62v24.2a4.58 4.58 0 0 0 4.58 4.58h102.58a4.58 4.58 0 0 0 4.58-4.58V45a4.58 4.58 0 0 0-4.58-4.58zM139.3 98.58h-1.54v-.5h1v-3.45h.5zm-4.54 0h-5v-.5h5zm-8 0h-5v-.5h5zm-8 0h-5v-.5h5zm20.54-7h-.5v-5h.5zm0-8h-.5v-5h.5zm0-8h-.5v-5h.5zm0-8h-.5v-5h.5zm0-8h-.5v-5h.5zm0-8h-.5v-5h.5zm0-8h-.5v-5h.5zm0-8h-.5v-5h.5zm0-8h-.5v-5h.5zm0-8h-.5v-2.13h-2.32v-.5h2.82zm-5.82-2.18h-5v-.5h5zm-8 0h-5v-.5h5zm-8 0h-5v-.5h5z" fill="#18b2d6"/><path fill="#fff" d="M139.05 56.81h21.47"/><path d="M160.05 57.06h-5v-.5h5zm-8 0h-5v-.5h5zm-8 0h-5v-.5h5z" fill="#18b2d6"/><path fill="#fff" d="M279.13 56.81h21.46"/><path d="M300.13 57.06h-5v-.5h5zm-8 0h-5v-.5h5zm-8 0h-5v-.5h5z" fill="#18b2d6"/><path fill="#fff" d="M418.4 56.81h21.46"/><path d="M439.4 57.06h-5v-.5h5zm-8 0h-5v-.5h5zm-8 0h-5v-.5h5z" fill="#18b2d6"/><path fill="#fff" d="M557.99 56.81h21.46"/><path d="M579 57.06h-5v-.5h5zm-8 0h-5v-.5h5zm-8 0h-5v-.5h5z" fill="#18b2d6"/><path d="M44.84 21.34v-6.66h.83v6.67zM46.83 20.4l.49-.63a2.82 2.82 0 0 0 2.1.95c1.19 0 1.57-.64 1.57-1.15C51 17.85 47 18.8 47 16.42c0-1.1 1-1.85 2.29-1.85a3.13 3.13 0 0 1 2.37.93l-.5.61a2.55 2.55 0 0 0-1.93-.8c-.8 0-1.37.43-1.37 1.06 0 1.5 3.95.64 3.95 3.13 0 1-.66 2-2.46 2a3.3 3.3 0 0 1-2.52-1.1zM52.69 20.4l.49-.63a2.82 2.82 0 0 0 2.1.95c1.19 0 1.57-.64 1.57-1.15 0-1.72-3.95-.77-3.95-3.15 0-1.1 1-1.85 2.29-1.85a3.13 3.13 0 0 1 2.37.93l-.5.61a2.55 2.55 0 0 0-1.93-.8c-.8 0-1.37.43-1.37 1.06 0 1.5 3.95.64 3.95 3.13 0 1-.66 2-2.46 2a3.3 3.3 0 0 1-2.56-1.1zM58.94 18.75v-4.07h.83v4.06a1.89 1.89 0 1 0 3.78 0v-4.06h.83v4.07a2.72 2.72 0 0 1-5.44 0zM65.94 21.34v-6.66h4.37v.74h-3.54v2.15h3.47v.74h-3.47v2.3h3.54v.74zM71.63 21.34v-6.66h2.28A3.24 3.24 0 0 1 77.33 18a3.23 3.23 0 0 1-3.42 3.33zM76.47 18a2.44 2.44 0 0 0-2.56-2.6h-1.45v5.2h1.45a2.45 2.45 0 0 0 2.56-2.6zM81.21 21.34v-6.66h2.68a2 2 0 1 1 0 4H82v2.65zm3.91-4.66a1.24 1.24 0 0 0-1.33-1.27H82V18h1.75a1.24 1.24 0 0 0 1.37-1.32zM86.81 18a3.31 3.31 0 1 1 6.62 0 3.31 3.31 0 1 1-6.62 0zm5.76 0a2.46 2.46 0 1 0-4.9 0 2.46 2.46 0 1 0 4.9 0z" fill="#141414"/><path fill="none" stroke="#8c8c8c" stroke-miterlimit="10" stroke-width=".75" d="M18.78 8.14h16.11v16.11H18.78z"/><path fill="none" stroke="#8c8c8c" stroke-miterlimit="10" stroke-width=".75" d="M27.19 12.82l3.38 3.38-3.38 3.37M30.57 16.2h-8.43"/><path d="M45.38 96.13v-6.67h2.68a2 2 0 1 1 0 4H46.2v2.65zm3.91-4.66A1.24 1.24 0 0 0 48 90.2h-1.8v2.54H48a1.24 1.24 0 0 0 1.28-1.27zM51.25 93.54v-4.08h.83v4.06a1.89 1.89 0 1 0 3.78 0v-4.06h.83v4.07a2.72 2.72 0 0 1-5.44 0zM62.1 96.13l-1.7-2.65h-1.33v2.65h-.83v-6.67h2.68a1.94 1.94 0 0 1 2.09 2 1.84 1.84 0 0 1-1.73 1.94l1.8 2.72zm0-4.66a1.24 1.24 0 0 0-1.33-1.27h-1.7v2.55h1.75a1.25 1.25 0 0 0 1.33-1.28zM64.05 92.8a3.33 3.33 0 0 1 3.43-3.45A3 3 0 0 1 70 90.67l-.7.39a2.25 2.25 0 0 0-1.83-1 2.71 2.71 0 0 0 0 5.42 2.22 2.22 0 0 0 1.83-1l.71.39a3 3 0 0 1-2.54 1.32 3.33 3.33 0 0 1-3.42-3.39zM75.81 96.13v-3.06h-3.9v3.06h-.83v-6.67h.83v2.87h3.9v-2.87h.83v6.67zM83 96.13l-.59-1.48h-3.36l-.59 1.48h-.95l2.68-6.67h1l2.69 6.67zm-2.25-5.81l-1.42 3.59h2.83zM84.24 95.19l.49-.63a2.82 2.82 0 0 0 2.1.95c1.19 0 1.57-.64 1.57-1.15 0-1.72-3.95-.77-3.95-3.15 0-1.1 1-1.85 2.29-1.85a3.13 3.13 0 0 1 2.37.93l-.5.61a2.55 2.55 0 0 0-1.93-.8c-.8 0-1.37.43-1.37 1.06 0 1.5 3.95.64 3.95 3.13 0 1-.66 2-2.46 2a3.3 3.3 0 0 1-2.56-1.1zM90.5 96.13v-6.67h4.37v.74h-3.54v2.15h3.47v.74h-3.47v2.3h3.54v.74zM49.23 108.13l-1.7-2.65H46.2v2.65h-.83v-6.67h2.68a1.94 1.94 0 0 1 2.09 2 1.84 1.84 0 0 1-1.73 1.94l1.8 2.72zm.05-4.66A1.24 1.24 0 0 0 48 102.2h-1.8v2.55H48a1.25 1.25 0 0 0 1.28-1.28zM51.46 108.13v-6.67h4.37v.74h-3.55v2.15h3.47v.74h-3.47v2.3h3.54v.74zM56.87 104.8a3.33 3.33 0 0 1 3.43-3.45 3 3 0 0 1 2.53 1.32l-.7.39a2.25 2.25 0 0 0-1.83-1 2.71 2.71 0 0 0 0 5.42 2.22 2.22 0 0 0 1.83-1l.71.39a3 3 0 0 1-2.54 1.32 3.33 3.33 0 0 1-3.43-3.39zM63.9 108.13v-6.67h4.37v.74h-3.54v2.15h3.47v.74h-3.47v2.3h3.54v.74zM69.59 108.13v-6.67h.83v6.67zM74 108.13l-2.68-6.67h.95l2.25 5.76 2.25-5.76h.95L75 108.13zM78.56 108.13v-6.67h4.37v.74h-3.54v2.15h3.47v.74h-3.47v2.3h3.54v.74z" fill="#141414"/><path fill="none" stroke="#e0bb20" stroke-miterlimit="10" stroke-width=".75" d="M36.43 106.39H20.32v-11l2-5.11h12.11l2 5.11v11z"/><path fill="none" stroke="#e0bb20" stroke-miterlimit="10" stroke-width=".75" d="M32.16 98.33l-4.18 4.18-2.23-2.23M20.32 95.39h16.11"/><path d="M216.51 60.87l-3.89-5.32v5.32h-.83V54.2h.85l3.84 5.21V54.2h.83v6.67zM218.88 60.87V54.2h4.37v.74h-3.55v2.15h3.47v.74h-3.47v2.3h3.54v.74zM229.66 60.87l-1.47-5.38-1.47 5.38h-.9l-1.9-6.67h.92l1.48 5.56 1.53-5.56h.69l1.53 5.56 1.47-5.56h.92l-1.9 6.67zM236 60.87V54.2h3a1.68 1.68 0 0 1 1.87 1.7 1.52 1.52 0 0 1-1.17 1.53 1.66 1.66 0 0 1 1.3 1.64 1.74 1.74 0 0 1-1.93 1.8zm4-4.87a1 1 0 0 0-1.15-1.08h-2v2.15h2A1 1 0 0 0 240 56zm.13 3a1.13 1.13 0 0 0-1.24-1.15h-2v2.3h2a1.1 1.1 0 0 0 1.19-1.15zM242.27 60.87V54.2h.83v6.67zM244.66 60.87V54.2h.83v5.93h3.1v.74zM249.76 60.87V54.2h.83v5.93h3.1v.74z" fill="#141414"/><path fill="none" stroke="#0ead12" stroke-miterlimit="10" stroke-width=".75" d="M204.53 49.36h-14.06v15.57l1.94-2 1.72 2 1.87-2 1.5 2 1.58-2 1.72 2 1.73-2 2 2V49.36zM195.51 60.14h3.71"/><path d="M199.49 52.21h-2.55a1.08 1.08 0 0 0-1.08 1.08 1.08 1.08 0 0 0 1.08 1.08H198a1.21 1.21 0 0 1 1.21 1.21 1.21 1.21 0 0 1-1.21 1.2h-2.63M197.5 51.05v6.82M190.04 47.84v-2.6M189.12 48.63l-2.36-2.01M188.39 49.64l-2.57.13" fill="none" stroke="#0ead12" stroke-miterlimit="10" stroke-width=".75"/><path d="M356.52 56.47a3.31 3.31 0 1 1 3.31 3.45 3.25 3.25 0 0 1-3.31-3.45zm5.76 0a2.46 2.46 0 1 0-2.45 2.71 2.47 2.47 0 0 0 2.45-2.71zM364.44 59.8v-6.67h2.68a2 2 0 1 1 0 4h-1.85v2.67zm3.91-4.66a1.24 1.24 0 0 0-1.35-1.27h-1.75v2.54H367a1.24 1.24 0 0 0 1.35-1.27zM370.31 59.8v-6.67h4.37v.74h-3.54V56h3.47v.74h-3.47v2.3h3.54v.74zM380.72 59.8l-3.89-5.32v5.32H376v-6.67h.85l3.84 5.21v-5.21h.83v6.67z" fill="#141414"/><path fill="none" stroke="#2187cc" stroke-miterlimit="10" stroke-width=".75" d="M336.24 48.25h13.82v17.11h-13.82z"/><path fill="none" stroke="#2187cc" stroke-miterlimit="10" stroke-width=".75" d="M336.24 48.26l9.06 2.98v11.58l-9.06 2.55M342.42 55.98v1.85"/><path d="M493.9 53.62L492.2 51h-1.33v2.65H490V47h2.68a1.94 1.94 0 0 1 2.09 2 1.84 1.84 0 0 1-1.73 1.94l1.8 2.72zm.05-4.66a1.24 1.24 0 0 0-1.33-1.27h-1.75v2.55h1.75a1.25 1.25 0 0 0 1.33-1.24zM496.12 53.62V47h4.37v.74h-3.54v2.15h3.47v.74h-3.47v2.3h3.54v.74zM501.54 50.29a3.33 3.33 0 0 1 3.46-3.45 3 3 0 0 1 2.53 1.32l-.7.39a2.25 2.25 0 0 0-1.83-1 2.71 2.71 0 0 0 0 5.45 2.22 2.22 0 0 0 1.83-1l.71.39a3 3 0 0 1-2.54 1.35 3.33 3.33 0 0 1-3.46-3.45zM508.3 50.29a3.31 3.31 0 1 1 3.31 3.45 3.25 3.25 0 0 1-3.31-3.45zm5.76 0a2.46 2.46 0 1 0-2.45 2.71 2.47 2.47 0 0 0 2.44-2.71zM520.08 53.62l-1.7-2.62H517v2.65h-.83V47h2.68a1.94 1.94 0 0 1 2.15 2 1.84 1.84 0 0 1-1.73 1.94l1.8 2.72zm.05-4.66a1.24 1.24 0 0 0-1.33-1.27H517v2.55h1.75a1.25 1.25 0 0 0 1.38-1.24zM522.3 53.62V47h2.28a3.33 3.33 0 1 1 0 6.67zm4.84-3.33a2.44 2.44 0 0 0-2.56-2.6h-1.45v5.19h1.45a2.45 2.45 0 0 0 2.55-2.59zM490 65.62V59h2.68a2 2 0 1 1 0 4h-1.85v2.65zm3.95-4.62a1.24 1.24 0 0 0-1.33-1.27h-1.75v2.54h1.75a1.24 1.24 0 0 0 1.33-1.27zM499.9 65.62l-.59-1.48H496l-.59 1.48h-.95l2.67-6.62h1l2.69 6.67zm-2.25-5.81l-1.42 3.59h2.83zM503 65.62V62.8l-2.6-3.8h1l2.07 3.1 2.07-3.1h1l-2.62 3.85v2.82zM513 65.62v-5.49l-2.27 5.49h-.34l-2.26-5.49v5.49h-.83V59h1.19l2.07 5 2.08-5h1.19v6.67zM515.44 65.62V59h4.37v.74h-3.54v2.15h3.47v.74h-3.47v2.3h3.54v.74zM525.85 65.62L522 60.3v5.32h-.83V59h.83l3.84 5.21V59h.83v6.67zM529.86 65.62v-5.93h-2.11V59h5.06v.74h-2.12v5.93z" fill="#141414"/><path d="M473.47 63.24a8.54 8.54 0 1 1 5.23-5.94M472.9 52.52h-3.12a1.32 1.32 0 0 0-1.32 1.32 1.32 1.32 0 0 0 1.32 1.32h1.31a1.47 1.47 0 0 1 1.47 1.47 1.47 1.47 0 0 1-1.47 1.47h-3.2M470.47 51.1v8.31" fill="none" stroke="#0ead12" stroke-miterlimit="10" stroke-width=".75"/><circle cx="477" cy="61.04" r="3.61" fill="none" stroke="#d32929" stroke-miterlimit="10" stroke-width=".75"/><circle cx="477" cy="61.04" r="1.39" fill="#d32929"/><path d="M639.52 60.35v-6.66h2.68a2 2 0 1 1 0 4h-1.85v2.65zm3.91-4.66a1.24 1.24 0 0 0-1.33-1.27h-1.75V57h1.75a1.24 1.24 0 0 0 1.33-1.3zM649.38 60.35l-.59-1.48h-3.32l-.59 1.48h-.95l2.68-6.67h1l2.69 6.67zm-2.25-5.81l-1.42 3.59h2.83zM651.2 60.35v-6.66h.8v6.67zM653.59 60.35v-6.66h2.28a3.33 3.33 0 1 1 0 6.67zm4.84-3.35a2.44 2.44 0 0 0-2.56-2.6h-1.45v5.19h1.45a2.45 2.45 0 0 0 2.56-2.59z" fill="#141414"/><path d="M622.65 64.94a8.54 8.54 0 1 1 6.14-5.63M623.17 53.89h-3.12a1.32 1.32 0 0 0-1.32 1.32 1.32 1.32 0 0 0 1.32 1.32h1.31a1.47 1.47 0 0 1 1.47 1.47 1.47 1.47 0 0 1-1.47 1.47h-3.2M620.74 52.46v8.32" fill="none" stroke="#0ead12" stroke-miterlimit="10" stroke-width=".75"/><circle cx="627.12" cy="63.76" r="4.33" fill="#0ead12"/><path fill="none" stroke="#fff" stroke-miterlimit="10" stroke-width=".5" d="M625.46 63.77l1.21 1.21 2.36-2.36"/><path fill="#18b2d6" d="M160.52 53.69v5.62l2.81-2.81-2.81-2.81zM299.99 53.69v5.62l2.81-2.81-2.81-2.81zM439.46 53.69v5.62l2.81-2.81-2.81-2.81zM578.93 53.69v5.62l2.81-2.81-2.81-2.81z"/></svg>