<?xml version="1.0" encoding="utf-8"?>
<!-- Generator: Adobe Illustrator 22.1.0, SVG Export Plug-In . SVG Version: 6.00 Build 0)  -->
<svg version="1.1" id="Layer_1" xmlns="http://www.w3.org/2000/svg" xmlns:xlink="http://www.w3.org/1999/xlink" x="0px" y="0px"
	 viewBox="0 0 114 114" style="enable-background:new 0 0 114 114;" xml:space="preserve">
<style type="text/css">
	.st0{fill:#E4F4FE;}
	.st1{fill:#FFFFFF;}
	.st2{fill:#9ECDF1;}
	.st3{fill:#0D83DD;}
	.st4{fill:#EFC100;}
	.st5{fill:#E7A800;}
	.st6{fill:#E09200;}
	.st7{fill:#E8AA00;}
	.st8{fill:#CFE6F8;}
	.st9{fill:#949B00;}
</style>
<circle class="st0" cx="57.3" cy="56.1" r="49.6"/>
<g>
	<path class="st1" d="M58.9,56.5c1.7,1.3,6.7-2.1,11-6.8c4.3-4.7,7.3-9.2,5.3-11.5c-1.6-1.9-3.2-0.6-4.2-1.5
		c-4.5-4.2-13.4-12.4-17.4-15.9c-0.7-0.6-0.4-2.5-1.4-3.5c-1.9-1.9-8,2.5-11.5,6.3c-3.5,3.8-7.2,9.2-5.2,11.4
		c0.6,0.6,2.6,0.4,3.6,1.4c4,3.8,13.2,12.1,17.8,16.3C58.1,53.9,57.2,55.2,58.9,56.5"/>
	<path class="st2" d="M74.6,43.8c-1.1,1.8-2.7,3.8-4.6,5.8c-0.1,0.1-0.1,0.2-0.2,0.2c-2.2,2.4-4.5,4.4-6.5,5.6
		c-1.4,0.9-2.6,1.4-3.5,1.4c-0.4,0-0.7-0.1-0.9-0.3c-1.7-1.4-0.8-2.6-1.9-3.7c-1.7-1.6-4.1-3.7-6.6-5.9l-2.9,3.5l0,0L36.6,63.7
		c-0.7-0.3-1.3-0.6-1.9-1l-2.2,2.4l0,0L10.1,89.6c-1.8,2-1.7,5.1,0.3,6.9c0.9,0.9,2.1,1.3,3.3,1.3c1.3,0,2.7-0.5,3.6-1.6l0.2-0.2
		l20.8-25.5h0l13.9-17c2.5,2.2,4.8,4.4,6.5,5.9c1.2,1.1,0.3,2.3,1.9,3.7c0.2,0.2,0.6,0.3,0.9,0.3c2.2,0,6.4-3.1,10.1-7.1
		c4.3-4.7,7.3-9.2,5.3-11.5C76.2,43.9,75.3,43.8,74.6,43.8 M38.2,36c-1.4,2.3-2,4.5-0.9,5.7c0.6,0.6,2.6,0.4,3.6,1.4
		c0.6,0.6,1.3,1.2,2.1,1.9l2.4-2.7c-2.5-2.3-4.8-4.4-6.4-5.9C38.9,36.3,38.6,36.1,38.2,36"/>
	<path class="st3" d="M36.7,63.7L15.9,89.2l-0.2,0.2c-1.8,2-4.9,2.1-6.9,0.3c-2-1.8-2.1-4.9-0.3-6.9l22.4-24.4
		C31.8,60,33.7,62.5,36.7,63.7z"/>
	<path class="st4" d="M42.3,45.9l5.2,4.5L36.6,63.7c-3-1.2-4.8-3.7-5.8-5.4L42.3,45.9"/>
	<polyline class="st4" points="56.3,39.6 47.5,50.4 42.3,45.9 53,34.3 56.3,39.6 	"/>
	<path class="st5" d="M42.3,45.9c0,0,0.5,1.6,1.9,2.8c1.6,1.4,3.2,1.7,3.2,1.7L42.3,45.9 M42.3,45.9L42.3,45.9L42.3,45.9L42.3,45.9"
		/>
	<path class="st5" d="M45.5,42.4l-3.2,3.5l0,0l0,0l5.2,4.5l0,0l2.9-3.5C48.8,45.4,47.1,43.9,45.5,42.4"/>
	<path class="st4" d="M58.9,56.5c1.7,1.3,6.7-2.1,11-6.8c4.3-4.7,7.3-9.2,5.3-11.5c-1.6-1.9-3.2-0.6-4.2-1.5
		c-4.5-4.2-13.4-12.4-17.4-15.9c-0.7-0.6-0.4-2.5-1.4-3.5c-1.9-1.9-8,2.5-11.5,6.3c-3.5,3.8-7.2,9.2-5.2,11.4
		c0.6,0.6,2.6,0.4,3.6,1.4c4,3.8,13.2,12.1,17.8,16.3C58.1,53.9,57.2,55.2,58.9,56.5"/>
	<path class="st4" d="M49.4,71.6c0.1,1.6,9.6,2.6,21.2,2.3c11.7-0.4,21.1-2,21.1-3.6c-0.1-1.6-9.6-2.6-21.2-2.3
		C58.8,68.4,49.4,70,49.4,71.6"/>
	<path class="st4" d="M49.7,81c0.1,1.6,9.6,3.1,21.2,2.7s21.1-2.4,21.1-4c-0.1-1.6-9.6-2.6-21.2-2.3C59.1,77.8,49.7,79.4,49.7,81z"
		/>
	<polyline class="st4" points="91.7,70.3 92,79.7 49.7,81 49.4,71.6 91.7,70.3 	"/>
	<path class="st6" d="M89,71.8c-3.1,0.3-6.1,0.4-9.1,0.6c-3,0.1-6,0.2-9.1,0.3c-3,0.1-6,0.2-9.1,0.3c-2.1,0-4.1,0.1-6.2,0.1
		c-1,0-2,0-3,0c2.9,1,6,1.4,9.1,1.7c2.2,0.2,4.3,0.3,6.5,0.3c0.9,0,1.8,0,2.7,0c3.1-0.1,6.1-0.4,9.2-0.8C83.1,73.7,86.1,73,89,71.8"
		/>
	<path class="st7" d="M68.6,36c-1.6,0.3-3.1,1-4.4,1.8c-1.4,0.8-2.6,1.9-3.7,3.1c-1.1,1.2-2,2.6-2.7,4c-0.7,1.4-1.2,3-1.4,4.6
		c1-1.2,2-2.5,2.9-3.7c1-1.2,1.9-2.4,2.9-3.4c1-1.1,2.1-2.1,3.1-3.2L68.6,36"/>
	<path class="st7" d="M51,21c-1.6,0.3-3.1,1.1-4.4,2c-1.3,0.9-2.5,2-3.6,3.1c-1.1,1.2-2,2.5-2.8,3.9c-0.8,1.4-1.4,2.9-1.6,4.5l3-3.5
		l3-3.4c1-1.1,2-2.2,3.1-3.3C48.9,23.2,49.9,22.2,51,21"/>
	<path class="st8" d="M82.9,51.9c0.4-1,0.8-2,1.4-2.9c0.5-0.9,1.1-1.8,1.7-2.7c0.6-0.9,1.2-1.7,1.9-2.5c0.7-0.8,1.4-1.6,2.2-2.3
		c-0.4,1-0.8,2-1.4,2.9c-0.5,0.9-1.1,1.8-1.7,2.7c-0.6,0.9-1.2,1.7-1.9,2.5C84.4,50.4,83.7,51.2,82.9,51.9z"/>
	<path class="st8" d="M83.2,54.8c1.3-0.6,2.6-1,4-1.4c1.3-0.4,2.7-0.8,4-1.1c1.4-0.3,2.7-0.6,4.1-0.8c1.4-0.2,2.8-0.4,4.2-0.4
		c-1.3,0.6-2.6,1-4,1.5c-1.3,0.4-2.7,0.8-4,1.1c-1.4,0.3-2.7,0.6-4.1,0.8C86,54.6,84.7,54.7,83.2,54.8z"/>
	<path class="st8" d="M83.9,59.6c1-0.1,2,0,2.9,0.1c1,0.1,1.9,0.3,2.8,0.5c0.9,0.2,1.9,0.5,2.8,0.8c0.9,0.3,1.8,0.6,2.7,1.1
		c-1,0.1-2,0-2.9-0.1c-1-0.1-1.9-0.3-2.8-0.5c-0.9-0.2-1.9-0.5-2.8-0.8C85.7,60.4,84.8,60.1,83.9,59.6z"/>
	<path class="st9" d="M70,49.6c0,0-0.1,0.1-0.1,0.1c-2.2,2.3-4.6,4.4-6.6,5.7c1.9-1.2,4.2-3.1,6.5-5.6C69.8,49.8,69.9,49.7,70,49.6"
		/>
	<path class="st6" d="M74.4,38.3c-2,0-6,2.7-9.8,6.8c-4.5,4.9-7,9.9-5.6,11.2c0.2,0.2,0.5,0.3,0.9,0.3c0.8,0,2-0.5,3.3-1.3
		c2-1.3,4.4-3.3,6.6-5.7c0,0,0.1-0.1,0.1-0.1c4.4-4.8,6.8-9.7,5.4-11C75.1,38.4,74.8,38.3,74.4,38.3"/>
</g>
</svg>
