<svg width="680" height="520" viewBox="0 0 680 520" fill="none" xmlns="http://www.w3.org/2000/svg"><path d="M95.946 218.861s-1.486-5.6.991-6.096c2.478-.496 7.583-1.15 7.583-1.15l155.897.327 53.234.664s6.096-.495 7.414.665c1.318 1.149 2.468 3.627 2.468 6.096 0 2.468-.823 125.419-.496 125.914.328.496.992 5.938-5.768 5.938s-117.996-1.15-117.996-1.15l-11.537 29.003 6.096-2.964 54.711 6.76-.169 1.646-66.416 17.138-24.719-3.301s-4.619-1.487-3.459-6.264c1.149-4.778 16.482-42.524 16.482-42.524l-67.239-1.149-4.777-.496-2.468-2.637.168-126.42z" fill="#DEE1E9"/><path d="M427.633 322.146h64.424s6.353-20.449 13.401-32.819c7.047-12.371 18.722-32.304 22.33-39.689 3.608-7.384 8.078-26.455 8.078-26.455l-52.739 22.163-10.992 5.502s-3.954 3.608-6.353 9.278c-2.399 5.669-18.039 29.211-18.039 29.211l-20.11 32.809zm18.376-148.098l40.717 9.625 24.223 7.384-21.131 7.048-18.039 5.67-20.963-1.715s2.924-8.931-9.961-13.917l5.154-14.095zm-37.963-7.563s-1.546 13.57-4.292 18.387c0 0-17.008.169-24.055 7.563 0-.01-1.377-27.496 28.347-25.95z" fill="#7A88A7"/><path d="M367.668 127.471l-.218 22.708-26.682-.218-9.039.437 45.86 43.663s10.14-10.586 24.69-8.376l-4.193 9.258s1.764 19.408-2.864 27.338c2.2 0 6.839-5.511 6.839-5.511s10.367-8.158 16.314-9.258l10.585-6.84 8.821-7.057 1.547-5.511s13.063.991 11.487 13.946l20.963 1.715s14.074-4.203 27.524-8.386c13.45-4.193 34.175-10.586 41.896-11.686l-43.214-13.005s5.728-15.88 9.921-20.29c0 0 34.839 4.41 52.035 9.039 17.196 4.629 34.611 7.276 33.293 17.416-1.319 10.14-12.122 20.727-26.682 29.102-14.56 8.376-54.235 27.12-54.235 27.12l-35.493 14.115-9.922 10.586-7.721 15.652-33.956 48.728H323.572V301.43s8.157-11.251 10.803-16.316c2.647-5.075 6.839-14.333 6.611-18.744-.218-4.411-3.528-14.333-.436-23.155 3.083-8.821 7.721-17.197 7.721-17.197s-25.353-26.684-37.257-47.41c-11.904-20.727-25.354-46.3-17.196-53.358 8.157-7.057 26.017-5.511 32.41-5.075 6.393.436 41.44 7.296 41.44 7.296z" fill="#DFCAFA"/><path d="M339.133 359.585s.485 9.178 2.686 10.487c0 0-1.14 13.817 3.092 18.853 4.232 5.035 9.267 6.661 12.598 6.423 3.33-.248 12.111-2.597 12.111-2.597l7.563 3.251 5.194 3.787s-5.759-.774-7.959-1.428c0 0-3.658 4.471-3.737 9.506 0 0 12.27 5.125 19.099 5.937 6.829.813 17.068 1.874 26.494.813 14.203-1.596 29.357-6.334 39.883-16.385 6.106-5.838 10.546-13.619 11.478-22.015 1.199-10.784-3.925-20.568-12.608-26.792-13.301-9.526-31.458-14.314-47.614-15.602-8.128-.654-14.957-.159-24.303 2.845-9.347 3.003-16.413 7.801-19.991 11.21-3.578 3.41-10.972 11.707-10.972 11.707l-5.125 2.844-7.889-2.844z" fill="#F99CB7"/><path d="M369.611 392.751s-8.772 2.359-12.112 2.597-8.375-1.378-12.598-6.423a5.592 5.592 0 0 1-.337-.446c.595 1.169 1.279 2.18 2.062 2.884.149.129.297.248.446.357l.04.04c.386.386 3.598 3.499 6.561 3.578.595.02 1.378.03 2.27.05 3.221.049 7.85.049 10.159-.169.446-.04.803-.089 1.051-.149.356-.079.991-.079 1.794-.01.019 0 .049 0 .069.01.248.02.505.05.783.08.347.039.704.089 1.08.138.288.04.575.08.873.129.396.06.802.129 1.209.189.644.109 1.288.218 1.903.327.059.01.119.02.188.029 1.08.199 2.052.387 2.805.536l-.694-.506-7.552-3.241z" fill="#CFE9FF"/><path d="M170.271 349.553l-72.017-1.645-2.626-2.637V327.31c-27.743 2.023-48.824 7.008-32.103 22.154 23.54 21.331 58.893 20.231 89.758 22.739 2.616.208 5.233.466 7.83.773l9.158-23.423z" fill="#D9CFE2" fill-opacity=".5"/><path d="M365.18 397.757l2.537-.556 8.92 1.477.03.189c2.528.485 5.689.912 5.689.912l-14.391-2.984-2.785.962z" fill="#DDF0FF"/><path d="M635.336 348.87c-7.483-9.794-33.639-13.858-45.146-15.057-54.642-5.67-197.952-7.96-267.303-8.772l.149 20.221-.743 3.925-3.063 1.943-119.958-1.101-11.042 27.774c.446.119.892.228 1.329.347l4.271-2.081s50.866 6.205 51.699 6.205c.832 0 2.854 2.2 2.854 2.2l-43.719 10.814c-5.898 8.931-7.612 22.858 7.741 26.644 17.731 4.372 154.945 13.422 197.763 10.497 42.817-2.924 143.656.813 147.859-16.939 3.727-15.781-12.459-22.214-30.993-24.86-28.793-4.114-44.671-19.418-26.969-20.419 17.702-.992 53.67-3.886 81.085-4.937 27.415-1.05 61.669-6.611 54.186-16.404zm-181.617 51.84c-8.514 7.891-28.04 12.837-37.466 13.897-9.425 1.061-19.664 0-26.493-.812-4.52-.536-11.428-2.964-15.571-4.54l-.089.228-6.542-2.459s-4.995-3.925-5.322-4.093c-.327-.169-.327-1.388-.327-1.388l.248-1.883 1.526-1.388-.951.327-.427.476-1.199 1.338-83.514-14.571.089-6.155 24.71-6.146 12.389-3.083 1.388-.247 1.684-.298 7.692 1.299 15.382 2.597s.327 3.459 1.219 7.394c-.792-5.422-.317-11.131-.317-11.131-2.19-1.299-2.686-10.487-2.686-10.487l7.88 2.844 5.124-2.844s7.394-8.287 10.972-11.707c3.578-3.409 10.645-8.207 19.992-11.21 9.346-3.004 16.175-3.499 24.302-2.845 8.128.654 16.414 2.686 26.494 5.442 10.08 2.765 17.305 8.048 22.429 11.052 5.125 3.003 6.75 7.315 6.75 7.315 11.19 14.551 1.764 32.76-9.366 43.078z" fill="#D9CFE2" fill-opacity=".5"/><path d="M394.706 223.094l10.962-8.446 10.635-6.899 14.253-8.227 7.225-5.907 11.627-27.308.109-3.945 6.145-3.509 42.312 11.835 3.617-9.536 6.304-10.755-41.39-6.125-7.345-7.999-6.789-.337-8.008-4.055-7.999-17.425-6.908-16.335-12.161 5.699-4.827 6.8-6.364 12.598-4.658 12.232-33.778-7.979-.258 23.105 32.559 3.618 3.727 4.55 4.549 3.727.218 4.054-1.149 6.908-7.176 18.744-2.25 4.005.386 5.045-.218 8.217-1.318 8-2.032 5.65zm-24.044 184.773l3.736-9.506 7.156.912s-2.309-2.547-2.349-2.577c-.198-.218-1.427-.149-1.734-.208-.961-.169-1.933-.337-2.904-.486a93.283 93.283 0 0 0-5.977-.704 91.271 91.271 0 0 0-8.236-.307c-2.637.02-5.501.496-8.068-.238-1.854-.525-3.42-1.705-4.886-2.914-1.457-1.199-2.181-3.053-3.033-4.689-1.011-1.942-2.052-3.974-2.33-6.175-.307-2.428-.614-4.847-.931-7.275l-16.77-2.796-6.492-.981-3.073.545-35.572 8.574-1.527.655-.039 4.856.555 2.142c.961.148 1.913.297 2.874.455 2.557.407 5.124.813 7.682 1.21l11.11 1.754a5982.7 5982.7 0 0 0 13.153 2.072c4.609.724 9.208 1.457 13.816 2.181 4.361.684 8.722 1.377 13.083 2.061 3.658.575 7.325 1.15 10.982 1.735 2.498.396 4.996.783 7.484 1.18.594.089 1.189.188 1.784.277.158.03.376.02.525.079.733.298.991 1.804 1.278 2.558.09.228.179.466.337.654.139.168.318.297.486.416 1.982 1.408 3.965 2.825 5.947 4.233l1.933.307z" fill="#fff"/><path d="M278.981 380.489a.5.5 0 0 0 .406.575l69.519 11.588a17.664 17.664 0 0 1-1.873-1.319l-67.478-11.24a.475.475 0 0 0-.574.396zm85.486 13.739c-.703.258-1.417.476-2.16.644l16.899 2.815v-1.001l-14.739-2.458z" fill="#45567C"/><path d="M362.077 399.481l-40.31-6.7-22.35-3.698-11.17-1.853-5.59-.922-2.795-.466-.694-.119c-.208-.04-.535-.079-.595-.109a.6.6 0 0 1-.396-.555l-.01-2.835v-1.943c0-.029 0-.059.01-.089a.577.577 0 0 1 .159-.297.394.394 0 0 1 .138-.089c.03-.01.05-.02.08-.03l.168-.04.684-.168 1.378-.337 2.745-.684 10.992-2.726 10.992-2.726 5.501-1.348 2.755-.664c.932-.208 1.834-.496 2.696-.565.902-.089 1.744-.02 2.676.158l2.795.466 5.59.922 11.17 1.854 2.924.485v-1.258l-2.726-.437-11.19-1.764-5.59-.882-2.795-.446c-.921-.169-1.972-.268-2.953-.149-1.021.109-1.923.407-2.835.615l-2.745.684-5.501 1.348-11.002 2.686-11.002 2.686-2.755.674-1.378.337-.684.169-.178.039c-.089.02-.169.05-.258.09a1.613 1.613 0 0 0-.951 1.209c-.01.089-.02.178-.02.267v1.953l-.01 2.835a1.734 1.734 0 0 0 1.14 1.626c.386.119.535.109.793.168l.694.119 2.785.486 5.58.971 11.16 1.953 22.311 3.895 40.587 7.058c-.02-.436-.03-.872-.03-1.309 0-.188.01-.366.01-.545z" fill="#45567C"/><path d="M662.504 321.036H496.775c7.691-22.917 17.087-39.044 25.552-53.546 8.206-14.065 15.303-26.217 18.861-41.244.416-1.745.684-3.45.823-5.105 8.355-4.024 16.592-8.287 24.62-12.955 6.849-4.045 13.589-8.337 19.734-13.481 3.062-2.577 5.996-5.372 8.405-8.673 1.189-1.655 2.249-3.45 2.943-5.432.694-1.973.962-4.193.506-6.324a20.166 20.166 0 0 0-.466-1.546c-.228-.486-.426-.992-.694-1.448-.297-.446-.515-.911-.892-1.348-.347-.456-.733-.822-1.13-1.189-1.615-1.398-3.429-2.339-5.253-3.221-3.657-1.715-7.453-2.974-11.259-4.134-7.632-2.29-15.383-4.024-23.154-5.64-15.551-3.162-31.211-5.64-46.901-7.89-4.37-.615-8.751-1.209-13.132-1.784 7.096-35.01-8.207-43.049-12.945-45.418-3.003-1.497-6.422-1.17-10.198.288-12.063-6.701-31.559-17.862-38.863-10.557-1.517-.307-20.487 6.612-18.138 21.311-.149.238-.298.486-.446.724-.298.139-.516.396-.555.743-.01.05.01.089.01.139a71.719 71.719 0 0 0-3.965 7.523c-1.893 4.263-3.618 8.584-5.085 13.025-8.979-2.2-17.939-4.589-26.969-6.701-9.614-2.27-19.277-4.371-29.02-6.076-9.743-1.665-19.575-3.043-29.536-3.192-4.966-.019-10.011.209-14.917 1.626-2.419.743-4.887 1.814-6.77 3.787-.941.971-1.655 2.19-2.101 3.429-.466 1.239-.733 2.538-.852 3.826-.248 2.577-.02 5.135.426 7.613.446 2.488 1.09 4.916 1.863 7.295 1.546 4.758 3.529 9.338 5.699 13.798 4.371 8.921 9.505 17.426 15.006 25.673a319.492 319.492 0 0 0 17.652 23.898c4.817 5.898 9.833 11.657 15.195 17.098a53.453 53.453 0 0 0-5.58 11.33c-1.993 5.71-2.875 11.835-2.429 17.892-.01.763.159 1.506.248 2.26l.317 2.26c.119.773.189 1.447.278 2.16.129.704.089 1.428.089 2.142-.04 2.874-.644 5.749-1.516 8.534-1.844 5.561-4.629 10.814-7.781 15.82-2.091 3.35-4.371 6.581-6.75 9.743l.04-35.882.069-45.16v-1.407a5.14 5.14 0 0 0-.267-1.665 4.86 4.86 0 0 0-2.111-2.607 4.576 4.576 0 0 0-1.596-.605 4.934 4.934 0 0 0-.852-.089h-.704l-2.825-.01-11.289-.04-22.578-.099-180.647-.634h-.703c-.228 0-.565 0-.833.039-.585.07-1.15.248-1.675.516a5.051 5.051 0 0 0-2.33 2.537 5.116 5.116 0 0 0-.376 1.705c-.02.555-.01.962-.01 1.457l-.01 2.825-.05 11.29-.078 22.58-.15 45.16-.069 23.056H16.496a.49.49 0 0 0-.496.496.49.49 0 0 0 .496.495h82.166l-.07 21.123c0 .208 0 .526.03.823.04.297.09.585.168.872a5.33 5.33 0 0 0 .783 1.596c.704.962 1.745 1.675 2.904 1.943.575.149 1.22.149 1.636.149l1.407.019 2.825.03 11.289.119 22.578.248 31.231.337-5.183 12.341c-3.44 8.306-6.928 16.553-10.15 25.008l-.565 1.645a16.458 16.458 0 0 0-.406 1.695c-.228 1.15-.327 2.35-.168 3.589.138 1.229.713 2.527 1.704 3.419 1.011.873 2.27 1.289 3.459 1.467l13.401 1.626 6.68.803 1.685.198c.615.07 1.239.07 1.853 0 .605-.059 1.249-.218 1.775-.367l1.635-.416 13.053-3.34 26.097-6.691 13.054-3.35 6.521-1.676 3.261-.832.813-.208.208-.05c.06-.02.129-.03.288-.089.267-.099.515-.278.703-.506.377-.466.456-1.08.288-1.615-.169-.555-.694-1.011-1.229-1.111l-.03-.009-.059-.01-53.384-6.661.1.019a3.222 3.222 0 0 0-1.884.129l-1.288.536-2.537 1.05-.11.05.873-2.27a7017.863 7017.863 0 0 1 9.386-24.017l119.582 1.288a4.748 4.748 0 0 0 4.727-3.885c.05-.278.07-.545.08-.823v-4.946l.01-11.29.009-7.91h334.809a.49.49 0 0 0 .496-.496c0-.277-.218-.545-.496-.545zm-468.653 56.519l2.528-1.06 1.239-.516c.257-.099.545-.119.812-.059.03.01.06.01.099.02l53.086 6.522-.089.02-.813.208-3.261.843-3.508.902c-12.35 2.587-24.7 5.194-37.039 7.88-3.747.822-7.503 1.645-11.25 2.517l-2.805.684c-.951.248-1.883.526-2.775.783-.902.238-1.844.486-2.646.427-.407-.04-.684-.149-.823-.417-.129-.287-.198-.703-.169-1.14.04-.882.258-1.804.486-2.716l.387-1.367.465-1.348c.625-1.795 1.319-3.589 1.993-5.383l2.329-6.076 1.754-.724zm-.882-4.301l-1.209 3.152-.922 2.408-1.992 5.194c-.674 1.804-1.358 3.589-2.002 5.422l-.476 1.378-.396 1.398c-.238.941-.466 1.903-.526 2.934-.029.515.01 1.08.298 1.665.099.139.198.268.307.396.129.109.267.199.416.288.288.129.595.218.872.228 1.12.069 2.062-.208 3.013-.456a90.858 90.858 0 0 1 2.766-.783l2.785-.674c3.736-.872 7.483-1.695 11.229-2.518 5.065-1.1 10.14-2.181 15.215-3.261l-20.537 5.303-13.043 3.37-1.636.426c-.555.149-1.001.268-1.516.318a6.437 6.437 0 0 1-1.507 0l-1.655-.199-6.7-.793-13.351-1.556c-1.021-.139-1.972-.495-2.676-1.08-.674-.615-1.1-1.487-1.219-2.488-.129-.991-.06-2.062.149-3.113.099-.525.208-1.06.366-1.576l.526-1.546c3.142-8.356 6.611-16.672 10.01-24.979l10.328-24.879 20.745-49.393 25.868.327c-11.259 28.349-22.489 56.678-33.53 85.087zm133.26-27.1c-.01.198-.02.386-.06.574a3.336 3.336 0 0 1-1.15 1.953 3.323 3.323 0 0 1-2.141.754l-111.751-1.557 16.483-59.889c.019-.04.029-.08.049-.109.02-.05.03-.119.03-.179a.504.504 0 0 0-.486-.505l-26.919-.337a.508.508 0 0 0-.466.297v.01l-21.092 49.591-4.45 10.596-32.014-.446-22.578-.317-11.289-.159-2.825-.04c-.902-.039-2.012.03-2.577-.118a2.96 2.96 0 0 1-1.685-1.13 2.975 2.975 0 0 1-.456-.922 3.015 3.015 0 0 1-.099-.506c-.01-.168-.02-.327-.02-.595l.099-45.16.099-45.16.05-22.58.02-11.29.01-2.825c0-.455-.01-.981.009-1.367.02-.357.08-.704.228-1.031a3.127 3.127 0 0 1 1.408-1.537 3.027 3.027 0 0 1 1.011-.317c.188-.03.327-.02.575-.03h.703l180.647.437 22.578.049 11.289.03 2.825.01h.704c.178.01.366.02.545.059.356.07.713.198 1.03.397.635.376 1.14.981 1.368 1.685.119.357.179.704.179 1.1v1.408l.069 45.16.05 45.16.019 22.58.01 11.29v4.232l-.029.734zM539.255 225.79c-3.488 14.739-10.506 26.763-18.643 40.699-8.593 14.72-18.138 31.105-25.928 54.547h-4.173c7.979-24.473 17.831-41.383 26.682-56.539 7.314-12.529 13.697-23.492 17.295-36.15a588.76 588.76 0 0 0 4.787-2.647c-.01.03-.01.06-.02.09zm-49.785 95.246h-51.153c4.877-12.836 13.381-28.924 16.909-35.426.932-1.16 1.873-2.32 2.845-3.43.634-.713 1.278-1.526 1.932-2.339.684-.783 1.22-1.655 1.804-2.508 2.25-3.429 3.935-7.097 5.61-10.685 1.665-3.588 3.311-7.147 5.402-10.368a36.859 36.859 0 0 1 1.596-2.27c4.361-3.509 11.239-4.689 19.743-6.681 8.296-1.943 28.327-12.46 39.091-18.318-3.608 12.143-9.832 22.828-16.929 34.98-8.9 15.275-18.831 32.304-26.85 57.045zm65.594-163.819c7.731 1.646 15.442 3.42 22.985 5.729 3.756 1.16 7.493 2.429 11.002 4.104 1.734.843 3.459 1.784 4.836 2.984.704.594 1.17 1.278 1.646 2.091.238.397.386.823.584 1.229.139.426.278.853.377 1.289.367 1.764.139 3.618-.476 5.362-.614 1.755-1.595 3.41-2.725 4.956-2.28 3.103-5.134 5.799-8.138 8.307-6.036 4.996-12.736 9.218-19.535 13.183-13.678 7.87-28.03 14.591-42.51 20.915a828.417 828.417 0 0 1-21.905 9.129l-11.041 4.371-5.541 2.191-2.804 1.318c-.922.456-1.775 1.071-2.657 1.606-3.449 2.329-6.274 5.471-8.504 8.881-2.24 3.42-3.954 7.078-5.639 10.656-.02.049-.05.099-.07.139-5.481-8.386-7.939-17.396-7.265-26.882 1.15-16.256 11.547-29.935 16.116-33.682a.5.5 0 0 0 .07-.694.5.5 0 0 0-.694-.069c-3.152 2.587-15.165 15.988-16.473 34.375-.704 9.912 1.913 19.299 7.751 28.012-1.497 3.172-3.023 6.285-4.897 9.11-.545.783-1.05 1.595-1.675 2.309-.594.734-1.179 1.467-1.863 2.23-1.328 1.507-2.587 3.053-3.836 4.609-4.975 6.235-9.624 12.688-14.074 19.29-2.22 3.3-4.401 6.631-6.462 10.051-1.328 2.2-2.617 4.42-3.826 6.71h-84.356c7.503-10.18 14.896-20.439 21.894-30.985.912-1.408 1.834-2.815 2.726-4.243.872.159 1.744.317 2.626.446 1.913.228 3.816.516 5.739.595 1.923.109 3.855.149 5.778.01h.06a.497.497 0 0 0-.01-.991c-3.796-.209-7.573-.635-11.339-1.2-.664-.099-1.318-.208-1.972-.317.694-1.14 1.377-2.3 2.012-3.479.257-.476.505-.972.743-1.467.446.059.882.139 1.328.198 6.69.922 13.44 1.447 20.2 1.408a.48.48 0 0 0 .485-.456.496.496 0 0 0-.455-.526h-.04c-3.35-.238-6.69-.485-10.011-.812-3.32-.357-6.65-.714-9.961-1.21-.297-.039-.604-.089-.902-.129.09-.267.179-.545.209-.882.069-.525.029-.902.069-1.358.099-1.744.446-3.459.991-5.124.535-1.676 1.239-3.311 1.933-4.956l1.031-2.479c.168-.416.356-.792.525-1.189l.149-.268c.971.09 1.932.189 2.904.298 4.737.485 9.445 1.259 14.183 1.992 1.179.198 2.369.367 3.548.595 1.18.218 2.349.466 3.539.654 2.388.357 4.727.902 7.126 1.239l.069.01a.5.5 0 0 0 .545-.357.494.494 0 0 0-.346-.604c-4.669-1.259-9.347-2.488-14.095-3.44-4.737-.981-9.505-1.814-14.322-2.339-.604-.07-1.219-.119-1.823-.179.723-1.021 1.506-2.052 2.051-3.3.783-1.775.694-3.807.218-5.571-.128-.436-.247-.892-.386-1.318l-.476-1.279c-.258-.823-.565-1.606-.595-2.448-.148-1.666.437-3.311 1.418-4.699 1.992-2.815 5.025-4.837 7.83-7.038 1.407-1.1 2.834-2.259 4.054-3.637 1.169-1.239 2.616-2.419 3.726-3.896.03-.039.05-.079.08-.109 1.704-2.032 3.35-4.044 5.292-5.858a75.156 75.156 0 0 1 7.206-5.799c2.706-1.932 5.55-3.657 8.444-5.322 3.42-1.368 15.829-6.087 22.836-5.621 1.507 2.597 2.27 5.631 2.835 8.644.535 3.023.823 6.126.902 9.188v.02c0 .149.069.288.198.377a.502.502 0 0 0 .694-.099c2.3-3.004 4.48-6.116 6.343-9.427.952-1.645 1.765-3.38 2.508-5.144.634-1.646 1.16-3.331 1.487-5.085 3.211.218 6.442.575 9.663.922 2.419.267 4.837.545 7.285.773.615.049 1.219.109 1.844.149.317.019.614.049.941.049l.486.01c.159.01.397-.03.585-.05.714-.128 1.288-.297 1.893-.465l1.764-.536c9.297-3.033 18.465-6.254 27.762-9.159 9.277-2.924 18.624-5.659 28.069-7.949 9.446-2.26 19.021-4.183 28.694-4.758h.01a.502.502 0 0 0 .466-.515.483.483 0 0 0-.516-.466c-5.877.297-11.705 1.09-17.483 2.141-6.215-1.963-12.459-3.777-18.703-5.601-2.488-.723-4.986-1.427-7.483-2.141 3.082-9.664 5.897-14.154 8.623-18.496.674-1.07 1.318-2.111 1.962-3.201a548.705 548.705 0 0 1 23.936 4.45zm-158.593 18.07c-2.884 2.597-4.946 6.294-6.234 11.131a28.719 28.719 0 0 0-3.697 1.993c-.763.396-1.428.941-2.121 1.447.971-8.188 3.607-14.293 7.949-18.189 5.372-4.817 12.647-5.63 19.208-5.134a19.412 19.412 0 0 1-.258 2.012 30.478 30.478 0 0 1-.485 2.26c-5.253-.129-10.378.902-14.362 4.48zm14.124-3.519a65.334 65.334 0 0 1-1.17 3.826 130.87 130.87 0 0 1-2.973 7.821c-3.231-.208-6.403.079-9.525.773a36.012 36.012 0 0 0-5.441 1.685c1.238-4.272 3.112-7.583 5.649-9.862 3.737-3.341 8.484-4.342 13.46-4.243zm-19.546-1.566c-5.035 4.52-7.958 11.687-8.781 21.371-.069.069-.149.119-.218.188l-.07.069a1451.408 1451.408 0 0 0-18.405-18.317 804.782 804.782 0 0 0-13.311-12.678c-4.064-3.717-8.137-7.424-12.518-10.844 6.343-.367 12.756-.446 19.129-.367a308.91 308.91 0 0 1 20.982 1.061c6.978.644 13.946 1.378 20.874 2.478 1.596.218 3.191.476 4.787.753a10.214 10.214 0 0 0 2.042 2.994c1.824 1.903 4.182 3.053 5.233 4.946.466.803.694 1.735.783 2.706-6.928-.525-14.669.387-20.527 5.64zm-8.186 22.501c.644-.635 1.397-1.13 2.131-1.656.743-.505 1.437-1.09 2.249-1.486 3.063-1.894 6.492-3.152 10.001-3.886a32.458 32.458 0 0 1 8.524-.624 354.375 354.375 0 0 1-3.608 8.157 56.562 56.562 0 0 0-.813-4.599.488.488 0 0 0-.584-.377.504.504 0 0 0-.387.585l.01.03c.714 3.449 1.07 7.028 1.189 10.576a66.857 66.857 0 0 1-.525 10.636c-.347 2.904-1.011 5.749-1.853 8.534v-.039c.01-.456.039-.922.029-1.378l-.109-1.368c-.356-3.648-1.566-7.107-2.973-10.418-.724-1.645-1.437-3.31-2.438-4.857-.972-1.546-2.121-3.023-3.658-4.133-.743-.585-1.635-.961-2.537-1.259-.932-.228-1.903-.317-2.854-.198-1.894.248-3.618 1.11-5.105 2.181a24.212 24.212 0 0 0-2.805 2.408l.605-.872c.267-.367.505-.753.793-1.1l.902-1.011c.604-.674 1.189-1.358 1.804-2.022l2.012-1.824zm63.076-3.995a.5.5 0 0 0-.694.079c-.327.417-.971 1.041-1.833 1.814.049-.128.089-.257.138-.376.308-.823.635-1.636.952-2.449 2.577.684 5.015 1.854 6.869 3.678a10.073 10.073 0 0 1 2.616 4.55c.446 1.724.446 3.568.189 5.372-.288 1.804-.823 3.578-1.467 5.313-.704 1.715-1.487 3.4-2.399 5.025-1.576 2.855-3.409 5.581-5.352 8.228a62.727 62.727 0 0 0-.853-7.93c-.574-3.073-1.338-6.176-2.953-8.981-.803-1.378-1.933-2.686-3.499-3.41-1.16-.574-2.478-.604-3.697-.346 5.382-3.856 10.853-8.337 12.072-9.873a.51.51 0 0 0-.089-.694zm15.977-6.512c3.598.852 7.226 1.685 10.824 2.508l.247.059c10.972 2.508 22.083 5.055 31.836 8.168-8.583 2.646-17.117 5.531-25.641 8.227l-1.734.515c-.565.159-1.17.318-1.656.397-.109 0-.178.039-.317.03l-.426-.02c-.277 0-.585-.03-.882-.05-.595-.039-1.199-.109-1.794-.158-2.409-.248-4.827-.556-7.245-.833-3.202-.367-6.393-.743-9.624-1.001.099-1.437.019-2.895-.337-4.322-.496-1.923-1.507-3.737-2.904-5.144-1.408-1.418-3.113-2.459-4.907-3.222-.148-.059-.297-.109-.446-.168l3.678-7.454 11.328 2.468zM452.382 175l10.684 2.369c3.667.872 7.364 1.714 11.041 2.557 14.045 3.211 27.683 6.334 38.893 10.527a686.977 686.977 0 0 0-5.977 1.784c-.188.059-.366.119-.555.168-10.109-3.33-21.765-5.996-33.253-8.623l-.247-.06c-3.608-.822-7.226-1.645-10.824-2.507l-11.219-2.469c-.516-1.001.247-3.013 1.457-3.746zm77.685-22.471c-.574.961-1.149 1.893-1.744 2.844-2.765 4.401-5.62 8.951-8.732 18.754a3530.32 3530.32 0 0 0-16.83-4.748c.357-1.05.724-2.091 1.12-3.122.873-2.27 1.824-4.51 2.924-6.671 1.091-2.171 2.33-4.252 3.638-6.304.743-1.16 1.496-2.339 2.24-3.519 5.798.872 11.596 1.794 17.384 2.766zm-38.367 7.573c1.447-4.649 2.557-8.921 3.4-12.867 4.401.605 8.801 1.22 13.192 1.864.882.129 1.764.268 2.646.396-.594.992-1.189 1.983-1.794 2.974-1.278 2.102-2.497 4.272-3.558 6.512a72.58 72.58 0 0 0-2.805 6.87 73.552 73.552 0 0 0-1.07 3.241c-3.866-1.081-7.741-2.141-11.616-3.212.862-3.35 1.605-5.778 1.605-5.778zm-4.202 20.696c.069-3.895 1.209-9.337 2.279-13.669 4.143 1.18 8.286 2.34 12.42 3.529 8.474 2.438 16.938 4.877 25.383 7.395 5.213 1.566 10.436 3.132 15.63 4.767-2.656.536-5.302 1.11-7.949 1.715-6.432 1.497-12.796 3.202-19.139 5.026-8.395-3.38-18.227-6.047-28.664-8.555.02-.079.04-.138.04-.208zm-3.638-.654c-3.072-.724-6.184-1.437-9.326-2.151-3.678-.842-7.365-1.685-11.042-2.557l-12.647-2.805a277.568 277.568 0 0 1 3.558-7.583c1.249-1.438 3.192-3.678 5.472-6.334 4.628 1.288 9.267 2.587 13.895 3.895l.06 1.051c.436 6.046 6.076 12.598 10.03 16.484zm-5.401-44.625c.099-.158.198-.327.297-.485-.952 2.418-2.22 5.045-3.251 8.584l-2.815-.328c2.399-3.033 4.46-5.768 5.769-7.771zm-3.241 9.139c-1.081 4.074-1.814 9.338-1.497 16.732-4.361-1.189-8.712-2.379-13.073-3.558 3.528-4.134 7.701-9.1 11.269-13.57 1.1.129 2.2.258 3.301.396zm-60.183-30.44c1.249.139 2.508.585 3.202 1.487.337.446.525 1.001.495 1.606-.02.604-.198 1.199-.466 1.843a72.76 72.76 0 0 1-1.318 3.023c-.892-.119-1.804-.416-2.676-.763a19.433 19.433 0 0 1-2.359-1.189 70.528 70.528 0 0 1 3.122-6.007zm-8.861 20.994c1.447-4.669 3.231-9.258 5.174-13.758.258.139.525.277.783.416.545.268 1.09.526 1.665.724.853.297 1.745.525 2.676.604-.555 1.16-1.139 2.31-1.724 3.46a373.788 373.788 0 0 1-3.905 7.335l-1.001 1.843c-.417.784-.278 1.814.307 2.469a2.34 2.34 0 0 0 1.1.693l1.001.278 2.002.555a.434.434 0 0 0 .545-.307.448.448 0 0 0-.307-.555l-2.002-.585-1.001-.288a1.425 1.425 0 0 1-.634-.406 1.3 1.3 0 0 1-.179-1.427l.981-1.814a435.763 435.763 0 0 0 3.876-7.375c1.249-2.488 2.537-4.946 3.647-7.523.268-.635.565-1.368.625-2.151a3.856 3.856 0 0 0-.536-2.34c-.416-.723-1.05-1.258-1.714-1.665-.486-.317-1.011-.545-1.537-.763.863-1.378 1.745-2.746 2.706-4.064a68.626 68.626 0 0 1 2.875-3.668c3.687-.862 7.939-1.992 10.555-3.786l-.148 1.328c-.526 2.617.951 7.682 2.002 14.839a15.59 15.59 0 0 0-2.448-.416c-1.16-.09-2.33-.08-3.549.128-.029 0-.049.01-.079.02a1.017 1.017 0 0 0-.733 1.219c.138.536.683.863 1.229.734l.019-.01c.942-.238 1.993-.337 3.033-.337.922 0 1.844.109 2.746.297.733 5.561 1.14 12.242.198 19.964-.03.287.367.376.446.099 1.16-4.015 3.152-11.459 3.965-17.723.287.297.555.614.783.961v.01a.49.49 0 0 0 .654.159.502.502 0 0 0 .198-.674 7.757 7.757 0 0 0-1.477-1.884c.238-2.319.278-4.411.01-6.016 0 0 3.35 23.838 17.771 23.67 0 .069.01.139.06.198a.317.317 0 0 0 .446.06l.01-.01a7.659 7.659 0 0 1 1.962-1.061c.694-.268 1.437-.446 2.091-.386.684.039 1.061.406 1.14 1.05.08.644-.069 1.368-.267 2.112-.397 1.467-1.041 2.874-1.834 4.163-.406.634-.872 1.249-1.397 1.714-.258.228-.565.427-.774.437-.099 0-.138-.01-.218-.08-.079-.079-.138-.228-.188-.376l-.01-.04a.369.369 0 0 0-.436-.238.366.366 0 0 0-.258.446c.06.228.129.456.308.684.168.228.515.406.812.397.575-.02.942-.288 1.279-.536-3.192 6.116-8.038 16.326-6.998 19.944a311.432 311.432 0 0 0-5.253 10.814 255.817 255.817 0 0 0-5.5 12.787 160.518 160.518 0 0 0-1.408 3.637c-3.925 3.172-9.317 7.117-13.271 9.486l-2.597 1.457c-5.432 3.004-10.952 5.938-16.047 9.576a74.251 74.251 0 0 0-7.305 5.887c-.336.318-.644.655-.971.982 1.061-3.37 1.854-6.82 2.22-10.329a65.95 65.95 0 0 0 .208-13.074c3.063-6.869 6.155-13.758 8.554-20.964.783-2.389 1.477-4.808 1.903-7.335.198-1.269.347-2.558.287-3.886-.049-1.318-.366-2.726-1.08-3.945-.713-1.229-1.764-2.141-2.755-2.914-1.001-.783-1.963-1.487-2.785-2.32-1.665-1.595-2.478-3.836-2.706-6.205-.238-2.369-.01-4.807.406-7.206.436-2.458 1.061-4.837 1.774-7.196zm-34.283 4.48c.069-4.202.237-8.415.545-12.608 1.833.406 3.657.813 5.491 1.229 8.999 2.042 17.92 4.352 26.909 6.503-.743 2.388-1.407 4.807-1.863 7.285-.456 2.478-.724 5.035-.496 7.622.099.992.268 1.993.575 2.964a118.075 118.075 0 0 0-4.133-.674c-6.938-1.16-13.935-1.953-20.933-2.656a295.567 295.567 0 0 0-5.986-.496 176.447 176.447 0 0 1-.109-9.169zm-17.474-16.276a468.101 468.101 0 0 1 16.463 3.311 225.636 225.636 0 0 0-.327 12.955c.019 3.024.099 6.057.277 9.09a297.096 297.096 0 0 0-13.916-.664l-1.625-.03c-1.427-9.347-1.259-19.051-.872-24.662zm-26.712 183.931l.01-5.947c2.954-3.905 5.789-7.9 8.356-12.083 3.151-5.115 5.956-10.507 7.81-16.306.882-2.904 1.496-5.937 1.506-9.039.07-1.527-.247-3.143-.436-4.59l-.327-2.171c-.089-.723-.267-1.447-.258-2.18-.495-5.849.308-11.776 2.181-17.347a51.917 51.917 0 0 1 8.405-15.463c3.647-4.629 7.959-8.812 12.964-11.924l.01-.01a.497.497 0 0 0 .159-.674.499.499 0 0 0-.684-.169c-5.174 3.162-9.595 7.365-13.371 12.054a47.89 47.89 0 0 0-1.368 1.784 111.536 111.536 0 0 0-1.556-5.412 149.97 149.97 0 0 0-6.194-16.107.498.498 0 0 0-.635-.258.493.493 0 0 0-.277.644v.01a148.614 148.614 0 0 1 5.421 16.206c.298 1.101.575 2.211.843 3.321-4.441-4.609-8.683-9.436-12.766-14.383a315.422 315.422 0 0 1-17.682-23.61c-5.511-8.148-10.655-16.544-15.036-25.326-2.17-4.391-4.143-8.891-5.689-13.51-.773-2.31-1.407-4.659-1.844-7.028-.446-2.369-.664-4.778-.455-7.117.198-2.33.911-4.629 2.438-6.235 1.536-1.645 3.746-2.656 6.006-3.37 4.589-1.368 9.535-1.645 14.411-1.655 9.803.079 19.595 1.377 29.308 2.973 1.507.248 3.004.526 4.5.803-.396 5.61-.575 15.374.843 24.81-6.165-.089-12.33.02-18.505.635a.736.736 0 0 0-.486.267.698.698 0 0 0 .119.982l.02.02c4.797 3.677 9.277 7.87 13.737 12.043 4.431 4.203 8.802 8.485 13.143 12.787 6.106 6.086 12.142 12.251 18.148 18.446l-.466.436c-.624.694-1.219 1.418-1.834 2.122l-.911 1.06c-.288.367-.526.763-.793 1.15l-1.566 2.31c-.972 1.585-1.765 3.271-2.657 4.896a.498.498 0 0 0 .863.496l.02-.02c1.893-2.924 4.212-5.719 7.027-7.751.991-.714 2.071-1.299 3.211-1.666 2.904 1.17 12.251 6.235 14.748 23.522-.079.426-.109.852-.218 1.269-.386 1.685-1.169 3.241-2.22 4.599-1.041 1.398-2.398 2.488-3.677 3.846-1.16 1.308-2.518 2.419-3.925 3.519-2.775 2.2-5.858 4.212-8.038 7.265-1.071 1.507-1.764 3.42-1.586 5.343.03.962.377 1.864.654 2.746l.456 1.229c.139.416.248.833.367 1.249.446 1.665.495 3.41-.169 4.936-.525 1.249-1.437 2.359-2.259 3.578-3.836-.347-7.692-.535-11.557-.505-4.847.03-9.684.456-14.481.892a.492.492 0 0 0-.446.476.483.483 0 0 0 .476.505h.059c1.219.04 2.429.05 3.638.03l3.608.02c2.398-.05 4.787 0 7.166.079 3.429.129 6.848.337 10.258.644-.178.397-.367.803-.525 1.19l-1.031 2.468c-.694 1.645-1.398 3.301-1.963 5.035-.565 1.725-.941 3.539-1.04 5.373-.04.436 0 .961-.07 1.318-.02.238-.119.535-.228.823a454.28 454.28 0 0 1-8.038-1.199c-3.33-.476-6.631-1.061-10.05-1.309h-.03a.493.493 0 1 0-.109.981c3.291.516 6.601 1.22 9.922 1.804 2.537.456 5.084.873 7.641 1.249-.188.387-.386.774-.594 1.15a85.265 85.265 0 0 1-2.201 3.777c-2.745-.466-5.491-.972-8.266-1.408a.49.49 0 0 0-.228.952l.079.02c.912.287 1.844.515 2.766.773l2.785.674c.664.139 1.328.267 1.982.396a323.059 323.059 0 0 1-2.508 3.906c-7.106 10.725-14.659 21.162-22.3 31.53h-14.53l.019-13.649z" fill="#45567C"/><path d="M321.718 226.86l-.01-5.352-.01-2.677v-.178l-.019-.258a3.26 3.26 0 0 0-.109-.515 2.834 2.834 0 0 0-.496-.912 2.72 2.72 0 0 0-1.794-.962l-42.887-.119-85.585-.198-85.596-.049a.497.497 0 0 0-.495.495.49.49 0 0 0 .495.496l85.586.614 85.585.456 42.699.228c.198.02.376.119.505.268.06.079.109.159.139.258l.03.138v.228l.01 2.677.019 5.352.05 10.696.099 21.4c.139 28.527.377 57.065.694 85.592 0 .268.218.486.496.486a.49.49 0 0 0 .495-.496c.139-28.537.188-57.065.139-85.602l-.04-21.4V226.86zm3.767-92.064a46.644 46.644 0 0 0-4.331-4.183c-1.556-1.279-3.231-2.429-5.025-3.351a.491.491 0 0 0-.615.129.504.504 0 0 0 .08.704l.01.01a67.515 67.515 0 0 1 4.351 3.866 95.208 95.208 0 0 1 4.004 4.222 233.178 233.178 0 0 1 3.796 4.441l3.747 4.53.01.01a.489.489 0 0 0 .604.129.499.499 0 0 0 .228-.664c-1.814-3.618-4.192-6.86-6.859-9.843zm-.296 7.305c-1.526-.773-3.092-1.437-4.668-2.082a62.229 62.229 0 0 0-4.837-1.665c-1.636-.476-3.301-.892-4.995-1.14a.511.511 0 0 0-.556.367.495.495 0 0 0 .357.605c3.212.872 6.383 1.962 9.495 3.201 1.566.595 3.103 1.259 4.629 1.933 1.517.684 3.023 1.418 4.45 2.24l.01.01c.218.129.496.07.645-.139a.5.5 0 0 0-.1-.693c-1.397-1.041-2.904-1.874-4.43-2.637zm82.125 3.925c.198.298.456.545.724.783.277.208.575.397.872.565a6.534 6.534 0 0 0 1.933.645c.664.109 1.338.168 2.012.089.674-.06 1.338-.198 1.962-.506l.119-.059a.485.485 0 0 0-.297-.912c-1.15.198-2.379.168-3.549-.04-1.169-.208-2.339-.595-3.221-1.278a.447.447 0 0 0-.505-.02.434.434 0 0 0-.129.604l.079.129zm18.811-20.419c.526.456 1.1.853 1.705 1.17.605.337 1.229.624 1.893.832.654.208 1.318.446 2.032.526.704.069 1.467 0 2.18-.377l.179-.099a.477.477 0 0 0-.248-.892c-1.199.049-2.488-.238-3.707-.595a20.701 20.701 0 0 1-3.568-1.447.499.499 0 0 0-.595.109.49.49 0 0 0 .05.694l.079.079zm31.47 16.752c.357-.089.754-.189 1.051-.486.307-.287.486-.694.545-1.09.06-.397.04-.783-.03-1.15a6.073 6.073 0 0 0-.188-.734c.248-.257.505-.495.773-.713.327-.258.753-.476.912-.427.129-.009.317.427.307.853a4.51 4.51 0 0 1-.168 1.308l-.01.02a.317.317 0 0 0 .188.377.314.314 0 0 0 .397-.189c.178-.495.267-.991.297-1.506.01-.258 0-.535-.079-.823-.06-.277-.278-.644-.664-.793a1.189 1.189 0 0 0-.546-.049c-.178.009-.307.069-.446.119-.287.099-.475.257-.713.386-.417.297-.793.625-1.16.962a.465.465 0 0 0-.089.574c.287.516.535 1.16.515 1.725-.01.288-.079.545-.247.763-.159.228-.446.347-.734.466l-.03.01c-.099.04-.158.149-.128.248.009.109.128.178.247.149zm-93.594 236.604c-.991.218-1.992.377-3.003.456-.506.04-1.001.059-1.497.05-.486-.01-1.021-.05-1.417-.149a.5.5 0 0 0-.565.277.499.499 0 0 0 .248.655l.049.019c.585.268 1.1.357 1.655.417.545.069 1.091.039 1.636.02.535-.06 1.07-.129 1.586-.258l.773-.218c.247-.109.505-.189.743-.307l.109-.06a.48.48 0 0 0-.317-.902zm-13.51-.783a13.738 13.738 0 0 1-2.111-1.487 11.206 11.206 0 0 1-1.765-1.863.49.49 0 0 0-.614-.149.5.5 0 0 0-.218.664l.039.069a7.42 7.42 0 0 0 1.765 2.221c.337.327.733.594 1.13.852a4.89 4.89 0 0 0 1.318.565l.099.03a.48.48 0 0 0 .555-.238.514.514 0 0 0-.198-.664zm3.866 5.759l-3.539-.773a.272.272 0 0 0-.297.396l1.398 2.607c.079.159.287.189.416.08l2.141-1.834c.168-.139.099-.426-.119-.476z" fill="#45567C"/><path d="M469.339 362.301c-1.308-3.569-3.449-6.78-5.986-9.566-2.577-2.765-5.59-5.045-8.762-6.988-6.393-3.875-13.43-6.393-20.516-8.376-3.559-.981-7.147-1.804-10.754-2.527-3.618-.714-7.206-1.388-10.893-1.834a57.446 57.446 0 0 0-22.093 1.517c-7.176 1.913-13.935 5.223-19.971 9.495-5.977 4.283-11.359 9.348-15.76 15.285a23.875 23.875 0 0 0-4.043 2.508 204.484 204.484 0 0 0-4.054-1.705l-2.062-.823-1.05-.386c-.387-.119-.664-.248-1.18-.327l-.049-.01a.475.475 0 0 0-.496.446v.01a26.261 26.261 0 0 0-.02 2.914c.05.961.149 1.933.327 2.894.357 1.893.991 3.836 2.369 5.373a15.172 15.172 0 0 0-.565 6.75c.387 3.618 1.09 7.275 2.726 10.636.813 1.665 1.883 3.251 3.261 4.549a12.896 12.896 0 0 0 3.786 2.459l-.297-.04s3.141 3.667 19.535 1.179l8.96 1.874c.377.347.763.694 1.189.981-2.765-.466-5.51-.981-8.236-1.586a40.86 40.86 0 0 1-1.289-.337c-.416-.119-.981-.258-1.466-.307a10.12 10.12 0 0 0-2.954.129c-.962.188-1.913.495-2.805.981-.862.496-1.784 1.16-2.23 2.29a3.126 3.126 0 0 0-.179 1.754c.1.575.337 1.091.615 1.537.575.882 1.298 1.586 2.062 2.17 1.526 1.19 3.201 2.062 4.886 2.855 3.39 1.556 6.898 2.736 10.427 3.777 3.538 1.021 7.096 1.942 10.734 2.656 3.627.734 7.305 1.14 10.992 1.408 3.687.257 7.384.267 11.081.059a88.098 88.098 0 0 0 21.775-3.915c7.047-2.221 13.846-5.452 19.813-9.932 5.917-4.461 11.032-10.408 13.48-17.614a66.5 66.5 0 0 0 .773-2.726c.168-.932.376-1.864.505-2.785.228-1.854.407-3.727.387-5.601-.02-3.757-.595-7.563-1.973-11.101zm-125.31-2.003l1.992.922c1.11.525 2.21 1.071 3.311 1.606a20.6 20.6 0 0 0-1.675 1.695l-3.777-4.292.149.069zm-1.07 4.332c-.179-.902-.268-1.834-.318-2.766-.029-.525-.029-1.05-.029-1.566l4.4 4.996c-.247.317-.495.644-.733.981a13.967 13.967 0 0 0-1.527 2.806c-.941-1.259-1.496-2.835-1.793-4.451zm124.914 19.289c-2.27 6.76-7.097 12.45-12.806 16.772-5.739 4.341-12.36 7.523-19.248 9.713a86.77 86.77 0 0 1-21.339 3.896 84.653 84.653 0 0 1-10.873-.03c-3.618-.248-7.236-.644-10.794-1.348-3.548-.694-7.096-1.596-10.595-2.597-3.489-1.011-6.948-2.171-10.219-3.667-1.625-.754-3.221-1.596-4.589-2.657-.694-.525-1.288-1.13-1.715-1.774-.426-.654-.555-1.328-.317-1.923.218-.615.853-1.14 1.556-1.536.714-.397 1.527-.665 2.359-.823a8.545 8.545 0 0 1 2.508-.119c.426.049.753.129 1.219.258.466.138.912.237 1.368.356 3.608.833 7.225 1.438 10.863 1.973 3.637.535 7.285.981 10.942 1.328 7.315.694 14.669 1.061 22.033.704 3.677-.188 7.354-.555 10.982-1.348 1.814-.367 3.598-.912 5.352-1.546 1.735-.694 3.42-1.537 4.946-2.677a.492.492 0 0 0 .099-.694.503.503 0 0 0-.694-.109l-.01.01c-1.427 1.051-3.042 1.834-4.708 2.498-1.694.595-3.429 1.11-5.203 1.457-3.548.744-7.176 1.081-10.813 1.239-7.275.298-14.58-.129-21.845-.872a234.042 234.042 0 0 1-9.803-1.259c-.882-.515-1.754-1.031-2.497-1.715a13.847 13.847 0 0 1-2.449-2.607c-.733-.951-1.298-2.032-1.803-3.142a20.169 20.169 0 0 1-1.002-2.914 18.034 18.034 0 0 0 3.628-6.423 22.645 22.645 0 0 0 1.021-5.491c.099-1.755.03-3.509-.129-5.254 1.933-3.132 4.351-6.066 7.017-8.663 2.736-2.657 5.789-4.996 9.159-6.77 3.35-1.794 7.017-3.003 10.793-3.469 3.776-.506 7.622-.189 11.349.664h.01a.497.497 0 0 0 .594-.367.492.492 0 0 0-.366-.595c-3.806-.922-7.791-1.298-11.716-.822-3.925.446-7.75 1.655-11.249 3.469-3.519 1.794-6.7 4.173-9.555 6.869-2.844 2.726-5.392 5.709-7.513 9.099a.755.755 0 0 0-.099.466v.01c.189 1.755.278 3.519.189 5.273-.11 1.745-.397 3.48-.922 5.135-1.031 3.311-3.073 6.284-5.888 8.336-2.785 2.092-6.165 3.35-9.634 3.955-3.459.565-7.116.654-10.397-.386-1.635-.536-3.152-1.398-4.41-2.568-1.259-1.169-2.26-2.617-3.033-4.183-1.556-3.142-2.29-6.68-2.676-10.219-.516-3.499.238-7.058 2.25-9.942 1.942-2.894 4.836-5.194 7.959-6.721h.009a.44.44 0 0 0 .199-.158l.01-.01c4.371-5.749 9.832-10.745 15.779-14.858 5.986-4.084 12.607-7.256 19.604-9.06a55.837 55.837 0 0 1 21.479-1.279c3.578.466 7.195 1.14 10.754 1.854 3.568.723 7.116 1.556 10.615 2.527 6.977 1.973 13.866 4.471 20.011 8.227 3.053 1.884 5.917 4.074 8.345 6.681 2.399 2.617 4.401 5.601 5.63 8.921 1.289 3.291 1.844 6.85 1.853 10.418-.049 3.539-.436 7.147-1.575 10.487z" fill="#45567C"/><path d="M371.513 359.555c-1.853.396-3.588 1.199-5.144 2.22a21.56 21.56 0 0 0-2.24 1.666 20.873 20.873 0 0 0-2.041 1.942c-.01.01-.02.02-.02.03a.766.766 0 0 0 .099 1.071.765.765 0 0 0 1.07-.1l.02-.019c.525-.645 1.16-1.289 1.794-1.884a21.83 21.83 0 0 1 2.032-1.665 16.159 16.159 0 0 1 2.726-1.576c-3.37 2.756-5.253 7.692-5.343 7.92a.483.483 0 0 0 .288.634.502.502 0 0 0 .644-.287c.02-.06 2.141-5.601 5.729-8.009l-.109 7.533c0 .278.218.496.485.506a.505.505 0 0 0 .506-.486l.129-9v-.02c0-.04 0-.08-.02-.129a.5.5 0 0 0-.605-.347z" fill="#45567C"/></svg>