<svg width="680" height="520" viewBox="0 0 680 520" fill="none" xmlns="http://www.w3.org/2000/svg"><path stroke="#36476C" d="M67.414 456.877h551.558"/><path d="M373.304 462.326c-35.696-2.295-135.571-2.898-169.284-3.038-33.713-.147-78.545.111-101.8.585-23.255.468-53.594.984-39.726 8.998 13.868 8.019 34.73 7.563 52.938 8.47 18.208.907 36.766 4.174 32.064 7.241-4.703 3.062-7.697 9.829 2.761 11.456 10.457 1.628 91.418 4.877 116.691 3.718 25.273-1.16 84.774.134 87.271-6.574 2.223-5.96-7.323-8.366-18.254-9.343-16.986-1.516-26.338-7.271-15.886-7.669 10.446-.398 31.678-1.533 47.856-1.961 16.178-.427 36.391-2.57 31.987-6.258-4.404-3.687-19.833-5.186-26.618-5.625z" fill="#E2F2FF"/><path d="M552.019 37.961H171.451v200.42h380.568V37.961z" fill="#F5F5F8"/><path d="M472.13 52.648h-41.226v138.66h41.226V52.648zm-179.803 0h-41.225v119.156h41.225V52.648zm-58.922 0H192.18v138.225h41.225V52.648zm178.399 0h-41.226v59.672h41.226V52.648zm119.718 0h-41.225v119.64h41.225V52.648zm-178.871 0h-41.225v99.398h41.225V52.648z" fill="#fff"/><path d="M347.092 98.336a1.678 1.678 0 1 0-.002-3.356 1.678 1.678 0 0 0 .002 3.356z" fill="#fff"/><path d="M186.797 32.258a3.646 3.646 0 0 0 3.644-3.645 3.65 3.65 0 0 0-3.644-3.645 3.646 3.646 0 0 0 0 7.29zm13.926 0a3.645 3.645 0 0 0 0-7.29 3.646 3.646 0 0 0 0 7.29zm13.932-.008a3.644 3.644 0 0 0 3.643-3.645 3.644 3.644 0 1 0-3.643 3.646zm75.558 24.162a1.678 1.678 0 1 0-.002-3.356 1.678 1.678 0 0 0 .002 3.356zm0 19.905a1.678 1.678 0 1 0-.002-3.356 1.678 1.678 0 0 0 .002 3.356zm-1.678 18.233a1.678 1.678 0 1 0 3.356.002 1.678 1.678 0 0 0-3.356-.001zm3.348 59.729a1.678 1.678 0 1 0-3.355 0 1.678 1.678 0 0 0 3.355 0zM349.9 56.405a1.678 1.678 0 1 0-1.677-1.678 1.687 1.687 0 0 0 1.677 1.678zm0 19.912a1.678 1.678 0 1 0-1.677-1.678c0 .927.758 1.678 1.677 1.678zm0 39.817a1.678 1.678 0 1 0-1.677-1.679 1.687 1.687 0 0 0 1.677 1.679zm0 19.912a1.679 1.679 0 1 0-1.677-1.679c0 .927.758 1.679 1.677 1.679zm59.694-79.634a1.678 1.678 0 1 0-.002-3.356 1.678 1.678 0 0 0 .002 3.356zm0 19.905a1.678 1.678 0 1 0-.002-3.356 1.678 1.678 0 0 0 .002 3.356zm0 19.913a1.678 1.678 0 1 0-1.678-1.68 1.687 1.687 0 0 0 1.678 1.68zM230.519 56.412a1.678 1.678 0 1 0 0-3.356 1.678 1.678 0 0 0 0 3.356zm0 19.905a1.678 1.678 0 1 0 0-3.356 1.678 1.678 0 0 0 0 3.356zm0 19.913a1.678 1.678 0 1 0 0-3.357 1.678 1.678 0 0 0 0 3.356zm0 19.904a1.678 1.678 0 1 0 0-3.356 1.678 1.678 0 0 0 0 3.356zm0 59.736a1.679 1.679 0 1 0-.001-3.357 1.679 1.679 0 0 0 .001 3.357z" fill="#E4E7ED"/><path d="M312.941 49.852v100.915h43.212v-20.333a.745.745 0 0 0 0-.562v-19.35a.745.745 0 0 0 0-.562V90.61a.745.745 0 0 0 0-.562V70.705a.744.744 0 0 0 0-.562V49.845h-43.212v.007zm41.808 99.511h-40.404v-18.508h40.404v18.508zm0-19.905h-40.404v-18.507h40.404v18.507zm0-39.824h-40.404v-18.5h40.404v18.5zm0-19.905h-40.404V51.257h40.404v18.472z" fill="#A6FADD"/><path d="M372.637 49.852v61.113h43.212V90.61a.709.709 0 0 0 0-.547V70.705a.708.708 0 0 0 0-.547V49.859h-43.212v-.007zm41.808 59.715h-40.404V91.046h40.404v18.521zm0-19.933h-40.404v-18.5h40.404v18.5zm0-19.905h-40.404V51.257h40.404v18.472zm17.885-19.877v139.946h43.212v-19.54a.745.745 0 0 0 0-.562v-19.35a.745.745 0 0 0 0-.562v-19.35a.745.745 0 0 0 0-.562v-19.35a.745.745 0 0 0 0-.562V90.61a.745.745 0 0 0 0-.562V70.705a.744.744 0 0 0 0-.562V49.845H432.33v.007zm41.808 138.541h-40.404v-17.714h40.404v17.714zm0-19.118h-40.404v-18.508h40.404v18.508zm0-19.912h-40.404v-18.508h40.404v18.508zm0-19.905h-40.404v-18.507h40.404v18.507zm0-19.912h-40.404V91.038h40.404v18.508zm0-19.912h-40.404v-18.5h40.404v18.5zm0-19.905h-40.404V51.257h40.404v18.472zm17.885-19.877v120.827h43.212v-20.333a.745.745 0 0 0 0-.562v-19.35a.745.745 0 0 0 0-.562v-19.35a.745.745 0 0 0 0-.562V90.61a.745.745 0 0 0 0-.562V70.705a.744.744 0 0 0 0-.562V49.845h-43.212v.007zm41.808 119.423h-40.404v-18.508h40.404v18.508zm0-19.912h-40.404v-18.508h40.404v18.508zm0-19.905h-40.404v-18.507h40.404v18.507zm0-19.912h-40.404V91.038h40.404v18.508zm0-19.912h-40.404v-18.5h40.404v18.5zm0-19.905h-40.404V51.257h40.404v18.472z" fill="#E4E7ED"/><path d="M469.287 56.412a1.678 1.678 0 1 0 0-3.356 1.678 1.678 0 0 0 0 3.356zm0 19.905a1.678 1.678 0 1 0 0-3.356 1.678 1.678 0 0 0 0 3.356zm0 19.913a1.678 1.678 0 1 0-1.678-1.68 1.687 1.687 0 0 0 1.678 1.68zm0 19.911a1.679 1.679 0 1 0-.001-3.357 1.679 1.679 0 0 0 .001 3.357zm0 19.905a1.679 1.679 0 1 0-.001-3.357 1.679 1.679 0 0 0 .001 3.357zm0 19.905a1.678 1.678 0 1 0 0-3.355 1.678 1.678 0 0 0 0 3.355zm59.693-99.539a1.678 1.678 0 1 0 0-3.356 1.678 1.678 0 0 0 0 3.356zm0 19.905a1.678 1.678 0 1 0 0-3.356 1.678 1.678 0 0 0 0 3.356zm0 19.913a1.678 1.678 0 1 0-1.677-1.68 1.687 1.687 0 0 0 1.677 1.68zm0 19.911a1.679 1.679 0 1 0-.001-3.357 1.679 1.679 0 0 0 .001 3.357zm0 19.905a1.679 1.679 0 1 0-.001-3.357 1.679 1.679 0 0 0 .001 3.357zm0 19.905a1.678 1.678 0 1 0 0-3.355 1.678 1.678 0 0 0 0 3.355zm-292.15-85.52a.709.709 0 0 0-.056-.274V49.86h-41.899l3.39 1.405h37.112V69.73h-23.501l.4 1.405h23.101V89.64h-22.272l-.471 1.405h22.743v18.507h-26.688l3.847 1.405h22.848v11.582l1.404.842v-12.853a.706.706 0 0 0 0-.548V90.624a.71.71 0 0 0 0-.548v-19.37c.021-.085.042-.176.042-.275zm.001 79.634a.714.714 0 0 0-.057-.274v-.098l-1.628-.323h-4.38l.196 1.405h4.408v18.507h-5.531l-.281 1.405h5.812V188.4h-7.595l.302 1.405h8.697v-19.54a.706.706 0 0 0 .057-.274.714.714 0 0 0-.057-.274V150.36a.877.877 0 0 0 .057-.295zm16.417 20.615h43.212v-20.334a.749.749 0 0 0 0-.562v-19.35a.749.749 0 0 0 0-.562v-6.897l-1.404 4.249v2.22h-.73l-.463 1.405h1.193v18.507h-7.307l-.463 1.405h7.77v18.507h-40.404v-17.103l-1.404-.189v18.704zm0-120.828v81.27l1.404.422v-.674h22.869l.794-1.405h-23.663v-18.507h34.43l1.074-1.405h-35.504V91.046h40.404v12.804l1.404-.45V90.617a.718.718 0 0 0 0-.562v-19.35a.717.717 0 0 0 0-.562V49.845h-43.212v.007zm41.808 39.782h-40.404v-18.5h40.404v18.5zm0-19.905h-40.404V51.257h40.404v18.472zM173.662 226.63l1.404-3.055v-12.116l-1.404-.59v15.761z" fill="#E4E7ED"/><path d="M173.662 18v69.625l1.404 1.56V37.447h378.666v198.727H237.778l.302 1.405h317.056V18H173.662zm380.07 18.044H175.066v-16.64h378.666v16.64zm-380.07 162.133l1.404.927v-17.425l-1.404-2.128v18.626z" fill="#E4E7ED"/><path d="M128.274 249.948c53.895-1.629 204.702-1.671 255.607-1.643 50.905.028 118.601.414 153.719.878 35.119.463 80.928.983 60.024 7.143-20.904 6.16-52.415 5.717-79.903 6.342-27.488.625-55.503 3.084-48.392 5.479 7.111 2.395 11.666 7.655-4.12 8.87-15.787 1.216-138.017 3.393-176.189 2.396-38.172-.998-128.008-.253-131.812-5.465-3.376-4.628 11.028-6.455 27.53-7.164 25.642-1.103 39.738-5.528 23.958-5.879-15.78-.351-47.838-1.32-72.266-1.721-24.435-.4-54.962-2.142-48.329-4.986 6.634-2.838 29.924-3.941 40.173-4.25z" fill="#E2F2FF"/><path opacity=".17" d="M591.11 293.235s-.14.253-.407.71h.407v-.71z" fill="#7A88A7"/><path d="M176.064 116.415l8.732 4.095s9.547 0 16.096-1.089c6.549-1.088 14.734-3.821 14.734-3.821l32.739 16.653 13.098 5.732 7.637.54 4.64 18.838-31.103-3.821-15.822-3.547s2.183 7.916 1.635 11.737c-.547 3.82-3.818 19.652-3.818 19.652s-.821 7.915.821 11.462c1.636 3.547 15.822 77.801 15.822 77.801l6.275 54.595-1.116 9.278-63.266 4.368-26.464-1.362 3.005-51.322 2.73-25.39 8.732-33.306 10.923-22.265s4.197-1.124 4.443-2.17c.197-.843-2.688-1.658-2.688-1.658s-9.68-13.766-13.499-21.682c-3.818-7.916-10.641-25.657-10.641-25.657l-17.191 17.468s-.548.821 2.183 3.82c2.731 2.999 7.097 7.916 7.097 7.916l-12.839 10.936s-13.639-7.368-15.548-9.826c-1.909-2.459-6.275-10.1-3.819-14.469 2.457-4.369 5.728-13.373 8.459-16.105 2.73-2.732 25.642-28.937 25.642-28.937l13.913-11.196 8.458 2.732z" fill="#C0F7DF"/><path d="M175.943 473.11l-.484 4.467.891 3.006.976.815.814 3.568 2.352.161.976-3.083s6.731-2.03 7.868-5.197c1.138-3.168.731-7.143-2.512-9.251l.322 5.359s-2.435 1.138-4.703.977c-2.267-.162-6.5-.822-6.5-.822zm53.046-3.083l12.326 3.49s1.376.162 2.836-.245c1.46-.408 7.378-2.922 7.378-2.922s6.086 3.975 6.324 4.059c.246.085 2.836 1.461 2.836 1.461l.323 1.623s-2.19.976-4.296 1.053c-2.106.085-14.439-1.545-14.439-1.545l-6.977.246-1.053 2.599h-3.405l-.645-3.168s-1.545-.731-1.545-2.03c.014-1.292.337-4.621.337-4.621z" fill="#7A88A7"/><path d="M433.102 262.956l55.243-6.461s21.135 3.568 35.153 1.074c.057-.007-12.557 4.664-12.557 4.664l-38.383 5.022-39.456-4.299z" fill="#FFF59B"/><path d="M439.714 274.587a1.04 1.04 0 0 0 .962-1.117 1.04 1.04 0 0 0-2.043-.175l-3.685.47c-.063.007-.112.063-.112.134 0 .07.063.126.133.126l3.714-.07a1.03 1.03 0 0 0 1.031.632zm-116.355-6.216c.569-.07.976-.597.906-1.166a1.048 1.048 0 0 0-1.165-.906 1.037 1.037 0 0 0-.885.836l-3.65.667c-.063.014-.112.07-.105.134.007.07.07.126.14.119l3.706-.267c.176.393.597.639 1.053.583zm151.501-.885h-.035l-39.218-4.207a.356.356 0 0 1-.316-.351.35.35 0 0 1 .309-.351l55.32-6.307h.071s12.508 1.194 17.857 1.713c8.613.836 18.517-.892 18.616-.913a.354.354 0 0 1 .4.246.343.343 0 0 1-.204.421c-.4.162-9.855 4.018-15.527 4.734-10.354 1.314-36.957 4.966-37.231 5.001a.075.075 0 0 1-.042.014zm-36.017-4.572l36.017 3.863c1.214-.169 27.025-3.709 37.196-4.994 3.678-.463 9.139-2.339 12.46-3.568-3.658.457-9.968 1.033-15.717.471a9351.29 9351.29 0 0 0-17.816-1.707l-52.14 5.935z" fill="#45567C"/><path d="M518.507 260.821c2.028 0 15.899 1.376 10.072 1.503-5.826.133-42.067 3.469-42.067 3.469l23.354-3.272 8.641-1.7z" fill="#45567C"/><path d="M191.771 115.972s9.203.232 16.012-3.554c0 0-6.577-2.795-10.073-3.378-3.496-.583-.407-8.274.99-9.145 1.397-.87 6.17-.934 9.666-4.776 3.495-3.842 2.379-10.388.694-23.283-1.684-12.895-6.401-14.82-6.401-14.82s-.464 11.533-4.774 16.14c-4.31 4.6-7.103 8.562-5.475 18.641 1.629 10.079 4.191 21.556-.639 24.175zm77.889 22.434l4.078 18.957s8.424-.155 12.537-6.371c4.114-6.216 10.333-37.794 10.333-37.794l4.661-2.465s2.127 4.664 5.475.962l.498-.843s1.748-.056 2.212-2.156l-1.924-4.018s4.689-2.479 5.272-4.951l-19.135 5.787s-2.661.78-6.304 6.146c-3.643 5.373-13.365 22.44-13.365 22.44s-.983 4.011-4.338 4.306zm-130.701 55.81l12.768-11.449s10.86 13.387 25.264 21.57c0 0 3.572-2.655 5.32-2.788 1.748-.134 4.156 1.088 4.156 1.088s-.33 1.728-4.191 2.192l-8.479 17.067s-2.155-2.76-1.517-8.042c.007 0-30.211-16.85-33.321-19.638zm33.243 144.216l27.039 1.088s-4.815 27.652-6.984 46.764c-2.176 19.111-4.155 40.28-4.155 40.28s-1.938 25.721-1.292 41.032l.323 5.359s-5.784 2.606-11.547-.449l-4.605-65.924s-2.387-27.322-1.923-31.93c.47-4.607 3.144-36.22 3.144-36.22zm34.184-.078s-1.86 25.517 1.397 47.656c3.264 22.138 13.857 47.423 13.857 47.423s9.785 22.841 7.686 31.691l.021 4.727s10.108 3.61 12.614 3.722c2.506.12 9.575-3.224 9.575-3.224s-5.672-4.347-5.911-5.218c-.232-.871-4.949-18.465-5.882-27.034-.934-8.562-3.608-20.038-5.412-41.306-1.804-21.267-1.692-45.211-1.692-45.211l-.056-12.411-26.197-.815z" fill="#fff"/><path d="M620.879 285.93a.347.347 0 0 0-.35-.351H246.91c-1.853-13.092-4.064-26.128-6.5-39.115h380.119c.196 0 .35-.154.35-.351a.347.347 0 0 0-.35-.351H240.276c-.301-1.594-.603-3.196-.912-4.79-3.025-15.572-6.275-31.094-10.031-46.525l-.73-2.893c-.274-.97-.59-2.044-.779-2.803-.281-1.784-.119-3.743.119-5.661.52-3.863 1.453-7.705 2.38-11.554.456-1.931.948-3.835 1.334-5.836.365-2.016.505-4.046.491-6.069a48.2 48.2 0 0 0-.456-6.033 48.657 48.657 0 0 0-.457-2.648c1.889.414 3.784.808 5.686 1.173 4.394.85 8.796 1.601 13.204 2.339 4.408.737 8.823 1.426 13.239 2.086l6.633.969c2.183.323 4.485.66 6.788.541 2.295-.105 4.605-.597 6.731-1.559a15.393 15.393 0 0 0 2.984-1.833 14.618 14.618 0 0 0 2.436-2.529 13.658 13.658 0 0 0 1.656-3.083 52.968 52.968 0 0 0 1.102-3.21 176.111 176.111 0 0 0 1.895-6.448c2.352-8.576 4.458-17.201 6.465-25.854.758-.295 1.51-.632 2.226-1.025a15.85 15.85 0 0 0 1.137-.689c.203-.14.4-.288.596-.442.169.478.471.899.85 1.208a3.805 3.805 0 0 0 1.677.759c.59.119 1.285.091 1.86-.218.569-.288 1.025-.731 1.39-1.222a5.07 5.07 0 0 0 .379-.625 2.919 2.919 0 0 0 1.748-1.082 3.08 3.08 0 0 0 .604-1.384.31.31 0 0 0-.028-.175v-.007l-1.79-3.807c.281-.148.561-.295.828-.464a15.168 15.168 0 0 0 1.762-1.243 13.015 13.015 0 0 0 1.544-1.517c.471-.555.899-1.124 1.25-1.82a.347.347 0 0 0 .021-.252.343.343 0 0 0-.428-.232l-.014.007-12.678 3.681-6.338 1.854c-1.179.365-2.12 1.103-2.962 1.847-.85.759-1.608 1.588-2.324 2.437-2.85 3.435-5.194 7.2-7.447 10.992-2.254 3.786-4.324 7.719-6.451 11.512-1.243 1.925-1.713 4.263-3.236 5.408-.737.583-1.706.857-2.724.934-1.018.092-2.078-.007-3.131-.154-2.105-.302-4.169-.962-6.226-1.679-2.057-.73-4.085-1.545-6.107-2.388-4.036-1.7-8.023-3.554-11.975-5.464-3.952-1.918-7.869-3.905-11.716-6.005-1.923-1.054-3.839-2.129-5.678-3.287-.45-.295-.92-.59-1.404-.885l-.716-.443-.737-.4c-.976-.548-1.98-1.019-2.976-1.496-4.03-1.84-8.192-3.329-12.383-4.699a252.852 252.852 0 0 0-6.317-1.953l-1.573-.47c-.309-.092-.575-.471-.709-.934-.28-.935-.252-2.03-.084-3.063.176-1.039.491-2.065.997-2.964.498-.892 1.235-1.678 2.141-1.889 2.19-.358 4.345-1.271 6.226-2.486.941-.618 1.832-1.335 2.604-2.185.765-.843 1.425-1.833 1.769-2.964.323-1.123.421-2.254.449-3.371a31.002 31.002 0 0 0-.119-3.343c-.189-2.213-.54-4.397-.877-6.567-.379-2.143-.372-4.348-.73-6.56a8.035 8.035 0 0 0-.078-.429.375.375 0 0 0 .043-.154.346.346 0 0 0-.113-.26c-.337-1.91-.814-3.786-1.347-5.633-.141-.464-.274-.927-.415-1.39 3.075-5.83.422-7.657-1.235-9.23-1.874-1.777-5.321-3.449-7.679-4.137-1.257-.365-3.061-.45-5.118-.28a16.96 16.96 0 0 0-2.863-.415c-6.009-.295-10.34 2.17-15.759 7.782-5.419 5.619-4.331 18.43-5.124 29.267-.787 10.838-4.528 14.778-6.107 24.731-.225 1.425-.218 2.612-.035 3.617a99.7 99.7 0 0 0-6.423 4.944c-5.054 4.222-9.715 8.885-13.997 13.865-4.198 4.973-8.676 9.735-12.769 14.869-2.049 2.564-4.022 5.198-5.805 7.972-1.776 2.774-3.404 5.675-4.583 8.801-.569 1.566-1.06 3.174-1.334 4.839-.098.407-.105.836-.162 1.257-.042.421-.105.843-.084 1.264v1.279l.134 1.271c.435 3.399 2.288 6.574 4.843 8.751l.955.829c.33.253.681.485 1.025.731a32.42 32.42 0 0 0 2.07 1.355l4.149 2.592 8.332 5.141a961.442 961.442 0 0 0 16.79 10.072 387.94 387.94 0 0 0 8.515 4.846c1.432.787 2.871 1.56 4.331 2.304.723.365 1.453.723 2.204 1.054 0 .021 0 .035-.007.056-.028.47-.042.934-.049 1.404 0 .935.056 1.862.176 2.796.126.927.301 1.854.652 2.76.134.337.302.689.506 1.019-1.53 3.504-2.969 7.058-4.226 10.704-1.446 4.347-2.66 8.751-3.748 13.183H74.308a.347.347 0 0 0-.351.351c0 .197.155.351.351.351h93.429c-.259 1.075-.519 2.15-.765 3.224a256.098 256.098 0 0 0-3.306 17.398c-.885 5.836-1.615 11.708-1.804 17.636l-.021.85H74.308a.347.347 0 0 0-.351.351c0 .197.155.351.351.351h87.512a417.088 417.088 0 0 1-.232 7.263h-87.28a.347.347 0 0 0-.351.351c0 .197.155.351.351.351h87.252a629.928 629.928 0 0 1-.386 8.119c-.632 11.758-1.418 23.508-2.274 35.252v.014a.35.35 0 0 0 .33.365c5.257.295 10.515.401 15.772.436-2 9.327-3.439 18.795-3.924 28.34-.308 5.914-.294 11.849.113 17.756.442 5.907.947 11.743 1.425 17.622l5.77 70.356a17.645 17.645 0 0 0-.428 4.158c.049 1.404.245 2.9 1.123 4.151.273.386.631.716 1.032.983l.673 3.357a.354.354 0 0 0 .344.281h2.45a.346.346 0 0 0 .344-.288l.534-2.901c.94-.168 1.825-.428 2.716-.814 1.299-.569 2.527-1.342 3.552-2.339 1.025-.99 1.881-2.22 2.267-3.638a6.532 6.532 0 0 0-.259-4.292c-.534-1.355-1.446-2.5-2.45-3.498l-.527-.519c-.035-1.012-.056-2.03-.063-3.049.014-1.468 0-2.935.028-4.396l.134-4.404c.231-5.872.568-11.737.996-17.601.843-11.723 1.889-23.438 3.054-35.14.582-5.85 1.193-11.694 1.818-17.545.646-5.843 1.242-11.694 2.078-17.495a308.219 308.219 0 0 1 2.948-17.342c.793-4.031 1.692-8.035 2.611-12.045.456-.014.92-.021 1.376-.035 1.032-.029 2.071-.064 3.102-.092-.28 13.366-.098 26.781 1.053 40.133.66 7.424 1.636 14.834 3.264 22.132.169.92.422 1.819.66 2.725l.716 2.718c.211.913.548 1.791.836 2.683l.898 2.669c1.292 3.491 2.639 6.946 3.959 10.416 2.653 6.932 5.335 13.858 7.827 20.839 1.228 3.491 2.414 7.003 3.39 10.564.253.885.449 1.784.674 2.676.162.899.393 1.791.491 2.697.155.906.197 1.798.225 2.697 0 .913-.042 1.826-.105 2.746-.127 1.833-.358 3.673-.548 5.528a41.315 41.315 0 0 0-.196 2.816c-.021.948.007 1.925.266 2.908.127.492.344.983.681 1.419.246.323.569.59.92.779l.323 2.725a.35.35 0 0 0 .351.31h3.615a.35.35 0 0 0 .33-.232l.828-2.332c1.179-.049 2.239-.134 3.454-.204 1.839-.105 3.664-.077 5.468.183 1.804.288 3.664.625 5.503.85 1.853.231 3.713.414 5.595.421.94.007 1.881-.021 2.821-.147.941-.12 1.889-.309 2.794-.703a.29.29 0 0 0 .155-.133c.28-.52.231-1.061.028-1.524-.211-.45-.548-.787-.892-1.068-.709-.548-1.53-.843-2.218-1.208-1.425-.759-2.815-1.636-4.17-2.55a85.922 85.922 0 0 1-2.091-1.46c-.632-.464-1.264-.928-1.875-1.412-1.277-1.005-2.541-2.058-3.608-3.238a5.854 5.854 0 0 1-.695-.906 3.137 3.137 0 0 1-.217-.506 9.133 9.133 0 0 1-.197-.562c-.252-.758-.456-1.552-.659-2.346-.401-1.58-.759-3.181-1.103-4.79-.68-3.21-1.305-6.433-1.895-9.664-2.337-12.924-4.303-25.925-5.721-38.974-.716-6.525-1.13-13.064-1.425-19.624-.301-6.56-.491-13.128-.631-19.695a1666.648 1666.648 0 0 1-.365-31.381c4.618-.204 9.244-.422 13.863-.653h.021a.899.899 0 0 0 .849-.913l-.091-5.971-.049-2.985c-.014-.997-.105-1.987-.154-2.978-.246-3.968-.414-7.943-.843-11.891l-.547-5.935c-.183-1.98-.449-3.947-.674-5.913l-.646-5.479h372.425a.347.347 0 0 0 .351-.351.347.347 0 0 0-.351-.351H248.012c-.239-1.883-.512-3.758-.772-5.633l-.232-1.63h373.513a.353.353 0 0 0 .358-.351zm-390.507-79.662c-2.871-.168-5.735-.197-8.606-.211-4.254.014-8.507.106-12.761.239-8.066.274-16.117.66-24.168 1.159.435-.843.87-1.686 1.312-2.521.934-.071 1.853-.394 2.605-.984.273-.224.533-.463.744-.814.049-.092.098-.19.133-.331a.567.567 0 0 0-.021-.316c-.049-.154-.225-.266-.344-.288a3.685 3.685 0 0 1-.435-.119c-.316-.105-.646-.218-.976-.33l.169-.316a517.335 517.335 0 0 1 20.349-1.257c6.844-.274 13.695-.401 20.532-.218.505 2.1.99 4.2 1.467 6.307zm-.337-40.87c-.365 1.889-.863 3.828-1.32 5.745-.926 3.856-1.881 7.726-2.421 11.722-.246 2.002-.45 4.039-.113 6.181.288 1.159.541 1.988.801 2.929l.723 2.873c.351 1.461.695 2.922 1.046 4.389-2.17-.091-4.339-.147-6.508-.175l2.043-49.931c1.72.604 3.461 1.018 5.202 1.426a43.04 43.04 0 0 1 .589 3.266 44.88 44.88 0 0 1 .435 5.815c.007 1.939-.126 3.877-.477 5.76zm81.784-56.569a2.392 2.392 0 0 1-1.292 1.777c-.028.014-.056.021-.077.035.042-.14.077-.28.105-.428.092-.653.022-1.236-.049-1.819-.14-1.075-.365-2.114-.617-3.161.063-.028.126-.063.189-.091l1.741 3.687zm-36.782 29.233c1.011-.787 1.607-1.89 2.078-2.901.477-1.04.863-1.988 1.439-2.908 2.148-3.891 4.148-7.768 6.366-11.561 2.211-3.778 4.514-7.536 7.266-10.893.694-.829 1.417-1.637 2.204-2.353.786-.71 1.635-1.356 2.569-1.651l6.303-1.931 11.737-3.625c-.211.31-.449.612-.688.899-.442.52-.941.991-1.46 1.433-.534.429-1.088.836-1.678 1.187-.582.359-1.2.668-1.825.948l-.007.008a.354.354 0 0 0-.189.407c.294 1.103.561 2.226.723 3.35.077.555.147 1.138.077 1.637-.077.505-.316 1.018-.625 1.454-.316.435-.709.828-1.172 1.074-.456.253-.976.288-1.516.19-.99-.162-1.959-.801-2.226-1.756h1.629a.348.348 0 0 0 .351-.351.347.347 0 0 0-.351-.351h-1.797a.348.348 0 0 0-.239.098l-.007.007c-.273.26-.631.52-.968.751-.351.232-.709.45-1.081.654-.744.407-1.517.758-2.317 1.06a.37.37 0 0 0-.217.239v.007a1197.306 1197.306 0 0 1-3.433 12.952 668.695 668.695 0 0 1-3.559 12.909c-.625 2.142-1.235 4.284-1.923 6.399a49.8 49.8 0 0 1-1.088 3.125 12.243 12.243 0 0 1-1.516 2.795 13.017 13.017 0 0 1-2.212 2.276 13.952 13.952 0 0 1-2.723 1.651c-1.951.864-4.085 1.341-6.247 1.447-.078.007-.155.007-.232.007l-3.657-17.665c.786-.175 1.558-.492 2.211-1.018zm-6.851 1.081c1.123.148 2.267.253 3.439.141.169-.014.344-.035.52-.063l3.636 17.545c-1.853.007-3.699-.26-5.602-.527l-4.843-.688-.856-17.258c1.207.366 2.435.682 3.706.85zm-56.717-66.71c.344 2.135.329 4.362.716 6.56.105.695.21 1.384.308 2.072-.007-.021-.014-.042-.021-.056-.505-1.23-1.046-2.423-1.572-3.631l-.463-1.082a.516.516 0 0 0 .252.063c.429 0 .773-.498.773-1.11 0-.61-.344-1.11-.773-1.11-.386 0-.709.415-.758.949-.182-.45-.365-.906-.456-1.3-.098-.512.197-.94.716-1.215.372-.21.8-.316 1.242-.407 0 .098.022.183.036.267zm-10.27 2.304c3.524-4.369 4.717-12.18 5.033-16.688a11.56 11.56 0 0 1 1.432 1.96c.541.926.99 1.91 1.362 2.928.365 1.011.674 2.072.983 3.126.512 1.77.961 3.56 1.284 5.365a4.525 4.525 0 0 0-1.481.506c-.323.183-.639.436-.849.794a1.73 1.73 0 0 0-.204 1.201c.183.751.463 1.3.723 1.924l.814 1.806c.548 1.2 1.109 2.387 1.622 3.589.126.287.26.625.33.856.056.162-.085.373-.302.513-.463.288-1.123.316-1.741.26h-.007a.275.275 0 0 0-.295.253.27.27 0 0 0 .253.295c.674.056 1.411.077 2.099-.316a1.35 1.35 0 0 0 .477-.478c.126.963.239 1.925.323 2.887.154 2.156.246 4.39-.316 6.398-.625 1.967-2.281 3.52-4.043 4.678-1.811 1.16-3.798 2.009-5.953 2.353-1.284.302-2.148 1.314-2.709 2.304-.576 1.018-.92 2.128-1.109 3.252-.176 1.131-.239 2.297.105 3.484.091.295.225.59.421.87.204.274.499.534.871.654l1.586.477c2.106.625 4.205 1.279 6.289 1.96.562.182 1.117.379 1.678.569a43.08 43.08 0 0 1-3.173 1.117c-3.179.955-6.444 1.615-9.75 1.896-.379.035-.758.042-1.137.063.358-.372.695-.751.983-1.152 2.815-3.877-.197-17.243-1.179-23.648-1.018-6.399 1.053-10.437 5.58-16.056zm-6.668 42.008a41.738 41.738 0 0 0 2.491-.19c3.37-.344 6.697-1.074 9.912-2.1a44.615 44.615 0 0 0 4.092-1.545c2.169.752 4.324 1.552 6.437 2.43a62.96 62.96 0 0 1-6.423 2.114c-3.987 1.082-8.086 1.686-12.192 2.044a82.12 82.12 0 0 1-9.659.218c2.035-.759 3.867-1.784 5.342-2.971zm-64.867 69.274c-.26-.176-.52-.351-.766-.534-.322-.232-.652-.449-.961-.695l-.885-.78c-2.379-2.072-3.987-4.93-4.366-8.021-.407-3.097.316-6.272 1.446-9.243 1.158-2.978 2.766-5.787 4.521-8.484 1.769-2.704 3.734-5.282 5.784-7.79 4.085-5.035 8.599-9.748 12.867-14.714 4.267-4.874 8.907-9.426 13.905-13.528a98.805 98.805 0 0 1 5.889-4.481c2.296 3.884 8.838 3.252 13.717 3.4a21.37 21.37 0 0 0 4.583-.372l1.011.063c4.177.225 8.374.133 12.537-.274 4.155-.422 8.304-1.096 12.326-2.255a63.303 63.303 0 0 0 7.195-2.528c.66.281 1.32.562 1.965.857 1.994.92 3.875 1.945 5.7 3.174 1.867 1.201 3.777 2.304 5.707 3.379 7.714 4.277 15.59 8.231 23.698 11.729 2.028.864 4.078 1.7 6.163 2.458.681.239 1.369.471 2.057.696l.863 17.383-1.081-.154-13.246-1.981a701.387 701.387 0 0 1-13.21-2.163c-2.197-.38-4.388-.78-6.571-1.222-2.169-.457-4.38-.892-6.436-1.609l-.022-.007a.358.358 0 0 0-.456.316l-2.688 50.416a358.462 358.462 0 0 0-12.572.098c-6.809.176-13.611.485-20.42.934-3.706-4.396-7.082-9.187-10.178-14.096-3.11-4.959-5.924-10.107-8.339-15.445-2.415-5.331-4.436-10.852-5.889-16.52-.759-2.83-1.285-5.71-1.727-8.604-.428-2.9-.618-5.822-.702-8.751v-.007a.355.355 0 0 0-.351-.344.351.351 0 0 0-.351.351c.028 2.957.175 5.921.554 8.857.365 2.725.815 5.443 1.453 8.119l-11.884 11.35-3.411 3.259c-.555.548-1.158 1.068-1.713 1.714-.267.33-.54.653-.758 1.075-.21.4-.414.934-.288 1.531.127.59.541.983.716 1.222.12.147.295.351.428.492l.408.435 1.003 1.061-17.225 10.233zm56.429 14.897c-.056.105-.112.218-.168.323a2.983 2.983 0 0 0-1.053.028c-.681.183-1.278.443-1.881.71a57.996 57.996 0 0 0-3.342 1.636 188.494 188.494 0 0 1-7.693-5.078c-1.278-.906-2.555-1.819-3.763-2.795-1.186-.977-2.309-2.093-3.439-3.168-4.485-4.39-8.845-8.934-13.176-13.485l-3.236-3.435-1.6-1.728-.393-.435c-.133-.155-.218-.246-.344-.4-.302-.38-.47-.576-.505-.773-.092-.372.322-1.04.793-1.573.484-.548 1.067-1.054 1.642-1.602l3.447-3.224 11.399-10.676c1.348 5.416 3.201 10.704 5.412 15.832 2.345 5.436 5.097 10.697 8.15 15.768 2.969 4.881 6.149 9.587 9.75 14.075zm-51.06-11.455l-4.127-2.627a44.411 44.411 0 0 0-.597-.38l17.079-10.156.126.134 3.271 3.406 3.089 3.175-12.207 10.641-6.634-4.193zm40.566 28.537c-.084-.885-.112-1.784-.084-2.676.014-.345.042-.703.07-1.061.056.021.112.049.175.07.204.07.401.141.611.197l.337.07c.119.021.295.014.435 0a.314.314 0 0 0 .281-.225.318.318 0 0 0-.218-.393l-.231-.063c-.063-.021-.084 0-.169-.014l-.259-.063c-.176-.05-.365-.12-.548-.183a20.837 20.837 0 0 1-1.102-.471c-.73-.337-1.46-.695-2.176-1.067a149.461 149.461 0 0 1-4.289-2.325 372.61 372.61 0 0 1-8.451-4.917 959.748 959.748 0 0 1-16.686-10.212l-1.01-.639 12.08-10.528c3.208 3.273 6.444 6.524 9.757 9.706 1.158 1.082 2.282 2.17 3.531 3.182 1.249.99 2.541 1.896 3.84 2.795a182.119 182.119 0 0 0 7.946 5.128c.105.063.238.07.351.014h.007c1.144-.597 2.302-1.187 3.474-1.707.583-.253 1.187-.513 1.762-.667.499-.134 1.137.035 1.741.189.611.169 1.207.394 1.839.604.077.028.169.049.253.071-.127.203-.33.407-.548.582-.94.745-2.218 1.012-3.397.773a.338.338 0 0 0-.372.176l-.007.007a15.438 15.438 0 0 1-1.846 2.711c-.709.822-1.538 1.566-2.492 1.952l-.014.007a.344.344 0 0 0-.19.457.352.352 0 0 0 .457.19c.631-.26 1.172-.626 1.67-1.054a289.358 289.358 0 0 0-3.671 7.557 294.008 294.008 0 0 0-2.169 4.784c-.056-.127-.112-.253-.154-.38-.302-.814-.443-1.692-.534-2.577zm-13.414 84.424c.365-5.879.674-11.779.842-17.658.239-5.843 1.011-11.68 1.945-17.475a252.556 252.556 0 0 1 3.446-17.271c1.362-5.71 2.892-11.385 4.787-16.913 1.952-5.499 4.352-10.865 6.872-16.161a333.264 333.264 0 0 1 4.093-8.204 864.696 864.696 0 0 1 24.877-1.467c3.868-.162 7.742-.281 11.61-.352 1.011 7.178 3.334 19.47 5.995 33.517 5.756 30.384 12.908 68.143 12.403 83.111-4.373.274-52.26 3.202-78.513 2.079a1501.08 1501.08 0 0 0 1.643-23.206zm27.888 170.898a.35.35 0 0 0 .162-.47c-.007-.021-.021-.028-.035-.042a59.98 59.98 0 0 1-.394-4.636c.955.948 1.804 2.023 2.289 3.252a5.834 5.834 0 0 1 .238 3.842c-.343 1.264-1.13 2.395-2.084 3.322-.955.934-2.12 1.658-3.349 2.199-.975.421-2.014.723-3.067.871l-.105.702-.436 2.367h-1.874l-.681-3.371a3.229 3.229 0 0 1-1.088-.956c-.737-1.039-.947-2.423-.989-3.757a16.76 16.76 0 0 1 .301-3.4c1.039.639 3.307 1.026 5.644 1.026 2.022 0 4.092-.288 5.468-.949zm9.006-123.468a300.238 300.238 0 0 0-2.822 17.461c-.786 5.851-1.34 11.708-1.937 17.559a2100.898 2100.898 0 0 0-1.678 17.573c-1.067 11.715-2.028 23.445-2.772 35.195a529.08 529.08 0 0 0-.85 17.637l-.098 4.418c-.021 1.475.007 2.95.007 4.417.035 2.894.168 5.795.562 8.696-3.271 1.369-9.631.639-10.403-.344l-5.026-70.433c-.407-5.865-.864-11.765-1.236-17.602a144.862 144.862 0 0 1 .078-17.545c.561-9.137 2.007-18.191 3.987-27.132 5.363.527 21.374 1.665 23.922 1.595-.597 2.823-1.193 5.654-1.734 8.505zm57.356 122.324c1.376.913 2.78 1.784 4.254 2.563.758.394 1.516.668 2.113 1.124.295.232.548.499.688.794.126.246.126.555.056.765-.772.316-1.621.478-2.471.583-.898.113-1.811.134-2.73.12-1.832-.028-3.672-.218-5.497-.464-1.839-.239-3.636-.583-5.489-.892-1.867-.288-3.769-.33-5.636-.239-1.376.064-2.513.176-3.861.204l-.302.906-.653 1.833h-3.06l-.232-1.98h.007l-.133-1.124c-.632-.309-1.095-.934-1.285-1.686-.21-.815-.239-1.721-.21-2.627.014-.498.049-1.004.091-1.51 2.014.33 4.45 1.068 6.823 1.784 2.716.822 5.061 1.531 6.415 1.531 2.352 0 7.799-2.486 9.084-3.09.674.485 1.347.948 2.028 1.405zm-18.882-64.365c1.509 13.085 3.573 26.086 6.002 39.016.61 3.231 1.263 6.462 1.972 9.679.358 1.608.73 3.217 1.144 4.811.218.801.428 1.594.695 2.395.063.197.134.401.218.597.07.197.154.401.281.618.245.394.512.731.8 1.04 1.151 1.25 2.436 2.296 3.741 3.315.449.344.906.681 1.369 1.011-1.699.78-6.43 2.866-8.437 2.866-1.257 0-3.665-.731-6.213-1.503-2.407-.731-4.892-1.482-6.963-1.812.021-.176.028-.351.049-.527.197-1.833.449-3.68.597-5.556.077-.934.126-1.875.133-2.816-.028-.955-.07-1.918-.217-2.852-.099-.948-.323-1.854-.485-2.788-.224-.913-.414-1.826-.66-2.732-.961-3.617-2.127-7.157-3.334-10.676-2.443-7.031-5.068-13.977-7.672-20.931-1.299-3.476-2.611-6.953-3.875-10.437l-.856-2.62c-.274-.878-.597-1.734-.801-2.633l-.68-2.676c-.225-.892-.471-1.777-.632-2.69-1.544-7.214-2.457-14.567-3.054-21.942-1.003-12.839-1.102-25.728-.758-38.623l24.765.857c.105 9.39.281 18.781.54 28.171.19 6.575.422 13.149.766 19.723.337 6.595.8 13.176 1.565 19.715zm11.414-84.255c.049.983.133 1.973.147 2.957l.042 2.957.07 5.057c-14.825.941-29.671 1.727-44.524 2.296-7.574.295-15.148.527-22.722.639-7.455.106-14.917.155-22.357-.161.302-3.652.589-7.312.87-10.964 4.205.183 8.95.26 13.997.26 27.853 0 64.439-2.325 64.93-2.36l.316-.021.014-.316c.618-14.827-6.605-52.951-12.403-83.588-2.654-13.998-4.331-26.248-5.314-33.412 2.836-.014 5.686-.014 8.514.127 2.563 11.378 4.9 22.819 7.111 34.268 2.976 15.557 5.658 31.171 7.806 46.855.267 1.959.554 3.919.793 5.878l.688 5.893c.218 1.967.484 3.926.66 5.893l.54 5.907c.414 3.947.583 7.887.822 11.835z" fill="#45567C"/><path d="M226.344 205.552a2.258 2.258 0 0 0 1.678-.752 2.512 2.512 0 0 0 .653-1.699c0-.618-.232-1.243-.653-1.7-.421-.463-1.046-.758-1.678-.751a2.262 2.262 0 0 0-1.678.751 2.515 2.515 0 0 0-.652 1.7c0 .618.231 1.243.652 1.699a2.27 2.27 0 0 0 1.678.752zm-.667-3.231c.127-.253.344-.491.674-.59a1.222 1.222 0 0 1 1.081.211c.337.26.541.702.548 1.152-.014.449-.211.892-.548 1.152-.344.26-.765.309-1.081.21-.33-.091-.547-.337-.674-.59a1.51 1.51 0 0 1-.182-.772c-.021-.26.049-.52.182-.773zm-23.615 48.112a.348.348 0 0 0 .337-.366c-.14-4.825.064-9.657.457-14.468.4-4.811 1.003-9.609 1.734-14.385v-.014a.686.686 0 0 0-.59-.765.686.686 0 0 0-.765.59c-.625 4.818-1.123 9.65-1.411 14.504-.288 4.846-.386 9.713-.127 14.574.015.182.176.33.365.33zm-24.96-14.644a303.01 303.01 0 0 1 2.583-7.747c.899-2.564 1.825-5.128 2.836-7.642v-.014a.587.587 0 0 0-1.095-.422c-.99 2.564-1.874 5.142-2.745 7.734a308.675 308.675 0 0 0-2.485 7.803 219.596 219.596 0 0 0-2.246 7.88c-.681 2.648-1.369 5.289-1.67 8.063a.347.347 0 0 0 .308.387.358.358 0 0 0 .393-.302v-.021c.33-2.648 1.053-5.296 1.762-7.909a277.103 277.103 0 0 1 2.359-7.81zm26.252-156.227c.427 0 .772-.497.772-1.11 0-.613-.345-1.11-.772-1.11-.426 0-.772.497-.772 1.11 0 .613.346 1.11.772 1.11zm-1.971-3.14c.583-.344 1.144-.667 1.734-.906.583-.267 1.214-.316 1.818-.653l.014-.007a.393.393 0 0 0 .183-.26.369.369 0 0 0-.302-.428c-.737-.127-1.446.168-2.106.463a6.853 6.853 0 0 0-1.755 1.23.352.352 0 0 0-.063.435.344.344 0 0 0 .477.126zm6.654 12.643l.035.014a2.67 2.67 0 0 0 1.074.169c.372.007.73-.092 1.081-.204.358-.105.681-.33.976-.59.266-.28.498-.66.491-1.075v-.035c0-.07-.042-.14-.105-.175a.193.193 0 0 0-.26.084c-.126.253-.323.47-.562.653-.238.183-.519.302-.807.422-.575.231-1.214.295-1.832.28a.236.236 0 0 0-.225.155c-.049.12.015.26.134.302z" fill="#45567C"/><path d="M552.019 37.961H171.451v200.42h380.568V37.961z" fill="#F5F5F8"/><path d="M472.13 52.648h-41.226v138.66h41.226V52.648zm-179.803 0h-41.225v119.156h41.225V52.648zm-58.922 0H192.18v138.225h41.225V52.648zm178.399 0h-41.226v59.672h41.226V52.648zm119.718 0h-41.225v119.64h41.225V52.648zm-178.871 0h-41.225v99.398h41.225V52.648z" fill="#fff"/><path d="M347.092 98.336a1.678 1.678 0 1 0-.002-3.356 1.678 1.678 0 0 0 .002 3.356z" fill="#fff"/><path d="M186.797 32.258a3.646 3.646 0 0 0 3.644-3.645 3.65 3.65 0 0 0-3.644-3.645 3.646 3.646 0 0 0 0 7.29zm13.926 0a3.645 3.645 0 0 0 0-7.29 3.646 3.646 0 0 0 0 7.29zm13.932-.008a3.644 3.644 0 0 0 3.643-3.645 3.644 3.644 0 1 0-3.643 3.646zm75.558 24.162a1.678 1.678 0 1 0-.002-3.356 1.678 1.678 0 0 0 .002 3.356zm0 19.905a1.678 1.678 0 1 0-.002-3.356 1.678 1.678 0 0 0 .002 3.356zm-1.678 18.233a1.678 1.678 0 1 0 3.356.002 1.678 1.678 0 0 0-3.356-.001zm3.348 59.729a1.678 1.678 0 1 0-3.355 0 1.678 1.678 0 0 0 3.355 0zM349.9 56.405a1.678 1.678 0 1 0-1.677-1.678 1.687 1.687 0 0 0 1.677 1.678zm0 19.912a1.678 1.678 0 1 0-1.677-1.678c0 .927.758 1.678 1.677 1.678zm0 39.817a1.678 1.678 0 1 0-1.677-1.679 1.687 1.687 0 0 0 1.677 1.679zm0 19.912a1.679 1.679 0 1 0-1.677-1.679c0 .927.758 1.679 1.677 1.679zm59.694-79.634a1.678 1.678 0 1 0-.002-3.356 1.678 1.678 0 0 0 .002 3.356zm0 19.905a1.678 1.678 0 1 0-.002-3.356 1.678 1.678 0 0 0 .002 3.356zm0 19.913a1.678 1.678 0 1 0-1.678-1.68 1.687 1.687 0 0 0 1.678 1.68zM230.519 56.412a1.678 1.678 0 1 0 0-3.356 1.678 1.678 0 0 0 0 3.356zm0 19.905a1.678 1.678 0 1 0 0-3.356 1.678 1.678 0 0 0 0 3.356zm0 19.913a1.678 1.678 0 1 0 0-3.357 1.678 1.678 0 0 0 0 3.356zm0 19.904a1.678 1.678 0 1 0 0-3.356 1.678 1.678 0 0 0 0 3.356zm0 59.736a1.679 1.679 0 1 0-.001-3.357 1.679 1.679 0 0 0 .001 3.357z" fill="#E4E7ED"/><path d="M312.941 49.852v100.915h43.212v-20.333a.745.745 0 0 0 0-.562v-19.35a.745.745 0 0 0 0-.562V90.61a.745.745 0 0 0 0-.562V70.705a.744.744 0 0 0 0-.562V49.845h-43.212v.007zm41.808 99.511h-40.404v-18.508h40.404v18.508zm0-19.905h-40.404v-18.507h40.404v18.507zm0-39.824h-40.404v-18.5h40.404v18.5zm0-19.905h-40.404V51.257h40.404v18.472z" fill="#A6FADD"/><path d="M372.637 49.852v61.113h43.212V90.61a.709.709 0 0 0 0-.547V70.705a.708.708 0 0 0 0-.547V49.859h-43.212v-.007zm41.808 59.715h-40.404V91.046h40.404v18.521zm0-19.933h-40.404v-18.5h40.404v18.5zm0-19.905h-40.404V51.257h40.404v18.472zm17.885-19.877v139.946h43.212v-19.54a.745.745 0 0 0 0-.562v-19.35a.745.745 0 0 0 0-.562v-19.35a.745.745 0 0 0 0-.562v-19.35a.745.745 0 0 0 0-.562V90.61a.745.745 0 0 0 0-.562V70.705a.744.744 0 0 0 0-.562V49.845H432.33v.007zm41.808 138.541h-40.404v-17.714h40.404v17.714zm0-19.118h-40.404v-18.508h40.404v18.508zm0-19.912h-40.404v-18.508h40.404v18.508zm0-19.905h-40.404v-18.507h40.404v18.507zm0-19.912h-40.404V91.038h40.404v18.508zm0-19.912h-40.404v-18.5h40.404v18.5zm0-19.905h-40.404V51.257h40.404v18.472zm17.885-19.877v120.827h43.212v-20.333a.745.745 0 0 0 0-.562v-19.35a.745.745 0 0 0 0-.562v-19.35a.745.745 0 0 0 0-.562V90.61a.745.745 0 0 0 0-.562V70.705a.744.744 0 0 0 0-.562V49.845h-43.212v.007zm41.808 119.423h-40.404v-18.508h40.404v18.508zm0-19.912h-40.404v-18.508h40.404v18.508zm0-19.905h-40.404v-18.507h40.404v18.507zm0-19.912h-40.404V91.038h40.404v18.508zm0-19.912h-40.404v-18.5h40.404v18.5zm0-19.905h-40.404V51.257h40.404v18.472z" fill="#E4E7ED"/><path d="M469.287 56.412a1.678 1.678 0 1 0 0-3.356 1.678 1.678 0 0 0 0 3.356zm0 19.905a1.678 1.678 0 1 0 0-3.356 1.678 1.678 0 0 0 0 3.356zm0 19.913a1.678 1.678 0 1 0-1.678-1.68 1.687 1.687 0 0 0 1.678 1.68zm0 19.911a1.679 1.679 0 1 0-.001-3.357 1.679 1.679 0 0 0 .001 3.357zm0 19.905a1.679 1.679 0 1 0-.001-3.357 1.679 1.679 0 0 0 .001 3.357zm0 19.905a1.678 1.678 0 1 0 0-3.355 1.678 1.678 0 0 0 0 3.355zm59.693-99.539a1.678 1.678 0 1 0 0-3.356 1.678 1.678 0 0 0 0 3.356zm0 19.905a1.678 1.678 0 1 0 0-3.356 1.678 1.678 0 0 0 0 3.356zm0 19.913a1.678 1.678 0 1 0-1.677-1.68 1.687 1.687 0 0 0 1.677 1.68zm0 19.911a1.679 1.679 0 1 0-.001-3.357 1.679 1.679 0 0 0 .001 3.357zm0 19.905a1.679 1.679 0 1 0-.001-3.357 1.679 1.679 0 0 0 .001 3.357zm0 19.905a1.678 1.678 0 1 0 0-3.355 1.678 1.678 0 0 0 0 3.355zm-292.15-85.52a.709.709 0 0 0-.056-.274V49.86h-41.899l3.39 1.405h37.112V69.73h-23.501l.4 1.405h23.101V89.64h-22.272l-.471 1.405h22.743v18.507h-26.688l3.847 1.405h22.848v11.582l1.404.842v-12.853a.706.706 0 0 0 0-.548V90.624a.71.71 0 0 0 0-.548v-19.37c.021-.085.042-.176.042-.275zm.001 79.634a.714.714 0 0 0-.057-.274v-.098l-1.628-.323h-4.38l.196 1.405h4.408v18.507h-5.531l-.281 1.405h5.812V188.4h-7.595l.302 1.405h8.697v-19.54a.706.706 0 0 0 .057-.274.714.714 0 0 0-.057-.274V150.36a.877.877 0 0 0 .057-.295zm16.417 20.615h43.212v-20.334a.749.749 0 0 0 0-.562v-19.35a.749.749 0 0 0 0-.562v-6.897l-1.404 4.249v2.22h-.73l-.463 1.405h1.193v18.507h-7.307l-.463 1.405h7.77v18.507h-40.404v-17.103l-1.404-.189v18.704zm0-120.828v81.27l1.404.422v-.674h22.869l.794-1.405h-23.663v-18.507h34.43l1.074-1.405h-35.504V91.046h40.404v12.804l1.404-.45V90.617a.718.718 0 0 0 0-.562v-19.35a.717.717 0 0 0 0-.562V49.845h-43.212v.007zm41.808 39.782h-40.404v-18.5h40.404v18.5zm0-19.905h-40.404V51.257h40.404v18.472zM173.662 226.63l1.404-3.055v-12.116l-1.404-.59v15.761z" fill="#E4E7ED"/><path d="M173.662 18v69.625l1.404 1.56V37.447h378.666v198.727H237.778l.302 1.405h317.056V18H173.662zm380.07 18.044H175.066v-16.64h378.666v16.64zm-380.07 162.133l1.404.927v-17.425l-1.404-2.128v18.626z" fill="#E4E7ED"/><path d="M128.274 249.948c53.895-1.629 204.702-1.671 255.607-1.643 50.905.028 118.601.414 153.719.878 35.119.463 80.928.983 60.024 7.143-20.904 6.16-52.415 5.717-79.903 6.342-27.488.625-55.503 3.084-48.392 5.479 7.111 2.395 11.666 7.655-4.12 8.87-15.787 1.216-138.017 3.393-176.189 2.396-38.172-.998-128.008-.253-131.812-5.465-3.376-4.628 11.028-6.455 27.53-7.164 25.642-1.103 39.738-5.528 23.958-5.879-15.78-.351-47.838-1.32-72.266-1.721-24.435-.4-54.962-2.142-48.329-4.986 6.634-2.838 29.924-3.941 40.173-4.25z" fill="#E2F2FF"/><path opacity=".17" d="M591.11 293.235s-.14.253-.407.71h.407v-.71z" fill="#7A88A7"/><path d="M176.064 116.415l8.732 4.095s9.547 0 16.096-1.089c6.549-1.088 14.734-3.821 14.734-3.821l32.739 16.653 13.098 5.732 7.637.54 4.64 18.838-31.103-3.821-15.822-3.547s2.183 7.916 1.635 11.737c-.547 3.82-3.818 19.652-3.818 19.652s-.821 7.915.821 11.462c1.636 3.547 15.822 77.801 15.822 77.801l6.275 54.595-1.116 9.278-63.266 4.368-26.464-1.362 3.005-51.322 2.73-25.39 8.732-33.306 10.923-22.265s4.197-1.124 4.443-2.17c.197-.843-2.688-1.658-2.688-1.658s-9.68-13.766-13.499-21.682c-3.818-7.916-10.641-25.657-10.641-25.657l-17.191 17.468s-.548.821 2.183 3.82c2.731 2.999 7.097 7.916 7.097 7.916l-12.839 10.936s-13.639-7.368-15.548-9.826c-1.909-2.459-6.275-10.1-3.819-14.469 2.457-4.369 5.728-13.373 8.459-16.105 2.73-2.732 25.642-28.937 25.642-28.937l13.913-11.196 8.458 2.732z" fill="#C0F7DF"/><path d="M175.943 473.11l-.484 4.467.891 3.006.976.815.814 3.568 2.352.161.976-3.083s6.731-2.03 7.868-5.197c1.138-3.168.731-7.143-2.512-9.251l.322 5.359s-2.435 1.138-4.703.977c-2.267-.162-6.5-.822-6.5-.822zm53.046-3.083l12.326 3.49s1.376.162 2.836-.245c1.46-.408 7.378-2.922 7.378-2.922s6.086 3.975 6.324 4.059c.246.085 2.836 1.461 2.836 1.461l.323 1.623s-2.19.976-4.296 1.053c-2.106.085-14.439-1.545-14.439-1.545l-6.977.246-1.053 2.599h-3.405l-.645-3.168s-1.545-.731-1.545-2.03c.014-1.292.337-4.621.337-4.621z" fill="#7A88A7"/><path d="M433.102 262.956l55.243-6.461s21.135 3.568 35.153 1.074c.057-.007-12.557 4.664-12.557 4.664l-38.383 5.022-39.456-4.299z" fill="#FFF59B"/><path d="M439.714 274.587a1.04 1.04 0 0 0 .962-1.117 1.04 1.04 0 0 0-2.043-.175l-3.685.47c-.063.007-.112.063-.112.134 0 .07.063.126.133.126l3.714-.07a1.03 1.03 0 0 0 1.031.632zm-116.355-6.216c.569-.07.976-.597.906-1.166a1.048 1.048 0 0 0-1.165-.906 1.037 1.037 0 0 0-.885.836l-3.65.667c-.063.014-.112.07-.105.134.007.07.07.126.14.119l3.706-.267c.176.393.597.639 1.053.583zm151.501-.885h-.035l-39.218-4.207a.356.356 0 0 1-.316-.351.35.35 0 0 1 .309-.351l55.32-6.307h.071s12.508 1.194 17.857 1.713c8.613.836 18.517-.892 18.616-.913a.354.354 0 0 1 .4.246.343.343 0 0 1-.204.421c-.4.162-9.855 4.018-15.527 4.734-10.354 1.314-36.957 4.966-37.231 5.001a.075.075 0 0 1-.042.014zm-36.017-4.572l36.017 3.863c1.214-.169 27.025-3.709 37.196-4.994 3.678-.463 9.139-2.339 12.46-3.568-3.658.457-9.968 1.033-15.717.471a9351.29 9351.29 0 0 0-17.816-1.707l-52.14 5.935z" fill="#45567C"/><path d="M518.507 260.821c2.028 0 15.899 1.376 10.072 1.503-5.826.133-42.067 3.469-42.067 3.469l23.354-3.272 8.641-1.7z" fill="#45567C"/><path d="M191.771 115.972s9.203.232 16.012-3.554c0 0-6.577-2.795-10.073-3.378-3.496-.583-.407-8.274.99-9.145 1.397-.87 6.17-.934 9.666-4.776 3.495-3.842 2.379-10.388.694-23.283-1.684-12.895-6.401-14.82-6.401-14.82s-.464 11.533-4.774 16.14c-4.31 4.6-7.103 8.562-5.475 18.641 1.629 10.079 4.191 21.556-.639 24.175zm77.889 22.434l4.078 18.957s8.424-.155 12.537-6.371c4.114-6.216 10.333-37.794 10.333-37.794l4.661-2.465s2.127 4.664 5.475.962l.498-.843s1.748-.056 2.212-2.156l-1.924-4.018s4.689-2.479 5.272-4.951l-19.135 5.787s-2.661.78-6.304 6.146c-3.643 5.373-13.365 22.44-13.365 22.44s-.983 4.011-4.338 4.306zm-130.701 55.81l12.768-11.449s10.86 13.387 25.264 21.57c0 0 3.572-2.655 5.32-2.788 1.748-.134 4.156 1.088 4.156 1.088s-.33 1.728-4.191 2.192l-8.479 17.067s-2.155-2.76-1.517-8.042c.007 0-30.211-16.85-33.321-19.638zm33.243 144.216l27.039 1.088s-4.815 27.652-6.984 46.764c-2.176 19.111-4.155 40.28-4.155 40.28s-1.938 25.721-1.292 41.032l.323 5.359s-5.784 2.606-11.547-.449l-4.605-65.924s-2.387-27.322-1.923-31.93c.47-4.607 3.144-36.22 3.144-36.22zm34.184-.078s-1.86 25.517 1.397 47.656c3.264 22.138 13.857 47.423 13.857 47.423s9.785 22.841 7.686 31.691l.021 4.727s10.108 3.61 12.614 3.722c2.506.12 9.575-3.224 9.575-3.224s-5.672-4.347-5.911-5.218c-.232-.871-4.949-18.465-5.882-27.034-.934-8.562-3.608-20.038-5.412-41.306-1.804-21.267-1.692-45.211-1.692-45.211l-.056-12.411-26.197-.815z" fill="#fff"/><path d="M620.879 285.93a.347.347 0 0 0-.35-.351H246.91c-1.853-13.092-4.064-26.128-6.5-39.115h380.119c.196 0 .35-.154.35-.351a.347.347 0 0 0-.35-.351H240.276c-.301-1.594-.603-3.196-.912-4.79-3.025-15.572-6.275-31.094-10.031-46.525l-.73-2.893c-.274-.97-.59-2.044-.779-2.803-.281-1.784-.119-3.743.119-5.661.52-3.863 1.453-7.705 2.38-11.554.456-1.931.948-3.835 1.334-5.836.365-2.016.505-4.046.491-6.069a48.2 48.2 0 0 0-.456-6.033 48.657 48.657 0 0 0-.457-2.648c1.889.414 3.784.808 5.686 1.173 4.394.85 8.796 1.601 13.204 2.339 4.408.737 8.823 1.426 13.239 2.086l6.633.969c2.183.323 4.485.66 6.788.541 2.295-.105 4.605-.597 6.731-1.559a15.393 15.393 0 0 0 2.984-1.833 14.618 14.618 0 0 0 2.436-2.529 13.658 13.658 0 0 0 1.656-3.083 52.968 52.968 0 0 0 1.102-3.21 176.111 176.111 0 0 0 1.895-6.448c2.352-8.576 4.458-17.201 6.465-25.854.758-.295 1.51-.632 2.226-1.025a15.85 15.85 0 0 0 1.137-.689c.203-.14.4-.288.596-.442.169.478.471.899.85 1.208a3.805 3.805 0 0 0 1.677.759c.59.119 1.285.091 1.86-.218.569-.288 1.025-.731 1.39-1.222a5.07 5.07 0 0 0 .379-.625 2.919 2.919 0 0 0 1.748-1.082 3.08 3.08 0 0 0 .604-1.384.31.31 0 0 0-.028-.175v-.007l-1.79-3.807c.281-.148.561-.295.828-.464a15.168 15.168 0 0 0 1.762-1.243 13.015 13.015 0 0 0 1.544-1.517c.471-.555.899-1.124 1.25-1.82a.347.347 0 0 0 .021-.252.343.343 0 0 0-.428-.232l-.014.007-12.678 3.681-6.338 1.854c-1.179.365-2.12 1.103-2.962 1.847-.85.759-1.608 1.588-2.324 2.437-2.85 3.435-5.194 7.2-7.447 10.992-2.254 3.786-4.324 7.719-6.451 11.512-1.243 1.925-1.713 4.263-3.236 5.408-.737.583-1.706.857-2.724.934-1.018.092-2.078-.007-3.131-.154-2.105-.302-4.169-.962-6.226-1.679-2.057-.73-4.085-1.545-6.107-2.388-4.036-1.7-8.023-3.554-11.975-5.464-3.952-1.918-7.869-3.905-11.716-6.005-1.923-1.054-3.839-2.129-5.678-3.287-.45-.295-.92-.59-1.404-.885l-.716-.443-.737-.4c-.976-.548-1.98-1.019-2.976-1.496-4.03-1.84-8.192-3.329-12.383-4.699a252.852 252.852 0 0 0-6.317-1.953l-1.573-.47c-.309-.092-.575-.471-.709-.934-.28-.935-.252-2.03-.084-3.063.176-1.039.491-2.065.997-2.964.498-.892 1.235-1.678 2.141-1.889 2.19-.358 4.345-1.271 6.226-2.486.941-.618 1.832-1.335 2.604-2.185.765-.843 1.425-1.833 1.769-2.964.323-1.123.421-2.254.449-3.371a31.002 31.002 0 0 0-.119-3.343c-.189-2.213-.54-4.397-.877-6.567-.379-2.143-.372-4.348-.73-6.56a8.035 8.035 0 0 0-.078-.429.375.375 0 0 0 .043-.154.346.346 0 0 0-.113-.26c-.337-1.91-.814-3.786-1.347-5.633-.141-.464-.274-.927-.415-1.39 3.075-5.83.422-7.657-1.235-9.23-1.874-1.777-5.321-3.449-7.679-4.137-1.257-.365-3.061-.45-5.118-.28a16.96 16.96 0 0 0-2.863-.415c-6.009-.295-10.34 2.17-15.759 7.782-5.419 5.619-4.331 18.43-5.124 29.267-.787 10.838-4.528 14.778-6.107 24.731-.225 1.425-.218 2.612-.035 3.617a99.7 99.7 0 0 0-6.423 4.944c-5.054 4.222-9.715 8.885-13.997 13.865-4.198 4.973-8.676 9.735-12.769 14.869-2.049 2.564-4.022 5.198-5.805 7.972-1.776 2.774-3.404 5.675-4.583 8.801-.569 1.566-1.06 3.174-1.334 4.839-.098.407-.105.836-.162 1.257-.042.421-.105.843-.084 1.264v1.279l.134 1.271c.435 3.399 2.288 6.574 4.843 8.751l.955.829c.33.253.681.485 1.025.731a32.42 32.42 0 0 0 2.07 1.355l4.149 2.592 8.332 5.141a961.442 961.442 0 0 0 16.79 10.072 387.94 387.94 0 0 0 8.515 4.846c1.432.787 2.871 1.56 4.331 2.304.723.365 1.453.723 2.204 1.054 0 .021 0 .035-.007.056-.028.47-.042.934-.049 1.404 0 .935.056 1.862.176 2.796.126.927.301 1.854.652 2.76.134.337.302.689.506 1.019-1.53 3.504-2.969 7.058-4.226 10.704-1.446 4.347-2.66 8.751-3.748 13.183H74.308a.347.347 0 0 0-.351.351c0 .197.155.351.351.351h93.429c-.259 1.075-.519 2.15-.765 3.224a256.098 256.098 0 0 0-3.306 17.398c-.885 5.836-1.615 11.708-1.804 17.636l-.021.85H74.308a.347.347 0 0 0-.351.351c0 .197.155.351.351.351h87.512a417.088 417.088 0 0 1-.232 7.263h-87.28a.347.347 0 0 0-.351.351c0 .197.155.351.351.351h87.252a629.928 629.928 0 0 1-.386 8.119c-.632 11.758-1.418 23.508-2.274 35.252v.014a.35.35 0 0 0 .33.365c5.257.295 10.515.401 15.772.436-2 9.327-3.439 18.795-3.924 28.34-.308 5.914-.294 11.849.113 17.756.442 5.907.947 11.743 1.425 17.622l5.77 70.356a17.645 17.645 0 0 0-.428 4.158c.049 1.404.245 2.9 1.123 4.151.273.386.631.716 1.032.983l.673 3.357a.354.354 0 0 0 .344.281h2.45a.346.346 0 0 0 .344-.288l.534-2.901c.94-.168 1.825-.428 2.716-.814 1.299-.569 2.527-1.342 3.552-2.339 1.025-.99 1.881-2.22 2.267-3.638a6.532 6.532 0 0 0-.259-4.292c-.534-1.355-1.446-2.5-2.45-3.498l-.527-.519c-.035-1.012-.056-2.03-.063-3.049.014-1.468 0-2.935.028-4.396l.134-4.404c.231-5.872.568-11.737.996-17.601.843-11.723 1.889-23.438 3.054-35.14.582-5.85 1.193-11.694 1.818-17.545.646-5.843 1.242-11.694 2.078-17.495a308.219 308.219 0 0 1 2.948-17.342c.793-4.031 1.692-8.035 2.611-12.045.456-.014.92-.021 1.376-.035 1.032-.029 2.071-.064 3.102-.092-.28 13.366-.098 26.781 1.053 40.133.66 7.424 1.636 14.834 3.264 22.132.169.92.422 1.819.66 2.725l.716 2.718c.211.913.548 1.791.836 2.683l.898 2.669c1.292 3.491 2.639 6.946 3.959 10.416 2.653 6.932 5.335 13.858 7.827 20.839 1.228 3.491 2.414 7.003 3.39 10.564.253.885.449 1.784.674 2.676.162.899.393 1.791.491 2.697.155.906.197 1.798.225 2.697 0 .913-.042 1.826-.105 2.746-.127 1.833-.358 3.673-.548 5.528a41.315 41.315 0 0 0-.196 2.816c-.021.948.007 1.925.266 2.908.127.492.344.983.681 1.419.246.323.569.59.92.779l.323 2.725a.35.35 0 0 0 .351.31h3.615a.35.35 0 0 0 .33-.232l.828-2.332c1.179-.049 2.239-.134 3.454-.204 1.839-.105 3.664-.077 5.468.183 1.804.288 3.664.625 5.503.85 1.853.231 3.713.414 5.595.421.94.007 1.881-.021 2.821-.147.941-.12 1.889-.309 2.794-.703a.29.29 0 0 0 .155-.133c.28-.52.231-1.061.028-1.524-.211-.45-.548-.787-.892-1.068-.709-.548-1.53-.843-2.218-1.208-1.425-.759-2.815-1.636-4.17-2.55a85.922 85.922 0 0 1-2.091-1.46c-.632-.464-1.264-.928-1.875-1.412-1.277-1.005-2.541-2.058-3.608-3.238a5.854 5.854 0 0 1-.695-.906 3.137 3.137 0 0 1-.217-.506 9.133 9.133 0 0 1-.197-.562c-.252-.758-.456-1.552-.659-2.346-.401-1.58-.759-3.181-1.103-4.79-.68-3.21-1.305-6.433-1.895-9.664-2.337-12.924-4.303-25.925-5.721-38.974-.716-6.525-1.13-13.064-1.425-19.624-.301-6.56-.491-13.128-.631-19.695a1666.648 1666.648 0 0 1-.365-31.381c4.618-.204 9.244-.422 13.863-.653h.021a.899.899 0 0 0 .849-.913l-.091-5.971-.049-2.985c-.014-.997-.105-1.987-.154-2.978-.246-3.968-.414-7.943-.843-11.891l-.547-5.935c-.183-1.98-.449-3.947-.674-5.913l-.646-5.479h372.425a.347.347 0 0 0 .351-.351.347.347 0 0 0-.351-.351H248.012c-.239-1.883-.512-3.758-.772-5.633l-.232-1.63h373.513a.353.353 0 0 0 .358-.351zm-390.507-79.662c-2.871-.168-5.735-.197-8.606-.211-4.254.014-8.507.106-12.761.239-8.066.274-16.117.66-24.168 1.159.435-.843.87-1.686 1.312-2.521.934-.071 1.853-.394 2.605-.984.273-.224.533-.463.744-.814.049-.092.098-.19.133-.331a.567.567 0 0 0-.021-.316c-.049-.154-.225-.266-.344-.288a3.685 3.685 0 0 1-.435-.119c-.316-.105-.646-.218-.976-.33l.169-.316a517.335 517.335 0 0 1 20.349-1.257c6.844-.274 13.695-.401 20.532-.218.505 2.1.99 4.2 1.467 6.307zm-.337-40.87c-.365 1.889-.863 3.828-1.32 5.745-.926 3.856-1.881 7.726-2.421 11.722-.246 2.002-.45 4.039-.113 6.181.288 1.159.541 1.988.801 2.929l.723 2.873c.351 1.461.695 2.922 1.046 4.389-2.17-.091-4.339-.147-6.508-.175l2.043-49.931c1.72.604 3.461 1.018 5.202 1.426a43.04 43.04 0 0 1 .589 3.266 44.88 44.88 0 0 1 .435 5.815c.007 1.939-.126 3.877-.477 5.76zm81.784-56.569a2.392 2.392 0 0 1-1.292 1.777c-.028.014-.056.021-.077.035.042-.14.077-.28.105-.428.092-.653.022-1.236-.049-1.819-.14-1.075-.365-2.114-.617-3.161.063-.028.126-.063.189-.091l1.741 3.687zm-36.782 29.233c1.011-.787 1.607-1.89 2.078-2.901.477-1.04.863-1.988 1.439-2.908 2.148-3.891 4.148-7.768 6.366-11.561 2.211-3.778 4.514-7.536 7.266-10.893.694-.829 1.417-1.637 2.204-2.353.786-.71 1.635-1.356 2.569-1.651l6.303-1.931 11.737-3.625c-.211.31-.449.612-.688.899-.442.52-.941.991-1.46 1.433-.534.429-1.088.836-1.678 1.187-.582.359-1.2.668-1.825.948l-.007.008a.354.354 0 0 0-.189.407c.294 1.103.561 2.226.723 3.35.077.555.147 1.138.077 1.637-.077.505-.316 1.018-.625 1.454-.316.435-.709.828-1.172 1.074-.456.253-.976.288-1.516.19-.99-.162-1.959-.801-2.226-1.756h1.629a.348.348 0 0 0 .351-.351.347.347 0 0 0-.351-.351h-1.797a.348.348 0 0 0-.239.098l-.007.007c-.273.26-.631.52-.968.751-.351.232-.709.45-1.081.654-.744.407-1.517.758-2.317 1.06a.37.37 0 0 0-.217.239v.007a1197.306 1197.306 0 0 1-3.433 12.952 668.695 668.695 0 0 1-3.559 12.909c-.625 2.142-1.235 4.284-1.923 6.399a49.8 49.8 0 0 1-1.088 3.125 12.243 12.243 0 0 1-1.516 2.795 13.017 13.017 0 0 1-2.212 2.276 13.952 13.952 0 0 1-2.723 1.651c-1.951.864-4.085 1.341-6.247 1.447-.078.007-.155.007-.232.007l-3.657-17.665c.786-.175 1.558-.492 2.211-1.018zm-6.851 1.081c1.123.148 2.267.253 3.439.141.169-.014.344-.035.52-.063l3.636 17.545c-1.853.007-3.699-.26-5.602-.527l-4.843-.688-.856-17.258c1.207.366 2.435.682 3.706.85zm-56.717-66.71c.344 2.135.329 4.362.716 6.56.105.695.21 1.384.308 2.072-.007-.021-.014-.042-.021-.056-.505-1.23-1.046-2.423-1.572-3.631l-.463-1.082a.516.516 0 0 0 .252.063c.429 0 .773-.498.773-1.11 0-.61-.344-1.11-.773-1.11-.386 0-.709.415-.758.949-.182-.45-.365-.906-.456-1.3-.098-.512.197-.94.716-1.215.372-.21.8-.316 1.242-.407 0 .098.022.183.036.267zm-10.27 2.304c3.524-4.369 4.717-12.18 5.033-16.688a11.56 11.56 0 0 1 1.432 1.96c.541.926.99 1.91 1.362 2.928.365 1.011.674 2.072.983 3.126.512 1.77.961 3.56 1.284 5.365a4.525 4.525 0 0 0-1.481.506c-.323.183-.639.436-.849.794a1.73 1.73 0 0 0-.204 1.201c.183.751.463 1.3.723 1.924l.814 1.806c.548 1.2 1.109 2.387 1.622 3.589.126.287.26.625.33.856.056.162-.085.373-.302.513-.463.288-1.123.316-1.741.26h-.007a.275.275 0 0 0-.295.253.27.27 0 0 0 .253.295c.674.056 1.411.077 2.099-.316a1.35 1.35 0 0 0 .477-.478c.126.963.239 1.925.323 2.887.154 2.156.246 4.39-.316 6.398-.625 1.967-2.281 3.52-4.043 4.678-1.811 1.16-3.798 2.009-5.953 2.353-1.284.302-2.148 1.314-2.709 2.304-.576 1.018-.92 2.128-1.109 3.252-.176 1.131-.239 2.297.105 3.484.091.295.225.59.421.87.204.274.499.534.871.654l1.586.477c2.106.625 4.205 1.279 6.289 1.96.562.182 1.117.379 1.678.569a43.08 43.08 0 0 1-3.173 1.117c-3.179.955-6.444 1.615-9.75 1.896-.379.035-.758.042-1.137.063.358-.372.695-.751.983-1.152 2.815-3.877-.197-17.243-1.179-23.648-1.018-6.399 1.053-10.437 5.58-16.056zm-6.668 42.008a41.738 41.738 0 0 0 2.491-.19c3.37-.344 6.697-1.074 9.912-2.1a44.615 44.615 0 0 0 4.092-1.545c2.169.752 4.324 1.552 6.437 2.43a62.96 62.96 0 0 1-6.423 2.114c-3.987 1.082-8.086 1.686-12.192 2.044a82.12 82.12 0 0 1-9.659.218c2.035-.759 3.867-1.784 5.342-2.971zm-64.867 69.274c-.26-.176-.52-.351-.766-.534-.322-.232-.652-.449-.961-.695l-.885-.78c-2.379-2.072-3.987-4.93-4.366-8.021-.407-3.097.316-6.272 1.446-9.243 1.158-2.978 2.766-5.787 4.521-8.484 1.769-2.704 3.734-5.282 5.784-7.79 4.085-5.035 8.599-9.748 12.867-14.714 4.267-4.874 8.907-9.426 13.905-13.528a98.805 98.805 0 0 1 5.889-4.481c2.296 3.884 8.838 3.252 13.717 3.4a21.37 21.37 0 0 0 4.583-.372l1.011.063c4.177.225 8.374.133 12.537-.274 4.155-.422 8.304-1.096 12.326-2.255a63.303 63.303 0 0 0 7.195-2.528c.66.281 1.32.562 1.965.857 1.994.92 3.875 1.945 5.7 3.174 1.867 1.201 3.777 2.304 5.707 3.379 7.714 4.277 15.59 8.231 23.698 11.729 2.028.864 4.078 1.7 6.163 2.458.681.239 1.369.471 2.057.696l.863 17.383-1.081-.154-13.246-1.981a701.387 701.387 0 0 1-13.21-2.163c-2.197-.38-4.388-.78-6.571-1.222-2.169-.457-4.38-.892-6.436-1.609l-.022-.007a.358.358 0 0 0-.456.316l-2.688 50.416a358.462 358.462 0 0 0-12.572.098c-6.809.176-13.611.485-20.42.934-3.706-4.396-7.082-9.187-10.178-14.096-3.11-4.959-5.924-10.107-8.339-15.445-2.415-5.331-4.436-10.852-5.889-16.52-.759-2.83-1.285-5.71-1.727-8.604-.428-2.9-.618-5.822-.702-8.751v-.007a.355.355 0 0 0-.351-.344.351.351 0 0 0-.351.351c.028 2.957.175 5.921.554 8.857.365 2.725.815 5.443 1.453 8.119l-11.884 11.35-3.411 3.259c-.555.548-1.158 1.068-1.713 1.714-.267.33-.54.653-.758 1.075-.21.4-.414.934-.288 1.531.127.59.541.983.716 1.222.12.147.295.351.428.492l.408.435 1.003 1.061-17.225 10.233zm56.429 14.897c-.056.105-.112.218-.168.323a2.983 2.983 0 0 0-1.053.028c-.681.183-1.278.443-1.881.71a57.996 57.996 0 0 0-3.342 1.636 188.494 188.494 0 0 1-7.693-5.078c-1.278-.906-2.555-1.819-3.763-2.795-1.186-.977-2.309-2.093-3.439-3.168-4.485-4.39-8.845-8.934-13.176-13.485l-3.236-3.435-1.6-1.728-.393-.435c-.133-.155-.218-.246-.344-.4-.302-.38-.47-.576-.505-.773-.092-.372.322-1.04.793-1.573.484-.548 1.067-1.054 1.642-1.602l3.447-3.224 11.399-10.676c1.348 5.416 3.201 10.704 5.412 15.832 2.345 5.436 5.097 10.697 8.15 15.768 2.969 4.881 6.149 9.587 9.75 14.075zm-51.06-11.455l-4.127-2.627a44.411 44.411 0 0 0-.597-.38l17.079-10.156.126.134 3.271 3.406 3.089 3.175-12.207 10.641-6.634-4.193zm40.566 28.537c-.084-.885-.112-1.784-.084-2.676.014-.345.042-.703.07-1.061.056.021.112.049.175.07.204.07.401.141.611.197l.337.07c.119.021.295.014.435 0a.314.314 0 0 0 .281-.225.318.318 0 0 0-.218-.393l-.231-.063c-.063-.021-.084 0-.169-.014l-.259-.063c-.176-.05-.365-.12-.548-.183a20.837 20.837 0 0 1-1.102-.471c-.73-.337-1.46-.695-2.176-1.067a149.461 149.461 0 0 1-4.289-2.325 372.61 372.61 0 0 1-8.451-4.917 959.748 959.748 0 0 1-16.686-10.212l-1.01-.639 12.08-10.528c3.208 3.273 6.444 6.524 9.757 9.706 1.158 1.082 2.282 2.17 3.531 3.182 1.249.99 2.541 1.896 3.84 2.795a182.119 182.119 0 0 0 7.946 5.128c.105.063.238.07.351.014h.007c1.144-.597 2.302-1.187 3.474-1.707.583-.253 1.187-.513 1.762-.667.499-.134 1.137.035 1.741.189.611.169 1.207.394 1.839.604.077.028.169.049.253.071-.127.203-.33.407-.548.582-.94.745-2.218 1.012-3.397.773a.338.338 0 0 0-.372.176l-.007.007a15.438 15.438 0 0 1-1.846 2.711c-.709.822-1.538 1.566-2.492 1.952l-.014.007a.344.344 0 0 0-.19.457.352.352 0 0 0 .457.19c.631-.26 1.172-.626 1.67-1.054a289.358 289.358 0 0 0-3.671 7.557 294.008 294.008 0 0 0-2.169 4.784c-.056-.127-.112-.253-.154-.38-.302-.814-.443-1.692-.534-2.577zm-13.414 84.424c.365-5.879.674-11.779.842-17.658.239-5.843 1.011-11.68 1.945-17.475a252.556 252.556 0 0 1 3.446-17.271c1.362-5.71 2.892-11.385 4.787-16.913 1.952-5.499 4.352-10.865 6.872-16.161a333.264 333.264 0 0 1 4.093-8.204 864.696 864.696 0 0 1 24.877-1.467c3.868-.162 7.742-.281 11.61-.352 1.011 7.178 3.334 19.47 5.995 33.517 5.756 30.384 12.908 68.143 12.403 83.111-4.373.274-52.26 3.202-78.513 2.079a1501.08 1501.08 0 0 0 1.643-23.206zm27.888 170.898a.35.35 0 0 0 .162-.47c-.007-.021-.021-.028-.035-.042a59.98 59.98 0 0 1-.394-4.636c.955.948 1.804 2.023 2.289 3.252a5.834 5.834 0 0 1 .238 3.842c-.343 1.264-1.13 2.395-2.084 3.322-.955.934-2.12 1.658-3.349 2.199-.975.421-2.014.723-3.067.871l-.105.702-.436 2.367h-1.874l-.681-3.371a3.229 3.229 0 0 1-1.088-.956c-.737-1.039-.947-2.423-.989-3.757a16.76 16.76 0 0 1 .301-3.4c1.039.639 3.307 1.026 5.644 1.026 2.022 0 4.092-.288 5.468-.949zm9.006-123.468a300.238 300.238 0 0 0-2.822 17.461c-.786 5.851-1.34 11.708-1.937 17.559a2100.898 2100.898 0 0 0-1.678 17.573c-1.067 11.715-2.028 23.445-2.772 35.195a529.08 529.08 0 0 0-.85 17.637l-.098 4.418c-.021 1.475.007 2.95.007 4.417.035 2.894.168 5.795.562 8.696-3.271 1.369-9.631.639-10.403-.344l-5.026-70.433c-.407-5.865-.864-11.765-1.236-17.602a144.862 144.862 0 0 1 .078-17.545c.561-9.137 2.007-18.191 3.987-27.132 5.363.527 21.374 1.665 23.922 1.595-.597 2.823-1.193 5.654-1.734 8.505zm57.356 122.324c1.376.913 2.78 1.784 4.254 2.563.758.394 1.516.668 2.113 1.124.295.232.548.499.688.794.126.246.126.555.056.765-.772.316-1.621.478-2.471.583-.898.113-1.811.134-2.73.12-1.832-.028-3.672-.218-5.497-.464-1.839-.239-3.636-.583-5.489-.892-1.867-.288-3.769-.33-5.636-.239-1.376.064-2.513.176-3.861.204l-.302.906-.653 1.833h-3.06l-.232-1.98h.007l-.133-1.124c-.632-.309-1.095-.934-1.285-1.686-.21-.815-.239-1.721-.21-2.627.014-.498.049-1.004.091-1.51 2.014.33 4.45 1.068 6.823 1.784 2.716.822 5.061 1.531 6.415 1.531 2.352 0 7.799-2.486 9.084-3.09.674.485 1.347.948 2.028 1.405zm-18.882-64.365c1.509 13.085 3.573 26.086 6.002 39.016.61 3.231 1.263 6.462 1.972 9.679.358 1.608.73 3.217 1.144 4.811.218.801.428 1.594.695 2.395.063.197.134.401.218.597.07.197.154.401.281.618.245.394.512.731.8 1.04 1.151 1.25 2.436 2.296 3.741 3.315.449.344.906.681 1.369 1.011-1.699.78-6.43 2.866-8.437 2.866-1.257 0-3.665-.731-6.213-1.503-2.407-.731-4.892-1.482-6.963-1.812.021-.176.028-.351.049-.527.197-1.833.449-3.68.597-5.556.077-.934.126-1.875.133-2.816-.028-.955-.07-1.918-.217-2.852-.099-.948-.323-1.854-.485-2.788-.224-.913-.414-1.826-.66-2.732-.961-3.617-2.127-7.157-3.334-10.676-2.443-7.031-5.068-13.977-7.672-20.931-1.299-3.476-2.611-6.953-3.875-10.437l-.856-2.62c-.274-.878-.597-1.734-.801-2.633l-.68-2.676c-.225-.892-.471-1.777-.632-2.69-1.544-7.214-2.457-14.567-3.054-21.942-1.003-12.839-1.102-25.728-.758-38.623l24.765.857c.105 9.39.281 18.781.54 28.171.19 6.575.422 13.149.766 19.723.337 6.595.8 13.176 1.565 19.715zm11.414-84.255c.049.983.133 1.973.147 2.957l.042 2.957.07 5.057c-14.825.941-29.671 1.727-44.524 2.296-7.574.295-15.148.527-22.722.639-7.455.106-14.917.155-22.357-.161.302-3.652.589-7.312.87-10.964 4.205.183 8.95.26 13.997.26 27.853 0 64.439-2.325 64.93-2.36l.316-.021.014-.316c.618-14.827-6.605-52.951-12.403-83.588-2.654-13.998-4.331-26.248-5.314-33.412 2.836-.014 5.686-.014 8.514.127 2.563 11.378 4.9 22.819 7.111 34.268 2.976 15.557 5.658 31.171 7.806 46.855.267 1.959.554 3.919.793 5.878l.688 5.893c.218 1.967.484 3.926.66 5.893l.54 5.907c.414 3.947.583 7.887.822 11.835z" fill="#45567C"/><path d="M226.344 205.552a2.258 2.258 0 0 0 1.678-.752 2.512 2.512 0 0 0 .653-1.699c0-.618-.232-1.243-.653-1.7-.421-.463-1.046-.758-1.678-.751a2.262 2.262 0 0 0-1.678.751 2.515 2.515 0 0 0-.652 1.7c0 .618.231 1.243.652 1.699a2.27 2.27 0 0 0 1.678.752zm-.667-3.231c.127-.253.344-.491.674-.59a1.222 1.222 0 0 1 1.081.211c.337.26.541.702.548 1.152-.014.449-.211.892-.548 1.152-.344.26-.765.309-1.081.21-.33-.091-.547-.337-.674-.59a1.51 1.51 0 0 1-.182-.772c-.021-.26.049-.52.182-.773zm-23.615 48.112a.348.348 0 0 0 .337-.366c-.14-4.825.064-9.657.457-14.468.4-4.811 1.003-9.609 1.734-14.385v-.014a.686.686 0 0 0-.59-.765.686.686 0 0 0-.765.59c-.625 4.818-1.123 9.65-1.411 14.504-.288 4.846-.386 9.713-.127 14.574.015.182.176.33.365.33zm-24.96-14.644a303.01 303.01 0 0 1 2.583-7.747c.899-2.564 1.825-5.128 2.836-7.642v-.014a.587.587 0 0 0-1.095-.422c-.99 2.564-1.874 5.142-2.745 7.734a308.675 308.675 0 0 0-2.485 7.803 219.596 219.596 0 0 0-2.246 7.88c-.681 2.648-1.369 5.289-1.67 8.063a.347.347 0 0 0 .308.387.358.358 0 0 0 .393-.302v-.021c.33-2.648 1.053-5.296 1.762-7.909a277.103 277.103 0 0 1 2.359-7.81zm26.252-156.227c.427 0 .772-.497.772-1.11 0-.613-.345-1.11-.772-1.11-.426 0-.772.497-.772 1.11 0 .613.346 1.11.772 1.11zm-1.971-3.14c.583-.344 1.144-.667 1.734-.906.583-.267 1.214-.316 1.818-.653l.014-.007a.393.393 0 0 0 .183-.26.369.369 0 0 0-.302-.428c-.737-.127-1.446.168-2.106.463a6.853 6.853 0 0 0-1.755 1.23.352.352 0 0 0-.063.435.344.344 0 0 0 .477.126zm6.654 12.643l.035.014a2.67 2.67 0 0 0 1.074.169c.372.007.73-.092 1.081-.204.358-.105.681-.33.976-.59.266-.28.498-.66.491-1.075v-.035c0-.07-.042-.14-.105-.175a.193.193 0 0 0-.26.084c-.126.253-.323.47-.562.653-.238.183-.519.302-.807.422-.575.231-1.214.295-1.832.28a.236.236 0 0 0-.225.155c-.049.12.015.26.134.302z" fill="#45567C"/></svg>