<svg width="680" height="520" viewBox="0 0 680 520" fill="none" xmlns="http://www.w3.org/2000/svg"><path d="M589.77 408.283c-6.636-8.683-29.829-12.287-40.033-13.35-3.585-.369-7.611-.73-11.996-1.064l-.501 1.565s-2.145 2.135-5.915 1.731c-1.854-.202-1.898-2.039-1.459-3.858-28.168-1.89-68.016-3.261-107.714-4.227-.985.782-1.872 1.459-2.408 1.801-1.811 1.152-11.883 5.774-17.323 8.086-5.44 2.311-18.316 4.289-18.316 4.289l-1.977 3.462 12.041 1.811 4.288 2.144-.993 1.811-28.044 13.359-73.746-12.7-92.581-1.336-8.894 22.367c1.213.326 2.382.66 3.507 1.002l.571-.281 44.779 4.808 3.594 2.645-40.516 10.221c-3.621 7.717-3.313 17.56 8.613 20.495 6.618 1.635 32.026 3.999 62.057 6.003l-40.507-8.841s19.634-18.149 22.93-22.104c3.296-3.964 13.693-15.178 16.171-26.392l69.457 19.133 11.715-7.427 42.397 18.474 25.575-14.686 84.135 12.208-43.294 30.514c28.915-1.397 53.91-4.43 55.844-12.603 3.304-13.992-11.048-19.695-27.482-22.042-17.314-2.478-29.346-9.509-30.409-14.062l-75.249-5.396 45.358-17.973 80.013 1.318-39.84 17.797c16.646-1.028 45.623-3.287 68.113-4.148 24.309-.932 54.674-5.862 48.039-14.554z" fill="#D9CFE2" fill-opacity=".5"/><path d="M591.861 370.193l5.625-.229-.606-5.396-2.11-2.189-1.432.018-1.406 1.802-.071 5.994zm-241.408-79.652L364.067 292l-3.305 13.517-1.459 8.648.29 12.734.87 4.887-4.174-6.829-3.401-10.696-1.363-6.319-1.072-17.401z" fill="#fff"/><path d="M462.448 302.977c-6.205-15.143-17.56-38.17-17.56-38.17s-2.417-7.883-11.46-13.35c-9.044-5.466-21.339-9.887-21.339-9.887l-11.988-3.472s-2.144-4.42-7.567-6.626c-3.894-1.573-4.491.061-4.491.061l.896 5.95s-13.438 22.218-16.162 30.787c0 0-7.049 16.927-7.989 20.399-.94 3.471-4.939 17.77-5.15 24.388-.211 6.618.843 18.711.843 18.711s-4.939-6.626-6.099-12.515c-1.16-5.888-5.677-24.599-3.471-35.532 2.206-10.934 6.204-30.568 6.204-30.568l-4.42-2.021-2.206 3.999s-5.045 1.055-9.149 4.306c-4.105 3.261-10.195 9.677-13.034 14.3-2.839 4.622-6.943 17.032-6.943 17.032l1.336 17.129-9.545 8.657-.088 70.732s5.467-2.628 8.411-5.994c2.944-3.366 10.406-14.721 12.304-19.661 1.899-4.939 3.999-12.62 3.999-12.62s4.105 5.255 5.045 8.305c.94 3.05 2.206 15.143 1.055 18.711-1.152 3.569-4.105 11.25-4.105 11.25l40.059.211s2.417-.949 5.678-1.16c3.26-.211 7.224-.536 7.224-.536s7.497-3.78 9.07-5.142c1.573-1.362 8.086-6.706 8.086-6.706l12.893 15.6 2.355 1.934s6.099-4.307 6.416-4.307c.316 0 10.3.317 10.3.317l-3.788-5.467 21.761-17.454s11.249-8.727 11.039-19.555c-.211-10.828-2.215-26.893-8.42-42.036zm-24.151 37.677c-.695 3.19-14.475 17.366-14.475 17.366s-2.892-6.987-2.698-15.169c.202-8.182 1.397-18.861 1.995-20.961.597-2.101 1.898-5.792 1.898-5.792l11.873 17.164c.009.009 2.101 4.201 1.407 7.392z" fill="#DFCAFA"/><path d="M111.48 295.497s-1.318-4.965.879-5.405c2.188-.439 6.723-1.019 6.723-1.019h82.122l-3.797 12.568s16.365 4.675 23.378 8.621c7.014 3.947 17.534 9.062 20.311 12.568a652.434 652.434 0 0 1 3.797 4.825l12.418-38.283 47.204.589s5.405-.44 6.574.588c1.169 1.02 2.189 3.217 2.189 5.405 0 2.189-.73 111.204-.44 111.643.29.44.879 5.265-5.115 5.265s-104.629-1.02-104.629-1.02l-10.23 25.716 5.405-2.628 48.513 5.994-.149 1.459-58.893 15.196-21.919-2.927s-4.096-1.318-3.068-5.554c1.029-4.237 14.616-37.704 14.616-37.704l-59.623-1.019-4.236-.44-2.188-2.338.158-112.1z" fill="#DEE1E9"/><path d="M445.441 265.941l27.535.404 4.017.405s13.666 30.154 14.07 38.995l18.29-11.258s-1.204 12.058-3.015 18.895c-1.81 6.838-11.056 35.173-12.866 49.05a866.547 866.547 0 0 1-3.621 24.925l-48.031.158-3.788-5.466s24.477-19.415 26.49-21.621c2.012-2.214 6.837-10.247 6.231-20.099-.607-9.853-3.823-27.535-9.65-41.008-5.827-13.465-13.069-28.344-13.069-28.344l-2.593-5.036zm-22.754 58.322c-.518 2.601-.835 5.255-1.072 7.901-.439 4.79-.641 9.624-.132 14.422.413 3.858 1.38 7.681 2.338 11.434-.088-.343 1.257-1.204 1.485-1.406.853-.729 1.635-1.547 2.452-2.329 2.453-2.364 5.072-4.588 7.48-6.996 1.863-1.74 2.997-4.253 3.032-6.811.044-3.92-2.18-7.883-4.43-10.942-2.628-3.568-5.247-7.128-7.874-10.696a67.286 67.286 0 0 1-1.169-1.626c-.958 2.277-1.626 4.641-2.11 7.049z" fill="#7A88A7"/><path d="M513.826 387.304s-3.497 3.683-6.327 3.586c-2.83-.097-4.439-.659-3.683-3.208.756-2.549 2.645-7.558 3.779-9.158 1.134-1.608 3.208-2.548 4.816-2.074 1.609.475 6.135 2.268 6.135 2.268s2.83-9.633 1.134-13.974c-1.697-4.342-6.609-14.924-6.231-17.754.377-2.83.474-6.512 6.231-8.402 5.756-1.889 8.217-2.364 8.217-2.364l4.061-5.194s2.645 2.646 2.742 6.047c0 0 5.475 3.586 5.853 5.475.562.281 7.936.853 9.729 2.268l-6.609 5.95.94 7.364 9.351 14.634 6.047 10.485 1.23 4.06-19.642.185-2.927 3.497s-.562 5.098-2.171 5.291c-1.608.185-3.779 1.696-4.913.941-1.133-.756-2.742-2.742-1.793-4.439.941-1.696 2.646-5.29 2.646-5.29l-18.615-.194zm74.88-.281l6.047.185s2.171-8.974 2.364-12.463c.184-3.498-.097-5.853-.097-5.853s-.659.756-5.001.281c0 0-.184 1.415-.096 3.208.096 1.793-.853 7.646-.853 7.646l-2.364 6.996z" fill="#F99CB7"/><path d="M365.64 403.748l1.653-5.115s2.97-3.138 4.456-5.282c1.388-2.004 5.229-4.008 6.802-5.212a9879.472 9879.472 0 0 0-65.713-.984l.176 8.498 52.626 8.095z" fill="#ECE7F0"/><path d="M158.92 421.897l12.498 4.64 5.968-15.152-63.859-1.459-2.189-2.337.044-18.439c-24.687 1.784-43.513 6.196-28.65 19.66 8.41 7.62 18.526 12.006 29.389 14.686l46.799-1.599z" fill="#D9CFE2" fill-opacity=".5"/><path d="M416.615 469.074l-9.729 6.267 11.873 5.967c13.28-.307 28.001-.562 42.063-1.151l-44.207-11.083z" fill="#ECE7F0"/><path d="M322.471 84.041l46.466-17.533s24.845 48.223 25.425 64.588l-38.582 12.278s-5.414-18.246-15.96-34.909c-7.462-11.777-17.349-24.424-17.349-24.424z" fill="#fff"/><path d="M482.627 20.622s-9.729 5.22-29.812 34.197l24.257 20.75s13.148-27.184 24.257-36.825l-18.702-18.122z" fill="#E4E7ED"/><path d="M363.917 291.709l-13.666-1.054 6.354-37.537-13.104-6.459-4.368-4.887-2.768 2.188-2.698 2.479-2.988 2.118-1.899.51-1.582-.176-2.206 4.763-1.098 5.616-1.24 8.895-.87 11.372-.808 8.824 1.388 16.47.317 3.085-9.545 8.648-.466-11.004.141-9.843-.22-2.909-1.494-2.276-5.352-.932-3.067.211 7.145-30.98 3.067-9.404 3.349-5.616 5.247-7.655 1.968-3.858.879-3.428-1.169-.439-1.678-5.977-.071-6.266.369-4.377.361-2.663 1.933-.36 6.811-5.431 29.24 7.795 14.291-1.16 5.686-2.188 3.419 10.054 5.546 18.957-1.319 2.918-10.054 17.718-7.514 16.54-6.267 17.718z" fill="#fff"/><path d="M409.872 373.963l6.46 8.437 6.433 7.163-11.17 5.598-13.561 5.177-7.585 1.889-6.336 1.029-1.53 2.715.721 1.169 13.464 2.189 1.697 1.344-.528 2.101-4.376 1.995-22.842 11.03-12.972-1.846-40.587-7.092-16.812-2.628-2.672-.677 1.749-.782h6.952l4.13-.141 2.329-2.478.176-14.493 51.827 8.604.8-.518.808-3.656 5.291-6.741 5.783-4.729 7.101-2.188 7.778-.826 6.46-3.059 11.012-8.586z" stroke="#fff" stroke-miterlimit="10"/><path d="M427.125 357.106c1.696 0 1.696-2.636 0-2.636s-1.705 2.636 0 2.636z" fill="#7A88A7"/><path d="M397.719 31.994l-1.161 18.756-3.207 35.102.966-.686 9.527-8.165 11.215-6.872 5.211-56.503-11.759 6.61-6.319 5.536-3.691 4.474-.782 1.748z" fill="#E4E7ED"/><path d="M396.014 90.984c-.159 0-.44-.07-.484-.553a6.948 6.948 0 0 1-.017-.528c0-.72.211-1.485.58-2.276 1.388-10.432 4.983-47.257 4.983-54.27 0-8.956 21.857-19.854 22.789-20.31a.434.434 0 0 1 .448.034.43.43 0 0 1 .185.405l-5.572 56.546a.461.461 0 0 1-.22.343c-.202.114-18.377 10.44-21.778 17.472-.457 3.137-.668 3.137-.914 3.137zm27.535-76.795c-3.806 1.977-21.585 11.61-21.585 19.159 0 4.386-1.363 19.836-2.532 31.736-1.054 10.705-1.731 16.98-2.205 20.671 4.921-6.794 18.895-14.923 20.855-16.04l5.467-55.526zm33.001 40.454l24.722 20.9-1.248.307c1.494-3.489 3.156-6.855 4.922-10.186a146.135 146.135 0 0 1 5.678-9.764c2.047-3.164 4.227-6.24 6.582-9.193 2.4-2.91 4.984-5.678 7.831-8.174l-.026.642-18.984-18.887.58.035c-3.006 2.373-5.818 4.983-8.516 7.699-2.681 2.742-5.247 5.607-7.734 8.534-2.47 2.935-4.86 5.95-7.172 9.017a226.03 226.03 0 0 0-3.419 4.64l-1.661 2.356-.817 1.186-.404.598-.202.299c-.044.088-.027-.009-.132-.009zm-.87.123c.035-.193.184-.492.272-.606l.202-.3.405-.597.826-1.195 1.67-2.364a227.26 227.26 0 0 1 3.427-4.658c2.329-3.076 4.72-6.1 7.207-9.053 2.496-2.944 5.071-5.818 7.778-8.586 2.724-2.742 5.563-5.379 8.604-7.778a.442.442 0 0 1 .58.035l18.975 18.896a.432.432 0 0 1 .009.615l-.018.017-.009.01c-2.759 2.486-5.255 5.255-7.576 8.164-2.276 2.944-4.385 6.02-6.363 9.184a149.407 149.407 0 0 0-5.466 9.756c-1.688 3.322-3.296 6.705-4.702 10.133l-.009.026a.788.788 0 0 1-1.028.413.678.678 0 0 1-.211-.14L455.68 54.766z" fill="#7A88A7"/><path d="M262.304 62.105l21.629 24.863s2.513 6.213-1.433 16.971l-21.875-25.461s1.951-7.04 1.951-10.792c.009-3.64-.272-5.581-.272-5.581z" fill="#E4E7ED"/><path d="M286.04 104.537a.454.454 0 0 1-.334-.15l-21.945-25.584a.404.404 0 0 1-.088-.395c.923-3.63 2.751-12.823 1.45-16.382-1.107-1.424-1.072-1.556-1.046-1.68a.458.458 0 0 1 .308-.324c.281-.08.474.105.729.343.326.307.58.729.774 1.23 3.902 4.878 18.131 21.436 21.172 24.345 3.92 3.752-.413 17.691-.598 18.28a.444.444 0 0 1-.334.299.254.254 0 0 1-.088.018zm-21.462-26.138l21.269 24.793c.852-2.971 3.647-13.702.598-16.61-1.872-1.794-7.91-8.693-12.516-14.045-3.805-4.43-6.152-7.216-7.593-8.982.615 4.895-1.301 13.033-1.758 14.844zm107.399-11.891l-45.93 18.35.176-.694c3.682 4.403 7.11 8.974 10.415 13.64a224.931 224.931 0 0 1 9.333 14.396c2.883 4.939 5.555 10.011 7.936 15.222 2.294 5.247 4.281 10.643 5.695 16.215l-.562-.316 38.776-12.629-.413.685c-1.099-5.721-2.654-11.364-4.43-16.927-1.828-5.554-3.902-11.03-6.108-16.452a347.537 347.537 0 0 0-7.154-16.04 328.53 328.53 0 0 0-3.876-7.883l-2.012-3.902-1.029-1.943-.518-.966-.264-.484c-.097-.132-.044-.132-.035-.272zm.299-.826c.184.175.413.5.51.685l.263.483.528.967 1.045 1.943 2.039 3.902a326.36 326.36 0 0 1 3.929 7.883c2.549 5.291 4.983 10.635 7.251 16.057 2.241 5.432 4.359 10.916 6.213 16.497 1.819 5.598 3.41 11.267 4.553 17.058a.596.596 0 0 1-.396.686h-.017l-38.882 12.313a.447.447 0 0 1-.553-.281l-.009-.027v-.008c-1.406-5.502-3.366-10.854-5.642-16.057-2.365-5.177-5.019-10.213-7.893-15.135a225.379 225.379 0 0 0-9.298-14.334c-3.287-4.65-6.715-9.22-10.362-13.578v-.01a.433.433 0 0 1 .176-.685l46.545-18.36z" fill="#7A88A7"/><path d="M344.143 82.099c.255.879.369 1.31.615 2.18-1.617.641-2.417.958-3.999 1.573 2.303 3.445 4.544 6.925 6.785 10.405-1.046.414-1.564.616-2.601 1.011a542.3 542.3 0 0 0-6.838-10.38l-4.007 1.574c-.519-.756-.774-1.134-1.301-1.907 3.788-1.477 7.567-2.97 11.346-4.456zm19.81 7.761c-1.133.439-1.705.667-2.847 1.107-1.362-1.055-2.03-1.573-3.366-2.602-2.083.818-3.129 1.23-5.203 2.04a141 141 0 0 0 .633 3.647c-1.055.413-1.582.615-2.628 1.019-.826-4.895-1.433-9.817-2.188-14.721.808-.316 1.212-.483 2.021-.8 4.579 3.375 9.087 6.829 13.578 10.31zm-8.182-3.033a411.713 411.713 0 0 0-2.891-2.39c-.695-.572-1.204-1.011-1.512-1.327-.009 0-.018.008-.026.008.149.413.281.994.404 1.732.185 1.353.272 2.021.457 3.375a584.15 584.15 0 0 0 3.568-1.398zm14.352-14.976c-.264 3.305-.554 4.94-1.055 8.227 3.19 1.828 4.711 2.75 8.015 4.649-1.134.44-1.705.668-2.865 1.116-2.496-1.433-3.682-2.127-6.099-3.507-.378 2.479-.572 3.718-.844 6.223-1.186.466-1.775.694-2.971 1.16.431-3.419.739-5.106 1.328-8.499a260.61 260.61 0 0 0-8.121-4.412c1.239-.492 1.854-.73 3.076-1.213a213.884 213.884 0 0 1 6.002 3.34c.361-2.39.545-3.595.774-6.011 1.125-.431 1.679-.65 2.76-1.073z" fill="#7A88A7"/><path d="M154.607 75.086l13.473 73.148s-19.889 21.532-21.155 30.092l-13.851-72.647s1.389-8.683 7.55-15.363c6.178-6.67 13.983-15.23 13.983-15.23z" fill="#E4E7ED"/><path d="M172.184 148.102l-13.553-73.28a.419.419 0 0 0-.29-.334.47.47 0 0 0-.439.088c-1.002.914-24.521 22.543-21.286 33.748 2.601 9.026 11.425 56.538 13.455 70.205-.184 1.142-.167 2.179.088 3.076.185.632.325 1.116.703 1.116a.573.573 0 0 0 .158-.027c.361-.105.545-.158-.07-4.218 1.793-10.186 20.9-29.776 21.111-29.987a.431.431 0 0 0 .123-.387zm-21.559 28.247a577.954 577.954 0 0 0-.721-4.359c-1.019-6.1-2.478-14.282-4.095-23.027-2.857-15.415-6.759-35.374-8.35-40.893-2.812-9.738 16.787-28.845 20.452-32.308l13.359 72.27c-1.881 1.951-17.226 17.946-20.645 28.317z" fill="#7A88A7"/><path d="M143.355 98.525c.308 4.254.466 6.372.765 10.397.079 1.064.167 2.039.264 2.936-.009.017-.009.026-.018.035-.395-.545-.738-1.029-1.037-1.433-1.354-1.819-2.021-2.795-3.322-5.15a32.53 32.53 0 0 0-.87 2.522c2.162 4.201 3.339 5.564 5.748 8.112.316-.668.474-.993.808-1.634-.351-5.933-.712-11.856-1.046-17.789a43.4 43.4 0 0 0-1.292 2.004zm3.174-4.72c.361 5.608.721 11.206 1.16 16.804.493-.799.747-1.186 1.257-1.942a307.182 307.182 0 0 1-.316-3.84 41.658 41.658 0 0 1 2.61-3.384c.677.87 1.011 1.301 1.696 2.074a55.47 55.47 0 0 1 1.494-1.617c-2.478-2.97-4.658-6.214-6.899-9.36-.395.492-.597.747-1.002 1.265zm1.494 2.743c.159.325.413.755.756 1.3.589.914.879 1.362 1.468 2.241a48.483 48.483 0 0 0-1.784 2.312c-.106-1.521-.15-2.294-.246-3.858a27.297 27.297 0 0 0-.202-1.978c0-.009.008-.017.008-.017zm8.683-10.758l-.176-2.373c-2.487 2.233-3.832 3.463-6.372 6.214.229.817.352 1.23.58 2.048a62.124 62.124 0 0 1 2.32-2.426c.941 3.674 1.872 7.391 3.068 10.995.571-.545.861-.809 1.441-1.31-1.186-3.647-2.092-7.418-3.014-11.144a63.098 63.098 0 0 1 2.153-2.004z" fill="#7A88A7"/><path d="M298.758 114.011l39.655 15.433s-2.9 12.647-11.171 31.261c-4.614 10.388-10.572 22.763-19.44 35.542l-47.907-21.823s15.969-18.096 21.558-26.884c2.654-4.175 7.752-11.725 11.259-18.738 3.884-7.752 6.046-14.791 6.046-14.791z" fill="#E4E7ED"/><path d="M341.709 129.039h-.009l-40.103-15.608-.026-.009a.448.448 0 0 0-.554.281v.009c-1.828 5.704-4.236 11.214-6.969 16.558-2.822 5.299-5.942 10.441-9.273 15.442a238.854 238.854 0 0 1-10.704 14.51c-3.753 4.693-7.664 9.281-11.777 13.64a.447.447 0 0 0 .123.703c15.864 7.602 31.885 15.222 47.969 22.727a2.757 2.757 0 0 0 .676-.676l.124-.194.307-.492.607-.993 1.204-1.995 2.364-4.008a366.523 366.523 0 0 0 4.579-8.094 354.253 354.253 0 0 0 8.525-16.532c2.663-5.598 5.185-11.267 7.453-17.05 2.223-5.791 4.209-11.68 5.73-17.718a.4.4 0 0 0-.246-.501zm-6.486 17.824c-2.321 5.721-4.904 11.329-7.62 16.874a359.604 359.604 0 0 1-8.692 16.356 345.774 345.774 0 0 1-4.649 8.006l-2.4 3.955-1.221 1.96-.616.976-.307.483-.009.018c-15.371-7.225-30.787-14.352-46.36-21.489 3.998-4.262 7.769-8.7 11.416-13.253a242.136 242.136 0 0 0 10.749-14.563c3.348-5.018 6.486-10.186 9.325-15.529 2.68-5.239 5.044-10.652 6.881-16.26l39.303 15.293c-1.573 5.853-3.577 11.557-5.8 17.173z" fill="#7A88A7"/><path d="M304.066 129.769c.791.334 1.547.413 2.25.237.703-.176 1.195-.589 1.477-1.248.281-.677.219-1.362-.194-2.065-.035-.062-.457-.598-1.265-1.6-.457-.571-.607-1.037-.457-1.415a.697.697 0 0 1 .545-.448c.263-.053.562-.018.887.114.554.22 1.099.642 1.635 1.275.202-.501.308-.756.51-1.266-.44-.51-1.028-.905-1.767-1.195-.791-.308-1.503-.343-2.127-.106a2.08 2.08 0 0 0-1.248 1.213c-.272.677-.211 1.354.185 2.022.018.035.439.553 1.248 1.573.448.562.589 1.037.422 1.424-.123.29-.369.457-.721.501-.29.035-.615-.027-.958-.167-.615-.255-1.116-.686-1.52-1.292-.405.307-.607.457-1.011.764.519.747 1.213 1.301 2.109 1.679zm3.33 1.257c.581.246.871.36 1.459.606.633-.642.941-.958 1.565-1.608 1.142.466 1.714.703 2.856 1.169 0 .905 0 1.362-.017 2.267.632.264.949.396 1.59.659.035-3.673-.035-5.493-.202-9.184-.422-.167-.633-.255-1.055-.422-2.372 2.69-3.603 3.981-6.196 6.513zm5.344-3.489c.29-.343.51-.624.642-.844.008 0 .008 0 .008.009-.035.237-.052.606-.061 1.089-.018.818-.027 1.222-.053 2.039-.773-.316-1.169-.474-1.942-.791.571-.588.852-.887 1.406-1.502zm7.919 7.549l-2.9-1.186c1.081-2.663 1.564-4.008 2.425-6.715-.588-.229-.878-.352-1.459-.58-1.037 3.199-1.625 4.772-2.961 7.901 1.757.729 2.636 1.09 4.394 1.81.202-.492.308-.738.501-1.23zm5.397 2.188c-1.195-.474-1.792-.72-2.997-1.204.352-.896.528-1.353.853-2.25 1.037.413 1.556.624 2.593 1.038.175-.493.263-.748.43-1.24-1.028-.404-1.547-.615-2.584-1.028.29-.835.422-1.257.677-2.092 1.028.405 1.547.616 2.566 1.02.308-.431.457-.651.756-1.09-1.757-.694-2.636-1.046-4.412-1.749-.958 3.225-1.538 4.834-2.856 8.015 1.802.739 2.698 1.099 4.482 1.82.202-.501.299-.747.492-1.24zm4.438-.448c.457.58.606 1.081.448 1.494-.114.317-.351.501-.703.563-.29.044-.606 0-.949-.132-.615-.246-1.134-.686-1.556-1.327-.404.343-.606.51-1.019.852a4.583 4.583 0 0 0 2.144 1.714c.8.317 1.538.369 2.233.141.685-.22 1.169-.686 1.432-1.389.273-.729.194-1.441-.228-2.162-.035-.061-.457-.606-1.301-1.635-.475-.588-.65-1.081-.527-1.485a.652.652 0 0 1 .501-.483c.254-.062.544-.027.87.096.553.22 1.107.642 1.661 1.284.167-.528.246-.791.395-1.328-.466-.518-1.063-.914-1.793-1.204-.791-.307-1.476-.334-2.065-.079-.554.238-.932.668-1.134 1.301-.219.721-.132 1.441.29 2.144.027.036.466.581 1.301 1.635zm-20.259.993l.94-1.028c-2.575-1.099-3.849-1.652-6.363-2.733-.228.457-.342.694-.588 1.151.914.404 1.379.606 2.311 1.002-1.318 2.566-2.039 3.849-3.674 6.46.607.263.906.404 1.512.668 1.617-2.611 2.329-3.903 3.647-6.486.888.395 1.327.588 2.215.966zm3.253-.079c-2.751 2.584-4.192 3.832-7.365 6.381l1.512.659c.773-.642 1.142-.967 1.889-1.608 1.169.509 1.758.764 2.936 1.274-.106.923-.158 1.38-.273 2.303.651.281.985.422 1.635.694.413-3.7.589-5.554.765-9.237-.449-.193-.668-.281-1.099-.466zm-.589 3.27a75.32 75.32 0 0 1-.29 2.056l-1.986-.861c.677-.589 1.011-.888 1.67-1.477.351-.334.606-.606.773-.826.009 0 .009 0 .009.009-.053.246-.114.606-.176 1.099zm10.941 1.107c-1.3.844-1.959 1.266-3.304 2.092a130.666 130.666 0 0 0-.484-3.656c-.667-.282-1.001-.422-1.678-.703.29 1.959.422 2.944.65 4.895a127.778 127.778 0 0 1-5.018 2.786c.685.29 1.028.439 1.714.721a119.712 119.712 0 0 0 3.638-2.075c.176 1.512.255 2.268.413 3.762l1.696.694c-.228-1.977-.342-2.979-.597-4.992a122.109 122.109 0 0 0 4.561-2.874c-.624-.255-.94-.386-1.591-.65z" fill="#7A88A7"/><path d="M127.854 266.917l29.477-20.056s11.03 12.963 15.863 19.607c4.834 6.645 12.77 21.796 12.77 21.796l-.905.967H150.81s-4.904-6.258-10.644-11.478c-5.73-5.229-12.312-10.836-12.312-10.836z" fill="#E4E7ED"/><path d="M154.219 289.512h1.142c-9.43-11.425-20.943-20.477-23.439-22.385l28.739-19.818c2.373 2.663 20.469 23.255 28.247 40.894l-2.206 1.309h1.722l1.275-.756a.438.438 0 0 0 .176-.553c-8.244-19.01-28.608-41.553-28.81-41.773a.433.433 0 0 0-.571-.07l-29.557 20.39a.463.463 0 0 0-.193.351c0 .141.062.273.176.36.167.124 12.902 9.615 23.299 22.051z" fill="#7A88A7"/><path d="M73.82 424.876l27.439 13.245 67.4-4.685 2.786-7.224-12.946-4.755-84.679 3.419z" fill="#fff"/><path d="M169.01 432.531l-67.699 4.702-26.261-12.041 83.396-2.856 12.691 4.684.316-.817-12.779-4.72c-.052-.017-.105-.017-.167-.026l-85.338 2.927a.432.432 0 0 0-.413.351.427.427 0 0 0 .246.484l28.054 12.858a.476.476 0 0 0 .184.044h.027l67.4-4.685.343-.905z" fill="#7A88A7"/><path d="M532.845 386.97h-19.247v.879h18.79l.457-.879zM331.064 232.21s5.827 7.013 7.075 9.228l-2.61-6.064-2.804-3.797-2.241-2.742.58 3.375zm281.917 154.76h-68.262l-.774.879h69.044c.246 0 .44-.193.44-.439a.443.443 0 0 0-.448-.44z" fill="#45567C"/><path d="M512.508 293.696l-1.775 1.107c-.326 12.638-3.771 23.976-7.743 36.992-4.597 15.072-9.72 31.912-11.461 55.166h-3.524c1.749-23.764 6.961-40.885 11.628-56.195 3.638-11.943 6.837-22.446 7.488-33.713l-.906.571c-.729 10.933-3.867 21.216-7.417 32.888-4.685 15.371-9.914 32.562-11.672 56.449h-41.465c-.123-.149-.237-.298-.369-.439-1.019-1.169-1.986-2.382-3.076-3.507-.193-.211-.396-.422-.598-.632a416.323 416.323 0 0 0 7.919-6.17 429.668 429.668 0 0 0 10.23-8.481c1.696-1.424 3.357-2.883 5.036-4.333.826-.712 1.687-1.459 2.487-2.294a21.901 21.901 0 0 0 2.18-2.663c2.636-3.77 4.016-8.261 4.552-12.726.554-4.482.369-9-.176-13.429-1.116-8.877-3.629-17.472-6.582-25.839-2.98-8.376-6.521-16.523-10.353-24.512a458.095 458.095 0 0 0-5.467-10.985c10.863-.053 21.594.087 30.629 1.415l-.422-.941c-9.114-1.274-19.836-1.397-30.655-1.345-.009-.008-.009-.026-.018-.035l-1.801-3.471c10.977-.071 21.567-.035 30.778 1.046l-.827-1.855c-9.333-1.01-19.924-1.028-30.857-.949l-.342-.668-1.521-2.944c-.255-.492-.483-.976-.756-1.477-.298-.501-.545-1.028-.887-1.494-2.619-3.832-6.372-6.521-10.195-8.806-3.85-2.285-7.919-4.122-12.05-5.765-6.178-2.408-12.515-4.342-18.922-5.959a4.266 4.266 0 0 0-.316-.905 4.43 4.43 0 0 0-.378-.624c-.149-.211-.264-.317-.395-.475-.501-.598-1.02-1.195-1.6-1.74-1.134-1.099-2.417-2.118-3.937-2.786-1.521-.65-3.226-.879-4.817-.721-.659.071-1.283.202-1.898.334a247.782 247.782 0 0 1-2.847-8.771c.026-2.566.017-6.706-.211-11.302-.009-.22.29-.29.378-.088 2.917 6.785 5.87 13.394 6.934 14.853 1.292 1.775 3.12 2.478 4.491 2.759.8.159 1.415-.659 1.107-1.406-3.796-9.166-2.399-36.613-2.531-46.211-.149-10.23-.439-24.257-15.345-28.053-13.455-3.428-18.817 12.673-19.731 15.837a.996.996 0 0 1-.685.686c-1.775.5-7.602 2.109-12.612 3.207-5.994 1.319-10.669 7.603-12.717 10.67-1.143 1.714-2.927 3.841-4.808 6.521l-.008.009c-2.54 3.12-7.875 8.964-5.836 19.027a1.79 1.79 0 0 0-.703.071 1.338 1.338 0 0 0-.809.72c-.167.334-.167.66-.167.976-.009.255-.008.483-.044.756l-.158 1.599c-.228 2.145-.404 4.316-.395 6.504.008 2.18.184 4.377.712 6.539.36 1.45.905 2.891 1.696 4.201a55.4 55.4 0 0 1-.229 1.133c-.123.519-.246.958-.457 1.424-.193.466-.43.941-.668 1.398-.975 1.863-2.1 3.682-3.252 5.466a109.016 109.016 0 0 1-3.612 5.265c-.316.43-.632.852-.949 1.265-.334.448-.685.949-.949 1.442a24.512 24.512 0 0 0-1.424 3.005c-1.643 4.043-2.733 8.253-4.025 12.261v.008l-.026.106-5.528 26.401-6.091-.017-19.994-.08-19.037-.07-.518 1.6 19.546.044 20.021.044 10.01.026 2.505.009h.624c.158.008.325.017.483.052.316.062.633.176.914.352.563.334 1.011.87 1.213 1.494.105.316.158.624.158.976v1.248l.062 40.041.044 40.041.008 12.955-.044.053h.044l.009 7.013.009 10.01v4.377a2.96 2.96 0 0 1-1.072 2.241 2.943 2.943 0 0 1-1.899.668l-99.092-1.389 14.615-53.101c.018-.035.027-.07.044-.097.018-.044.027-.105.035-.158a.446.446 0 0 0-.43-.448l-23.87-.299a.451.451 0 0 0-.413.264v.009l-18.703 43.97-3.946 9.395-28.387-.396-20.021-.281-10.01-.141-2.505-.035c-.8-.035-1.784.027-2.285-.105a2.623 2.623 0 0 1-1.494-1.002 2.629 2.629 0 0 1-.493-1.266c-.008-.149-.017-.29-.017-.527l.088-40.041.088-40.042.044-20.02.017-10.011.009-2.505c0-.404-.009-.87.009-1.212.017-.317.07-.624.202-.914a2.77 2.77 0 0 1 1.248-1.363c.281-.149.58-.237.896-.281.167-.026.29-.017.51-.026h.624l85.277.202.483-1.661-85.751-.299h-.624c-.202 0-.501 0-.738.035a4.44 4.44 0 0 0-1.486.457 4.487 4.487 0 0 0-2.065 2.25 4.531 4.531 0 0 0-.334 1.512c-.018.492-.009.852-.009 1.292l-.009 2.504-.035 10.011-.07 20.02-.132 40.042-.07 20.433H40.15a.436.436 0 0 0-.44.44c0 .246.194.439.44.439h72.859l-.062 18.729c0 .185 0 .466.027.73.035.263.079.518.149.773.149.51.387.984.694 1.415.624.852 1.547 1.485 2.575 1.723.51.131 1.081.131 1.451.131l1.247.018 2.505.026 10.011.106 20.02.219 27.693.299-4.596 10.942c-3.05 7.365-6.143 14.677-9 22.174l-.501 1.459a14.55 14.55 0 0 0-.36 1.503c-.202 1.019-.29 2.083-.149 3.181.123 1.09.632 2.242 1.511 3.033.897.773 2.013 1.142 3.068 1.3l11.882 1.442 5.923.712 1.495.175a7.28 7.28 0 0 0 1.643 0c.536-.052 1.107-.193 1.573-.325l1.45-.369 11.575-2.962 23.141-5.932 11.574-2.962 5.783-1.485 2.892-.739.721-.184.184-.044c.053-.018.114-.026.255-.079.237-.088.457-.246.624-.448.334-.413.404-.958.255-1.433-.15-.492-.615-.888-1.09-.984l-.026-.009-.053-.009-47.336-5.906.088.018a2.85 2.85 0 0 0-1.67.114l-1.142.475-2.25.931-.097.044.773-2.012c2.76-7.102 5.537-14.203 8.323-21.296l87.588.941 32.8 5.704 39.584 6.829 4.948.852.642.106c.263.035.527.052.782.052a4.628 4.628 0 0 0 1.538-.307c.123-.044.246-.106.36-.159l.282-.14.562-.273 1.134-.545 9.035-4.385 9.034-4.386 4.518-2.188 1.134-.545.562-.272c.229-.115.51-.282.73-.493.949-.852 1.098-2.32.474-3.366a2.652 2.652 0 0 0-1.389-1.16 4.946 4.946 0 0 0-.764-.175l-.624-.097-2.479-.396-4.956-.791-5.59-.887a46.312 46.312 0 0 0 1.591-2.69 90.086 90.086 0 0 0 12.585-2.381c4.21-1.099 8.314-2.567 12.322-4.245a105.555 105.555 0 0 0 11.671-5.818 90.822 90.822 0 0 0 1.574-.941c.641.615 1.274 1.239 1.942 1.837a.62.62 0 0 0 .738.062l.009-.009h.009a142.308 142.308 0 0 0 6.117-4.166h72.287v-.879h-13.254c1.74-23 6.829-39.707 11.382-54.657 4.139-13.543 7.699-25.276 7.848-38.626zM197.415 437.092l2.242-.94 1.098-.457a1.26 1.26 0 0 1 .721-.053c.026.009.053.009.088.018l47.072 5.783-.079.017-.721.185-2.891.747-3.111.8a4226.613 4226.613 0 0 0-32.844 6.987c-3.322.729-6.653 1.459-9.975 2.232l-2.487.606c-.844.22-1.67.466-2.461.695-.8.211-1.635.43-2.347.378-.36-.036-.606-.132-.729-.37-.114-.254-.176-.624-.15-1.01.036-.782.229-1.6.431-2.408l.343-1.213.413-1.195c.554-1.591 1.169-3.182 1.766-4.773l2.066-5.387 1.555-.642zm-.782-3.814l-1.072 2.795-.817 2.135-1.767 4.606c-.598 1.599-1.204 3.181-1.775 4.807l-.422 1.222-.352 1.239c-.211.835-.413 1.687-.465 2.601-.027.457.008.958.263 1.477.088.123.176.246.273.351.114.097.237.176.369.255.255.115.527.194.773.202.993.062 1.828-.184 2.672-.404a81.385 81.385 0 0 1 2.452-.694l2.47-.598a772.959 772.959 0 0 1 9.957-2.232c4.491-.976 8.991-1.934 13.491-2.892l-18.21 4.702-11.566 2.989-1.45.377c-.492.132-.888.238-1.345.282a5.74 5.74 0 0 1-1.336 0l-1.468-.176-5.941-.703-11.838-1.38c-.905-.123-1.749-.439-2.373-.958-.598-.545-.976-1.318-1.081-2.206-.114-.879-.053-1.828.132-2.76.088-.465.184-.94.325-1.397l.466-1.371c2.786-7.409 5.862-14.783 8.876-22.148l9.158-22.059 18.395-43.794 22.938.29c-9.984 25.135-19.941 50.253-29.732 75.442zm206.368-190.319l.43-2.224.22-1.116c.053-.281.07-.563.07-.853 4.307 1.178 8.578 2.496 12.779 3.999-10.942 16.567-5.185 42.915-5.115 43.197a.442.442 0 0 0 .431.342c.035 0 .061 0 .096-.008a.442.442 0 0 0 .334-.528c-.061-.281-5.782-26.48 5.115-42.704 1.574.571 3.138 1.169 4.694 1.793 4.078 1.652 8.085 3.489 11.829 5.748 3.718 2.25 7.321 4.904 9.685 8.437.317.431.528.914.8 1.362.255.466.492.993.747 1.477l1.503 2.961 3.015 5.906a434.072 434.072 0 0 1 5.826 11.892 302.672 302.672 0 0 1 5.397 12.084 230.61 230.61 0 0 1 4.842 12.304c2.945 8.288 5.432 16.787 6.548 25.479.545 4.332.729 8.727.202 13.033-.51 4.289-1.819 8.517-4.262 12.023-.598.888-1.284 1.696-2.013 2.47-.73.764-1.538 1.468-2.391 2.197-1.669 1.45-3.322 2.909-5.009 4.333-3.349 2.883-6.759 5.686-10.169 8.499a410.515 410.515 0 0 1-7.242 5.756l-16.004-20.548a490.809 490.809 0 0 0 5.168-4.544 188.365 188.365 0 0 0 4.588-4.253c1.494-1.433 3.049-2.989 4.28-4.764a17.262 17.262 0 0 0 1.661-2.847c.466-1.011.817-2.11.967-3.252.158-1.134.149-2.312-.097-3.428-.079-.571-.29-1.098-.448-1.643-.211-.519-.405-1.055-.668-1.538-.492-.985-1.134-1.934-1.732-2.769l-1.828-2.531-3.621-5.053a540.688 540.688 0 0 1-7.057-10.222c-2.294-3.445-4.509-6.943-6.574-10.52-2.074-3.568-3.99-7.233-5.466-11.073v-.009a.445.445 0 0 0-.545-.264.433.433 0 0 0-.282.554s5.713 19.642 11.61 28.994a97.946 97.946 0 0 0-2.109 13.754c-.062 1.107-.167 2.215-.193 3.331l-.053 3.34.123 3.339c.044 1.117.193 2.224.29 3.331a58.929 58.929 0 0 0 1.96 9.844c-1.723 1.59-3.454 3.181-5.186 4.763l-9.157 8.437-.018.018a.415.415 0 0 0-.07.536v.009c.343.58.694 1.151 1.046 1.722-.923.765-1.828 1.538-2.76 2.294-2.03 1.679-4.087 3.331-6.214 4.869-2.127 1.521-4.324 2.979-6.679 3.964-.58.281-1.195.395-1.784.589-.598.061-1.169.158-1.872.149a40.518 40.518 0 0 0-4.008.299c-1.968.264-3.92.659-5.818 1.292h-12.199a99.236 99.236 0 0 1 3.982-10.002c.465-1.063 1.019-2.03 1.476-3.155l.343-.835c.114-.281.158-.58.246-.87l.229-.87.114-.888c.29-2.381-.062-4.789-.738-7.039-1.38-4.535-3.885-8.552-6.495-12.384-2.646-3.708-4.149-8.173-4.702-12.655v-.018c0-.035-.009-.061-.018-.097-1.441-4.368-2.215-8.938-2.496-13.534-.299-4.597-.088-9.237.501-13.816 1.02-8.358 3.146-16.54 5.827-24.529 2.057-3.938 7.549-10.942 16.11-3.226.738.791 1.476 1.582 2.179 2.417a229.602 229.602 0 0 1 5.344 6.609l.017.027c.062.079.15.14.264.158a.436.436 0 0 0 .519-.343c1.204-5.924 2.496-11.838 3.638-17.78l3.472-17.805 1.731-8.903.844-4.491zm22.086 105.033c-.115-1.081-.29-2.153-.352-3.243l-.193-3.26-.018-3.27c0-1.09.079-2.179.115-3.269.334-5.809 1.239-11.601 2.61-17.279a274.636 274.636 0 0 0 4.781 7.075l3.594 5.098 1.802 2.531c.607.852 1.116 1.635 1.547 2.513.228.431.378.879.562 1.319.123.457.299.896.352 1.362.193.914.202 1.846.088 2.76-.106.922-.387 1.828-.782 2.698-.387.879-.87 1.722-1.451 2.531-1.116 1.661-2.504 3.067-3.99 4.517-1.467 1.442-2.997 2.848-4.499 4.272-.783.738-1.574 1.467-2.365 2.206a59.97 59.97 0 0 1-1.801-8.561zm-98.478-15.907c.211 3.788.369 7.584.431 11.381.097 2.637-.018 5.273-.018 7.919-.008 1.318-.114 2.636-.175 3.946-.088 1.318-.088 2.637-.246 3.946-.255 2.619-.44 5.256-.932 7.831-.325 2.619-1.063 5.141-1.679 7.69l-.008.053a.44.44 0 0 0 .852.219c.677-2.575 1.485-5.141 1.863-7.778.545-2.619.791-5.264 1.099-7.91.167-1.318.176-2.654.281-3.981.062-1.327.185-2.654.202-3.981.027-2.654.15-5.308.079-7.963-.114-10.616-.843-21.216-1.863-31.762-.51-5.273-1.09-10.538-1.564-15.802a109.775 109.775 0 0 1-.299-3.832l.184-.677c.387-1.406.747-2.821 1.161-4.227l1.467-4.122c.44-1.397 1.134-2.681 1.705-4.016l.897-1.987 1.072-1.898c2.812-5.071 6.539-9.632 11.074-13.201.545-.474 1.142-.879 1.74-1.292.598-.404 1.178-.834 1.784-1.221 1.248-.738 2.47-1.512 3.77-2.162a55.16 55.16 0 0 1 2.277-1.152c-.167.317-.334.633-.493.95a67.05 67.05 0 0 0-3.911 9.447 30.348 30.348 0 0 0-.755 2.444c-.229.826-.475 1.634-.686 2.461-.36 1.661-.791 3.313-1.028 5-.624 3.349-.809 6.768-.897 10.16 0 .176.106.352.282.422a.444.444 0 0 0 .571-.246c.888-1.951 1.837-3.876 2.716-5.827l2.689-5.827c.228-.483.466-.958.703-1.441l2.408 8.498c-.053.334-.114.677-.158 1.011a90.071 90.071 0 0 0-.65 5.801 59.075 59.075 0 0 0-.053 5.844c.316 7.761 1.468 15.477 3.586 22.956 1.081 3.727 2.399 7.409 4.218 10.863a37.846 37.846 0 0 0 2.241 3.753 49.771 49.771 0 0 0 1.574 6.055c.272 2.347.843 4.597 1.625 6.794a25.956 25.956 0 0 0 3.252 6.249c2.602 3.796 5.063 7.751 6.39 12.11.65 2.171.984 4.439.72 6.662l-.105.826-.211.809c-.079.264-.123.545-.229.8l-.316.773c-.404 1.028-1.002 2.083-1.459 3.138a99.37 99.37 0 0 0-4.087 10.388h-25.671c.175-.378.351-.747.518-1.134a57.38 57.38 0 0 0 2.628-7.47c.668-2.558 1.151-5.168 1.38-7.822.219-2.645.202-5.335-.282-8.015-.087-.668-.298-1.336-.465-2.004-.211-.651-.449-1.336-.73-1.951-.58-1.239-1.213-2.373-1.854-3.507l-3.894-6.679c-2.566-4.439-4.965-8.956-6.916-13.667-.238-.589-.492-1.169-.721-1.766l-.65-1.793c-.466-1.187-.791-2.408-1.169-3.621-.369-1.213-.607-2.452-.914-3.683-.194-1.248-.457-2.487-.572-3.744a56.198 56.198 0 0 1-.184-7.611c.061-2.557.272-5.106.51-7.655.527-5.097 1.379-10.159 2.452-15.178.553-2.504 1.142-5 1.828-7.47.694-2.461 1.424-4.939 2.382-7.277l.008-.018a.447.447 0 0 0-.237-.571.445.445 0 0 0-.58.229c-1.028 2.408-1.802 4.877-2.54 7.356-.738 2.478-1.371 4.983-1.96 7.505-1.16 5.036-2.109 10.125-2.716 15.275-.29 2.575-.544 5.15-.641 7.752-.141 2.592-.141 5.185.07 7.822.097 1.309.352 2.601.527 3.902.299 1.274.528 2.566.888 3.823.369 1.248.686 2.522 1.143 3.744l.641 1.854c.229.615.475 1.213.712 1.819 1.898 4.79 4.236 9.378 6.723 13.843-.773 3.26-1.678 6.477-2.803 9.632-2.777 7.813-6.847 15.231-12.559 21.137-2.373 2.329-5.01 4.403-7.91 5.959l.009-11.171.035-32.746c5.053-2.268 8.894-7.594 10.423-9.993zm-10.467 9.026l.009-6.319.026-17.384 8.516-8.851c.106 1.09.211 2.18.308 3.27.598 6.231 1.134 12.471 1.52 18.72-.439.756-4.596 7.743-10.379 10.564zm45.367-16.435c.115 1.749.29 3.489.554 5.22a36.827 36.827 0 0 1-.949-1.722c-1.749-3.393-3.024-7.022-4.069-10.705-2.039-7.391-3.12-15.055-3.375-22.71v-.369c3.559.396 7.646.694 11.328.914-1.335 5.054-2.39 10.177-3.014 15.371-.58 4.632-.782 9.325-.475 14.001zm-7.848-31.174c-.009-.773 0-1.546.018-2.32 3.831.431 8.278.747 12.189.967-.219.756-.43 1.512-.641 2.276-3.753-.22-7.945-.518-11.566-.923zm-.044-24.564c-.149-.114-.343-.237-.58-.264a1.028 1.028 0 0 0-.642.123c-.668.396-.896.941-1.186 1.407-.264.474-.519.957-.756 1.441-.483.967-.94 1.942-1.389 2.918-1.423 3.128-2.759 6.284-4.069 9.448.176-2.488.449-4.966.958-7.401.273-1.652.73-3.269 1.125-4.886.22-.809.484-1.6.721-2.399.228-.8.501-1.591.8-2.373a65.396 65.396 0 0 1 4.042-9.158 65.62 65.62 0 0 1 3.419-5.678 60.41 60.41 0 0 0 2.769.967 735.573 735.573 0 0 0-3.762 18.623c-.035.185-.061.37-.097.545-.061-.307-.123-.624-.202-.931-.149-.536-.307-1.073-.571-1.6-.141-.264-.29-.536-.58-.782zm-.457-15.433c-4.148 2.03-8.358 4.201-11.97 7.224-4.658 3.771-8.455 8.543-11.267 13.772l-1.073 1.96-.896 2.039c-.571 1.371-1.257 2.698-1.687 4.122l-1.442 4.21c-.132.466-.246.931-.369 1.406v-.167c.097-2.628.281-5.264.483-7.901.414-5.265.958-10.529 1.547-15.785.308-2.627.528-5.282.985-7.839.246-1.274.562-2.54 1.01-3.753.229-.598.475-1.195.783-1.74.263-.492.624-1.011.966-1.327 1.31.14 2.567-.273 3.656-.818 1.16-.597 2.198-1.353 3.164-2.179.484-.413.95-.835 1.398-1.283l1.292-1.283c.14-.123.43-.282.676-.431l.8-.431c.22-.114.448-.228.677-.334l.167.194c1.854 2.171 4.122 3.876 6.504 5.326a46.703 46.703 0 0 0 5.844 2.961 79.716 79.716 0 0 0-1.248 2.057zm-11.135 131.224a43.94 43.94 0 0 1-1.108 2.241h-22.631c2.576-1.582 4.896-3.533 7.014-5.651 5.888-6.249 9.975-13.921 12.62-21.937.932-2.794 1.697-5.633 2.356-8.489l2.962 5.273c.615 1.116 1.212 2.241 1.713 3.348.246.563.422 1.099.598 1.67.132.589.308 1.151.378 1.767.395 2.399.378 4.904.132 7.373-.255 2.479-.747 4.94-1.415 7.357a55.643 55.643 0 0 1-2.619 7.048zm-25.268 3.12h63.824c-.536.255-1.064.527-1.573.861-.589.37-1.134.862-1.609 1.284a76.652 76.652 0 0 0-2.944 2.698c-1.898 1.872-3.691 3.893-5.053 6.257-.668 1.178-1.213 2.452-1.486 3.823a6.428 6.428 0 0 0-.07.598l-6.328-1.011-39.681-6.284-5.748-.905v-.299l.009-6.67c.22-.123.439-.229.659-.352zm75.478-155.955c1.423-.036 2.786.254 4.007.878 1.239.598 2.356 1.495 3.358 2.523.509.501.975 1.063 1.432 1.626.255.307.422.501.536.747a2.7 2.7 0 0 1 .246.782c.035.272.035.554-.017.826l-.202 1.116-.405 2.233-.808 4.464-1.626 8.93-3.252 17.849c-1.037 5.599-1.942 11.224-2.9 16.831a106.579 106.579 0 0 0-4.439-6.056c-1.784-2.241-3.673-4.42-5.862-6.327-1.125-.906-2.294-1.864-3.84-2.242-1.459-.342-3.076-.237-4.456.44-.844.413-1.573 1.002-2.206 1.661 2.628-6.732 5.625-13.324 8.894-19.775 4.201-8.261 8.798-16.355 13.886-24.072l.009-.018a.621.621 0 0 0-.176-.852.621.621 0 0 0-.852.176c-.492.747-.976 1.503-1.45 2.25a110.322 110.322 0 0 1-1.248-3.261c-.071-.211-.141-.413-.211-.624a14.318 14.318 0 0 1 1.582-.105zm-22.869-63.903l3.7-2.672a1.02 1.02 0 0 1 .95-.132c.843.317 2.496 1.099 3.366 2.655.817 1.45-.079 3.322-.747 4.394-.299.483-.941.606-1.415.299-2.004-1.301-3.85-2.162-5.599-2.769-.773-.263-.923-1.292-.255-1.775zm-35.796 38.723c.079-.053.149-.106.228-.158 1.644 3.014 7.612 2.619 8.121 2.584.027 0 .044 0 .071.008 2.373.747 9.272 2.435 15.16 8.218-.246.14-.492.272-.738.422a38.232 38.232 0 0 0-2.461 1.599c-.809.554-1.564 1.187-2.074 2.153a.508.508 0 0 0-.035.361.466.466 0 0 0 .589.299l.035-.009c.949-.308 1.74-.809 2.496-1.38.764-.554 1.555-1.09 2.337-1.635.326-.219.642-.43.967-.641 2.54 2.803 4.816 6.451 6.346 11.223.079.237.43.158.386-.088-.501-2.856-1.766-7.637-4.851-12.357a24.467 24.467 0 0 1 1.951-1.125l.009-.009a.431.431 0 0 0 .228-.492.434.434 0 0 0-.527-.325c-.844.202-1.643.51-2.417.853a29.457 29.457 0 0 0-2.425-2.962c-.15-.158.026-.413.219-.317 6.091 2.883 13.816 4.904 19.45.282.298-.246.351-.422.597-.818l.044-.07s0 .009.009.009c.141.07.308.017.387-.123l.008-.009a6.678 6.678 0 0 1 1.178-1.591c.457-.474.985-.896 1.538-1.098.563-.229 1.002-.071 1.31.413.299.492.457 1.125.571 1.793.228 1.327.246 2.698.088 4.025-.088.659-.229 1.327-.484 1.907-.114.281-.298.554-.457.641-.079.044-.114.044-.21.018-.088-.035-.194-.132-.29-.228l-.027-.027a.314.314 0 0 0-.439-.017.328.328 0 0 0-.035.457c.131.158.272.316.501.439a.911.911 0 0 0 .799.009c.246-.132.422-.299.554-.475.721 1.925 2.021 4.386 4.245 5.792a213.58 213.58 0 0 0 3.05 8.841 120.213 120.213 0 0 0 1.652 4.175c-4.201 6.679-8.024 13.57-11.584 20.601-4.201 8.314-7.945 16.865-11.047 25.663a164.535 164.535 0 0 0-2.487 7.751c-3.973-.219-8.525-.536-12.41-.975.018-.422.018-.844.053-1.257.158-1.898.395-3.797.677-5.695.571-3.797 1.256-7.593 1.986-11.373a699.582 699.582 0 0 1 3.858-18.421c1.239.361 2.496.677 3.788.897.343.07.703.105 1.072.132l.273.026.184.026c.123.018.238.062.361.106.465.202.87.65 1.177 1.186.624 1.081.993 2.391 1.248 3.7a31.81 31.81 0 0 1 .475 8.06v.026a.436.436 0 1 0 .87.07c.264-2.803.141-5.572-.316-8.349-.255-1.38-.572-2.777-1.319-4.078-.369-.642-.887-1.301-1.696-1.661a2.579 2.579 0 0 0-.624-.185l-.562-.07c-.317-.035-.642-.061-.967-.132-2.628-.466-5.238-1.344-7.761-2.311-2.522-.993-4.974-2.18-7.268-3.595-2.285-1.415-4.438-3.076-6.143-5.097l-.633-.756-.536-.826a24.65 24.65 0 0 1-1.055-1.732 75.81 75.81 0 0 0-2.215-3.515c-.439-.668-.914-1.31-1.371-1.969 1.688-1.705 3.551-3.392 5.502-4.667.492-.316 1.055-.606 1.433-.694.044-.009.079-.017.105-.017l.018.026.14.202.273.404 2.206 3.217 4.403 6.425 1.099 1.608.553.8c.22.272.255.509.756.887.501.299 1.028.194 1.389.062.378-.132.676-.334.966-.527a10.782 10.782 0 0 0 1.53-1.345.44.44 0 0 0 0-.615.443.443 0 0 0-.624-.009c-.449.439-.923.852-1.424 1.186-.475.334-1.125.563-1.292.405-.062-.018-.29-.396-.457-.642l-.527-.817-1.046-1.635-4.201-6.548-2.101-3.269-.263-.413-.132-.202-.062-.106-.035-.052-.07-.088c-.185-.255-.51-.405-.765-.448a1.815 1.815 0 0 0-.694.008c-.8.158-1.398.501-1.986.835-2.127 1.301-3.964 2.865-5.748 4.535a300.59 300.59 0 0 0-2.391-3.234l-.676-.914-.695-5.555-.228-1.792c2.171-3.841 1.678-10.934 1.362-13.825zm10.661 21.269l.026.035-.018-.018s-.008-.009-.008-.017zm-18.861-2.567c-.536-2.021-.756-4.148-.808-6.275-.053-2.127.07-4.262.254-6.407l.132-1.617c.027-.264.027-.571.027-.852 0-.22 0-.457.079-.607.123-.307.501-.43.966-.36.229.035.458.105.677.193a15.946 15.946 0 0 0 .141 3.366c.264 1.609.554 3.173.835 4.737-.097 1.319-.255 2.655-.405 3.982a150.694 150.694 0 0 1-.914 6.336c-.008.035-.008.071-.017.106a13.963 13.963 0 0 1-.967-2.602zm-11.276 64.29a4.038 4.038 0 0 0-1.415-.536 4.318 4.318 0 0 0-.756-.08h-.624l-2.504-.008-1.732-.009a3709.547 3709.547 0 0 0 5.186-25.997c1.265-4.14 2.267-8.235 3.796-12.146.378-.976.809-1.934 1.292-2.821.246-.457.501-.835.8-1.257.334-.439.65-.879.967-1.318 1.257-1.767 2.425-3.577 3.559-5.414 1.125-1.846 2.224-3.7 3.199-5.66.238-.492.475-.984.686-1.512.22-.518.378-1.116.483-1.643.22-1.081.378-2.136.536-3.208.308-2.136.572-4.271.774-6.407.175-2.048.378-4.069.316-6.187.589-.264 1.292-.378 1.688-.079.483.334.571 1.168.676 2.012l.668 4.966 1.336 9.931.009.026c.158.8.237 1.644.272 2.47.035.835.009 1.67-.088 2.487-.105.826-.29 1.626-.562 2.408a7.96 7.96 0 0 1-1.195 2.118l-.009.009a.303.303 0 0 0 .044.422.296.296 0 0 0 .422-.044 8.776 8.776 0 0 0 1.327-2.285c.299-.826.501-1.679.624-2.54.105-.861.14-1.731.123-2.601a17.4 17.4 0 0 0-.264-2.593l.009.026-.22-1.775c.686.932 1.371 1.872 2.039 2.812.044.159.106.317.238.44.035.035.079.053.123.079a73.525 73.525 0 0 1 1.652 2.399 71.14 71.14 0 0 1 2.153 3.463c.334.589.677 1.178 1.09 1.784l.272.422c-.158.088-.316.167-.474.255l-.826.474c-.282.176-.537.308-.87.607l-1.301 1.38c-.422.439-.861.861-1.301 1.274-.896.817-1.846 1.564-2.874 2.144-1.028.572-2.162.958-3.26.827l-.088-.009a.32.32 0 0 0-.229.07c-.668.536-.993 1.09-1.362 1.696-.352.598-.624 1.222-.879 1.855-.492 1.265-.844 2.575-1.125 3.893-.527 2.646-.782 5.273-1.134 7.901a433.446 433.446 0 0 0-1.661 15.82c-.219 2.645-.422 5.291-.536 7.945l.009 2.03c0 .677.07 1.336.097 2.004.061 1.336.175 2.654.29 3.981.316 3.797.685 7.576 1.046 11.355l-8.402 7.119.026-19.731v-1.248c0-.474-.07-1.002-.237-1.476a4.458 4.458 0 0 0-1.899-2.32zm75.038 118.726l1.881.308 4.957.817 2.478.404.615.106c.238.035.352.061.457.097a.928.928 0 0 1 .493.421c.237.396.167.967-.167 1.24-.088.079-.167.123-.308.202l-.562.272-1.134.545-4.526 2.171-9.062 4.342-9.061 4.341-1.133.545-.563.273-.281.131c-.079.036-.141.062-.22.097-.29.114-.598.167-.914.176-.158 0-.308-.009-.466-.027l-.597-.096-4.957-.826-39.62-6.636-23.887-3.972 9.254.096a4.258 4.258 0 0 0 2.725-.958c.378-.307.703-.685.949-1.107l54.815 9.132a6.76 6.76 0 0 0 3.331-.273l25.171-8.63a.436.436 0 0 0 .272-.554.44.44 0 0 0-.562-.273l-25.171 8.631a5.92 5.92 0 0 1-2.9.237l-54.596-9.096c.062-.176.114-.36.15-.545.044-.246.061-.483.07-.729v-4.386l.009-8.507 5.554.922 39.637 6.565 6.521 1.073c.062.676.211 1.353.449 1.995.017.052.052.096.079.132a19.392 19.392 0 0 0-.888 2.258l-.035.115.035.114c.141.474.501.808.949.94a1.98 1.98 0 0 0 1.169-.079c.536-.193.993-.475 1.424-.782 0 .035-.009.061-.009.097-.009.202.035.43.158.641.132.202.317.343.501.431.765.281 1.38.061 1.934-.167.105-.053.202-.123.307-.176l4.544-1.063c-.387.492-.782.993-1.169 1.502-.167.22-.325.449-.474.704-.071.131-.15.263-.202.448a.81.81 0 0 0-.036.351c.009.141.123.352.264.422.272.158.448.123.615.132.15-.018.308-.026.448-.062.282-.052.554-.123.818-.193.536-.158 1.028-.29 1.564-.527l8.903-3.762zm34.039-18.535a103.429 103.429 0 0 1-11.452 5.888c-3.937 1.714-7.98 3.208-12.128 4.351a88.327 88.327 0 0 1-12.63 2.54h-.008a.44.44 0 0 0-.334.237l-.009.009c-.967 1.881-2.066 3.726-3.331 5.414-.642.834-1.318 1.652-2.101 2.32a4.186 4.186 0 0 1-.597.466 2.923 2.923 0 0 1-.642.36c-.439.202-.993.351-1.476.501-.246.07-.501.14-.747.176-.123.026-.238.035-.352.044h-.07c.026-.071.07-.15.114-.229.123-.202.273-.413.431-.624.641-.835 1.344-1.661 1.995-2.522a24.869 24.869 0 0 0 1.828-2.707c.281-.492.518-.923.764-1.503.027-.185.167-.325-.017-.738a.751.751 0 0 0-.237-.229 1.387 1.387 0 0 0-.247-.079c-.123-.009-.246 0-.325.018-.351.07-.606.202-.87.325-1.011.518-1.889 1.151-2.759 1.802a29.716 29.716 0 0 0-2.505 2.1c-.405.369-.782.835-1.116 1.16a4.303 4.303 0 0 1-1.187.826c-.413.185-.923.29-1.186.176-.115-.061-.123-.079-.132-.211-.009-.132.096-.343.211-.571.984-1.802 2.311-3.533 3.612-5.203 1.345-1.644 2.716-3.305 4.342-4.632l.008-.009a.263.263 0 0 0 .044-.369c-.088-.123-.255-.14-.378-.052-1.766 1.318-3.216 2.926-4.623 4.57-1.107 1.336-2.17 2.68-3.111 4.157-.386.378-.791.738-1.213 1.072-.465.378-.975.686-1.476.87-.475.176-.809.079-.949-.167.413-1.345 1.028-2.654 1.696-3.928.694-1.328 1.476-2.611 2.294-3.867a70.621 70.621 0 0 1 2.575-3.7c.905-1.196 1.846-2.382 2.883-3.437l.008-.009a.3.3 0 0 0 0-.421.292.292 0 0 0-.421 0c-1.108 1.081-2.066 2.258-2.997 3.462a64.238 64.238 0 0 0-2.663 3.7 52.885 52.885 0 0 0-2.391 3.894l-.448.843a6.356 6.356 0 0 1-.194-1.142 7.788 7.788 0 0 1 .132-1.855c.246-1.23.765-2.416 1.407-3.533 1.3-2.223 3.058-4.192 4.93-6.011a75.828 75.828 0 0 1 2.918-2.645c.518-.449.958-.853 1.494-1.178a11.743 11.743 0 0 1 1.679-.888c2.355-1.028 4.93-1.591 7.505-1.916a35.964 35.964 0 0 1 3.894-.263c.624.017 1.371-.071 2.082-.159.668-.202 1.371-.334 1.987-.632 2.54-1.037 4.781-2.514 6.96-4.052 2.171-1.547 4.254-3.199 6.311-4.869.878-.712 1.757-1.441 2.636-2.162a54.104 54.104 0 0 0 1.793 2.663 83.247 83.247 0 0 0 3.973 5.185 94.885 94.885 0 0 0 4.324 4.887 78.899 78.899 0 0 0 1.713 1.749c-.386.237-.799.501-1.221.747zm-43.1 15.415c.352-.228.703-.448 1.063-.641.15-.079.299-.141.44-.185-.141.317-.316.659-.492.993l-1.011-.167zm47.775-14.633a78.938 78.938 0 0 1-4.297-4.113 92.608 92.608 0 0 1-4.342-4.764 79.046 79.046 0 0 1-3.999-5.062c-1.213-1.626-2.302-3.34-3.357-5.071 3.129-2.54 6.205-5.141 9.281-7.743 1.371-1.177 2.733-2.364 4.095-3.55 1.486 2.759 6.829 11.961 16.084 20.468-1.037.809-2.066 1.618-3.111 2.417-3.384 2.558-6.821 5.098-10.354 7.418zm7.62-3.709a328.316 328.316 0 0 0 3.568-2.61c.352-.264.695-.527 1.037-.791.185.228.37.457.545.694.703.888 1.371 1.802 2.048 2.707h-7.198z" fill="#45567C"/><path d="M359.566 247.283l.203-.044a5.11 5.11 0 0 0 1.133-.422 7.368 7.368 0 0 0 1.011-.554c.325-.193.615-.431.896-.677.273-.255.51-.545.73-.861l.176-.264a.387.387 0 0 0 .035-.342.381.381 0 0 0-.492-.229c-.44.158-.783.369-1.134.58-.343.211-.677.431-1.002.659-.65.457-1.283.932-1.907 1.424a.42.42 0 0 0-.15.422c.053.22.282.36.501.308zm20.189-33.107c.106.228.141.474.088.703-.044.237-.229.448-.422.65l-.017.026c-.062.071-.071.176-.009.246.061.08.184.097.272.027.255-.202.536-.431.659-.791.141-.343.123-.738.027-1.081a2.98 2.98 0 0 0-.457-.914 4.824 4.824 0 0 0-.422-.51 8.33 8.33 0 0 1 .343-.87c.167-.325.43-.668.571-.686.105-.061.413.229.562.572.167.342.299.738.361 1.107v.018c.026.14.149.237.29.228a.275.275 0 0 0 .246-.299 4.605 4.605 0 0 0-.334-1.327 2.467 2.467 0 0 0-.378-.624.99.99 0 0 0-.835-.386.966.966 0 0 0-.457.167c-.141.079-.22.167-.316.263-.194.185-.29.387-.431.58-.229.396-.404.8-.571 1.204a.412.412 0 0 0 .14.492c.449.317.888.748 1.09 1.205zm-21.41 11.653c.633-.413.73-1.388.22-2.188-.519-.791-1.45-1.107-2.083-.694-.633.413-.729 1.388-.22 2.188.519.791 1.45 1.107 2.083.694zm-16.084 6.46c-.632.413-.729 1.389-.219 2.188.509.8 1.45 1.108 2.083.695.632-.413.729-1.389.219-2.189-.509-.799-1.45-1.107-2.083-.694zm49.789 104.559a61.73 61.73 0 0 1-7.356 2.444c-2.496.65-5.053 1.195-7.593 1.511a.434.434 0 0 0-.378.404.433.433 0 0 0 .404.466l.07.009c2.699.211 5.379.018 7.998-.492 1.319-.229 2.61-.571 3.902-.932a28.402 28.402 0 0 0 1.908-.632c.624-.238 1.274-.422 1.889-.704a34.997 34.997 0 0 0 7.075-3.919c2.206-1.573 4.122-3.569 5.66-5.766l.035-.052a.439.439 0 0 0-.044-.554.432.432 0 0 0-.615-.009c-1.846 1.784-3.858 3.401-6.047 4.755-2.214 1.327-4.508 2.513-6.908 3.471zm-7.691 7.682c1.477.29 2.953.307 4.412.211 1.459-.088 2.9-.343 4.324-.677.712-.176 1.406-.404 2.109-.624.686-.264 1.38-.519 2.048-.853 1.336-.641 2.637-1.45 3.683-2.584l.088-.087a.43.43 0 0 0-.537-.66c-1.186.703-2.487 1.248-3.805 1.723-1.327.475-2.681.87-4.052 1.222-2.742.685-5.537 1.195-8.34 1.467a.43.43 0 0 0-.378.343.437.437 0 0 0 .343.51l.105.009zm19.037 18.113l-.052.018c-.466.175-.906.386-1.38.545-.483.14-.958.307-1.441.43l-1.468.378-1.494.317c-2.004.377-4.017.747-6.047 1.019-2.03.29-4.06.571-6.099.817l-6.117.774a.438.438 0 0 0-.387.439c0 .246.202.44.448.44 2.074-.018 4.14-.159 6.196-.326 2.057-.193 4.122-.421 6.17-.729 2.048-.325 4.096-.677 6.117-1.178 2.021-.501 4.052-1.081 5.932-2.162a.438.438 0 0 0 .194-.536.452.452 0 0 0-.572-.246zm-9.413 7.277c-1.748-.554-3.515-.826-5.299-1.037a33.704 33.704 0 0 0-2.681-.184c-.896-.018-1.801 0-2.715.131a.45.45 0 0 0-.361.299.465.465 0 0 0 .273.58c.87.308 1.749.51 2.636.677.888.158 1.776.281 2.663.36 1.784.158 3.577.246 5.397.053a.435.435 0 0 0 .378-.308.446.446 0 0 0-.291-.571zm-32.087-4.007h.044c1.002-.08 2.109.008 3.19.087 1.081.097 2.171.194 3.261.334 1.09.123 2.171.264 3.252.431 1.081.149 2.162.316 3.243.492a.447.447 0 0 0 .492-.29.442.442 0 0 0-.281-.562c-1.064-.361-2.154-.615-3.252-.835a52.896 52.896 0 0 0-3.305-.519c-1.107-.114-2.223-.219-3.348-.237-1.125-.018-2.241-.035-3.428.237a.442.442 0 0 0-.343.466.432.432 0 0 0 .475.396zm-22.077-26.876c.808.808 1.793 1.283 2.777 1.634.993.343 2.004.528 3.023.607 1.02.079 2.03.079 3.05-.053 1.011-.123 2.021-.325 3.023-.756l.158-.07a.422.422 0 0 0-.167-.809 56.813 56.813 0 0 1-5.862-.263c-1.942-.194-3.893-.484-5.686-1.117a.433.433 0 0 0-.439.097.42.42 0 0 0 0 .598l.123.132zm-221.44-45.06c0 .246.193.439.439.439l75.891.545 7.778.044.413-1.406-8.182-.018-75.9-.043a.446.446 0 0 0-.439.439zm190.09 1.591a.682.682 0 0 1 .448.237c.053.07.097.141.123.229l.026.123v.202l.009 2.373.018 4.746.044 9.483.087 18.974c.123 25.294.334 50.597.616 75.891 0 .237.193.43.439.43s.44-.193.44-.439c.123-25.303.167-50.596.123-75.899l-.036-18.975-.017-9.483-.009-4.746-.009-2.373v-.158l-.017-.229a2.888 2.888 0 0 0-.097-.457 2.505 2.505 0 0 0-.439-.808 2.411 2.411 0 0 0-1.591-.853l-38.029-.105-12.454-.026-.509 1.564 12.954.07 37.88.229zm217.609 47.749a.277.277 0 0 0-.457.167l-.325 2.1a.275.275 0 0 0 .342.308l2.083-.554c.211-.053.282-.334.115-.474l-1.758-1.547zm7.329 3.023c.826-1.002 1.266-2.004.984-2.232-.281-.229-1.423.237-2.249 1.239-.827 1.002-1.02 2.153-.739 2.391.282.228 1.178-.396 2.004-1.398zm-7.18-7.066c-.712.87-.835 1.916-.624 2.092.211.167.958-.396 1.67-1.266s1.125-1.714.923-1.881c-.203-.175-1.248.185-1.969 1.055zm23.3 41.034c-1.943-.29-3.894-.668-5.907-.791-1.01-.061-2.047-.052-3.102.22-.264.053-.518.176-.782.264-.246.149-.519.246-.738.448-.115.097-.229.185-.343.29l-.29.352c-.194.237-.29.421-.44.641-1.072 1.67-2.135 3.331-3.146 5.036a92.658 92.658 0 0 0-1.494 2.575l-.721 1.31c-.228.457-.466.861-.668 1.432-.342 1.072-.422 2.189-.149 3.296a4 4 0 0 0 .747 1.591c.36.509.949.861 1.547 1.046 1.23.325 2.373-.027 3.331-.413.958-.396 1.907-.914 2.707-1.679.826-.738 1.388-1.863 1.494-2.971.026-.175.017-.351.026-.518l6.012-4.895s-1.899.052-2.892.061c.466-.492.932-.984 1.397-1.468l.009-.008a.394.394 0 0 0 .009-.537.393.393 0 0 0-.562-.035c-1.494 1.319-2.953 2.654-4.254 4.236-.158.211-.325.405-.466.642-.149.237-.299.448-.404.852-.018.097-.044.229-.044.308v.554c-.009.228-.018.457-.053.668a3.55 3.55 0 0 1-1.169 2.171c-.633.588-1.45 1.037-2.311 1.388-.844.343-1.723.536-2.426.334-.677-.202-1.169-.817-1.362-1.643-.22-.809-.158-1.741.088-2.54.298-.783.817-1.697 1.265-2.54.475-.862.958-1.714 1.459-2.558.993-1.696 1.978-3.401 3.015-5.071.747-1.731 2.777-1.854 4.684-1.863 1.934.035 3.885.316 5.853.518a.342.342 0 0 0 .378-.29.375.375 0 0 0-.298-.413z" fill="#45567C"/><path d="M554.588 368.241l-3.814-5.396a54.074 54.074 0 0 1-1.802-2.724c-.545-.914-1.09-1.863-1.362-2.813-.492-1.995-.721-4.227-1.125-6.389 2.496-1.758 6.583-5.308 6.899-5.59.009-.008.018-.008.018-.017a.424.424 0 0 0 .114-.158c0-.009.009-.018.009-.027.008-.026.026-.053.026-.088 0-.026 0-.061-.009-.088v-.017c0-.009 0-.009-.009-.009a.414.414 0 0 0-.07-.184.385.385 0 0 0-.158-.132c-3.595-1.872-8.719-2.233-9.967-2.294a14.645 14.645 0 0 0-3.12-3.551 12.031 12.031 0 0 0-2.592-1.626c-.273-3.515-2.303-6.319-2.61-6.732a.445.445 0 0 0-.44-.237.42.42 0 0 0-.307.202c-1.222 1.248-3.534 4.658-4.034 5.414-.106.009-.211.009-.317.017-2.566.229-5.053.958-7.365 2.057a26.387 26.387 0 0 0-3.313 1.925c-.264.175-.519.378-.774.562a5.002 5.002 0 0 0-.764.624l-.747.694-.615.827c-.756 1.151-1.178 2.548-1.152 3.893a13.5 13.5 0 0 0 .616 3.876c.72 2.478 1.845 4.728 2.873 6.987 1.029 2.259 2.11 4.482 2.611 6.829.545 2.355.624 4.825.571 7.277a43.82 43.82 0 0 1-.782 6.855l-1.899-.58c-.808-.475-1.67-.888-2.584-1.169-.931-.29-1.951-.448-2.979-.325a5.006 5.006 0 0 0-2.812 1.292c-.774.712-1.292 1.59-1.723 2.487l.027-.062c-1.055 1.916-2.004 3.85-2.716 5.95-.325 1.064-.668 2.127-.528 3.437.036.325.15.685.37 1.01.105.167.263.317.421.44.15.097.29.167.44.246.29.167.589.22.879.325.29.044.589.123.879.141a8.688 8.688 0 0 0 3.366-.44c1.169-.202 3.937-.905 7.321-3.295l-2.628-.352c.756-1.16 1.248-2.478 1.52-3.788a.306.306 0 0 0-.219-.36.317.317 0 0 0-.396.211v.008c-.598 1.987-1.661 3.85-3.278 5.08-1.573 1.24-3.639 1.916-5.572 1.732-.246-.009-.466-.088-.703-.123-.202-.079-.448-.132-.615-.238-.088-.052-.194-.105-.264-.149-.044-.044-.088-.079-.123-.141a1.187 1.187 0 0 1-.167-.483c-.106-.844.167-1.898.474-2.865.651-1.96 1.591-3.894 2.602-5.73.009-.018.026-.044.026-.062.361-.782.791-1.529 1.389-2.1a3.842 3.842 0 0 1 2.162-1.037c1.652-.22 3.428.395 4.992 1.239l.017.008a.267.267 0 0 0 .088.036l2.435.65.017.009h.018a.43.43 0 0 0 .51-.325c.589-2.47.94-4.948 1.098-7.471.141-2.513.071-5.071-.457-7.576-.518-2.54-1.582-4.86-2.601-7.118-1.02-2.268-2.109-4.509-2.769-6.821a11.647 11.647 0 0 1-.544-3.471c-.018-1.151.351-2.224.931-3.155l.483-.677.625-.58c.193-.202.421-.387.676-.562.246-.176.484-.37.73-.537.993-.685 2.039-1.3 3.12-1.845 2.179-1.046 4.5-1.828 6.899-2.083 1.195-.114 2.408-.158 3.594-.009 1.187.15 2.356.44 3.472.897a11.38 11.38 0 0 1 2.566 1.59 13.618 13.618 0 0 1 2.962 3.384c0 .009 0 .018.009.026a.45.45 0 0 0 .413.325c.044 0 3.48.115 6.811 1.046-.685-.052-1.38-.105-2.074-.131-1.802-.071-3.621.035-5.405.219a.347.347 0 0 0-.316.378.346.346 0 0 0 .377.317c.422-.036.844-.071 1.257-.097.791 1.969 1.239 4.051 1.565 6.17.36 2.17.536 4.324 1.081 6.591.351 1.178.94 2.145 1.52 3.111a51.279 51.279 0 0 0 1.863 2.777l3.859 5.37c2.531 3.586 4.921 7.269 6.828 11.188 1.152 2.365 2.145 4.808 2.892 7.321h1.028a43.994 43.994 0 0 0-2.926-7.804c-1.872-4.043-4.272-7.796-6.803-11.417zm-19.423-36.024c.598 1.063 1.318 2.671 1.556 4.499a13.226 13.226 0 0 0-1.732-.544c.114-.862.176-1.723.194-2.584-.009-.466-.009-.914-.018-1.371zm-3.823 3.515c.685-1.002 1.995-2.883 2.979-4.087.15 1.459.211 2.936.115 4.395a15.33 15.33 0 0 0-3.094-.308zm13.332 9.132a33.451 33.451 0 0 1 3.103.008c1.441.071 2.882.238 4.315.422-1.274 1.09-3.92 3.331-5.792 4.685-.369-1.749-.87-3.481-1.626-5.115zm55.686 23.14l-.053-1.265c0-.405-.07-.914-.176-1.327-.219-.871-.588-1.697-1.168-2.435a3.499 3.499 0 0 0-1.108-.931 2.295 2.295 0 0 0-1.529-.203 2.3 2.3 0 0 0-1.318.774 3.708 3.708 0 0 0-.695 1.257c-.562 1.74-.395 3.497-.386 5.141.07 3.322-.088 6.644-.616 9.914-.474 2.909-1.239 5.765-2.346 8.489h.975c1.073-2.689 1.82-5.492 2.285-8.34.545-3.331.721-6.715.651-10.081-.018-1.678-.141-3.339.343-4.816.246-.712.668-1.301 1.3-1.397.607-.15 1.231.211 1.688.8.457.58.791 1.309.975 2.056.097.387.15.712.15 1.151l.052 1.248c.097 1.661.062 3.323.036 4.975a56.479 56.479 0 0 1-1.178 9.861 48.154 48.154 0 0 1-1.204 4.543h1.072a48.88 48.88 0 0 0 1.134-4.332 56.847 56.847 0 0 0 1.178-10.037c0-1.679.035-3.366-.062-5.045z" fill="#45567C"/><path d="M224.827 222.481l14.44 3.621 12.058 5.73 14.282 10.01 7.101 7.049-25.171 78.755-2.927-4.438-7.962-6.029-11.478-6.512-17.788-6.803-7.339-2.223 24.784-79.16z" fill="#fff"/><path d="M272.611 248.469l-2.39-2.522c-.809-.826-1.556-1.723-2.435-2.479-1.722-1.547-3.357-3.199-5.203-4.596-.905-.721-1.793-1.459-2.716-2.162l-2.847-1.995c-.932-.686-1.925-1.283-2.918-1.89-1.002-.589-1.951-1.248-2.988-1.775-4.034-2.285-8.314-4.122-12.7-5.616-4.403-1.459-8.911-2.575-13.596-2.953a.411.411 0 0 0-.431.29l-.008.017-24.6 78.738-.009.018a.44.44 0 0 0 .308.536h.009c4.368 1.266 8.701 2.751 12.963 4.368a149.341 149.341 0 0 1 12.55 5.414c4.078 2.013 8.06 4.236 11.768 6.829a49.173 49.173 0 0 1 5.265 4.236 33.67 33.67 0 0 1 2.338 2.399c.369.449.685.818 1.089 1.319.475.659 1.178 1.248 1.732 1.661l12.594-39.699c4.166-13.262 8.253-26.515 12.313-39.716l.009-.018a.407.407 0 0 0-.097-.404zm-13.034 39.18l-12.014 39.04c-.123-.51-.088-.844-.29-1.108-.316-.387-.747-.879-1.116-1.309-.791-.862-1.608-1.705-2.487-2.479a50.37 50.37 0 0 0-5.484-4.289c-3.832-2.601-7.893-4.798-12.05-6.776a151.334 151.334 0 0 0-12.726-5.282c-4.174-1.52-8.384-2.9-12.673-4.087l24.362-77.964c4.404.387 8.798 1.468 13.025 2.874 4.333 1.467 8.56 3.287 12.55 5.545 1.02.519 1.969 1.169 2.953 1.749.976.598 1.96 1.187 2.883 1.864l2.813 1.977c.914.694 1.792 1.433 2.689 2.145 1.837 1.379 3.445 3.014 5.15 4.552.87.747 1.6 1.635 2.408 2.452l2.197 2.32c-4.095 12.964-8.173 25.874-12.19 38.776z" fill="#7A88A7"/><path d="M228.37 228.167c.844.211 1.266.317 2.092.545.281-.369.422-.554.694-.923a68.636 68.636 0 0 0-3.621-.905c-.967 2.601-1.45 3.893-2.355 6.433 1.45.361 2.17.554 3.594.967.141-.387.211-.589.352-.975a93.33 93.33 0 0 0-2.4-.66l.66-1.801c.843.219 1.256.325 2.083.562.149-.395.219-.597.369-.993-.826-.228-1.248-.343-2.092-.562.246-.677.369-1.011.624-1.688zm6.503 7.55v-.958c-.606.105-1.169.07-1.679-.106-.632-.211-1.054-.597-1.283-1.16-.219-.562-.211-1.169.036-1.846.237-.65.632-1.133 1.16-1.458.571-.343 1.204-.414 1.889-.185a2.874 2.874 0 0 1 1.398 1.019c.167-.439.254-.667.421-1.116-.316-.395-.808-.703-1.476-.923-1.002-.333-1.969-.246-2.856.229-.862.457-1.477 1.178-1.828 2.127-.352.949-.352 1.802-.018 2.575.352.8 1.028 1.362 1.995 1.687.712.246 1.45.282 2.241.115zm1.608.395c.361.738.985 1.283 1.855 1.644.896.369 1.731.386 2.513.035.782-.352 1.354-1.011 1.723-2.013.351-.949.395-1.854.132-2.698-.299-.949-.923-1.643-1.89-2.039-.896-.369-1.766-.325-2.593.114-.826.44-1.423 1.152-1.784 2.127-.395 1.037-.378 1.969.044 2.83zm1.134-2.434c.264-.721.659-1.231 1.169-1.53.51-.29 1.055-.325 1.626-.087.58.237.949.659 1.125 1.247.176.589.132 1.24-.132 1.952-.264.729-.65 1.212-1.143 1.476-.501.264-1.028.273-1.59.044-.572-.237-.958-.633-1.16-1.186-.194-.545-.159-1.187.105-1.916zm5.775 6.231c.536-1.485.808-2.224 1.379-3.779.15-.413.255-.712.299-.897.009 0 .009 0 .018-.009.053.352.132.748.237 1.205.475 2.065.721 3.076 1.222 5.079.386.203.571.308.958.519.896-2.487 1.362-3.726 2.373-6.512-.405-.229-.616-.343-1.02-.572-.562 1.547-.835 2.285-1.362 3.718-.141.395-.255.703-.343.931a14.607 14.607 0 0 0-.228-1.195 255.303 255.303 0 0 1-1.116-5.045c-.431-.21-.651-.316-1.081-.527-1.011 2.76-1.486 4.025-2.4 6.548.422.228.633.325 1.064.536zm6.107 2.443c.316.8.879 1.433 1.679 1.916.817.492 1.582.624 2.302.378.73-.246 1.257-.835 1.609-1.811.334-.922.395-1.854.167-2.777-.247-1.037-.809-1.845-1.688-2.399-.817-.51-1.608-.571-2.382-.22-.773.352-1.336 1.029-1.687 1.995-.378 1.029-.369 1.987 0 2.918zm1.081-2.338c.255-.712.633-1.195 1.107-1.432.475-.238.976-.202 1.494.123.519.325.853.817 1.002 1.45.15.633.097 1.309-.158 2.004-.255.712-.615 1.151-1.072 1.353-.457.202-.949.141-1.459-.176a2.298 2.298 0 0 1-1.046-1.362c-.167-.597-.123-1.248.132-1.96zm10.855 3.252a52.63 52.63 0 0 1-2.25 1.626 4.34 4.34 0 0 0-.571.466c-.009-.009-.009-.009-.017-.009a12.01 12.01 0 0 0-.097-.923 125.615 125.615 0 0 1-.475-3.709l-.905-.641c-1.002 2.786-1.441 3.981-2.311 6.389.386.264.588.396.975.659.519-1.432.782-2.153 1.336-3.691.097-.264.176-.492.246-.668.027.404.053.686.088.862.167 1.168.255 1.748.431 2.873.193.141.281.203.474.343a52.974 52.974 0 0 0 1.776-1.204c.281-.202.465-.343.544-.431-.061.167-.149.405-.246.695-.544 1.511-.799 2.206-1.309 3.603.378.281.562.422.94.712.844-2.329 1.275-3.489 2.268-6.258-.369-.281-.545-.421-.897-.694zm1.898 1.512c-.993 2.768-1.415 3.92-2.259 6.231.369.29.554.439.923.729.835-2.293 1.266-3.436 2.25-6.204a39.41 39.41 0 0 1-.914-.756zm2.066 3.006c-.712.228-1.248.817-1.573 1.713a4.346 4.346 0 0 0-.124 2.672c.247.941.756 1.723 1.512 2.382.545.474 1.134.764 1.758.861.017-.378.017-.571.035-.958a3.03 3.03 0 0 1-1.327-.677 2.992 2.992 0 0 1-.967-1.608 3.295 3.295 0 0 1 .114-1.907c.22-.606.563-1.011.994-1.178.474-.184.984-.061 1.511.422.431.396.782.932 1.046 1.582.158-.431.237-.641.404-1.098-.228-.545-.597-1.055-1.107-1.521-.765-.712-1.538-.923-2.276-.685zm-27.492-7.014c-.492 1.398-.738 2.092-1.204 3.507-.132.387-.229.694-.308.923a11.099 11.099 0 0 0-.298-1.134c-.572-1.855-.853-2.769-1.424-4.588-.457-.176-.686-.255-1.143-.422-.887 2.523-1.309 3.762-2.1 6.319.448.167.668.255 1.116.422.474-1.511.712-2.25 1.222-3.735a8.68 8.68 0 0 0 .254-.852c.009 0 .009 0 .018-.009.07.316.176.685.308 1.098.606 1.899.905 2.857 1.502 4.834.405.167.607.255 1.002.431.826-2.61 1.248-3.841 2.136-6.354a33.25 33.25 0 0 1-1.081-.44zm2.145 5.036c.756.343 1.133.527 1.881.888.131-.387.193-.58.325-.967-.747-.36-1.125-.536-1.881-.888.22-.65.334-.975.562-1.626.756.352 1.134.528 1.881.888.246-.325.378-.483.624-.808a78.093 78.093 0 0 0-3.252-1.53 158.624 158.624 0 0 0-2.135 6.355c1.309.588 1.96.896 3.243 1.52.132-.404.193-.606.325-1.002-.861-.422-1.301-.624-2.171-1.028.237-.73.36-1.09.598-1.802zm7.909-.158c-.853.589-1.283.888-2.145 1.512-.202-1.187-.307-1.767-.509-2.936-.475-.246-.704-.36-1.178-.598.281 1.565.422 2.347.712 3.938a88.756 88.756 0 0 0-3.103 2.285c.475.237.712.351 1.178.589a75.48 75.48 0 0 1 2.241-1.705c.22 1.248.325 1.872.536 3.172a75.9 75.9 0 0 1 1.169.651c-.281-1.74-.431-2.567-.729-4.21a85.015 85.015 0 0 1 2.944-2.057c-.448-.263-.668-.386-1.116-.641zm5.264 3.155c-.537 1.503-.8 2.259-1.336 3.849-.326.967-.914 1.205-1.767.695-.404-.246-.677-.571-.791-.967-.123-.404-.105-.835.053-1.309.527-1.574.791-2.321 1.327-3.824-.404-.237-.606-.36-1.011-.597a245.907 245.907 0 0 0-1.353 3.911c-.273.8-.29 1.52-.062 2.162.229.641.721 1.186 1.486 1.652.773.466 1.423.571 1.977.334.51-.22.888-.712 1.143-1.468.536-1.573.791-2.311 1.318-3.796-.396-.264-.589-.387-.984-.642zm3.727 2.443c-.527-.369-1.011-.501-1.433-.395-.404.096-.694.378-.852.843-.185.537-.149 1.117.114 1.732.018.035.299.518.835 1.494.29.536.387.967.273 1.292-.079.246-.246.378-.484.378-.193.009-.404-.071-.633-.229-.404-.272-.747-.712-1.028-1.283-.272.246-.413.369-.685.624.351.721.826 1.283 1.423 1.688.528.36 1.02.483 1.486.377.466-.105.791-.439.975-.984.194-.562.158-1.16-.105-1.802-.018-.052-.29-.562-.826-1.502-.299-.537-.396-.95-.299-1.24.07-.193.193-.29.369-.298.176-.009.378.07.598.219.369.255.72.686 1.063 1.275.141-.378.211-.572.36-.95a3.764 3.764 0 0 0-1.151-1.239z" fill="#7A88A7"/><path d="M370.404 497.884l-28.054 7.602-36.825-32.439 17.534-1.459 47.345 26.296zm22.217-10.52c-2.337 1.757-7.013 6.723-7.013 6.723l38.872-11.399-14.958-7.339s-14.563 10.266-16.901 12.015z" fill="#E4E7ED"/><path d="M277.788 421.281l69.273 19.81 11.891-7.136 42.625 18.148 25.619-14.554 83.502 12.102-43.952 31.71-47.099-12.427-21.067 13.297-12.717 11.25-5.519 9.368-56.925-31.498-17.375 1.784 16.277 14.712-83.757-17.164 11.109-10.424 14.774-14.58 7.383-10.301 4.86-8.366 1.098-5.731z" fill="#fff"/><path d="M266.098 451.857c2.558 1.714 3.973 2.575 7.022 4.307.8.457 1.618.879 2.444 1.248l-.027.026c-1.415 0-2.645.009-3.708.035a502.25 502.25 0 0 0-11.505.387c-.835.844-1.257 1.265-2.127 2.136 7.145-.431 14.291-.677 21.454-.879.457-.536.676-.8 1.116-1.327-4.439-2.4-8.798-4.966-12.946-7.849-.677.783-1.02 1.16-1.723 1.916zm18.491 1.072a188.053 188.053 0 0 1-3.524-1.801 126.945 126.945 0 0 0 2.768-3.489c1.925-.018 2.892-.027 4.808-.035.562-.774.844-1.169 1.397-1.952-6.292.044-12.585.15-18.878.308-.448.545-.668.809-1.125 1.353 4.245 2.699 8.657 5.124 13.139 7.401.572-.721.862-1.073 1.415-1.785zm-5.554-2.9a152.458 152.458 0 0 1-3.006-1.696 16.76 16.76 0 0 0-1.626-.8c.009-.009.009-.009.009-.017.492.044 1.239.07 2.259.079 1.705.017 2.566.026 4.289.052-.756.958-1.143 1.433-1.925 2.382zm-.613-9.887c4.376 1.116 8.753 2.223 13.13 3.322.519-.765.773-1.151 1.292-1.934-4.35-1.124-8.701-2.249-13.043-3.392a86.78 86.78 0 0 0 1.978-3.076c-.809-.457-1.213-.685-2.021-1.151-2.215 3.717-3.375 5.414-5.871 8.709.914.229 1.371.343 2.302.572a85.695 85.695 0 0 0 2.233-3.05zm11.293 30.804c1.16-.131 1.986-.237 2.487-.334 3.331-.536 4.93-.791 7.997-1.274.255-.395.378-.598.624-.984a245.412 245.412 0 0 0-4.622-3.366c-.747-.528-1.257-.862-1.53-.994.501.097 1.178.229 2.031.405 4.455.887 6.653 1.344 10.748 2.258.431-.747.633-1.116 1.046-1.845-6.02-1.336-12.049-2.575-18.096-3.779-.51.694-.773 1.046-1.301 1.749 2.233 1.626 3.393 2.452 5.687 4.13.545.396 1.107.756 1.687 1.081-.009.018-.009.018-.026.035a37.47 37.47 0 0 0-2.549.326c-3.964.606-6.038.931-10.336 1.626-.632.799-.958 1.204-1.617 2.039 6.671 1.186 13.324 2.399 19.959 3.779.581-.897.853-1.327 1.389-2.189a429.242 429.242 0 0 0-11.487-2.276c-.843-.149-1.538-.281-2.091-.387zm11.092-9.535c2.865.606 5.396.58 7.558-.053 1.863-.554 3.12-1.503 3.832-2.848.738-1.388.571-2.715-.466-3.999-1.037-1.283-2.769-2.249-5.256-2.865-2.355-.58-4.535-.65-6.582-.202-2.294.501-3.99 1.529-5.054 3.076-.984 1.433-.958 2.795.176 4.096 1.142 1.292 3.111 2.223 5.792 2.795zm-3.305-6.293c.606-.914 1.635-1.521 3.076-1.811 1.441-.29 3.059-.219 4.869.211 1.837.44 3.12 1.073 3.876 1.872.756.809.896 1.644.422 2.531-.484.888-1.415 1.486-2.83 1.785-1.415.298-3.103.237-5.054-.185-1.942-.422-3.322-1.037-4.104-1.837-.782-.808-.853-1.661-.255-2.566zm5.975-5.792c1.441.36 2.847.299 4.201-.184.07-.027 1.107-.537 3.102-1.547 1.107-.554 2.048-.73 2.839-.51.597.167.958.483 1.081.932.096.369.026.782-.211 1.204-.422.764-1.222 1.388-2.408 1.872.694.509 1.046.764 1.74 1.274 1.424-.615 2.417-1.459 3.032-2.575.545-.984.606-1.942.185-2.848-.431-.905-1.292-1.564-2.628-1.942-1.38-.387-2.76-.316-4.131.202-.114.044-1.16.589-3.155 1.6-1.125.571-2.092.747-2.883.545-.518-.132-.835-.369-.949-.712-.114-.343-.044-.73.211-1.152.439-.72 1.292-1.432 2.549-2.126-1.011-.29-1.521-.431-2.532-.721a6.717 6.717 0 0 0-2.452 2.329c-.641 1.037-.703 1.951-.202 2.751.475.747 1.345 1.292 2.611 1.608zm4.64-7.787c1.371.378 2.742.308 4.13-.255.071-.035 1.134-.606 3.252-1.801 1.178-.651 2.162-.879 2.944-.642.598.176.932.536.994 1.046.052.431-.071.888-.361 1.38-.527.879-1.406 1.582-2.636 2.144.65.563.966.835 1.617 1.389 1.494-.686 2.61-1.652 3.392-2.927.695-1.133.897-2.232.571-3.278-.325-1.046-1.142-1.784-2.478-2.188-1.38-.422-2.812-.29-4.271.334-.123.052-1.266.712-3.349 1.898-1.177.668-2.135.888-2.9.668-.492-.141-.791-.404-.879-.8-.088-.387.018-.826.299-1.318.492-.835 1.397-1.661 2.733-2.505-.993-.307-1.485-.466-2.478-.773a8.258 8.258 0 0 0-2.61 2.733c-.704 1.195-.818 2.224-.387 3.12.404.852 1.213 1.441 2.417 1.775zM487.9 458.132c.975.343 1.45.51 2.329.835 3.173-2.258 6.345-4.517 9.527-6.758a179.07 179.07 0 0 1-2.892-.422c-1.371.967-2.065 1.45-3.445 2.434-5.528-.887-11.038-1.845-16.558-2.742-.879.616-1.318.923-2.188 1.547 5.51.914 11.021 1.872 16.531 2.769-1.327.922-1.986 1.397-3.304 2.337zm-2.672 4.474c.65-.466.975-.703 1.634-1.169-4.869-2.285-9.869-4.271-14.694-6.662-.862.607-1.292.914-2.162 1.521 1.195.597 1.907.914 3.401 1.573-1.67 1.204-2.505 1.81-4.166 3.014a706.062 706.062 0 0 0-5.695-.044c-.932.651-1.398.985-2.32 1.635 7.997.062 16.004.299 24.002.132zm-12.384-1.661c1.143-.826 1.705-1.239 2.848-2.066 1.441.633 2.188.95 3.63 1.582.817.334 1.485.58 2.012.739-.009.008-.009.008-.017.008a77.768 77.768 0 0 0-2.927-.114c-2.215-.053-3.349-.088-5.546-.149zm-3.989 13.236c.949-.668 1.423-1.002 2.39-1.688-1.415-1.327-2.215-2.004-3.884-3.375 3.902-.228 5.87-.342 9.553-.65a432.235 432.235 0 0 0 2.505-1.793c-4.316.378-8.64.633-12.964.888-2.346-1.978-3.673-3.006-5.519-4.896-.975.686-1.468 1.029-2.443 1.714 1.424 1.398 2.32 2.127 4.051 3.568-4.042.229-6.037.334-9.878.528-.993.694-1.485 1.046-2.478 1.749 4.42-.229 8.832-.475 13.244-.73 2.32 1.916 3.472 2.857 5.423 4.685z" fill="#7A88A7"/><path d="M513.676 448.061l-84.759-12.278a.518.518 0 0 0-.281.052l-25.592 14.809a8234.22 8234.22 0 0 0-42.406-18.333.46.46 0 0 0-.413.035l-10.968 7.084-69.176-19.379a.414.414 0 0 0-.352.053.472.472 0 0 0-.202.298c-3.199 18.993-39.048 48.338-39.408 48.637a.427.427 0 0 0-.15.44c.035.167.167.29.334.325l83.317 17.973 19.933 18.017a.788.788 0 0 0 .747.175l28.976-8.094 7.901 4.377.035.017a.65.65 0 0 0 .87-.307l.018-.035c1.002-2.365 2.461-4.562 4.104-6.592.387-.475.783-.94 1.196-1.406l39.804-11.118a.481.481 0 0 0 .281-.228.44.44 0 0 0-.202-.589l-15.345-7.523c1.81-1.134 3.629-2.25 5.475-3.34a281.166 281.166 0 0 1 3.832-2.215l47.248 11.557c.035.009.07.009.105.009a.456.456 0 0 0 .255-.079l45.007-31.569a.44.44 0 0 0 .176-.466.415.415 0 0 0-.36-.307zm-272.292 21.075c2.312-1.934 10.01-8.481 17.894-16.646 12.401-12.823 19.476-23.404 21.031-31.472l67.963 19.036-35.981 23.255a.374.374 0 0 0-.149.158.438.438 0 0 0 .176.598l11.645 6.459-17.305.906a.444.444 0 0 0-.273.773l15.925 14.396-80.926-17.463zm102.925 35.163l-36.517-32.043 17.621-.923 46.176 25.602-27.28 7.364zm81.559-22.024l-36.895 9.966a68.278 68.278 0 0 1 2.663-2.636c3.858-3.604 8.059-6.847 12.401-9.888a181.953 181.953 0 0 1 7.057-4.701l14.774 7.259zm-8.938-11.988c-4.606 2.681-9.132 5.493-13.517 8.534-4.386 3.032-8.648 6.266-12.595 9.905-1.959 1.819-3.849 3.735-5.563 5.818-1.555 1.898-2.962 3.964-4.025 6.231l-67.831-37.123 47.116-30.453c23.272 10.019 46.519 19.854 69.932 29.776l-.343.167-.897.448-1.775.914-3.533 1.872a300.626 300.626 0 0 0-6.969 3.911zm51.589 9.299l-46.132-11.285c.651-.369 1.31-.738 1.96-1.099l3.507-1.88 1.767-.923.887-.448.44-.22.219-.114.141-.071c.167-.07.308-.307.334-.448-9.184-3.999-18.395-8.015-27.614-12.023l24.925-14.396 83.51 12.093-43.944 30.814z" fill="#7A88A7"/><path d="M390.714 425.851l45.367-17.981 80.013 1.318-50.131 22.069-75.249-5.406z" fill="#fff"/><path d="M498.675 411.473c1.388.035 2.065.053 3.331.088-.765.334-1.143.492-1.89.817l1.679.044c.747-.325 1.125-.483 1.889-.817 1.09.026 1.6.044 2.514.07-.756.334-1.134.492-1.872.818.43.07.624.096.975.167 1.266-.563 1.907-.844 3.217-1.424-2.953-.079-5.598-.158-10.669-.29-1.328.58-1.978.861-3.261 1.406.773.018 1.151.035 1.907.053.861-.361 1.301-.545 2.18-.932zm-6.495 3.129c-.088-.211.088-.413.545-.606.562-.238 1.433-.422 2.584-.545a25.69 25.69 0 0 1 3.48-.132c1.099.035 1.775.132 2.074.29.334.176.159.395-.448.659-.501.22-1.169.413-2.048.589.624.026.923.035 1.477.053a9.382 9.382 0 0 0 1.854-.616c.879-.395 1.248-.729.932-1.01-.308-.273-1.222-.422-2.848-.475a36.74 36.74 0 0 0-4.992.202c-1.713.194-3.032.475-3.884.844-.615.264-.818.536-.615.8.764-.018 1.142-.027 1.889-.053zm-6.468 2.303c.641.254 1.872.421 3.542.492 1.59.07 2.979.017 4.271-.141 1.45-.176 2.513-.457 3.366-.835.791-.351 1.081-.659.712-.914s-1.319-.413-2.98-.466a35.953 35.953 0 0 0-5.334.22c-1.486.176-2.628.431-3.393.756-.782.334-.826.633-.184.888zm2.03-.827c.501-.219 1.309-.377 2.399-.483a26.85 26.85 0 0 1 3.507-.097c1.213.044 1.942.141 2.259.299.316.158.184.352-.317.571-.51.229-1.204.396-2.144.501-.941.106-1.978.132-3.182.088-1.221-.052-2.1-.158-2.566-.316-.466-.158-.457-.352.044-.563zm-6.083 1.846c2.839.123 4.271.185 6.776.29.668.026 1.125.044 1.398.053l.008.009-1.951.158c-3.436.299-5.335.43-9.061.694-.343.15-.518.22-.87.369 4.746.229 7.251.361 10.678.554.378-.167.563-.255.941-.422a863.041 863.041 0 0 0-7.189-.369c.5-.026 1.204-.07 2.091-.141 3.419-.272 5.071-.404 7.866-.72.387-.176.58-.255.967-.431-3.331-.158-5.871-.264-10.714-.457-.369.167-.562.246-.94.413zm4.192 2.742c-.422-.272-1.415-.448-3.049-.536a32.55 32.55 0 0 0-5.177.123c-1.424.15-2.513.387-3.26.703-.765.325-.835.633-.238.905.598.282 1.767.475 3.419.58 1.564.097 2.988.08 4.306-.052 1.486-.15 2.584-.422 3.419-.791.774-.352 1.002-.659.58-.932zm-1.968.835c-.501.22-1.204.378-2.154.466-.949.088-1.995.097-3.181.026-1.204-.07-2.057-.202-2.487-.369-.44-.176-.422-.36.07-.571.492-.211 1.266-.36 2.311-.448a25.845 25.845 0 0 1 3.419-.036c1.204.062 1.943.185 2.285.352.334.167.238.36-.263.58zm-13.754 1.362c2.751.167 4.157.264 6.679.431.44.026.791.053 1.072.07-.615.027-1.072.053-1.344.071-1.855.114-2.821.175-4.764.281-.193.088-.29.123-.492.211 1.002.29 1.485.43 2.399.72.369.115.616.185.756.22-.272-.017-.641-.044-1.125-.079-2.513-.176-3.893-.272-6.591-.457-.396.167-.598.255-.993.431 4.517.307 6.916.474 10.616.755.378-.166.563-.246.941-.413a34.59 34.59 0 0 0-2.54-.887 10.198 10.198 0 0 0-.853-.229c.009 0 .009 0 .018-.009.413-.017.914-.043 1.494-.079 2.285-.14 3.392-.211 5.414-.369.36-.158.545-.246.905-.404a976.89 976.89 0 0 0-10.626-.677c-.386.158-.58.246-.966.413zm-6.539 2.804c4.491.316 6.873.492 10.625.782.405-.184.607-.272 1.011-.448-3.735-.29-6.117-.457-10.617-.773-.404.175-.606.263-1.019.439zm7.541 1.432c-.413-.316-1.406-.536-2.988-.65a29.256 29.256 0 0 0-4.72.035c-1.608.15-2.856.413-3.761.809-.651.281-.941.589-.87.905.703-.009 1.054-.009 1.766-.018 0-.246.229-.474.712-.685.589-.255 1.441-.431 2.54-.527a21.042 21.042 0 0 1 3.331-.018c1.081.079 1.784.229 2.118.422.378.22.237.457-.404.738-.528.229-1.257.431-2.215.598.685.053 1.019.079 1.678.132a9.457 9.457 0 0 0 2.039-.624c.923-.422 1.196-.791.774-1.117zm8.867-11.056c-2.672-.088-3.982-.132-6.179-.193-.597-.018-1.046-.026-1.38-.035.413-.035 1.002-.097 1.811-.176 3.093-.316 4.869-.475 8.516-.791.396-.167.589-.255.984-.431-4.869-.14-7.329-.211-10.019-.246-.378.167-.571.246-.949.413 1.582.027 2.725.053 5.256.123.676.018 1.186.027 1.494.027l.009.009c-.598.043-1.284.105-2.039.184-3.437.343-5.01.51-7.497.87-.334.15-.501.22-.835.361 2.716.052 5.106.131 9.878.298.387-.167.58-.246.95-.413zm-11.574.958c.896.027 1.406.044 2.496.079-.633.273-.95.413-1.582.686.589.017.905.035 1.538.053.633-.273.949-.413 1.59-.695 1.09.035 1.67.062 2.857.097-.651.281-.967.422-1.609.694.598.071.906.106 1.521.176 1.116-.483 1.679-.721 2.804-1.213-4.755-.176-7.128-.255-9.853-.307-1.089.474-1.634.703-2.707 1.169.422.008.651.017 1.134.035.721-.299 1.081-.457 1.811-.774zm1.846 3.243c.404-.175.598-.263 1.002-.43-1.186-.29-1.775-.431-2.83-.695a465.34 465.34 0 0 1 5.177-.316c.413-.176.615-.264 1.028-.448a396.8 396.8 0 0 0-6.847.439c-1.362-.378-1.959-.554-2.68-.888-.396.176-.598.255-.993.431.545.237.94.369 1.845.633-1.854.149-2.715.22-4.209.387-.405.175-.607.263-1.011.43 1.995-.219 3.181-.316 5.774-.509 1.327.369 2.127.562 3.744.966zm-11.153 1.705c2.259.115 3.612.194 6.39.352.377-.158.562-.246.94-.404a838.936 838.936 0 0 0-6.469-.343c-1.379-.071-1.546-.264-.782-.589a4.98 4.98 0 0 1 1.345-.343 9.918 9.918 0 0 1 1.802-.053c2.276.106 3.647.176 6.451.317l.922-.396c-2.882-.14-4.289-.211-6.591-.316-1.143-.053-2.048-.009-2.857.114a8.614 8.614 0 0 0-2.197.624c-.694.299-.975.536-.782.721.167.158.747.264 1.828.316zm-5.045 1.758c.756.044 1.635-.009 2.584-.141.079-.008.817-.149 2.268-.395.817-.141 1.485-.202 2.003-.167.334.018.536.061.58.141.044.07-.035.158-.254.246-.37.158-1.029.325-1.96.483.676.044 1.028.07 1.731.114.773-.132 1.415-.307 1.907-.518.528-.229.642-.431.352-.598-.255-.158-.809-.264-1.617-.307a14.087 14.087 0 0 0-2.786.123c-.053.008-.8.14-2.189.395-.773.141-1.371.202-1.793.185-.325-.018-.465-.071-.448-.159.018-.07.141-.158.36-.254.396-.176.967-.326 1.741-.466-.29-.088-.431-.132-.686-.211-.905.176-1.617.387-2.197.641-.51.22-.765.422-.721.589.044.158.405.264 1.125.299z" fill="#7A88A7"/><path d="M519.601 408.951a.44.44 0 0 0-.422-.352l-80.663-1.169a.359.359 0 0 0-.167.027l-46.176 18.122a.439.439 0 0 0 .132.844l76.576 5.264h.026a.396.396 0 0 0 .176-.035l50.272-22.209a.443.443 0 0 0 .246-.492zm-50.773 21.857l-74.519-5.123 44.277-17.376 78.571 1.143-48.329 21.356z" fill="#7A88A7"/><path d="M497.11 213.991s18.228 16.892 40.744 63.12l-45.024 28.634s-9.949-33.52-16.47-44.339c-6.521-10.819-14.229-21.638-14.229-21.638l34.979-25.777z" fill="#E4E7ED"/><path d="M540.289 276.637a2.574 2.574 0 0 0-.096-.281l-.088-.194-.255-.536-.519-1.063-1.054-2.118-2.162-4.21a349.616 349.616 0 0 0-4.474-8.332 369.741 369.741 0 0 0-9.58-16.312c-3.366-5.334-6.864-10.581-10.599-15.67-3.77-5.053-7.76-9.966-12.119-14.545a.432.432 0 0 0-.572-.053l-.008.009-35.155 26.076-.018.018a.435.435 0 0 0-.053.615c3.929 4.667 7.365 9.72 10.485 14.967 3.041 5.299 5.775 10.766 8.271 16.347a241.484 241.484 0 0 1 6.697 17.076c2.003 5.774 3.84 11.628 5.369 17.534a.43.43 0 0 0 .053.132.44.44 0 0 0 .607.131 7080.074 7080.074 0 0 0 45.393-29.029c-.035-.175-.061-.369-.123-.562zm-45.253 28.528c-1.503-5.757-3.287-11.408-5.229-17.024a240.807 240.807 0 0 0-6.723-17.138c-2.514-5.607-5.256-11.1-8.315-16.435-3.058-5.15-6.442-10.115-10.282-14.729l34.469-25.567c4.183 4.491 8.024 9.299 11.671 14.256 3.674 5.088 7.119 10.344 10.433 15.679a353.89 353.89 0 0 1 9.412 16.329 329.404 329.404 0 0 1 4.395 8.34l2.118 4.21 1.037 2.118.509 1.064.255.527.036.07h.008l.027-.017a.278.278 0 0 1 .149-.035 5775.82 5775.82 0 0 0-43.97 28.352z" fill="#7A88A7"/><path d="M477.231 243.126c-.079 0-.906.079-2.479.246-.887.096-1.476-.062-1.766-.475a.862.862 0 0 1-.106-.87c.123-.316.361-.598.712-.844.598-.43 1.389-.703 2.391-.835-.387-.545-.58-.826-.967-1.371-.817.115-1.617.449-2.408 1.02-.853.606-1.354 1.327-1.529 2.144a2.573 2.573 0 0 0 .43 2.118c.528.739 1.266 1.125 2.224 1.169.052 0 .87-.079 2.452-.255.879-.088 1.459.079 1.74.501.22.325.228.686.035 1.081-.158.325-.431.624-.8.888-.659.475-1.441.721-2.337.738.052.633.079.949.123 1.582 1.098-.035 2.135-.395 3.102-1.098.861-.616 1.433-1.354 1.714-2.206.281-.853.176-1.644-.317-2.356-.483-.756-1.239-1.142-2.214-1.177zm5.238-.721c1.221-.879 1.828-1.31 3.049-2.188.923.588 1.38.878 2.294 1.476.677-.483 1.02-.729 1.705-1.222-3.7-2.364-5.598-3.462-9.492-5.765-.448.325-.668.483-1.116.809 1.222 4.227 1.732 6.327 2.619 10.687l1.565-1.125c-.247-1.081-.37-1.617-.624-2.672zm-1.02-4.034a10.097 10.097 0 0 0-.439-1.222c.008 0 .008-.009.008-.009.229.194.581.457 1.073.791.826.554 1.23.835 2.047 1.389-.826.598-1.239.888-2.065 1.485a80.473 80.473 0 0 0-.624-2.434zm13.755-1.986c-.369-.51-.545-.765-.923-1.275-1.239.888-1.855 1.336-3.094 2.224-1.995-2.786-3.041-4.131-5.273-6.82-.615.439-.923.668-1.538 1.107 2.61 3.208 3.814 4.799 6.117 8.138 1.889-1.353 2.83-2.021 4.711-3.374zm5.791-4.149c-.369-.501-.554-.755-.932-1.248-1.283.914-1.925 1.38-3.208 2.303a107.49 107.49 0 0 0-1.731-2.267 306.734 306.734 0 0 0 2.759-1.987c-.386-.492-.588-.729-.984-1.213-1.098.791-1.643 1.187-2.751 1.978-.668-.826-1.01-1.23-1.696-2.048 1.09-.782 1.635-1.178 2.725-1.96-.247-.597-.37-.896-.633-1.494-1.872 1.345-2.804 2.022-4.667 3.366 2.707 3.138 3.946 4.711 6.319 8.024 1.925-1.388 2.891-2.083 4.799-3.454zm-.976-5.73c.053 0 .905-.105 2.549-.299.905-.105 1.511.053 1.837.457.246.308.272.668.096 1.055-.149.325-.413.615-.782.879-.659.474-1.459.729-2.399.764.079.616.123.932.193 1.556a5.835 5.835 0 0 0 3.182-1.143c.861-.615 1.415-1.344 1.652-2.17.237-.826.097-1.6-.448-2.285-.563-.712-1.354-1.081-2.373-1.099-.079 0-.932.097-2.558.299-.923.114-1.547-.018-1.881-.404-.219-.255-.272-.528-.167-.835.106-.299.334-.58.686-.826.598-.431 1.415-.721 2.443-.879-.439-.51-.659-.765-1.107-1.275-.844.141-1.67.492-2.461 1.055-.852.615-1.327 1.309-1.45 2.083-.123.729.07 1.397.598 2.012.588.686 1.379 1.046 2.39 1.055zm-9.746 21.075a86.556 86.556 0 0 0-.431-1.634c-2.777 1.986-4.165 2.979-6.899 4.93.326.545.484.818.8 1.371 1.002-.712 1.503-1.072 2.514-1.793 1.757 3.041 2.592 4.623 4.192 8.077.659-.474.984-.712 1.652-1.186-1.608-3.437-2.452-5.01-4.227-8.051.958-.685 1.432-1.028 2.399-1.714zm2.021-3.445a144.882 144.882 0 0 1 1.696 11.839c.659-.475.984-.712 1.644-1.187a154.65 154.65 0 0 0-.413-3.05c1.274-.914 1.915-1.371 3.19-2.293.87.694 1.301 1.054 2.162 1.775.712-.51 1.063-.765 1.775-1.283-3.515-2.857-5.273-4.166-8.885-6.653-.466.351-.694.518-1.169.852zm1.942 1.784c.202.22.536.51.993.888.765.633 1.143.949 1.899 1.6-.862.615-1.301.931-2.162 1.546a124.842 124.842 0 0 0-.413-2.689c-.106-.58-.22-1.019-.334-1.327.008-.009.017-.009.017-.018zm11.022-10.986c-.695.493-1.038.739-1.732 1.24 0 1.837-.017 2.777-.061 4.675a187.461 187.461 0 0 0-4.034-1.749c-.721.519-1.081.774-1.811 1.292 2.171.906 3.252 1.38 5.405 2.356a195.05 195.05 0 0 1-.448 7.048c.747-.536 1.116-.808 1.863-1.336.132-2.109.185-3.137.264-5.15 1.661.774 2.487 1.169 4.131 1.986.738-.536 1.107-.799 1.845-1.327a149.51 149.51 0 0 0-5.519-2.566c.079-2.654.105-3.937.097-6.469z" fill="#7A88A7"/></svg>