<?xml version="1.0" encoding="utf-8"?>
<!-- Generator: Adobe Illustrator 22.1.0, SVG Export Plug-In . SVG Version: 6.00 Build 0)  -->
<svg version="1.1" id="Layer_1" xmlns="http://www.w3.org/2000/svg" xmlns:xlink="http://www.w3.org/1999/xlink" x="0px" y="0px"
	 viewBox="0 0 471 106.5" style="enable-background:new 0 0 471 106.5;" xml:space="preserve">
<style type="text/css">
	.st0{fill:#FC4F4F;}
	.st1{opacity:0.25;}
</style>
<g>
	<g>
		<polygon class="st0" points="56.9,59.8 43,54.5 0,85.3 55.6,106.4 55.6,106.4 		"/>
		<polygon class="st0" points="43.3,42.9 0,30.8 0,82.4 43.3,51.4 		"/>
	</g>
	<path class="st0" d="M124.1,54.8V31.2h10.4v23.2c0,4.7,2.9,8.1,8.4,8.1c5.5,0,8.3-3.4,8.3-8.1V31.2h10.3v23.5
		c0,9.9-5.9,16.8-18.7,16.8C130.2,71.5,124.1,64.5,124.1,54.8z"/>
	<path class="st0" d="M193.3,70.8l-16.8-22.9v22.9h-10.2V31.2h10.5l16,21.8V31.2h10.3v39.6H193.3z"/>
	<path class="st0" d="M210.1,70.8V31.2h10.2v30.7h15.9v8.9H210.1z"/>
	<path class="st0" d="M240.4,70.8V31.2h29.1v8.9h-18.8v6.2H269v8.9h-18.4v6.7h18.8v8.9H240.4z"/>
	<path class="st0" d="M303.5,70.8l-2-5.7h-15.6l-2,5.7h-11.6l14.9-39.6h12.9l14.9,39.6H303.5z M293.7,41.3l-5.1,14.9h10L293.7,41.3z
		"/>
	<path class="st0" d="M314.9,65.2l5.4-8c2.9,2.9,7.2,5.2,12.7,5.2c3.4,0,5.6-1.2,5.6-3.1c0-5.2-22.4-0.9-22.4-16.2
		c0-6.7,5.6-12.6,15.7-12.6c6.4,0,11.9,1.9,16.1,5.5l-5.6,7.7c-3.3-2.8-7.7-4.2-11.6-4.2c-3,0-4.3,1-4.3,2.7
		c0,4.9,22.4,1.2,22.4,15.9c0,8-5.9,13.2-16.5,13.2C324.5,71.5,318.9,69,314.9,65.2z"/>
	<path class="st0" d="M380.5,70.8V54.9H364v15.9h-10.2V31.2H364V46h16.5V31.2h10.2v39.6H380.5z"/>
	<path class="st0" d="M397.9,70.8V31.2h29.1v8.9h-18.8v6.2h18.4v8.9h-18.4v6.7h18.8v8.9H397.9z"/>
	<path class="st0" d="M432.9,70.8V31.2h16.6C462,31.2,471,38.7,471,51c0,12.3-9,19.9-21.4,19.9H432.9z M460.5,51
		c0-6.1-3.7-10.9-10.9-10.9h-6.5v21.8h6.4C456.5,61.9,460.5,56.9,460.5,51z"/>
	<g class="st1">
		<polygon points="56.9,59.8 43,54.5 0,85.3 55.6,106.4 55.6,106.4 		"/>
		<polygon points="43.3,42.9 0,30.8 0,82.4 43.3,51.4 		"/>
	</g>
	<g>
		<polygon class="st0" points="55.6,59.3 55.6,106.4 98.9,75.7 98.9,75.7 98.9,24.1 55.6,55.1 		"/>
		<polygon class="st0" points="55.9,52 98.9,21.2 43.3,0.1 0,30.8 43.3,47.2 		"/>
	</g>
</g>
</svg>
