<?xml version="1.0" encoding="UTF-8"?>
<svg width="395px" height="485px" viewBox="0 0 395 485" version="1.1" xmlns="http://www.w3.org/2000/svg" xmlns:xlink="http://www.w3.org/1999/xlink">
    <!-- Generator: Sketch 53.2 (72643) - https://sketchapp.com -->
    <title>Group 6 Copy</title>
    <desc>Created with Sketch.</desc>
    <g id="Customer-stories-index-page" stroke="none" stroke-width="1" fill="none" fill-rule="evenodd">
        <g id="Group-6-Copy">
            <path d="M25,44.5 L370,44.5 C383.807119,44.5 395,55.6928813 395,69.5 L395,459.5 C395,473.307119 383.807119,484.5 370,484.5 L25,484.5 C11.1928813,484.5 1.69088438e-15,473.307119 0,459.5 L0,69.5 C-1.69088438e-15,55.6928813 11.1928813,44.5 25,44.5 Z" id="Mask" fill="#FFFFFF" fill-rule="nonzero" opacity="0.9"></path>
            <path d="M57.856,322.028 L57.856,314.812 L59.216,314.812 L59.216,322.14 C59.216,324.604 57.728,325.692 55.776,325.692 C53.92,325.692 52.624,324.492 52.48,322.876 L53.648,322.252 C53.744,323.612 54.512,324.572 55.792,324.572 C57.168,324.572 57.856,323.756 57.856,322.028 Z M68.544,321.5 C68.544,324.188 67.088,325.692 64.96,325.692 C62.832,325.692 61.376,324.188 61.376,321.5 C61.376,318.812 62.832,317.308 64.96,317.308 C67.088,317.308 68.544,318.812 68.544,321.5 Z M67.216,321.5 C67.216,319.436 66.432,318.332 64.96,318.332 C63.488,318.332 62.704,319.436 62.704,321.5 C62.704,323.564 63.488,324.668 64.96,324.668 C66.432,324.668 67.216,323.564 67.216,321.5 Z M72.096,313.948 L72.096,318.764 C72.592,317.804 73.504,317.308 74.608,317.308 C76.064,317.308 77.072,318.268 77.072,319.884 L77.072,325.5 L75.76,325.5 L75.76,320.156 C75.76,319.132 75.264,318.46 74.192,318.46 C73.056,318.46 72.096,319.116 72.096,320.86 L72.096,325.5 L70.784,325.5 L70.784,313.948 L72.096,313.948 Z M80.784,317.5 L80.944,319.052 C81.392,317.948 82.368,317.308 83.632,317.308 C85.088,317.308 86.096,318.268 86.096,319.884 L86.096,325.5 L84.784,325.5 L84.784,320.156 C84.784,319.132 84.288,318.46 83.216,318.46 C82.08,318.46 81.12,319.116 81.12,320.86 L81.12,325.5 L79.808,325.5 L79.808,317.5 L80.784,317.5 Z M92.224,320.156 C92.224,316.588 94.224,314.62 96.816,314.62 C98.72,314.62 99.936,315.468 100.576,317.1 L99.424,317.756 C99.056,316.46 98.096,315.772 96.816,315.772 C94.832,315.772 93.664,317.436 93.664,320.156 C93.664,322.876 94.832,324.54 96.816,324.54 C98.096,324.54 99.056,323.836 99.424,322.556 L100.576,323.196 C99.936,324.844 98.72,325.692 96.816,325.692 C94.224,325.692 92.224,323.724 92.224,320.156 Z M109.264,321.5 C109.264,324.188 107.808,325.692 105.68,325.692 C103.552,325.692 102.096,324.188 102.096,321.5 C102.096,318.812 103.552,317.308 105.68,317.308 C107.808,317.308 109.264,318.812 109.264,321.5 Z M107.936,321.5 C107.936,319.436 107.152,318.332 105.68,318.332 C104.208,318.332 103.424,319.436 103.424,321.5 C103.424,323.564 104.208,324.668 105.68,324.668 C107.152,324.668 107.936,323.564 107.936,321.5 Z M117.408,318.988 C117.856,317.948 118.736,317.308 119.888,317.308 C121.328,317.308 122.352,318.172 122.352,319.804 L122.352,325.5 L121.04,325.5 L121.04,320.14 C121.04,319.116 120.608,318.46 119.488,318.46 C118.496,318.46 117.584,319.132 117.584,320.844 L117.584,325.5 L116.272,325.5 L116.272,320.14 C116.272,319.116 115.824,318.46 114.72,318.46 C113.712,318.46 112.816,319.148 112.816,320.86 L112.816,325.5 L111.504,325.5 L111.504,317.5 L112.48,317.5 L112.64,319.052 C113.024,317.932 113.984,317.308 115.12,317.308 C116.256,317.308 117.104,317.932 117.408,318.988 Z M128.08,324.652 C129.04,324.652 129.728,324.204 129.968,323.196 L131.104,323.516 C130.736,325.068 129.504,325.692 128.08,325.692 C125.888,325.692 124.512,324.236 124.512,321.532 C124.512,318.924 125.92,317.308 128.08,317.308 C130.08,317.308 131.184,318.764 131.184,320.668 C131.184,321.132 131.104,321.532 131.024,321.74 L125.776,321.74 C125.84,323.532 126.64,324.652 128.08,324.652 Z M125.808,320.78 L129.872,320.78 C129.888,320.636 129.888,320.476 129.888,320.364 C129.888,319.244 129.248,318.316 128.048,318.316 C126.768,318.316 125.984,319.228 125.808,320.78 Z M137.52,322.508 L137.52,321.836 C137.312,321.82 137.04,321.804 136.768,321.804 C134.992,321.804 134.048,322.284 134.048,323.372 C134.048,324.156 134.592,324.668 135.536,324.668 C136.528,324.668 137.52,324.044 137.52,322.508 Z M138.752,319.772 L138.752,323.932 C138.752,324.444 138.976,324.636 139.344,324.636 C139.52,324.636 139.728,324.556 139.84,324.46 L139.92,325.436 C139.712,325.58 139.328,325.66 139.04,325.66 C138.432,325.66 138,325.404 137.76,324.94 C137.664,324.764 137.6,324.556 137.552,324.316 C137.232,325.196 136.24,325.676 135.232,325.676 C133.824,325.676 132.752,324.86 132.752,323.42 C132.752,321.836 134.032,320.828 136.768,320.828 C136.944,320.828 137.232,320.844 137.52,320.86 L137.52,319.916 C137.52,318.956 136.992,318.38 135.936,318.38 C134.896,318.38 134.4,318.94 134.368,319.82 L133.088,319.596 C133.264,318.108 134.48,317.308 136.016,317.308 C137.696,317.308 138.752,318.092 138.752,319.772 Z M146.8,325.5 L146.64,323.98 C146.256,325.132 145.328,325.692 144.112,325.692 C142.8,325.692 141.648,324.876 141.648,323.132 L141.648,317.5 L142.96,317.5 L142.96,322.988 C142.96,324.012 143.52,324.636 144.48,324.636 C145.6,324.636 146.512,323.884 146.512,322.14 L146.512,317.5 L147.84,317.5 L147.84,325.5 L146.8,325.5 Z M54.832,349.5 L53.488,349.5 L53.488,338.812 L59.936,338.812 L59.936,339.996 L54.832,339.996 L54.832,343.564 L59.376,343.564 L59.376,344.748 L54.832,344.748 L54.832,349.5 Z M68.736,345.5 C68.736,348.188 67.28,349.692 65.152,349.692 C63.024,349.692 61.568,348.188 61.568,345.5 C61.568,342.812 63.024,341.308 65.152,341.308 C67.28,341.308 68.736,342.812 68.736,345.5 Z M67.408,345.5 C67.408,343.436 66.624,342.332 65.152,342.332 C63.68,342.332 62.896,343.436 62.896,345.5 C62.896,347.564 63.68,348.668 65.152,348.668 C66.624,348.668 67.408,347.564 67.408,345.5 Z M76.048,349.5 L75.888,347.98 C75.504,349.132 74.576,349.692 73.36,349.692 C72.048,349.692 70.896,348.876 70.896,347.132 L70.896,341.5 L72.208,341.5 L72.208,346.988 C72.208,348.012 72.768,348.636 73.728,348.636 C74.848,348.636 75.76,347.884 75.76,346.14 L75.76,341.5 L77.088,341.5 L77.088,349.5 L76.048,349.5 Z M80.88,341.5 L81.04,343.052 C81.488,341.948 82.464,341.308 83.728,341.308 C85.184,341.308 86.192,342.268 86.192,343.884 L86.192,349.5 L84.88,349.5 L84.88,344.156 C84.88,343.132 84.384,342.46 83.312,342.46 C82.176,342.46 81.216,343.116 81.216,344.86 L81.216,349.5 L79.904,349.5 L79.904,341.5 L80.88,341.5 Z M94.064,346.092 L94.064,344.604 C94.064,342.988 92.88,342.348 91.952,342.348 C90.672,342.348 89.68,343.324 89.68,345.612 C89.68,347.596 90.544,348.636 91.936,348.636 C92.96,348.636 94.064,347.932 94.064,346.092 Z M94.336,349.5 L94.192,347.98 C93.792,349.196 92.752,349.692 91.616,349.692 C89.872,349.692 88.352,348.364 88.352,345.628 C88.352,342.908 89.648,341.308 91.744,341.308 C93.024,341.308 93.792,341.948 94.064,342.588 L94.064,337.948 L95.376,337.948 L95.376,349.5 L94.336,349.5 Z M101.184,348.652 C102.144,348.652 102.832,348.204 103.072,347.196 L104.208,347.516 C103.84,349.068 102.608,349.692 101.184,349.692 C98.992,349.692 97.616,348.236 97.616,345.532 C97.616,342.924 99.024,341.308 101.184,341.308 C103.184,341.308 104.288,342.764 104.288,344.668 C104.288,345.132 104.208,345.532 104.128,345.74 L98.88,345.74 C98.944,347.532 99.744,348.652 101.184,348.652 Z M98.912,344.78 L102.976,344.78 C102.992,344.636 102.992,344.476 102.992,344.364 C102.992,343.244 102.352,342.316 101.152,342.316 C99.872,342.316 99.088,343.228 98.912,344.78 Z M110.736,341.356 L110.656,342.732 C110.512,342.7 110.24,342.684 110.016,342.684 C108.752,342.684 107.824,343.708 107.824,345.452 L107.824,349.5 L106.512,349.5 L106.512,341.5 L107.552,341.5 L107.728,343.548 C108.048,342.124 109.248,341.084 110.736,341.356 Z M114.512,349.1 C114.512,350.54 113.616,351.932 111.904,351.932 L111.904,351.228 C112.976,351.164 113.584,350.284 113.584,349.516 C113.584,349.388 113.568,349.26 113.52,349.212 C113.424,349.276 113.264,349.324 113.136,349.324 C112.672,349.324 112.304,349.02 112.304,348.46 C112.304,347.9 112.704,347.548 113.232,347.548 C113.968,347.548 114.512,348.172 114.512,349.1 Z M122.416,349.5 L121.072,349.5 L121.072,338.812 L122.416,338.812 L122.416,343.516 L128.016,343.516 L128.016,338.812 L129.36,338.812 L129.36,349.5 L128.016,349.5 L128.016,344.684 L122.416,344.684 L122.416,349.5 Z M138.848,345.5 C138.848,348.188 137.392,349.692 135.264,349.692 C133.136,349.692 131.68,348.188 131.68,345.5 C131.68,342.812 133.136,341.308 135.264,341.308 C137.392,341.308 138.848,342.812 138.848,345.5 Z M137.52,345.5 C137.52,343.436 136.736,342.332 135.264,342.332 C133.792,342.332 133.008,343.436 133.008,345.5 C133.008,347.564 133.792,348.668 135.264,348.668 C136.736,348.668 137.52,347.564 137.52,345.5 Z M145.312,341.356 L145.232,342.732 C145.088,342.7 144.816,342.684 144.592,342.684 C143.328,342.684 142.4,343.708 142.4,345.452 L142.4,349.5 L141.088,349.5 L141.088,341.5 L142.128,341.5 L142.304,343.548 C142.624,342.124 143.824,341.084 145.312,341.356 Z M146.288,347.484 L147.488,347.148 C147.616,348.06 148.432,348.684 149.456,348.684 C150.496,348.684 151.2,348.268 151.2,347.42 C151.2,345.308 146.64,346.86 146.64,343.708 C146.64,342.204 147.84,341.308 149.44,341.308 C151.184,341.308 152.176,342.076 152.336,343.532 L151.104,343.708 C151.024,342.86 150.496,342.316 149.44,342.316 C148.464,342.316 147.872,342.796 147.872,343.612 C147.872,345.708 152.432,344.076 152.432,347.324 C152.432,348.844 151.152,349.692 149.456,349.692 C147.792,349.692 146.528,348.892 146.288,347.484 Z M157.6,348.652 C158.56,348.652 159.248,348.204 159.488,347.196 L160.624,347.516 C160.256,349.068 159.024,349.692 157.6,349.692 C155.408,349.692 154.032,348.236 154.032,345.532 C154.032,342.924 155.44,341.308 157.6,341.308 C159.6,341.308 160.704,342.764 160.704,344.668 C160.704,345.132 160.624,345.532 160.544,345.74 L155.296,345.74 C155.36,347.532 156.16,348.652 157.6,348.652 Z M155.328,344.78 L159.392,344.78 C159.408,344.636 159.408,344.476 159.408,344.364 C159.408,343.244 158.768,342.316 157.568,342.316 C156.288,342.316 155.504,343.228 155.328,344.78 Z M166.88,348.172 L167.12,349.212 C166.656,349.5 166.032,349.692 165.472,349.692 C163.984,349.692 163.088,348.972 163.088,347.484 L163.088,342.508 L161.936,342.508 L161.936,341.5 L163.088,341.5 L163.088,339.804 L164.4,339.596 L164.4,341.5 L166.8,341.5 L166.8,342.508 L164.4,342.508 L164.4,347.356 C164.4,348.236 164.88,348.588 165.568,348.588 C166.096,348.588 166.432,348.46 166.88,348.172 Z M175.648,345.5 C175.648,348.188 174.192,349.692 172.064,349.692 C169.936,349.692 168.48,348.188 168.48,345.5 C168.48,342.812 169.936,341.308 172.064,341.308 C174.192,341.308 175.648,342.812 175.648,345.5 Z M174.32,345.5 C174.32,343.436 173.536,342.332 172.064,342.332 C170.592,342.332 169.808,343.436 169.808,345.5 C169.808,347.564 170.592,348.668 172.064,348.668 C173.536,348.668 174.32,347.564 174.32,345.5 Z M184.48,345.5 C184.48,348.188 183.024,349.692 180.896,349.692 C178.768,349.692 177.312,348.188 177.312,345.5 C177.312,342.812 178.768,341.308 180.896,341.308 C183.024,341.308 184.48,342.812 184.48,345.5 Z M183.152,345.5 C183.152,343.436 182.368,342.332 180.896,342.332 C179.424,342.332 178.64,343.436 178.64,345.5 C178.64,347.564 179.424,348.668 180.896,348.668 C182.368,348.668 183.152,347.564 183.152,345.5 Z M190.672,348.172 L190.912,349.212 C190.448,349.5 189.824,349.692 189.264,349.692 C187.776,349.692 186.88,348.972 186.88,347.484 L186.88,342.508 L185.728,342.508 L185.728,341.5 L186.88,341.5 L186.88,339.804 L188.192,339.596 L188.192,341.5 L190.592,341.5 L190.592,342.508 L188.192,342.508 L188.192,347.356 C188.192,348.236 188.672,348.588 189.36,348.588 C189.888,348.588 190.224,348.46 190.672,348.172 Z M194.16,337.948 L194.16,342.764 C194.656,341.804 195.568,341.308 196.672,341.308 C198.128,341.308 199.136,342.268 199.136,343.884 L199.136,349.5 L197.824,349.5 L197.824,344.156 C197.824,343.132 197.328,342.46 196.256,342.46 C195.12,342.46 194.16,343.116 194.16,344.86 L194.16,349.5 L192.848,349.5 L192.848,337.948 L194.16,337.948 Z M207.296,349.5 L205.952,349.5 L205.952,338.812 L207.296,338.812 L207.296,343.516 L212.896,343.516 L212.896,338.812 L214.24,338.812 L214.24,349.5 L212.896,349.5 L212.896,344.684 L207.296,344.684 L207.296,349.5 Z M223.728,345.5 C223.728,348.188 222.272,349.692 220.144,349.692 C218.016,349.692 216.56,348.188 216.56,345.5 C216.56,342.812 218.016,341.308 220.144,341.308 C222.272,341.308 223.728,342.812 223.728,345.5 Z M222.4,345.5 C222.4,343.436 221.616,342.332 220.144,342.332 C218.672,342.332 217.888,343.436 217.888,345.5 C217.888,347.564 218.672,348.668 220.144,348.668 C221.616,348.668 222.4,347.564 222.4,345.5 Z M229.92,348.172 L230.16,349.212 C229.696,349.5 229.072,349.692 228.512,349.692 C227.024,349.692 226.128,348.972 226.128,347.484 L226.128,342.508 L224.976,342.508 L224.976,341.5 L226.128,341.5 L226.128,339.804 L227.44,339.596 L227.44,341.5 L229.84,341.5 L229.84,342.508 L227.44,342.508 L227.44,347.356 C227.44,348.236 227.92,348.588 228.608,348.588 C229.136,348.588 229.472,348.46 229.92,348.172 Z M239.232,349.692 C237.04,349.692 235.488,348.508 235.2,346.556 L236.432,346.172 C236.64,347.676 237.792,348.588 239.232,348.588 C240.528,348.588 241.6,347.98 241.6,346.716 C241.6,343.916 235.68,345.596 235.68,341.644 C235.68,339.82 237.232,338.62 239.216,338.62 C241.168,338.62 242.592,339.484 242.832,341.484 L241.584,341.756 C241.44,340.524 240.544,339.724 239.232,339.724 C237.872,339.724 236.976,340.476 236.976,341.58 C236.976,344.38 242.896,342.604 242.896,346.668 C242.896,348.604 241.248,349.692 239.232,349.692 Z M249.248,346.508 L249.248,345.836 C249.04,345.82 248.768,345.804 248.496,345.804 C246.72,345.804 245.776,346.284 245.776,347.372 C245.776,348.156 246.32,348.668 247.264,348.668 C248.256,348.668 249.248,348.044 249.248,346.508 Z M250.48,343.772 L250.48,347.932 C250.48,348.444 250.704,348.636 251.072,348.636 C251.248,348.636 251.456,348.556 251.568,348.46 L251.648,349.436 C251.44,349.58 251.056,349.66 250.768,349.66 C250.16,349.66 249.728,349.404 249.488,348.94 C249.392,348.764 249.328,348.556 249.28,348.316 C248.96,349.196 247.968,349.676 246.96,349.676 C245.552,349.676 244.48,348.86 244.48,347.42 C244.48,345.836 245.76,344.828 248.496,344.828 C248.672,344.828 248.96,344.844 249.248,344.86 L249.248,343.916 C249.248,342.956 248.72,342.38 247.664,342.38 C246.624,342.38 246.128,342.94 246.096,343.82 L244.816,343.596 C244.992,342.108 246.208,341.308 247.744,341.308 C249.424,341.308 250.48,342.092 250.48,343.772 Z M258.528,349.5 L258.368,347.98 C257.984,349.132 257.056,349.692 255.84,349.692 C254.528,349.692 253.376,348.876 253.376,347.132 L253.376,341.5 L254.688,341.5 L254.688,346.988 C254.688,348.012 255.248,348.636 256.208,348.636 C257.328,348.636 258.24,347.884 258.24,346.14 L258.24,341.5 L259.568,341.5 L259.568,349.5 L258.528,349.5 Z M261.808,345.5 C261.808,342.876 263.216,341.308 265.376,341.308 C267.008,341.308 268.144,342.3 268.304,343.756 L267.104,343.98 C267.024,343.1 266.416,342.348 265.376,342.348 C263.888,342.348 263.136,343.628 263.136,345.5 C263.136,347.372 263.888,348.652 265.376,348.652 C266.416,348.652 267.024,347.916 267.104,346.988 L268.304,347.212 C268.08,348.764 267.008,349.692 265.376,349.692 C263.216,349.692 261.808,348.14 261.808,345.5 Z M273.392,348.652 C274.352,348.652 275.04,348.204 275.28,347.196 L276.416,347.516 C276.048,349.068 274.816,349.692 273.392,349.692 C271.2,349.692 269.824,348.236 269.824,345.532 C269.824,342.924 271.232,341.308 273.392,341.308 C275.392,341.308 276.496,342.764 276.496,344.668 C276.496,345.132 276.416,345.532 276.336,345.74 L271.088,345.74 C271.152,347.532 271.952,348.652 273.392,348.652 Z M271.12,344.78 L275.184,344.78 C275.2,344.636 275.2,344.476 275.2,344.364 C275.2,343.244 274.56,342.316 273.36,342.316 C272.08,342.316 271.296,343.228 271.12,344.78 Z" id="JohnComeauFounder,HorsetoothHotSauce" fill="#2B3B4C" fill-rule="nonzero"></path>
            <path d="M59.83216,416.06436 C59.83216,415.14708 59.3206,414.63552 58.20928,414.63552 L56.07484,414.63552 L56.07484,417.56376 L58.22692,417.56376 C59.28532,417.56376 59.83216,417.08748 59.83216,416.06436 Z M63.51892,424.02 L60.34372,424.02 C60.0262,423.64956 59.88508,423.3144 59.77924,422.73228 L59.46172,421.16232 C59.2324,420.15684 58.73848,419.8746 57.8212,419.8746 L56.07484,419.8746 L56.07484,424.02 L53.16424,424.02 L53.16424,412.23648 L58.5268,412.23648 C61.24336,412.23648 62.90152,413.3478 62.90152,415.7292 C62.90152,417.47556 61.68436,418.51632 60.36136,418.67508 L60.36136,418.71036 C61.41976,418.88676 62.03716,419.46888 62.3194,420.59784 L62.79568,422.62644 C62.9368,423.19092 63.14848,423.61428 63.51892,424.02 Z M68.82856,422.0796 C69.5518,422.0796 70.06336,421.7268 70.29268,420.933 L72.65644,421.74444 C72.1096,423.47316 70.50436,424.23168 68.77564,424.23168 C66.09436,424.23168 64.36564,422.5206 64.36564,419.64528 C64.36564,416.73468 66.05908,414.88248 68.8462,414.88248 C71.45692,414.88248 72.727,416.68176 72.727,418.88676 C72.727,419.2572 72.65644,419.76876 72.56824,420.06864 L67.15276,420.06864 C67.1704,421.33872 67.84072,422.0796 68.82856,422.0796 Z M67.18804,418.69272 L70.01044,418.69272 C70.04572,418.56924 70.04572,418.42812 70.04572,418.287 C70.04572,417.56376 69.60472,416.92872 68.77564,416.92872 C67.876,416.92872 67.27624,417.59904 67.18804,418.69272 Z M81.7234,417.88128 L81.7234,421.42692 C81.7234,421.88556 81.97036,422.06196 82.28788,422.06196 C82.48192,422.06196 82.64068,421.9914 82.7818,421.86792 L82.88764,423.7554 C82.48192,424.03764 81.88216,424.1964 81.2824,424.1964 C80.47096,424.1964 79.83592,423.89652 79.44784,423.38496 C79.30672,423.2262 79.21852,423.03216 79.14796,422.80284 C78.77752,423.6672 77.7544,424.1964 76.57252,424.1964 C74.89672,424.1964 73.75012,423.24384 73.75012,421.60332 C73.75012,419.82168 75.2848,418.83384 77.80732,418.83384 C78.16012,418.83384 78.61876,418.86912 78.91864,418.88676 L78.91864,417.98712 C78.91864,417.33444 78.58348,416.94636 77.91316,416.94636 C77.2252,416.94636 76.85476,417.38736 76.85476,418.14588 L74.19112,417.77544 C74.34988,415.9938 75.77872,414.88248 78.03664,414.88248 C80.5768,414.88248 81.7234,415.9938 81.7234,417.88128 Z M78.91864,420.8448 L78.91864,420.3156 C78.75988,420.29796 78.53056,420.28032 78.30124,420.28032 C77.137,420.28032 76.53724,420.65076 76.53724,421.374 C76.53724,421.93848 76.92532,422.30892 77.59564,422.30892 C78.24832,422.30892 78.91864,421.92084 78.91864,420.8448 Z M89.8378,419.90988 L89.8378,418.85148 C89.8378,417.59904 89.07928,416.99928 88.30312,416.99928 C87.24472,416.99928 86.60968,417.88128 86.60968,419.64528 C86.60968,421.16232 87.24472,421.97376 88.2502,421.97376 C89.11456,421.97376 89.8378,421.30344 89.8378,419.90988 Z M90.24352,424.02 L89.90836,422.37948 C89.53792,423.59664 88.49716,424.23168 87.20944,424.23168 C85.21612,424.23168 83.62852,422.59116 83.62852,419.75112 C83.62852,416.62884 85.14556,414.88248 87.38584,414.88248 C88.63828,414.88248 89.52028,415.42932 89.8378,416.24076 L89.8378,411.28392 L92.76604,411.28392 L92.76604,424.02 L90.24352,424.02 Z M103.89688,419.9628 L103.89688,412.23648 L106.87804,412.23648 L106.87804,419.82168 C106.87804,422.80284 105.06112,424.23168 102.39748,424.23168 C99.9808,424.23168 98.32264,422.83812 97.98748,420.6684 L100.73932,419.66292 C100.79224,420.82716 101.25088,421.77972 102.39748,421.77972 C103.36768,421.77972 103.89688,421.21524 103.89688,419.9628 Z M117.39148,419.55708 C117.39148,422.53824 115.57456,424.23168 112.91092,424.23168 C110.22964,424.23168 108.41272,422.53824 108.41272,419.55708 C108.41272,416.55828 110.22964,414.88248 112.91092,414.88248 C115.57456,414.88248 117.39148,416.55828 117.39148,419.55708 Z M114.49852,419.55708 C114.49852,417.91656 114.0046,416.99928 112.91092,416.99928 C111.7996,416.99928 111.30568,417.91656 111.30568,419.55708 C111.30568,421.1976 111.7996,422.09724 112.91092,422.09724 C114.0046,422.09724 114.49852,421.1976 114.49852,419.55708 Z M121.87204,411.28392 L121.87204,416.68176 C122.34832,415.51752 123.38908,414.88248 124.65916,414.88248 C126.2644,414.88248 127.44628,415.87032 127.44628,417.77544 L127.44628,424.02 L124.53568,424.02 L124.53568,418.71036 C124.53568,417.82836 124.21816,417.29916 123.37144,417.29916 C122.56,417.29916 121.87204,417.82836 121.87204,419.18664 L121.87204,424.02 L118.96144,424.02 L118.96144,411.28392 L121.87204,411.28392 Z M131.94448,415.09416 L132.29728,416.80524 C132.73828,415.57044 133.81432,414.88248 135.15496,414.88248 C136.7602,414.88248 137.94208,415.87032 137.94208,417.77544 L137.94208,424.02 L135.03148,424.02 L135.03148,418.71036 C135.03148,417.82836 134.71396,417.29916 133.86724,417.29916 C133.0558,417.29916 132.36784,417.82836 132.36784,419.18664 L132.36784,424.02 L129.45724,424.02 L129.45724,415.09416 L131.94448,415.09416 Z M143.1106,413.31252 C143.1106,415.04124 141.82288,416.45244 139.68844,416.45244 L139.68844,415.32348 C140.71156,415.27056 141.41716,414.81192 141.41716,414.10632 C141.41716,414.03576 141.38188,413.94756 141.32896,413.877 C141.22312,413.94756 141.04672,414.00048 140.92324,414.00048 C140.23528,414.00048 139.60024,413.50656 139.60024,412.60692 C139.60024,411.61908 140.3764,411.08988 141.18784,411.08988 C142.33444,411.08988 143.1106,412.06008 143.1106,413.31252 Z M144.15136,421.79736 L146.58568,421.25052 C146.70916,421.9032 147.30892,422.3442 148.0498,422.3442 C148.79068,422.3442 149.26696,422.06196 149.26696,421.49748 C149.26696,419.94516 144.45124,421.33872 144.45124,417.88128 C144.45124,415.92324 146.14468,414.88248 148.2262,414.88248 C150.343,414.88248 151.666,415.8174 151.9306,417.47556 L149.51392,417.7578 C149.44336,417.1404 149.00236,416.73468 148.24384,416.73468 C147.57352,416.73468 147.1678,417.0522 147.1678,417.5814 C147.1678,419.15136 152.0188,417.68724 152.0188,421.25052 C152.0188,423.19092 150.36064,424.23168 148.03216,424.23168 C146.09176,424.23168 144.53944,423.43788 144.15136,421.79736 Z M156.7816,421.79736 L159.21592,421.25052 C159.3394,421.9032 159.93916,422.3442 160.68004,422.3442 C161.42092,422.3442 161.8972,422.06196 161.8972,421.49748 C161.8972,419.94516 157.08148,421.33872 157.08148,417.88128 C157.08148,415.92324 158.77492,414.88248 160.85644,414.88248 C162.97324,414.88248 164.29624,415.8174 164.56084,417.47556 L162.14416,417.7578 C162.0736,417.1404 161.6326,416.73468 160.87408,416.73468 C160.20376,416.73468 159.79804,417.0522 159.79804,417.5814 C159.79804,419.15136 164.64904,417.68724 164.64904,421.25052 C164.64904,423.19092 162.99088,424.23168 160.6624,424.23168 C158.722,424.23168 157.16968,423.43788 156.7816,421.79736 Z M171.81088,421.44456 L172.18132,423.4908 C171.54628,423.96708 170.68192,424.23168 169.747,424.23168 C167.85952,424.23168 166.55416,423.3144 166.55416,421.21524 L166.55416,417.2286 L165.40756,417.2286 L165.40756,415.09416 L166.5718,415.09416 L166.5718,413.20668 L169.4824,412.85388 L169.4824,415.09416 L171.79324,415.09416 L171.79324,417.2286 L169.46476,417.2286 L169.46476,420.82716 C169.46476,421.56804 169.8352,421.9032 170.47024,421.9032 C170.94652,421.9032 171.35224,421.76208 171.81088,421.44456 Z M182.02444,419.55708 C182.02444,422.53824 180.20752,424.23168 177.54388,424.23168 C174.8626,424.23168 173.04568,422.53824 173.04568,419.55708 C173.04568,416.55828 174.8626,414.88248 177.54388,414.88248 C180.20752,414.88248 182.02444,416.55828 182.02444,419.55708 Z M179.13148,419.55708 C179.13148,417.91656 178.63756,416.99928 177.54388,416.99928 C176.43256,416.99928 175.93864,417.91656 175.93864,419.55708 C175.93864,421.1976 176.43256,422.09724 177.54388,422.09724 C178.63756,422.09724 179.13148,421.1976 179.13148,419.55708 Z M189.69784,414.95304 L189.55672,417.89892 C189.27448,417.77544 188.86876,417.70488 188.4454,417.70488 C187.387,417.70488 186.505,418.39284 186.505,419.90988 L186.505,424.02 L183.5944,424.02 L183.5944,415.09416 L186.11692,415.09416 L186.45208,417.12276 C186.80488,415.60572 188.0044,414.65316 189.69784,414.95304 Z M194.9722,421.14468 L196.80676,415.09416 L199.59388,415.09416 L196.3834,424.24932 C195.51904,426.71892 194.3548,427.7244 192.4144,427.7244 C191.56768,427.7244 190.86208,427.47744 190.43872,427.21284 L190.98556,425.11368 C191.30308,425.36064 191.63824,425.5194 192.07924,425.5194 C192.69664,425.5194 193.0318,425.23716 193.36696,424.26696 L190.17412,415.09416 L193.19056,415.09416 L194.93692,421.14468 L194.9722,421.14468 Z" id="ReadJohn’sstory" fill="#13B5EA" fill-rule="nonzero"></path>
            <g id="Group-2" transform="translate(310.000000, 399.500000)" fill-rule="nonzero">
                <circle id="Oval" fill="#13B5EA" transform="translate(18.000000, 18.000000) scale(-1, 1) translate(-18.000000, -18.000000) " cx="18" cy="18" r="18"></circle>
                <g id="&lt;-" transform="translate(17.250000, 18.000000) scale(-1, 1) translate(-17.250000, -18.000000) translate(9.000000, 10.500000)" stroke="#FFFFFF" stroke-linecap="round" stroke-linejoin="round" stroke-width="3.60225705">
                    <polyline id="Path-4" points="7.33333333 0 0 7.5 7.33333333 15"></polyline>
                    <path d="M2.75,7.53988492 L16.5,7.53988492" id="Line-2"></path>
                </g>
            </g>
            <g id="Group-14" opacity="0.4" transform="translate(52.000000, 0.000000)">
                <circle id="Combined-Shape" fill="#31465B" cx="35.5" cy="36" r="35.5"></circle>
                <path d="M36.5428571,37.1381579 C36.5428571,29.0789474 42.5798995,22.5 52.5865039,22.5 L52.5865039,27.7631579 C47.7899497,28.0098684 44.4819813,30.1480263 44.4819813,33.4375 C44.4819813,33.7664474 44.6473798,34.1776316 44.8954774,34.5065789 C45.3916726,34.1776316 46.2186648,33.9309211 46.7975592,33.9309211 C50.0228284,33.9309211 53,36.2335526 53,40.4276316 C53,45.0328947 49.3612347,47.5 45.5570711,47.5 C40.1816224,47.5 36.5428571,42.9769737 36.5428571,37.1381579 Z M17,37.1381579 C17,29.0789474 23.0370424,22.5 33.0436468,22.5 L33.0436468,27.7631579 C28.2470926,28.0098684 24.9391242,30.1480263 24.9391242,33.4375 C24.9391242,33.7664474 25.1045226,34.1776316 25.3526202,34.5065789 C25.8488155,34.1776316 26.6758076,33.9309211 27.2547021,33.9309211 C30.4799713,33.9309211 33.4571429,36.2335526 33.4571429,40.4276316 C33.4571429,45.0328947 29.8183776,47.5 26.0142139,47.5 C20.6387653,47.5 17,42.9769737 17,37.1381579 Z" id="Combined-Shape" fill="#FFFFFF"></path>
            </g>
            <path d="M60.25,122.5 L57.478,122.5 L57.478,110.158 L52.638,110.158 L52.638,107.804 L65.09,107.804 L65.09,110.158 L60.25,110.158 L60.25,122.5 Z M70.062,106.616 L70.062,113.282 C70.7,111.896 71.976,111.17 73.516,111.17 C75.54,111.17 76.97,112.446 76.97,114.756 L76.97,122.5 L74.242,122.5 L74.242,115.504 C74.242,114.272 73.692,113.458 72.438,113.458 C71.14,113.458 70.062,114.25 70.062,116.296 L70.062,122.5 L67.356,122.5 L67.356,106.616 L70.062,106.616 Z M84.604,120.696 C85.726,120.696 86.518,120.19 86.826,118.98 L89.07,119.706 C88.476,121.862 86.628,122.764 84.582,122.764 C81.392,122.764 79.368,120.696 79.368,117.044 C79.368,113.436 81.392,111.17 84.604,111.17 C87.618,111.17 89.18,113.282 89.18,115.966 C89.18,116.538 89.07,117.132 88.96,117.44 L81.964,117.44 C82.03,119.486 82.998,120.696 84.604,120.696 Z M82.008,115.944 L86.584,115.944 C86.606,115.768 86.606,115.548 86.606,115.394 C86.606,114.162 85.902,113.128 84.56,113.128 C83.108,113.128 82.184,114.184 82.008,115.944 Z M97.32,113.458 L95.802,113.458 L95.802,111.434 L97.32,111.434 L97.32,110.488 C97.32,107.958 98.97,106.352 101.368,106.352 C102.336,106.352 103.084,106.616 103.766,106.99 L103.106,108.948 C102.688,108.596 102.314,108.442 101.698,108.442 C100.598,108.442 100.026,109.212 100.026,110.51 L100.026,111.434 L102.644,111.434 L102.644,113.458 L100.026,113.458 L100.026,122.5 L97.32,122.5 L97.32,113.458 Z M112.808,114.734 L112.808,119.816 C112.808,120.454 113.116,120.674 113.578,120.674 C113.82,120.674 114.062,120.586 114.216,120.454 L114.326,122.302 C113.93,122.566 113.314,122.72 112.742,122.72 C111.818,122.72 111.114,122.368 110.696,121.73 C110.564,121.488 110.454,121.224 110.366,120.916 C109.926,122.082 108.606,122.72 107.176,122.72 C105.152,122.72 103.7,121.576 103.7,119.574 C103.7,117.374 105.548,116.054 109.002,116.054 C109.332,116.054 109.816,116.076 110.212,116.12 L110.212,114.888 C110.212,113.832 109.64,113.194 108.496,113.194 C107.352,113.194 106.78,113.854 106.758,114.932 L104.206,114.536 C104.426,112.402 106.164,111.17 108.628,111.17 C111.378,111.17 112.808,112.402 112.808,114.734 Z M110.212,118.452 L110.212,117.682 C109.97,117.66 109.64,117.616 109.31,117.616 C107.374,117.616 106.34,118.188 106.34,119.398 C106.34,120.278 106.956,120.872 108.012,120.872 C109.112,120.872 110.212,120.19 110.212,118.452 Z M115.646,116.978 C115.646,113.348 117.692,111.17 120.838,111.17 C123.346,111.17 124.996,112.6 125.216,114.734 L122.84,115.24 C122.752,114.118 122.092,113.216 120.86,113.216 C119.188,113.216 118.352,114.734 118.352,116.978 C118.352,119.244 119.188,120.718 120.882,120.718 C122.026,120.718 122.752,119.882 122.862,118.672 L125.26,119.31 C124.886,121.466 123.236,122.764 120.882,122.764 C117.692,122.764 115.646,120.586 115.646,116.978 Z M133.84,119.97 L134.214,121.972 C133.51,122.478 132.542,122.764 131.574,122.764 C129.374,122.764 127.944,121.708 127.944,119.376 L127.944,113.458 L126.448,113.458 L126.448,111.434 L127.944,111.434 L127.944,109.08 L130.672,108.728 L130.672,111.434 L133.774,111.434 L133.774,113.458 L130.672,113.458 L130.672,119.046 C130.672,120.102 131.222,120.542 132.08,120.542 C132.74,120.542 133.224,120.366 133.84,119.97 Z M147.876,119.97 L148.25,121.972 C147.546,122.478 146.578,122.764 145.61,122.764 C143.41,122.764 141.98,121.708 141.98,119.376 L141.98,113.458 L140.484,113.458 L140.484,111.434 L141.98,111.434 L141.98,109.08 L144.708,108.728 L144.708,111.434 L147.81,111.434 L147.81,113.458 L144.708,113.458 L144.708,119.046 C144.708,120.102 145.258,120.542 146.116,120.542 C146.776,120.542 147.26,120.366 147.876,119.97 Z M153.178,106.616 L153.178,113.282 C153.816,111.896 155.092,111.17 156.632,111.17 C158.656,111.17 160.086,112.446 160.086,114.756 L160.086,122.5 L157.358,122.5 L157.358,115.504 C157.358,114.272 156.808,113.458 155.554,113.458 C154.256,113.458 153.178,114.25 153.178,116.296 L153.178,122.5 L150.472,122.5 L150.472,106.616 L153.178,106.616 Z M171.504,114.734 L171.504,119.816 C171.504,120.454 171.812,120.674 172.274,120.674 C172.516,120.674 172.758,120.586 172.912,120.454 L173.022,122.302 C172.626,122.566 172.01,122.72 171.438,122.72 C170.514,122.72 169.81,122.368 169.392,121.73 C169.26,121.488 169.15,121.224 169.062,120.916 C168.622,122.082 167.302,122.72 165.872,122.72 C163.848,122.72 162.396,121.576 162.396,119.574 C162.396,117.374 164.244,116.054 167.698,116.054 C168.028,116.054 168.512,116.076 168.908,116.12 L168.908,114.888 C168.908,113.832 168.336,113.194 167.192,113.194 C166.048,113.194 165.476,113.854 165.454,114.932 L162.902,114.536 C163.122,112.402 164.86,111.17 167.324,111.17 C170.074,111.17 171.504,112.402 171.504,114.734 Z M168.908,118.452 L168.908,117.682 C168.666,117.66 168.336,117.616 168.006,117.616 C166.07,117.616 165.036,118.188 165.036,119.398 C165.036,120.278 165.652,120.872 166.708,120.872 C167.808,120.872 168.908,120.19 168.908,118.452 Z M181.294,119.97 L181.668,121.972 C180.964,122.478 179.996,122.764 179.028,122.764 C176.828,122.764 175.398,121.708 175.398,119.376 L175.398,113.458 L173.902,113.458 L173.902,111.434 L175.398,111.434 L175.398,109.08 L178.126,108.728 L178.126,111.434 L181.228,111.434 L181.228,113.458 L178.126,113.458 L178.126,119.046 C178.126,120.102 178.676,120.542 179.534,120.542 C180.194,120.542 180.678,120.366 181.294,119.97 Z M189.214,107.804 L192.008,107.804 L192.008,122.5 L189.214,122.5 L189.214,107.804 Z M199.862,116.978 C199.862,113.348 201.908,111.17 205.054,111.17 C207.562,111.17 209.212,112.6 209.432,114.734 L207.056,115.24 C206.968,114.118 206.308,113.216 205.076,113.216 C203.404,113.216 202.568,114.734 202.568,116.978 C202.568,119.244 203.404,120.718 205.098,120.718 C206.242,120.718 206.968,119.882 207.078,118.672 L209.476,119.31 C209.102,121.466 207.452,122.764 205.098,122.764 C201.908,122.764 199.862,120.586 199.862,116.978 Z M220.124,114.734 L220.124,119.816 C220.124,120.454 220.432,120.674 220.894,120.674 C221.136,120.674 221.378,120.586 221.532,120.454 L221.642,122.302 C221.246,122.566 220.63,122.72 220.058,122.72 C219.134,122.72 218.43,122.368 218.012,121.73 C217.88,121.488 217.77,121.224 217.682,120.916 C217.242,122.082 215.922,122.72 214.492,122.72 C212.468,122.72 211.016,121.576 211.016,119.574 C211.016,117.374 212.864,116.054 216.318,116.054 C216.648,116.054 217.132,116.076 217.528,116.12 L217.528,114.888 C217.528,113.832 216.956,113.194 215.812,113.194 C214.668,113.194 214.096,113.854 214.074,114.932 L211.522,114.536 C211.742,112.402 213.48,111.17 215.944,111.17 C218.694,111.17 220.124,112.402 220.124,114.734 Z M217.528,118.452 L217.528,117.682 C217.286,117.66 216.956,117.616 216.626,117.616 C214.69,117.616 213.656,118.188 213.656,119.398 C213.656,120.278 214.272,120.872 215.328,120.872 C216.428,120.872 217.528,120.19 217.528,118.452 Z M225.91,111.434 L226.24,113.568 C226.812,112.028 228.154,111.17 229.848,111.17 C231.872,111.17 233.302,112.446 233.302,114.756 L233.302,122.5 L230.574,122.5 L230.574,115.504 C230.574,114.272 230.024,113.458 228.77,113.458 C227.472,113.458 226.394,114.25 226.394,116.296 L226.394,122.5 L223.688,122.5 L223.688,111.434 L225.91,111.434 Z M249.934,114.734 L249.934,119.816 C249.934,120.454 250.242,120.674 250.704,120.674 C250.946,120.674 251.188,120.586 251.342,120.454 L251.452,122.302 C251.056,122.566 250.44,122.72 249.868,122.72 C248.944,122.72 248.24,122.368 247.822,121.73 C247.69,121.488 247.58,121.224 247.492,120.916 C247.052,122.082 245.732,122.72 244.302,122.72 C242.278,122.72 240.826,121.576 240.826,119.574 C240.826,117.374 242.674,116.054 246.128,116.054 C246.458,116.054 246.942,116.076 247.338,116.12 L247.338,114.888 C247.338,113.832 246.766,113.194 245.622,113.194 C244.478,113.194 243.906,113.854 243.884,114.932 L241.332,114.536 C241.552,112.402 243.29,111.17 245.754,111.17 C248.504,111.17 249.934,112.402 249.934,114.734 Z M247.338,118.452 L247.338,117.682 C247.096,117.66 246.766,117.616 246.436,117.616 C244.5,117.616 243.466,118.188 243.466,119.398 C243.466,120.278 244.082,120.872 245.138,120.872 C246.238,120.872 247.338,120.19 247.338,118.452 Z M260.582,117.594 L260.582,115.922 C260.582,114.008 259.284,113.216 258.162,113.216 C256.622,113.216 255.544,114.426 255.544,117.088 C255.544,119.398 256.534,120.63 258.118,120.63 C259.35,120.63 260.582,119.728 260.582,117.594 Z M261,122.5 L260.714,120.432 C260.208,122.038 258.822,122.764 257.26,122.764 C254.796,122.764 252.772,120.828 252.772,117.176 C252.772,113.348 254.62,111.17 257.436,111.17 C259.108,111.17 260.186,111.962 260.582,112.886 L260.582,106.616 L263.288,106.616 L263.288,122.5 L261,122.5 Z M273.628,117.594 L273.628,115.922 C273.628,114.008 272.33,113.216 271.208,113.216 C269.668,113.216 268.59,114.426 268.59,117.088 C268.59,119.398 269.58,120.63 271.164,120.63 C272.396,120.63 273.628,119.728 273.628,117.594 Z M274.046,122.5 L273.76,120.432 C273.254,122.038 271.868,122.764 270.306,122.764 C267.842,122.764 265.818,120.828 265.818,117.176 C265.818,113.348 267.666,111.17 270.482,111.17 C272.154,111.17 273.232,111.962 273.628,112.886 L273.628,106.616 L276.334,106.616 L276.334,122.5 L274.046,122.5 Z M293.956,113.502 C294.55,112.05 295.826,111.17 297.41,111.17 C299.39,111.17 300.82,112.358 300.82,114.668 L300.82,122.5 L298.114,122.5 L298.114,115.482 C298.114,114.25 297.63,113.458 296.332,113.458 C295.188,113.458 294.176,114.25 294.176,116.274 L294.176,122.5 L291.448,122.5 L291.448,115.482 C291.448,114.25 290.964,113.458 289.688,113.458 C288.522,113.458 287.51,114.272 287.51,116.296 L287.51,122.5 L284.804,122.5 L284.804,111.434 L287.026,111.434 L287.356,113.568 C287.862,112.028 289.182,111.17 290.744,111.17 C292.328,111.17 293.538,112.006 293.956,113.502 Z M308.256,119.838 L310.94,111.434 L313.58,111.434 L309.51,122.94 C308.388,126.064 307.09,127.12 305.066,127.12 C304.274,127.12 303.548,126.878 303.086,126.592 L303.548,124.524 C303.988,124.832 304.34,124.986 304.846,124.986 C305.77,124.986 306.21,124.546 306.804,122.896 L302.756,111.434 L305.616,111.434 L308.212,119.838 L308.256,119.838 Z M61.922,146.734 L61.922,151.816 C61.922,152.454 62.23,152.674 62.692,152.674 C62.934,152.674 63.176,152.586 63.33,152.454 L63.44,154.302 C63.044,154.566 62.428,154.72 61.856,154.72 C60.932,154.72 60.228,154.368 59.81,153.73 C59.678,153.488 59.568,153.224 59.48,152.916 C59.04,154.082 57.72,154.72 56.29,154.72 C54.266,154.72 52.814,153.576 52.814,151.574 C52.814,149.374 54.662,148.054 58.116,148.054 C58.446,148.054 58.93,148.076 59.326,148.12 L59.326,146.888 C59.326,145.832 58.754,145.194 57.61,145.194 C56.466,145.194 55.894,145.854 55.872,146.932 L53.32,146.536 C53.54,144.402 55.278,143.17 57.742,143.17 C60.492,143.17 61.922,144.402 61.922,146.734 Z M59.326,150.452 L59.326,149.682 C59.084,149.66 58.754,149.616 58.424,149.616 C56.488,149.616 55.454,150.188 55.454,151.398 C55.454,152.278 56.07,152.872 57.126,152.872 C58.226,152.872 59.326,152.19 59.326,150.452 Z M64.76,148.978 C64.76,145.348 66.806,143.17 69.952,143.17 C72.46,143.17 74.11,144.6 74.33,146.734 L71.954,147.24 C71.866,146.118 71.206,145.216 69.974,145.216 C68.302,145.216 67.466,146.734 67.466,148.978 C67.466,151.244 68.302,152.718 69.996,152.718 C71.14,152.718 71.866,151.882 71.976,150.672 L74.374,151.31 C74,153.466 72.35,154.764 69.996,154.764 C66.806,154.764 64.76,152.586 64.76,148.978 Z M76.002,148.978 C76.002,145.348 78.048,143.17 81.194,143.17 C83.702,143.17 85.352,144.6 85.572,146.734 L83.196,147.24 C83.108,146.118 82.448,145.216 81.216,145.216 C79.544,145.216 78.708,146.734 78.708,148.978 C78.708,151.244 79.544,152.718 81.238,152.718 C82.382,152.718 83.108,151.882 83.218,150.672 L85.616,151.31 C85.242,153.466 83.592,154.764 81.238,154.764 C78.048,154.764 76.002,152.586 76.002,148.978 Z M97.76,148.956 C97.76,152.674 95.648,154.764 92.502,154.764 C89.378,154.764 87.244,152.674 87.244,148.956 C87.244,145.26 89.378,143.17 92.502,143.17 C95.648,143.17 97.76,145.26 97.76,148.956 Z M95.054,148.956 C95.054,146.514 94.196,145.194 92.502,145.194 C90.808,145.194 89.972,146.514 89.972,148.956 C89.972,151.42 90.808,152.74 92.502,152.74 C94.196,152.74 95.054,151.42 95.054,148.956 Z M107.418,154.5 L107.088,152.432 C106.582,153.994 105.328,154.764 103.634,154.764 C101.808,154.764 100.202,153.62 100.202,151.2 L100.202,143.434 L102.908,143.434 L102.908,150.584 C102.908,151.86 103.546,152.608 104.69,152.608 C105.944,152.608 106.956,151.728 106.956,149.682 L106.956,143.434 L109.684,143.434 L109.684,154.5 L107.418,154.5 Z M115.162,143.434 L115.492,145.568 C116.064,144.028 117.406,143.17 119.1,143.17 C121.124,143.17 122.554,144.446 122.554,146.756 L122.554,154.5 L119.826,154.5 L119.826,147.504 C119.826,146.272 119.276,145.458 118.022,145.458 C116.724,145.458 115.646,146.25 115.646,148.296 L115.646,154.5 L112.94,154.5 L112.94,143.434 L115.162,143.434 Z M131.904,151.97 L132.278,153.972 C131.574,154.478 130.606,154.764 129.638,154.764 C127.438,154.764 126.008,153.708 126.008,151.376 L126.008,145.458 L124.512,145.458 L124.512,143.434 L126.008,143.434 L126.008,141.08 L128.736,140.728 L128.736,143.434 L131.838,143.434 L131.838,145.458 L128.736,145.458 L128.736,151.046 C128.736,152.102 129.286,152.542 130.144,152.542 C130.804,152.542 131.288,152.366 131.904,151.97 Z M142.794,146.734 L142.794,151.816 C142.794,152.454 143.102,152.674 143.564,152.674 C143.806,152.674 144.048,152.586 144.202,152.454 L144.312,154.302 C143.916,154.566 143.3,154.72 142.728,154.72 C141.804,154.72 141.1,154.368 140.682,153.73 C140.55,153.488 140.44,153.224 140.352,152.916 C139.912,154.082 138.592,154.72 137.162,154.72 C135.138,154.72 133.686,153.576 133.686,151.574 C133.686,149.374 135.534,148.054 138.988,148.054 C139.318,148.054 139.802,148.076 140.198,148.12 L140.198,146.888 C140.198,145.832 139.626,145.194 138.482,145.194 C137.338,145.194 136.766,145.854 136.744,146.932 L134.192,146.536 C134.412,144.402 136.15,143.17 138.614,143.17 C141.364,143.17 142.794,144.402 142.794,146.734 Z M140.198,150.452 L140.198,149.682 C139.956,149.66 139.626,149.616 139.296,149.616 C137.36,149.616 136.326,150.188 136.326,151.398 C136.326,152.278 136.942,152.872 137.998,152.872 C139.098,152.872 140.198,152.19 140.198,150.452 Z M148.58,143.434 L148.91,145.568 C149.482,144.028 150.824,143.17 152.518,143.17 C154.542,143.17 155.972,144.446 155.972,146.756 L155.972,154.5 L153.244,154.5 L153.244,147.504 C153.244,146.272 152.694,145.458 151.44,145.458 C150.142,145.458 149.064,146.25 149.064,148.296 L149.064,154.5 L146.358,154.5 L146.358,143.434 L148.58,143.434 Z M165.322,151.97 L165.696,153.972 C164.992,154.478 164.024,154.764 163.056,154.764 C160.856,154.764 159.426,153.708 159.426,151.376 L159.426,145.458 L157.93,145.458 L157.93,143.434 L159.426,143.434 L159.426,141.08 L162.154,140.728 L162.154,143.434 L165.256,143.434 L165.256,145.458 L162.154,145.458 L162.154,151.046 C162.154,152.102 162.704,152.542 163.562,152.542 C164.222,152.542 164.706,152.366 165.322,151.97 Z M176.19,140.2 C176.19,141.19 175.398,141.828 174.474,141.828 C173.55,141.828 172.78,141.19 172.78,140.2 C172.78,139.21 173.55,138.572 174.474,138.572 C175.398,138.572 176.19,139.21 176.19,140.2 Z M173.132,143.434 L175.838,143.434 L175.838,154.5 L173.132,154.5 L173.132,143.434 Z M181.316,143.434 L181.646,145.568 C182.218,144.028 183.56,143.17 185.254,143.17 C187.278,143.17 188.708,144.446 188.708,146.756 L188.708,154.5 L185.98,154.5 L185.98,147.504 C185.98,146.272 185.43,145.458 184.176,145.458 C182.878,145.458 181.8,146.25 181.8,148.296 L181.8,154.5 L179.094,154.5 L179.094,143.434 L181.316,143.434 Z M205.34,146.734 L205.34,151.816 C205.34,152.454 205.648,152.674 206.11,152.674 C206.352,152.674 206.594,152.586 206.748,152.454 L206.858,154.302 C206.462,154.566 205.846,154.72 205.274,154.72 C204.35,154.72 203.646,154.368 203.228,153.73 C203.096,153.488 202.986,153.224 202.898,152.916 C202.458,154.082 201.138,154.72 199.708,154.72 C197.684,154.72 196.232,153.576 196.232,151.574 C196.232,149.374 198.08,148.054 201.534,148.054 C201.864,148.054 202.348,148.076 202.744,148.12 L202.744,146.888 C202.744,145.832 202.172,145.194 201.028,145.194 C199.884,145.194 199.312,145.854 199.29,146.932 L196.738,146.536 C196.958,144.402 198.696,143.17 201.16,143.17 C203.91,143.17 205.34,144.402 205.34,146.734 Z M202.744,150.452 L202.744,149.682 C202.502,149.66 202.172,149.616 201.842,149.616 C199.906,149.616 198.872,150.188 198.872,151.398 C198.872,152.278 199.488,152.872 200.544,152.872 C201.644,152.872 202.744,152.19 202.744,150.452 Z M207.892,151.728 L210.246,151.156 C210.4,152.19 211.324,152.894 212.512,152.894 C213.678,152.894 214.448,152.432 214.448,151.508 C214.448,149.066 208.31,151.002 208.31,146.69 C208.31,144.446 210.202,143.17 212.6,143.17 C215.13,143.17 216.626,144.292 216.89,146.316 L214.536,146.602 C214.448,145.656 213.81,145.018 212.622,145.018 C211.522,145.018 210.862,145.546 210.862,146.448 C210.862,148.868 217.022,146.822 217.022,151.266 C217.022,153.532 215.108,154.764 212.49,154.764 C210.136,154.764 208.288,153.708 207.892,151.728 Z M232.994,146.734 L232.994,151.816 C232.994,152.454 233.302,152.674 233.764,152.674 C234.006,152.674 234.248,152.586 234.402,152.454 L234.512,154.302 C234.116,154.566 233.5,154.72 232.928,154.72 C232.004,154.72 231.3,154.368 230.882,153.73 C230.75,153.488 230.64,153.224 230.552,152.916 C230.112,154.082 228.792,154.72 227.362,154.72 C225.338,154.72 223.886,153.576 223.886,151.574 C223.886,149.374 225.734,148.054 229.188,148.054 C229.518,148.054 230.002,148.076 230.398,148.12 L230.398,146.888 C230.398,145.832 229.826,145.194 228.682,145.194 C227.538,145.194 226.966,145.854 226.944,146.932 L224.392,146.536 C224.612,144.402 226.35,143.17 228.814,143.17 C231.564,143.17 232.994,144.402 232.994,146.734 Z M230.398,150.452 L230.398,149.682 C230.156,149.66 229.826,149.616 229.496,149.616 C227.56,149.616 226.526,150.188 226.526,151.398 C226.526,152.278 227.142,152.872 228.198,152.872 C229.298,152.872 230.398,152.19 230.398,150.452 Z M250.55,154.5 L247.074,149.132 L247.008,149.132 L243.488,154.5 L240.518,154.5 L245.512,146.976 L240.826,139.804 L243.906,139.804 L247.096,144.842 L247.14,144.842 L250.352,139.804 L253.344,139.804 L248.658,146.91 L253.652,154.5 L250.55,154.5 Z M260.164,152.696 C261.286,152.696 262.078,152.19 262.386,150.98 L264.63,151.706 C264.036,153.862 262.188,154.764 260.142,154.764 C256.952,154.764 254.928,152.696 254.928,149.044 C254.928,145.436 256.952,143.17 260.164,143.17 C263.178,143.17 264.74,145.282 264.74,147.966 C264.74,148.538 264.63,149.132 264.52,149.44 L257.524,149.44 C257.59,151.486 258.558,152.696 260.164,152.696 Z M257.568,147.944 L262.144,147.944 C262.166,147.768 262.166,147.548 262.166,147.394 C262.166,146.162 261.462,145.128 260.12,145.128 C258.668,145.128 257.744,146.184 257.568,147.944 Z M273.958,143.258 L273.804,146.03 C273.54,145.942 273.078,145.876 272.682,145.876 C271.142,145.876 269.954,146.998 269.954,149.154 L269.954,154.5 L267.248,154.5 L267.248,143.434 L269.536,143.434 L269.844,146.118 C270.306,144.182 271.868,142.862 273.958,143.258 Z M285.794,148.956 C285.794,152.674 283.682,154.764 280.536,154.764 C277.412,154.764 275.278,152.674 275.278,148.956 C275.278,145.26 277.412,143.17 280.536,143.17 C283.682,143.17 285.794,145.26 285.794,148.956 Z M283.088,148.956 C283.088,146.514 282.23,145.194 280.536,145.194 C278.842,145.194 278.006,146.514 278.006,148.956 C278.006,151.42 278.842,152.74 280.536,152.74 C282.23,152.74 283.088,151.42 283.088,148.956 Z M60.734,186.5 L60.404,184.432 C59.898,185.994 58.644,186.764 56.95,186.764 C55.124,186.764 53.518,185.62 53.518,183.2 L53.518,175.434 L56.224,175.434 L56.224,182.584 C56.224,183.86 56.862,184.608 58.006,184.608 C59.26,184.608 60.272,183.728 60.272,181.682 L60.272,175.434 L63,175.434 L63,186.5 L60.734,186.5 Z M65.244,183.728 L67.598,183.156 C67.752,184.19 68.676,184.894 69.864,184.894 C71.03,184.894 71.8,184.432 71.8,183.508 C71.8,181.066 65.662,183.002 65.662,178.69 C65.662,176.446 67.554,175.17 69.952,175.17 C72.482,175.17 73.978,176.292 74.242,178.316 L71.888,178.602 C71.8,177.656 71.162,177.018 69.974,177.018 C68.874,177.018 68.214,177.546 68.214,178.448 C68.214,180.868 74.374,178.822 74.374,183.266 C74.374,185.532 72.46,186.764 69.842,186.764 C67.488,186.764 65.64,185.708 65.244,183.728 Z M81.348,184.696 C82.47,184.696 83.262,184.19 83.57,182.98 L85.814,183.706 C85.22,185.862 83.372,186.764 81.326,186.764 C78.136,186.764 76.112,184.696 76.112,181.044 C76.112,177.436 78.136,175.17 81.348,175.17 C84.362,175.17 85.924,177.282 85.924,179.966 C85.924,180.538 85.814,181.132 85.704,181.44 L78.708,181.44 C78.774,183.486 79.742,184.696 81.348,184.696 Z M78.752,179.944 L83.328,179.944 C83.35,179.768 83.35,179.548 83.35,179.394 C83.35,178.162 82.646,177.128 81.304,177.128 C79.852,177.128 78.928,178.184 78.752,179.944 Z M95.142,175.258 L94.988,178.03 C94.724,177.942 94.262,177.876 93.866,177.876 C92.326,177.876 91.138,178.998 91.138,181.154 L91.138,186.5 L88.432,186.5 L88.432,175.434 L90.72,175.434 L91.028,178.118 C91.49,176.182 93.052,174.862 95.142,175.258 Z M105.46,172.2 C105.46,173.19 104.668,173.828 103.744,173.828 C102.82,173.828 102.05,173.19 102.05,172.2 C102.05,171.21 102.82,170.572 103.744,170.572 C104.668,170.572 105.46,171.21 105.46,172.2 Z M102.402,175.434 L105.108,175.434 L105.108,186.5 L102.402,186.5 L102.402,175.434 Z M107.352,183.728 L109.706,183.156 C109.86,184.19 110.784,184.894 111.972,184.894 C113.138,184.894 113.908,184.432 113.908,183.508 C113.908,181.066 107.77,183.002 107.77,178.69 C107.77,176.446 109.662,175.17 112.06,175.17 C114.59,175.17 116.086,176.292 116.35,178.316 L113.996,178.602 C113.908,177.656 113.27,177.018 112.082,177.018 C110.982,177.018 110.322,177.546 110.322,178.448 C110.322,180.868 116.482,178.822 116.482,183.266 C116.482,185.532 114.568,186.764 111.95,186.764 C109.596,186.764 107.748,185.708 107.352,183.728 Z M124.578,177.458 L123.06,177.458 L123.06,175.434 L124.578,175.434 L124.578,174.488 C124.578,171.958 126.228,170.352 128.626,170.352 C129.594,170.352 130.342,170.616 131.024,170.99 L130.364,172.948 C129.946,172.596 129.572,172.442 128.956,172.442 C127.856,172.442 127.284,173.212 127.284,174.51 L127.284,175.434 L129.902,175.434 L129.902,177.458 L127.284,177.458 L127.284,186.5 L124.578,186.5 L124.578,177.458 Z M140.066,178.734 L140.066,183.816 C140.066,184.454 140.374,184.674 140.836,184.674 C141.078,184.674 141.32,184.586 141.474,184.454 L141.584,186.302 C141.188,186.566 140.572,186.72 140,186.72 C139.076,186.72 138.372,186.368 137.954,185.73 C137.822,185.488 137.712,185.224 137.624,184.916 C137.184,186.082 135.864,186.72 134.434,186.72 C132.41,186.72 130.958,185.576 130.958,183.574 C130.958,181.374 132.806,180.054 136.26,180.054 C136.59,180.054 137.074,180.076 137.47,180.12 L137.47,178.888 C137.47,177.832 136.898,177.194 135.754,177.194 C134.61,177.194 134.038,177.854 134.016,178.932 L131.464,178.536 C131.684,176.402 133.422,175.17 135.886,175.17 C138.636,175.17 140.066,176.402 140.066,178.734 Z M137.47,182.452 L137.47,181.682 C137.228,181.66 136.898,181.616 136.568,181.616 C134.632,181.616 133.598,182.188 133.598,183.398 C133.598,184.278 134.214,184.872 135.27,184.872 C136.37,184.872 137.47,184.19 137.47,182.452 Z M145.852,175.434 L146.182,177.568 C146.754,176.028 148.096,175.17 149.79,175.17 C151.814,175.17 153.244,176.446 153.244,178.756 L153.244,186.5 L150.516,186.5 L150.516,179.504 C150.516,178.272 149.966,177.458 148.712,177.458 C147.414,177.458 146.336,178.25 146.336,180.296 L146.336,186.5 L143.63,186.5 L143.63,175.434 L145.852,175.434 Z M162.594,183.97 L162.968,185.972 C162.264,186.478 161.296,186.764 160.328,186.764 C158.128,186.764 156.698,185.708 156.698,183.376 L156.698,177.458 L155.202,177.458 L155.202,175.434 L156.698,175.434 L156.698,173.08 L159.426,172.728 L159.426,175.434 L162.528,175.434 L162.528,177.458 L159.426,177.458 L159.426,183.046 C159.426,184.102 159.976,184.542 160.834,184.542 C161.494,184.542 161.978,184.366 162.594,183.97 Z M173.484,178.734 L173.484,183.816 C173.484,184.454 173.792,184.674 174.254,184.674 C174.496,184.674 174.738,184.586 174.892,184.454 L175.002,186.302 C174.606,186.566 173.99,186.72 173.418,186.72 C172.494,186.72 171.79,186.368 171.372,185.73 C171.24,185.488 171.13,185.224 171.042,184.916 C170.602,186.082 169.282,186.72 167.852,186.72 C165.828,186.72 164.376,185.576 164.376,183.574 C164.376,181.374 166.224,180.054 169.678,180.054 C170.008,180.054 170.492,180.076 170.888,180.12 L170.888,178.888 C170.888,177.832 170.316,177.194 169.172,177.194 C168.028,177.194 167.456,177.854 167.434,178.932 L164.882,178.536 C165.102,176.402 166.84,175.17 169.304,175.17 C172.054,175.17 173.484,176.402 173.484,178.734 Z M170.888,182.452 L170.888,181.682 C170.646,181.66 170.316,181.616 169.986,181.616 C168.05,181.616 167.016,182.188 167.016,183.398 C167.016,184.278 167.632,184.872 168.688,184.872 C169.788,184.872 170.888,184.19 170.888,182.452 Z M176.036,183.728 L178.39,183.156 C178.544,184.19 179.468,184.894 180.656,184.894 C181.822,184.894 182.592,184.432 182.592,183.508 C182.592,181.066 176.454,183.002 176.454,178.69 C176.454,176.446 178.346,175.17 180.744,175.17 C183.274,175.17 184.77,176.292 185.034,178.316 L182.68,178.602 C182.592,177.656 181.954,177.018 180.766,177.018 C179.666,177.018 179.006,177.546 179.006,178.448 C179.006,180.868 185.166,178.822 185.166,183.266 C185.166,185.532 183.252,186.764 180.634,186.764 C178.28,186.764 176.432,185.708 176.036,183.728 Z M193.856,183.97 L194.23,185.972 C193.526,186.478 192.558,186.764 191.59,186.764 C189.39,186.764 187.96,185.708 187.96,183.376 L187.96,177.458 L186.464,177.458 L186.464,175.434 L187.96,175.434 L187.96,173.08 L190.688,172.728 L190.688,175.434 L193.79,175.434 L193.79,177.458 L190.688,177.458 L190.688,183.046 C190.688,184.102 191.238,184.542 192.096,184.542 C192.756,184.542 193.24,184.366 193.856,183.97 Z M199.51,172.2 C199.51,173.19 198.718,173.828 197.794,173.828 C196.87,173.828 196.1,173.19 196.1,172.2 C196.1,171.21 196.87,170.572 197.794,170.572 C198.718,170.572 199.51,171.21 199.51,172.2 Z M196.452,175.434 L199.158,175.434 L199.158,186.5 L196.452,186.5 L196.452,175.434 Z M201.688,180.978 C201.688,177.348 203.734,175.17 206.88,175.17 C209.388,175.17 211.038,176.6 211.258,178.734 L208.882,179.24 C208.794,178.118 208.134,177.216 206.902,177.216 C205.23,177.216 204.394,178.734 204.394,180.978 C204.394,183.244 205.23,184.718 206.924,184.718 C208.068,184.718 208.794,183.882 208.904,182.672 L211.302,183.31 C210.928,185.466 209.278,186.764 206.924,186.764 C203.734,186.764 201.688,184.586 201.688,180.978 Z M216.89,184.894 C216.89,185.884 216.12,186.676 215.13,186.676 C214.118,186.676 213.37,185.884 213.37,184.894 C213.37,183.904 214.118,183.134 215.13,183.134 C216.12,183.134 216.89,183.904 216.89,184.894 Z M225.162,171.804 L227.956,171.804 L227.956,186.5 L225.162,186.5 L225.162,171.804 Z M243.62,181.594 L243.62,179.922 C243.62,178.008 242.322,177.216 241.2,177.216 C239.66,177.216 238.582,178.426 238.582,181.088 C238.582,183.398 239.572,184.63 241.156,184.63 C242.388,184.63 243.62,183.728 243.62,181.594 Z M244.038,186.5 L243.752,184.432 C243.246,186.038 241.86,186.764 240.298,186.764 C237.834,186.764 235.81,184.828 235.81,181.176 C235.81,177.348 237.658,175.17 240.474,175.17 C242.146,175.17 243.224,175.962 243.62,176.886 L243.62,170.616 L246.326,170.616 L246.326,186.5 L244.038,186.5 Z M259.372,180.956 C259.372,184.674 257.26,186.764 254.114,186.764 C250.99,186.764 248.856,184.674 248.856,180.956 C248.856,177.26 250.99,175.17 254.114,175.17 C257.26,175.17 259.372,177.26 259.372,180.956 Z M256.666,180.956 C256.666,178.514 255.808,177.194 254.114,177.194 C252.42,177.194 251.584,178.514 251.584,180.956 C251.584,183.42 252.42,184.74 254.114,184.74 C255.808,184.74 256.666,183.42 256.666,180.956 Z M264.146,175.434 L264.476,177.568 C265.048,176.028 266.39,175.17 268.084,175.17 C270.108,175.17 271.538,176.446 271.538,178.756 L271.538,186.5 L268.81,186.5 L268.81,179.504 C268.81,178.272 268.26,177.458 267.006,177.458 C265.708,177.458 264.63,178.25 264.63,180.296 L264.63,186.5 L261.924,186.5 L261.924,175.434 L264.146,175.434 Z M274.552,176.644 L274.552,170.616 L277.368,170.616 L276.202,176.644 L274.552,176.644 Z M286.63,183.97 L287.004,185.972 C286.3,186.478 285.332,186.764 284.364,186.764 C282.164,186.764 280.734,185.708 280.734,183.376 L280.734,177.458 L279.238,177.458 L279.238,175.434 L280.734,175.434 L280.734,173.08 L283.462,172.728 L283.462,175.434 L286.564,175.434 L286.564,177.458 L283.462,177.458 L283.462,183.046 C283.462,184.102 284.012,184.542 284.87,184.542 C285.53,184.542 286.014,184.366 286.63,183.97 Z M56.334,202.616 L56.334,209.282 C56.972,207.896 58.248,207.17 59.788,207.17 C61.812,207.17 63.242,208.446 63.242,210.756 L63.242,218.5 L60.514,218.5 L60.514,211.504 C60.514,210.272 59.964,209.458 58.71,209.458 C57.412,209.458 56.334,210.25 56.334,212.296 L56.334,218.5 L53.628,218.5 L53.628,202.616 L56.334,202.616 Z M74.66,210.734 L74.66,215.816 C74.66,216.454 74.968,216.674 75.43,216.674 C75.672,216.674 75.914,216.586 76.068,216.454 L76.178,218.302 C75.782,218.566 75.166,218.72 74.594,218.72 C73.67,218.72 72.966,218.368 72.548,217.73 C72.416,217.488 72.306,217.224 72.218,216.916 C71.778,218.082 70.458,218.72 69.028,218.72 C67.004,218.72 65.552,217.576 65.552,215.574 C65.552,213.374 67.4,212.054 70.854,212.054 C71.184,212.054 71.668,212.076 72.064,212.12 L72.064,210.888 C72.064,209.832 71.492,209.194 70.348,209.194 C69.204,209.194 68.632,209.854 68.61,210.932 L66.058,210.536 C66.278,208.402 68.016,207.17 70.48,207.17 C73.23,207.17 74.66,208.402 74.66,210.734 Z M72.064,214.452 L72.064,213.682 C71.822,213.66 71.492,213.616 71.162,213.616 C69.226,213.616 68.192,214.188 68.192,215.398 C68.192,216.278 68.808,216.872 69.864,216.872 C70.964,216.872 72.064,216.19 72.064,214.452 Z M82.47,215.574 L82.514,215.574 L85.22,207.434 L87.838,207.434 L83.79,218.5 L81.084,218.5 L77.014,207.434 L79.874,207.434 L82.47,215.574 Z M94.416,216.696 C95.538,216.696 96.33,216.19 96.638,214.98 L98.882,215.706 C98.288,217.862 96.44,218.764 94.394,218.764 C91.204,218.764 89.18,216.696 89.18,213.044 C89.18,209.436 91.204,207.17 94.416,207.17 C97.43,207.17 98.992,209.282 98.992,211.966 C98.992,212.538 98.882,213.132 98.772,213.44 L91.776,213.44 C91.842,215.486 92.81,216.696 94.416,216.696 Z M91.82,211.944 L96.396,211.944 C96.418,211.768 96.418,211.548 96.418,211.394 C96.418,210.162 95.714,209.128 94.372,209.128 C92.92,209.128 91.996,210.184 91.82,211.944 Z M112.94,215.97 L113.314,217.972 C112.61,218.478 111.642,218.764 110.674,218.764 C108.474,218.764 107.044,217.708 107.044,215.376 L107.044,209.458 L105.548,209.458 L105.548,207.434 L107.044,207.434 L107.044,205.08 L109.772,204.728 L109.772,207.434 L112.874,207.434 L112.874,209.458 L109.772,209.458 L109.772,215.046 C109.772,216.102 110.322,216.542 111.18,216.542 C111.84,216.542 112.324,216.366 112.94,215.97 Z M125.326,212.956 C125.326,216.674 123.214,218.764 120.068,218.764 C116.944,218.764 114.81,216.674 114.81,212.956 C114.81,209.26 116.944,207.17 120.068,207.17 C123.214,207.17 125.326,209.26 125.326,212.956 Z M122.62,212.956 C122.62,210.514 121.762,209.194 120.068,209.194 C118.374,209.194 117.538,210.514 117.538,212.956 C117.538,215.42 118.374,216.74 120.068,216.74 C121.762,216.74 122.62,215.42 122.62,212.956 Z M135.798,202.616 L135.798,209.304 C136.216,208.006 137.536,207.17 139.054,207.17 C142.024,207.17 143.608,209.59 143.608,212.89 C143.608,216.366 141.76,218.764 138.878,218.764 C137.294,218.764 135.996,217.928 135.6,216.52 L135.292,218.5 L133.092,218.5 L133.092,202.616 L135.798,202.616 Z M135.798,212.362 L135.798,213.748 C135.798,215.86 136.986,216.718 138.174,216.718 C139.758,216.718 140.836,215.442 140.836,212.934 C140.836,210.47 139.846,209.282 138.218,209.282 C136.986,209.282 135.798,210.25 135.798,212.362 Z M152.848,207.258 L152.694,210.03 C152.43,209.942 151.968,209.876 151.572,209.876 C150.032,209.876 148.844,210.998 148.844,213.154 L148.844,218.5 L146.138,218.5 L146.138,207.434 L148.426,207.434 L148.734,210.118 C149.196,208.182 150.758,206.862 152.848,207.258 Z M157.952,204.2 C157.952,205.19 157.16,205.828 156.236,205.828 C155.312,205.828 154.542,205.19 154.542,204.2 C154.542,203.21 155.312,202.572 156.236,202.572 C157.16,202.572 157.952,203.21 157.952,204.2 Z M154.894,207.434 L157.6,207.434 L157.6,218.5 L154.894,218.5 L154.894,207.434 Z M163.078,207.434 L163.408,209.568 C163.98,208.028 165.322,207.17 167.016,207.17 C169.04,207.17 170.47,208.446 170.47,210.756 L170.47,218.5 L167.742,218.5 L167.742,211.504 C167.742,210.272 167.192,209.458 165.938,209.458 C164.64,209.458 163.562,210.25 163.562,212.296 L163.562,218.5 L160.856,218.5 L160.856,207.434 L163.078,207.434 Z M175.684,210.888 C175.684,212.186 176.454,212.912 177.686,212.912 C178.918,212.912 179.688,212.208 179.688,210.888 C179.688,209.568 178.918,208.886 177.686,208.886 C176.454,208.886 175.684,209.59 175.684,210.888 Z M183.516,219.182 C183.516,222.108 180.414,223.12 177.422,223.12 C174.826,223.12 172.23,222.306 172.23,220.15 C172.23,218.94 173.242,218.126 174.694,217.906 C173.836,217.642 173.286,216.96 173.286,216.058 C173.286,215.024 174.078,214.32 175.068,214.056 C173.836,213.462 173.066,212.362 173.066,210.888 C173.066,208.512 174.914,207.17 177.686,207.17 C178.918,207.17 179.974,207.456 180.788,207.984 C181.25,207.61 181.426,206.884 181.514,206.18 L183.78,206.95 C183.626,208.028 182.79,208.798 181.822,209.018 C182.174,209.546 182.35,210.184 182.35,210.888 C182.35,213.308 180.392,214.606 177.686,214.606 C177.136,214.606 176.608,214.54 176.124,214.43 C175.684,214.628 175.464,214.914 175.464,215.332 C175.464,215.816 175.838,216.036 176.41,216.036 L179.424,216.036 C182.13,216.036 183.516,217.18 183.516,219.182 Z M174.562,219.754 C174.562,220.876 175.838,221.36 177.466,221.36 C179.534,221.36 181.096,220.81 181.096,219.6 C181.096,218.852 180.524,218.434 179.358,218.434 L176.212,218.434 C175.244,218.434 174.562,218.918 174.562,219.754 Z M193.416,202.616 L193.416,209.282 C194.054,207.896 195.33,207.17 196.87,207.17 C198.894,207.17 200.324,208.446 200.324,210.756 L200.324,218.5 L197.596,218.5 L197.596,211.504 C197.596,210.272 197.046,209.458 195.792,209.458 C194.494,209.458 193.416,210.25 193.416,212.296 L193.416,218.5 L190.71,218.5 L190.71,202.616 L193.416,202.616 Z M206.506,204.2 C206.506,205.19 205.714,205.828 204.79,205.828 C203.866,205.828 203.096,205.19 203.096,204.2 C203.096,203.21 203.866,202.572 204.79,202.572 C205.714,202.572 206.506,203.21 206.506,204.2 Z M203.448,207.434 L206.154,207.434 L206.154,218.5 L203.448,218.5 L203.448,207.434 Z M218.562,209.502 C219.156,208.05 220.432,207.17 222.016,207.17 C223.996,207.17 225.426,208.358 225.426,210.668 L225.426,218.5 L222.72,218.5 L222.72,211.482 C222.72,210.25 222.236,209.458 220.938,209.458 C219.794,209.458 218.782,210.25 218.782,212.274 L218.782,218.5 L216.054,218.5 L216.054,211.482 C216.054,210.25 215.57,209.458 214.294,209.458 C213.128,209.458 212.116,210.272 212.116,212.296 L212.116,218.5 L209.41,218.5 L209.41,207.434 L211.632,207.434 L211.962,209.568 C212.468,208.028 213.788,207.17 215.35,207.17 C216.934,207.17 218.144,208.006 218.562,209.502 Z M242.08,210.734 L242.08,215.816 C242.08,216.454 242.388,216.674 242.85,216.674 C243.092,216.674 243.334,216.586 243.488,216.454 L243.598,218.302 C243.202,218.566 242.586,218.72 242.014,218.72 C241.09,218.72 240.386,218.368 239.968,217.73 C239.836,217.488 239.726,217.224 239.638,216.916 C239.198,218.082 237.878,218.72 236.448,218.72 C234.424,218.72 232.972,217.576 232.972,215.574 C232.972,213.374 234.82,212.054 238.274,212.054 C238.604,212.054 239.088,212.076 239.484,212.12 L239.484,210.888 C239.484,209.832 238.912,209.194 237.768,209.194 C236.624,209.194 236.052,209.854 236.03,210.932 L233.478,210.536 C233.698,208.402 235.436,207.17 237.9,207.17 C240.65,207.17 242.08,208.402 242.08,210.734 Z M239.484,214.452 L239.484,213.682 C239.242,213.66 238.912,213.616 238.582,213.616 C236.646,213.616 235.612,214.188 235.612,215.398 C235.612,216.278 236.228,216.872 237.284,216.872 C238.384,216.872 239.484,216.19 239.484,214.452 Z M247.866,207.434 L248.196,209.568 C248.768,208.028 250.11,207.17 251.804,207.17 C253.828,207.17 255.258,208.446 255.258,210.756 L255.258,218.5 L252.53,218.5 L252.53,211.504 C252.53,210.272 251.98,209.458 250.726,209.458 C249.428,209.458 248.35,210.25 248.35,212.296 L248.35,218.5 L245.644,218.5 L245.644,207.434 L247.866,207.434 Z M262.672,215.838 L265.356,207.434 L267.996,207.434 L263.926,218.94 C262.804,222.064 261.506,223.12 259.482,223.12 C258.69,223.12 257.964,222.878 257.502,222.592 L257.964,220.524 C258.404,220.832 258.756,220.986 259.262,220.986 C260.186,220.986 260.626,220.546 261.22,218.896 L257.172,207.434 L260.032,207.434 L262.628,215.838 L262.672,215.838 Z M276.29,215.97 L276.664,217.972 C275.96,218.478 274.992,218.764 274.024,218.764 C271.824,218.764 270.394,217.708 270.394,215.376 L270.394,209.458 L268.898,209.458 L268.898,207.434 L270.394,207.434 L270.394,205.08 L273.122,204.728 L273.122,207.434 L276.224,207.434 L276.224,209.458 L273.122,209.458 L273.122,215.046 C273.122,216.102 273.672,216.542 274.53,216.542 C275.19,216.542 275.674,216.366 276.29,215.97 Z M281.592,202.616 L281.592,209.282 C282.23,207.896 283.506,207.17 285.046,207.17 C287.07,207.17 288.5,208.446 288.5,210.756 L288.5,218.5 L285.772,218.5 L285.772,211.504 C285.772,210.272 285.222,209.458 283.968,209.458 C282.67,209.458 281.592,210.25 281.592,212.296 L281.592,218.5 L278.886,218.5 L278.886,202.616 L281.592,202.616 Z M294.682,204.2 C294.682,205.19 293.89,205.828 292.966,205.828 C292.042,205.828 291.272,205.19 291.272,204.2 C291.272,203.21 292.042,202.572 292.966,202.572 C293.89,202.572 294.682,203.21 294.682,204.2 Z M291.624,207.434 L294.33,207.434 L294.33,218.5 L291.624,218.5 L291.624,207.434 Z M299.808,207.434 L300.138,209.568 C300.71,208.028 302.052,207.17 303.746,207.17 C305.77,207.17 307.2,208.446 307.2,210.756 L307.2,218.5 L304.472,218.5 L304.472,211.504 C304.472,210.272 303.922,209.458 302.668,209.458 C301.37,209.458 300.292,210.25 300.292,212.296 L300.292,218.5 L297.586,218.5 L297.586,207.434 L299.808,207.434 Z M312.414,210.888 C312.414,212.186 313.184,212.912 314.416,212.912 C315.648,212.912 316.418,212.208 316.418,210.888 C316.418,209.568 315.648,208.886 314.416,208.886 C313.184,208.886 312.414,209.59 312.414,210.888 Z M320.246,219.182 C320.246,222.108 317.144,223.12 314.152,223.12 C311.556,223.12 308.96,222.306 308.96,220.15 C308.96,218.94 309.972,218.126 311.424,217.906 C310.566,217.642 310.016,216.96 310.016,216.058 C310.016,215.024 310.808,214.32 311.798,214.056 C310.566,213.462 309.796,212.362 309.796,210.888 C309.796,208.512 311.644,207.17 314.416,207.17 C315.648,207.17 316.704,207.456 317.518,207.984 C317.98,207.61 318.156,206.884 318.244,206.18 L320.51,206.95 C320.356,208.028 319.52,208.798 318.552,209.018 C318.904,209.546 319.08,210.184 319.08,210.888 C319.08,213.308 317.122,214.606 314.416,214.606 C313.866,214.606 313.338,214.54 312.854,214.43 C312.414,214.628 312.194,214.914 312.194,215.332 C312.194,215.816 312.568,216.036 313.14,216.036 L316.154,216.036 C318.86,216.036 320.246,217.18 320.246,219.182 Z M311.292,219.754 C311.292,220.876 312.568,221.36 314.196,221.36 C316.264,221.36 317.826,220.81 317.826,219.6 C317.826,218.852 317.254,218.434 316.088,218.434 L312.942,218.434 C311.974,218.434 311.292,218.918 311.292,219.754 Z M325.592,217.576 C325.592,219.82 324.162,221.778 321.632,221.778 L321.632,220.524 C323.062,220.436 323.92,219.424 323.92,218.39 C323.92,218.258 323.898,218.126 323.854,218.06 C323.722,218.126 323.524,218.192 323.348,218.192 C322.6,218.192 321.918,217.686 321.918,216.718 C321.918,215.75 322.644,215.134 323.524,215.134 C324.69,215.134 325.592,216.102 325.592,217.576 Z M61.922,242.734 L61.922,247.816 C61.922,248.454 62.23,248.674 62.692,248.674 C62.934,248.674 63.176,248.586 63.33,248.454 L63.44,250.302 C63.044,250.566 62.428,250.72 61.856,250.72 C60.932,250.72 60.228,250.368 59.81,249.73 C59.678,249.488 59.568,249.224 59.48,248.916 C59.04,250.082 57.72,250.72 56.29,250.72 C54.266,250.72 52.814,249.576 52.814,247.574 C52.814,245.374 54.662,244.054 58.116,244.054 C58.446,244.054 58.93,244.076 59.326,244.12 L59.326,242.888 C59.326,241.832 58.754,241.194 57.61,241.194 C56.466,241.194 55.894,241.854 55.872,242.932 L53.32,242.536 C53.54,240.402 55.278,239.17 57.742,239.17 C60.492,239.17 61.922,240.402 61.922,242.734 Z M59.326,246.452 L59.326,245.682 C59.084,245.66 58.754,245.616 58.424,245.616 C56.488,245.616 55.454,246.188 55.454,247.398 C55.454,248.278 56.07,248.872 57.126,248.872 C58.226,248.872 59.326,248.19 59.326,246.452 Z M67.708,239.434 L68.038,241.568 C68.61,240.028 69.952,239.17 71.646,239.17 C73.67,239.17 75.1,240.446 75.1,242.756 L75.1,250.5 L72.372,250.5 L72.372,243.504 C72.372,242.272 71.822,241.458 70.568,241.458 C69.27,241.458 68.192,242.25 68.192,244.296 L68.192,250.5 L65.486,250.5 L65.486,239.434 L67.708,239.434 Z M85.308,245.594 L85.308,243.922 C85.308,242.008 84.01,241.216 82.888,241.216 C81.348,241.216 80.27,242.426 80.27,245.088 C80.27,247.398 81.26,248.63 82.844,248.63 C84.076,248.63 85.308,247.728 85.308,245.594 Z M85.726,250.5 L85.44,248.432 C84.934,250.038 83.548,250.764 81.986,250.764 C79.522,250.764 77.498,248.828 77.498,245.176 C77.498,241.348 79.346,239.17 82.162,239.17 C83.834,239.17 84.912,239.962 85.308,240.886 L85.308,234.616 L88.014,234.616 L88.014,250.5 L85.726,250.5 Z M99.542,236.2 C99.542,237.19 98.75,237.828 97.826,237.828 C96.902,237.828 96.132,237.19 96.132,236.2 C96.132,235.21 96.902,234.572 97.826,234.572 C98.75,234.572 99.542,235.21 99.542,236.2 Z M96.484,239.434 L99.19,239.434 L99.19,250.5 L96.484,250.5 L96.484,239.434 Z M102.864,241.458 L101.346,241.458 L101.346,239.434 L102.864,239.434 L102.864,238.488 C102.864,235.958 104.514,234.352 106.912,234.352 C107.88,234.352 108.628,234.616 109.31,234.99 L108.65,236.948 C108.232,236.596 107.858,236.442 107.242,236.442 C106.142,236.442 105.57,237.212 105.57,238.51 L105.57,239.434 L108.188,239.434 L108.188,241.458 L105.57,241.458 L105.57,250.5 L102.864,250.5 L102.864,241.458 Z M117.978,234.616 L117.978,241.282 C118.616,239.896 119.892,239.17 121.432,239.17 C123.456,239.17 124.886,240.446 124.886,242.756 L124.886,250.5 L122.158,250.5 L122.158,243.504 C122.158,242.272 121.608,241.458 120.354,241.458 C119.056,241.458 117.978,242.25 117.978,244.296 L117.978,250.5 L115.272,250.5 L115.272,234.616 L117.978,234.616 Z M132.52,248.696 C133.642,248.696 134.434,248.19 134.742,246.98 L136.986,247.706 C136.392,249.862 134.544,250.764 132.498,250.764 C129.308,250.764 127.284,248.696 127.284,245.044 C127.284,241.436 129.308,239.17 132.52,239.17 C135.534,239.17 137.096,241.282 137.096,243.966 C137.096,244.538 136.986,245.132 136.876,245.44 L129.88,245.44 C129.946,247.486 130.914,248.696 132.52,248.696 Z M129.924,243.944 L134.5,243.944 C134.522,243.768 134.522,243.548 134.522,243.394 C134.522,242.162 133.818,241.128 132.476,241.128 C131.024,241.128 130.1,242.184 129.924,243.944 Z M147.524,234.616 L147.524,241.282 C148.162,239.896 149.438,239.17 150.978,239.17 C153.002,239.17 154.432,240.446 154.432,242.756 L154.432,250.5 L151.704,250.5 L151.704,243.504 C151.704,242.272 151.154,241.458 149.9,241.458 C148.602,241.458 147.524,242.25 147.524,244.296 L147.524,250.5 L144.818,250.5 L144.818,234.616 L147.524,234.616 Z M165.85,242.734 L165.85,247.816 C165.85,248.454 166.158,248.674 166.62,248.674 C166.862,248.674 167.104,248.586 167.258,248.454 L167.368,250.302 C166.972,250.566 166.356,250.72 165.784,250.72 C164.86,250.72 164.156,250.368 163.738,249.73 C163.606,249.488 163.496,249.224 163.408,248.916 C162.968,250.082 161.648,250.72 160.218,250.72 C158.194,250.72 156.742,249.576 156.742,247.574 C156.742,245.374 158.59,244.054 162.044,244.054 C162.374,244.054 162.858,244.076 163.254,244.12 L163.254,242.888 C163.254,241.832 162.682,241.194 161.538,241.194 C160.394,241.194 159.822,241.854 159.8,242.932 L157.248,242.536 C157.468,240.402 159.206,239.17 161.67,239.17 C164.42,239.17 165.85,240.402 165.85,242.734 Z M163.254,246.452 L163.254,245.682 C163.012,245.66 162.682,245.616 162.352,245.616 C160.416,245.616 159.382,246.188 159.382,247.398 C159.382,248.278 159.998,248.872 161.054,248.872 C162.154,248.872 163.254,248.19 163.254,246.452 Z M168.402,247.728 L170.756,247.156 C170.91,248.19 171.834,248.894 173.022,248.894 C174.188,248.894 174.958,248.432 174.958,247.508 C174.958,245.066 168.82,247.002 168.82,242.69 C168.82,240.446 170.712,239.17 173.11,239.17 C175.64,239.17 177.136,240.292 177.4,242.316 L175.046,242.602 C174.958,241.656 174.32,241.018 173.132,241.018 C172.032,241.018 171.372,241.546 171.372,242.448 C171.372,244.868 177.532,242.822 177.532,247.266 C177.532,249.532 175.618,250.764 173,250.764 C170.646,250.764 168.798,249.708 168.402,247.728 Z M193.504,242.734 L193.504,247.816 C193.504,248.454 193.812,248.674 194.274,248.674 C194.516,248.674 194.758,248.586 194.912,248.454 L195.022,250.302 C194.626,250.566 194.01,250.72 193.438,250.72 C192.514,250.72 191.81,250.368 191.392,249.73 C191.26,249.488 191.15,249.224 191.062,248.916 C190.622,250.082 189.302,250.72 187.872,250.72 C185.848,250.72 184.396,249.576 184.396,247.574 C184.396,245.374 186.244,244.054 189.698,244.054 C190.028,244.054 190.512,244.076 190.908,244.12 L190.908,242.888 C190.908,241.832 190.336,241.194 189.192,241.194 C188.048,241.194 187.476,241.854 187.454,242.932 L184.902,242.536 C185.122,240.402 186.86,239.17 189.324,239.17 C192.074,239.17 193.504,240.402 193.504,242.734 Z M190.908,246.452 L190.908,245.682 C190.666,245.66 190.336,245.616 190.006,245.616 C188.07,245.616 187.036,246.188 187.036,247.398 C187.036,248.278 187.652,248.872 188.708,248.872 C189.808,248.872 190.908,248.19 190.908,246.452 Z M199.29,239.434 L199.62,241.568 C200.192,240.028 201.534,239.17 203.228,239.17 C205.252,239.17 206.682,240.446 206.682,242.756 L206.682,250.5 L203.954,250.5 L203.954,243.504 C203.954,242.272 203.404,241.458 202.15,241.458 C200.852,241.458 199.774,242.25 199.774,244.296 L199.774,250.5 L197.068,250.5 L197.068,239.434 L199.29,239.434 Z M214.096,247.838 L216.78,239.434 L219.42,239.434 L215.35,250.94 C214.228,254.064 212.93,255.12 210.906,255.12 C210.114,255.12 209.388,254.878 208.926,254.592 L209.388,252.524 C209.828,252.832 210.18,252.986 210.686,252.986 C211.61,252.986 212.05,252.546 212.644,250.896 L208.596,239.434 L211.456,239.434 L214.052,247.838 L214.096,247.838 Z M233.786,254.856 L233.786,248.586 C233.192,250.192 231.894,250.764 230.464,250.764 C228,250.764 225.976,248.828 225.976,245.176 C225.976,241.348 227.824,239.17 230.662,239.17 C232.356,239.17 233.588,240.05 234.028,241.238 L234.358,239.434 L236.492,239.434 L236.492,254.856 L233.786,254.856 Z M233.786,245.594 L233.786,243.922 C233.786,242.03 232.488,241.216 231.366,241.216 C229.826,241.216 228.748,242.426 228.748,245.11 C228.748,247.42 229.738,248.63 231.322,248.63 C232.554,248.63 233.786,247.728 233.786,245.594 Z M246.854,250.5 L246.524,248.432 C246.018,249.994 244.764,250.764 243.07,250.764 C241.244,250.764 239.638,249.62 239.638,247.2 L239.638,239.434 L242.344,239.434 L242.344,246.584 C242.344,247.86 242.982,248.608 244.126,248.608 C245.38,248.608 246.392,247.728 246.392,245.682 L246.392,239.434 L249.12,239.434 L249.12,250.5 L246.854,250.5 Z M256.886,248.696 C258.008,248.696 258.8,248.19 259.108,246.98 L261.352,247.706 C260.758,249.862 258.91,250.764 256.864,250.764 C253.674,250.764 251.65,248.696 251.65,245.044 C251.65,241.436 253.674,239.17 256.886,239.17 C259.9,239.17 261.462,241.282 261.462,243.966 C261.462,244.538 261.352,245.132 261.242,245.44 L254.246,245.44 C254.312,247.486 255.28,248.696 256.886,248.696 Z M254.29,243.944 L258.866,243.944 C258.888,243.768 258.888,243.548 258.888,243.394 C258.888,242.162 258.184,241.128 256.842,241.128 C255.39,241.128 254.466,242.184 254.29,243.944 Z M262.958,247.728 L265.312,247.156 C265.466,248.19 266.39,248.894 267.578,248.894 C268.744,248.894 269.514,248.432 269.514,247.508 C269.514,245.066 263.376,247.002 263.376,242.69 C263.376,240.446 265.268,239.17 267.666,239.17 C270.196,239.17 271.692,240.292 271.956,242.316 L269.602,242.602 C269.514,241.656 268.876,241.018 267.688,241.018 C266.588,241.018 265.928,241.546 265.928,242.448 C265.928,244.868 272.088,242.822 272.088,247.266 C272.088,249.532 270.174,250.764 267.556,250.764 C265.202,250.764 263.354,249.708 262.958,247.728 Z M280.778,247.97 L281.152,249.972 C280.448,250.478 279.48,250.764 278.512,250.764 C276.312,250.764 274.882,249.708 274.882,247.376 L274.882,241.458 L273.386,241.458 L273.386,239.434 L274.882,239.434 L274.882,237.08 L277.61,236.728 L277.61,239.434 L280.712,239.434 L280.712,241.458 L277.61,241.458 L277.61,247.046 C277.61,248.102 278.16,248.542 279.018,248.542 C279.678,248.542 280.162,248.366 280.778,247.97 Z M286.432,236.2 C286.432,237.19 285.64,237.828 284.716,237.828 C283.792,237.828 283.022,237.19 283.022,236.2 C283.022,235.21 283.792,234.572 284.716,234.572 C285.64,234.572 286.432,235.21 286.432,236.2 Z M283.374,239.434 L286.08,239.434 L286.08,250.5 L283.374,250.5 L283.374,239.434 Z M299.126,244.956 C299.126,248.674 297.014,250.764 293.868,250.764 C290.744,250.764 288.61,248.674 288.61,244.956 C288.61,241.26 290.744,239.17 293.868,239.17 C297.014,239.17 299.126,241.26 299.126,244.956 Z M296.42,244.956 C296.42,242.514 295.562,241.194 293.868,241.194 C292.174,241.194 291.338,242.514 291.338,244.956 C291.338,247.42 292.174,248.74 293.868,248.74 C295.562,248.74 296.42,247.42 296.42,244.956 Z M303.9,239.434 L304.23,241.568 C304.802,240.028 306.144,239.17 307.838,239.17 C309.862,239.17 311.292,240.446 311.292,242.756 L311.292,250.5 L308.564,250.5 L308.564,243.504 C308.564,242.272 308.014,241.458 306.76,241.458 C305.462,241.458 304.384,242.25 304.384,244.296 L304.384,250.5 L301.678,250.5 L301.678,239.434 L303.9,239.434 Z M313.404,247.728 L315.758,247.156 C315.912,248.19 316.836,248.894 318.024,248.894 C319.19,248.894 319.96,248.432 319.96,247.508 C319.96,245.066 313.822,247.002 313.822,242.69 C313.822,240.446 315.714,239.17 318.112,239.17 C320.642,239.17 322.138,240.292 322.402,242.316 L320.048,242.602 C319.96,241.656 319.322,241.018 318.134,241.018 C317.034,241.018 316.374,241.546 316.374,242.448 C316.374,244.868 322.534,242.822 322.534,247.266 C322.534,249.532 320.62,250.764 318.002,250.764 C315.648,250.764 313.8,249.708 313.404,247.728 Z M56.334,266.616 L56.334,273.282 C56.972,271.896 58.248,271.17 59.788,271.17 C61.812,271.17 63.242,272.446 63.242,274.756 L63.242,282.5 L60.514,282.5 L60.514,275.504 C60.514,274.272 59.964,273.458 58.71,273.458 C57.412,273.458 56.334,274.25 56.334,276.296 L56.334,282.5 L53.628,282.5 L53.628,266.616 L56.334,266.616 Z M70.876,280.696 C71.998,280.696 72.79,280.19 73.098,278.98 L75.342,279.706 C74.748,281.862 72.9,282.764 70.854,282.764 C67.664,282.764 65.64,280.696 65.64,277.044 C65.64,273.436 67.664,271.17 70.876,271.17 C73.89,271.17 75.452,273.282 75.452,275.966 C75.452,276.538 75.342,277.132 75.232,277.44 L68.236,277.44 C68.302,279.486 69.27,280.696 70.876,280.696 Z M68.28,275.944 L72.856,275.944 C72.878,275.768 72.878,275.548 72.878,275.394 C72.878,274.162 72.174,273.128 70.832,273.128 C69.38,273.128 68.456,274.184 68.28,275.944 Z M82.448,276.978 C82.448,273.348 84.494,271.17 87.64,271.17 C90.148,271.17 91.798,272.6 92.018,274.734 L89.642,275.24 C89.554,274.118 88.894,273.216 87.662,273.216 C85.99,273.216 85.154,274.734 85.154,276.978 C85.154,279.244 85.99,280.718 87.684,280.718 C88.828,280.718 89.554,279.882 89.664,278.672 L92.062,279.31 C91.688,281.466 90.038,282.764 87.684,282.764 C84.494,282.764 82.448,280.586 82.448,276.978 Z M102.71,274.734 L102.71,279.816 C102.71,280.454 103.018,280.674 103.48,280.674 C103.722,280.674 103.964,280.586 104.118,280.454 L104.228,282.302 C103.832,282.566 103.216,282.72 102.644,282.72 C101.72,282.72 101.016,282.368 100.598,281.73 C100.466,281.488 100.356,281.224 100.268,280.916 C99.828,282.082 98.508,282.72 97.078,282.72 C95.054,282.72 93.602,281.576 93.602,279.574 C93.602,277.374 95.45,276.054 98.904,276.054 C99.234,276.054 99.718,276.076 100.114,276.12 L100.114,274.888 C100.114,273.832 99.542,273.194 98.398,273.194 C97.254,273.194 96.682,273.854 96.66,274.932 L94.108,274.536 C94.328,272.402 96.066,271.17 98.53,271.17 C101.28,271.17 102.71,272.402 102.71,274.734 Z M100.114,278.452 L100.114,277.682 C99.872,277.66 99.542,277.616 99.212,277.616 C97.276,277.616 96.242,278.188 96.242,279.398 C96.242,280.278 96.858,280.872 97.914,280.872 C99.014,280.872 100.114,280.19 100.114,278.452 Z M108.496,271.434 L108.826,273.568 C109.398,272.028 110.74,271.17 112.434,271.17 C114.458,271.17 115.888,272.446 115.888,274.756 L115.888,282.5 L113.16,282.5 L113.16,275.504 C113.16,274.272 112.61,273.458 111.356,273.458 C110.058,273.458 108.98,274.25 108.98,276.296 L108.98,282.5 L106.274,282.5 L106.274,271.434 L108.496,271.434 Z M127.284,268.2 C127.284,269.19 126.492,269.828 125.568,269.828 C124.644,269.828 123.874,269.19 123.874,268.2 C123.874,267.21 124.644,266.572 125.568,266.572 C126.492,266.572 127.284,267.21 127.284,268.2 Z M124.226,271.434 L126.932,271.434 L126.932,282.632 C126.932,286.284 124.49,287.648 121.432,286.9 L121.674,284.744 C123.302,285.25 124.226,284.722 124.226,282.566 L124.226,271.434 Z M137.294,282.5 L136.964,280.432 C136.458,281.994 135.204,282.764 133.51,282.764 C131.684,282.764 130.078,281.62 130.078,279.2 L130.078,271.434 L132.784,271.434 L132.784,278.584 C132.784,279.86 133.422,280.608 134.566,280.608 C135.82,280.608 136.832,279.728 136.832,277.682 L136.832,271.434 L139.56,271.434 L139.56,282.5 L137.294,282.5 Z M141.804,279.728 L144.158,279.156 C144.312,280.19 145.236,280.894 146.424,280.894 C147.59,280.894 148.36,280.432 148.36,279.508 C148.36,277.066 142.222,279.002 142.222,274.69 C142.222,272.446 144.114,271.17 146.512,271.17 C149.042,271.17 150.538,272.292 150.802,274.316 L148.448,274.602 C148.36,273.656 147.722,273.018 146.534,273.018 C145.434,273.018 144.774,273.546 144.774,274.448 C144.774,276.868 150.934,274.822 150.934,279.266 C150.934,281.532 149.02,282.764 146.402,282.764 C144.048,282.764 142.2,281.708 141.804,279.728 Z M159.624,279.97 L159.998,281.972 C159.294,282.478 158.326,282.764 157.358,282.764 C155.158,282.764 153.728,281.708 153.728,279.376 L153.728,273.458 L152.232,273.458 L152.232,271.434 L153.728,271.434 L153.728,269.08 L156.456,268.728 L156.456,271.434 L159.558,271.434 L159.558,273.458 L156.456,273.458 L156.456,279.046 C156.456,280.102 157.006,280.542 157.864,280.542 C158.524,280.542 159.008,280.366 159.624,279.97 Z M166.422,279.728 L168.776,279.156 C168.93,280.19 169.854,280.894 171.042,280.894 C172.208,280.894 172.978,280.432 172.978,279.508 C172.978,277.066 166.84,279.002 166.84,274.69 C166.84,272.446 168.732,271.17 171.13,271.17 C173.66,271.17 175.156,272.292 175.42,274.316 L173.066,274.602 C172.978,273.656 172.34,273.018 171.152,273.018 C170.052,273.018 169.392,273.546 169.392,274.448 C169.392,276.868 175.552,274.822 175.552,279.266 C175.552,281.532 173.638,282.764 171.02,282.764 C168.666,282.764 166.818,281.708 166.422,279.728 Z M180.722,266.616 L180.722,273.282 C181.36,271.896 182.636,271.17 184.176,271.17 C186.2,271.17 187.63,272.446 187.63,274.756 L187.63,282.5 L184.902,282.5 L184.902,275.504 C184.902,274.272 184.352,273.458 183.098,273.458 C181.8,273.458 180.722,274.25 180.722,276.296 L180.722,282.5 L178.016,282.5 L178.016,266.616 L180.722,266.616 Z M200.544,276.956 C200.544,280.674 198.432,282.764 195.286,282.764 C192.162,282.764 190.028,280.674 190.028,276.956 C190.028,273.26 192.162,271.17 195.286,271.17 C198.432,271.17 200.544,273.26 200.544,276.956 Z M197.838,276.956 C197.838,274.514 196.98,273.194 195.286,273.194 C193.592,273.194 192.756,274.514 192.756,276.956 C192.756,279.42 193.592,280.74 195.286,280.74 C196.98,280.74 197.838,279.42 197.838,276.956 Z M212.886,276.956 C212.886,280.674 210.774,282.764 207.628,282.764 C204.504,282.764 202.37,280.674 202.37,276.956 C202.37,273.26 204.504,271.17 207.628,271.17 C210.774,271.17 212.886,273.26 212.886,276.956 Z M210.18,276.956 C210.18,274.514 209.322,273.194 207.628,273.194 C205.934,273.194 205.098,274.514 205.098,276.956 C205.098,279.42 205.934,280.74 207.628,280.74 C209.322,280.74 210.18,279.42 210.18,276.956 Z M221.664,279.97 L222.038,281.972 C221.334,282.478 220.366,282.764 219.398,282.764 C217.198,282.764 215.768,281.708 215.768,279.376 L215.768,273.458 L214.272,273.458 L214.272,271.434 L215.768,271.434 L215.768,269.08 L218.496,268.728 L218.496,271.434 L221.598,271.434 L221.598,273.458 L218.496,273.458 L218.496,279.046 C218.496,280.102 219.046,280.542 219.904,280.542 C220.564,280.542 221.048,280.366 221.664,279.97 Z M238.626,273.502 C239.22,272.05 240.496,271.17 242.08,271.17 C244.06,271.17 245.49,272.358 245.49,274.668 L245.49,282.5 L242.784,282.5 L242.784,275.482 C242.784,274.25 242.3,273.458 241.002,273.458 C239.858,273.458 238.846,274.25 238.846,276.274 L238.846,282.5 L236.118,282.5 L236.118,275.482 C236.118,274.25 235.634,273.458 234.358,273.458 C233.192,273.458 232.18,274.272 232.18,276.296 L232.18,282.5 L229.474,282.5 L229.474,271.434 L231.696,271.434 L232.026,273.568 C232.532,272.028 233.852,271.17 235.414,271.17 C236.998,271.17 238.208,272.006 238.626,273.502 Z M253.146,280.696 C254.268,280.696 255.06,280.19 255.368,278.98 L257.612,279.706 C257.018,281.862 255.17,282.764 253.124,282.764 C249.934,282.764 247.91,280.696 247.91,277.044 C247.91,273.436 249.934,271.17 253.146,271.17 C256.16,271.17 257.722,273.282 257.722,275.966 C257.722,276.538 257.612,277.132 257.502,277.44 L250.506,277.44 C250.572,279.486 251.54,280.696 253.146,280.696 Z M250.55,275.944 L255.126,275.944 C255.148,275.768 255.148,275.548 255.148,275.394 C255.148,274.162 254.444,273.128 253.102,273.128 C251.65,273.128 250.726,274.184 250.55,275.944 Z M273.738,274.734 L273.738,279.816 C273.738,280.454 274.046,280.674 274.508,280.674 C274.75,280.674 274.992,280.586 275.146,280.454 L275.256,282.302 C274.86,282.566 274.244,282.72 273.672,282.72 C272.748,282.72 272.044,282.368 271.626,281.73 C271.494,281.488 271.384,281.224 271.296,280.916 C270.856,282.082 269.536,282.72 268.106,282.72 C266.082,282.72 264.63,281.576 264.63,279.574 C264.63,277.374 266.478,276.054 269.932,276.054 C270.262,276.054 270.746,276.076 271.142,276.12 L271.142,274.888 C271.142,273.832 270.57,273.194 269.426,273.194 C268.282,273.194 267.71,273.854 267.688,274.932 L265.136,274.536 C265.356,272.402 267.094,271.17 269.558,271.17 C272.308,271.17 273.738,272.402 273.738,274.734 Z M271.142,278.452 L271.142,277.682 C270.9,277.66 270.57,277.616 270.24,277.616 C268.304,277.616 267.27,278.188 267.27,279.398 C267.27,280.278 267.886,280.872 268.942,280.872 C270.042,280.872 271.142,280.19 271.142,278.452 Z M281.79,276.978 C281.79,273.348 283.836,271.17 286.982,271.17 C289.49,271.17 291.14,272.6 291.36,274.734 L288.984,275.24 C288.896,274.118 288.236,273.216 287.004,273.216 C285.332,273.216 284.496,274.734 284.496,276.978 C284.496,279.244 285.332,280.718 287.026,280.718 C288.17,280.718 288.896,279.882 289.006,278.672 L291.404,279.31 C291.03,281.466 289.38,282.764 287.026,282.764 C283.836,282.764 281.79,280.586 281.79,276.978 Z M302.052,274.734 L302.052,279.816 C302.052,280.454 302.36,280.674 302.822,280.674 C303.064,280.674 303.306,280.586 303.46,280.454 L303.57,282.302 C303.174,282.566 302.558,282.72 301.986,282.72 C301.062,282.72 300.358,282.368 299.94,281.73 C299.808,281.488 299.698,281.224 299.61,280.916 C299.17,282.082 297.85,282.72 296.42,282.72 C294.396,282.72 292.944,281.576 292.944,279.574 C292.944,277.374 294.792,276.054 298.246,276.054 C298.576,276.054 299.06,276.076 299.456,276.12 L299.456,274.888 C299.456,273.832 298.884,273.194 297.74,273.194 C296.596,273.194 296.024,273.854 296.002,274.932 L293.45,274.536 C293.67,272.402 295.408,271.17 297.872,271.17 C300.622,271.17 302.052,272.402 302.052,274.734 Z M299.456,278.452 L299.456,277.682 C299.214,277.66 298.884,277.616 298.554,277.616 C296.618,277.616 295.584,278.188 295.584,279.398 C295.584,280.278 296.2,280.872 297.256,280.872 C298.356,280.872 299.456,280.19 299.456,278.452 Z M309.928,280.278 L310.126,282.236 C309.642,282.522 308.894,282.72 308.102,282.72 C306.628,282.72 305.418,282.016 305.418,280.08 L305.418,266.616 L308.124,266.616 L308.124,279.574 C308.124,280.256 308.432,280.564 309.026,280.564 C309.334,280.564 309.62,280.476 309.928,280.278 Z M316.594,280.278 L316.792,282.236 C316.308,282.522 315.56,282.72 314.768,282.72 C313.294,282.72 312.084,282.016 312.084,280.08 L312.084,266.616 L314.79,266.616 L314.79,279.574 C314.79,280.256 315.098,280.564 315.692,280.564 C316,280.564 316.286,280.476 316.594,280.278 Z M322.182,280.894 C322.182,281.884 321.412,282.676 320.422,282.676 C319.41,282.676 318.662,281.884 318.662,280.894 C318.662,279.904 319.41,279.134 320.422,279.134 C321.412,279.134 322.182,279.904 322.182,280.894 Z" id="ThefactthatIcanaddmyaccountantinasaXerouserisfantastic.Idon'thavetobringhimanything,andifhehasanyquestionshecanjustshootmeacall." fill="#2B3B4C" fill-rule="nonzero"></path>
        </g>
    </g>
</svg>