<svg xmlns="http://www.w3.org/2000/svg" id="Layer_1" viewBox="0 0 406 258.8"><style>.st0{fill:#f2f5f8}.st1{fill:#f8b7b6}.st2{fill:#cdd2df}.st3{fill:#dfe4ea}.st4{fill:#393253}.st5{fill:#5ec4ff}.st6{fill:#ffd4d4}.st7{fill:#5f5570}.st8{fill:#8c5e68}.st11{fill:#f4f4f5}.st12{fill:#e2e6e8}.st13{opacity:.5;enable-background:new}.st13,.st14{fill:#bac1d0}.st17{fill:#c4ced1}.st18{fill:none;stroke:#32b4ff;stroke-miterlimit:10}</style><path d="M182.9 233.6l3.7-195.5h8v185.7" class="st0"/><g class="spinny-arm"><path d="M201.2 97.3l5.6-1.2c1-.2 2 .4 2.2 1.4v.1l.7 5.4-6.3 1.4c-1.5.3-2.9-.6-3.3-2.1v-.2l-.4-2.7c-.2-.9.5-1.9 1.5-2.1z" class="st1"/><path d="M154.8 103.8l17.3 13.7 29.4-13.8 1.2-4.5-25.8 6-23.1-16.9" class="st1"/><path d="M163.9 95.3l-9.1 11.2-23.6-18.9c-3-2.5-3.4-7-.9-10l.9-1.1c2.5-3 7-3.4 10-.9l22.7 19.7z" class="st2"/><animateTransform fill="freeze" attributeName="transform" attributeType="XML" begin="3s" calcMode="spline" dur="1s" keySplines=".5 0 .5 1" type="rotate" values="0 137 83;-30 137 83"/></g><path d="M115.6 250.8l1.9-212.7h8l1.8 202.9M225.9 201.3V191c0-1.4-1.1-2.4-2.4-2.4H216v-1.7c0-1.2-1-2.1-2.1-2.1h-7.5c-1.2 0-2.1 1-2.1 2.1v1.7H197c-1.4 0-2.4 1.1-2.4 2.4v10.4h-2V215h35.2v-13.7h-1.9z" class="st0"/><path d="M140.6 214.3h172.9v41.8H140.6z" class="st0"/><path d="M30.3 251.6h371.3v5.9H30.3z" class="st2"/><path d="M135.3 100.4h3.9v146.2h-3.9z" class="st3"/><g class="wheel"><path d="M166 104.1h90.4v1H166z" class="st2" transform="rotate(-57.77 211.16 104.62)"/><path d="M210.6 59.4h1v90.4h-1z" class="st2" transform="rotate(-57.79 211.15 104.62)"/><path d="M165.9 104.1h90.4v1h-90.4z" class="st2" transform="rotate(-12.8 211.2 104.64)"/><path d="M210.6 59.4h1v90.4h-1z" class="st2" transform="rotate(-12.79 211.14 104.59)"/><path d="M211.2 152.9c-3.5 0-7-.4-10.5-1.1a48.1 48.1 0 0 1-36.5-57.3c5.8-25.9 31.4-42.2 57.3-36.5s42.2 31.4 36.5 57.3c-4.8 22-24.3 37.6-46.8 37.6zm-.1-90.4c-23.3 0-42.1 18.9-42 42.2 0 23.3 18.9 42.1 42.2 42 8 0 15.8-2.3 22.6-6.6a42.17 42.17 0 0 0 12.8-58.2 42 42 0 0 0-26.4-18.4c-3.1-.7-6.1-1-9.2-1z" class="st4"/><animateTransform fill="freeze" attributeName="transform" attributeType="XML" begin="3s" calcMode="spline" dur="2s" keySplines=".5 0 .5 1" type="rotate" values="0 211 105;180 211 105"/></g><path d="M62.8 59.4h1v90.4h-1z" class="st2" transform="rotate(-25.23 63.27 104.59)"/><path d="M18.1 104.1h90.4v1H18.1z" class="st2" transform="rotate(-25.21 63.28 104.63)"/><path d="M18.1 104.1h90.4v1H18.1z" class="st2" transform="rotate(-70.26 63.29 104.6)"/><path d="M62.8 59.4h1v90.4h-1z" class="st2" transform="rotate(-70.23 63.26 104.6)"/><path d="M63.3 152.9c-26.7 0-48.3-21.6-48.3-48.3s21.6-48.3 48.3-48.3c26.7 0 48.3 21.6 48.3 48.3 0 26.7-21.7 48.3-48.3 48.3zm0-90.4c-23.3 0-42.1 18.8-42.1 42.1s18.8 42.1 42.1 42.1 42.1-18.8 42.1-42.1c0-23.2-18.9-42.1-42.1-42.1z" class="st4"/><path d="M98.7 187.9c-.2 0-.4 0-.6-.1-1.4-.3-2.3-1.7-1.9-3.1l18-77.5H64c-1.4 0-2.6-1.2-2.6-2.6 0-1.4 1.2-2.6 2.6-2.6h53.3c1.4 0 2.6 1.2 2.6 2.6 0 .2 0 .4-.1.6l-18.6 80.7c-.3 1.1-1.3 2-2.5 2z" class="st5"/><path d="M196.9 168.4h-94c-1.4 0-2.6-1.2-2.6-2.6s1.2-2.6 2.6-2.6h86.4l-73.5-56.6c-1.1-.9-1.2-2.5-.3-3.6.9-1 2.4-1.2 3.5-.5l79.5 61.2c1.1.9 1.3 2.5.5 3.6-.6.7-1.3 1.1-2.1 1.1z" class="st5"/><path d="M102.9 168.4c-.9 0-1.7-.5-2.2-1.2L61.9 106a2.6 2.6 0 1 1 4.4-2.8l38.8 61.2c.8 1.2.5 2.8-.7 3.6-.6.3-1.1.5-1.5.4zM192.2 188.4c-.2 0-.4 0-.6-.1-1.4-.3-2.2-1.7-1.9-3.1l19-81.2c.2-1.4 1.5-2.4 2.9-2.2 1.4.2 2.4 1.5 2.2 2.9 0 .2-.1.3-.1.5l-19 81.2c-.3 1.2-1.3 2-2.5 2z" class="st5"/><path d="M81.7 190.8l2.4-7.4c.4-1.4 1.7-2.3 3.2-2.3h33.1c1 0 1.8.8 1.8 1.8 0 .7-.4 1.3-1.1 1.6-9.4 3.9-25.4 9.9-35.9 10.7-1.8.1-3.4-1.2-3.6-3.1-.1-.5 0-.9.1-1.3zM192.2 188.4c-.2 0-.4 0-.6-.1-1.4-.3-2.2-1.7-1.9-3.1l1.4-6c2.1-9 11.2-14.7 20.2-12.5.1 0 .2 0 .3.1l2 .5c1.4.3 2.3 1.6 2 3-.3 1.4-1.6 2.3-3 2-.1 0-.2 0-.2-.1l-2-.5c-6.2-1.6-12.6 2.2-14.1 8.5v.2l-1.4 5.9c-.5 1.3-1.5 2.1-2.7 2.1z" class="st4"/><circle cx="135.4" cy="127.8" r="4.4" class="st3"/><path d="M194.2 126.3l.2.2c.1.1.2.1.2.1l-.4.1v-.4z" class="st4"/><path d="M153.6 57.7l-11.8-5.2-7.5 20.5c-1.2 3.5 1.8 2.5 5 4.4 2.5 1.6 5.3 2.6 8.1 2.9l6.2-22.6z" class="st6"/><path d="M159.8 77.3c-3.2.4-6.8.1-10-.8 0 0-5.9-2.8-6.5-6.6l1.1-6.3c-1.2.3-2.9-.1-3.4-4 0 0-2-6.8 3.5-6.8.3 0 .6.1.9.2.4.2.8.5 1.1.8l2.6-11.3.4-.2 2.4-1.4 13 5 .5.2 1 3.6v.2s2.5 6.3-2 13.9c-1.4 2.4-1.3 5.4-4.6 13.5z" class="st6"/><path d="M166.5 49.9c-3.4-1.7-7-2.7-10.8-3l.3 4.9-3.6-.4-2.6-5.2-.2-3.8L152 41l13 5 1.5 3.8v.1zM148.4 76.9l11.4.4-10.7-3.1z" class="st1"/><path d="M166.5 49.9c-1.5-1.6-3.4-2.8-5.5-3.4-2.1-.6-4.3-.9-6.4-.9.4 1.7.9 3.4 1.3 5.1.3.7.3 1.5-.1 2.2-.5.6-1.3.6-2 .9-1.5.8-1.6 3.4-3.2 4-1.2.2-2.4-.3-3-1.3-.6-1-1.3-1.9-2-2.8-.5-.5-1.3-.4-1.8.1-.1.1-.2.3-.2.4l-.8 2.4s-3.3 2.1-6.1 10c.4-2.6.2-5.3-.4-7.9-3.5 1.6-7.5-.6-7.9-.8 3 1.4 4.8-1.9 4.8-1.9l.3-.6-.9.2a3.8 3.8 0 0 1-3.9-3.2c-.3-1.9.4-3.7 1.7-5.1.8-1 2-1.7 3.4-1.8 1.4 0 2.7.5 3.6 1.5.4.4 1 .9 1.6.6.2-.2.4-.4.4-.7 1.3-3.7 4.1-6.7 7.8-8.2 2.8-.9 5.8-1 8.6-.1s5.4 2.3 7.6 4.1c1.4 1 2.5 2.2 3.4 3.7.4 1.2.6 2.7-.3 3.5z" class="st7"/><path d="M155.8 150.8c-14.4 5.4-26.1 6.6-31.2 2.6s-7.4-36.8-7.4-36.8c0-17.5 3.5-28.1 7.3-34.4 4.7-7.7 9.9-9.2 9.9-9.2l13.1 7.3c-.9 6.2-.7 14.2 0 22.6 2.1 22.7 8.3 47.9 8.3 47.9z" class="st2"/><path d="M117.1 116.6s2.2 32.8 7.4 36.8 16.8 2.9 31.2-2.6c0 0-6.2-25.2-8.3-47.8l.2 24.4c0 2.7-2.1 4.8-4.8 4.8h-3.6c-2.1 0-3.9-1.3-4.6-3.2 0 0-18.2-42.8-1-47.3 1.6-.4 3.2-.1 4.6.9l8.6 5.8.1-3.1s-12.1-16.2-20.7-5.6c0 0-9.1 9.5-1.7 37l-7.4-.1zM156.1 75.4c.7.8 1.8 1 2.8.5.9-.5 1.8.8.9 1.3-1.5.9-3.5.6-4.7-.6-.7-.7.3-1.9 1-1.2zM162.3 69.8c1 .3.7 1.9-.3 1.6-.4-.1-4.4-1.3-4.6-.7-.2 1-1.9.7-1.6-.3.7-2.6 4.8-1.1 6.5-.6z" class="st7"/><path d="M125.5 156.5l.6 1.6c6.1 18.2 7.5 37.6 4 56.5l-6 31.9h12.5l21.2-62.1 7.3 9.4" class="st4"/><path d="M173.4 220.9l-1 25.2h-11.7l-2.7-23.5c-1.9-16.4-15-35.8-26.4-47.7-.5-.5-.9-1-1.4-1.5-7.8-8.5-6.9-15-9-26.4l-1.6-8.7 36.1 12.3 1 1.8c7.3 12.7 12.3 26.6 14.8 41.1.9 4.8 1.4 9.7 1.7 14.6.4 4.3.4 8.6.2 12.8z" class="st7"/><path d="M152.4 256h-30.2c.1-2.6.5-5.2 1.1-7.7 6.2 3.7 10.7-1.8 10.7-1.8 1.5 3 6.7 4.4 9.5 5.1.3.1.5.1.7.2l.4.1c.5.1 1 .1 1.5.2 6 .5 6.3 3.5 6.3 3.9z" class="st8"/><path fill="#754b56" d="M122.1 256.1h30.2v2.2h-30.2z"/><path fill="#bb848a" d="M190.7 256h-30.2c.1-2.6.5-5.2 1.1-7.7 6.2 3.7 10.8-1.8 10.8-1.8 1.5 3 6.7 4.4 9.5 5.1.3.1.5.1.7.2l.4.1c.5.1 1 .1 1.5.2 6 .5 6.2 3.5 6.2 3.9z"/><path d="M160.5 256.1h30.2v2.2h-30.2z" class="st8"/><path d="M28.1 181.9H14.3c-1.7 0-3-1.3-3-3v-3.2c0-1.7 1.3-3 3-3h13.8c1.7 0 3 1.3 3 3v3.2c0 1.6-1.4 3-3 3zM39.3 170.4H25.5c-1.7 0-3-1.3-3-3v-3.2c0-1.7 1.3-3 3-3h13.8c1.7 0 3 1.3 3 3v3.2a3 3 0 0 1-3 3z" class="st11"/><path d="M16.8 170.4H3c-1.7 0-3-1.3-3-3v-3.2c0-1.7 1.3-3 3-3h13.8c1.7 0 3 1.3 3 3v3.2a3 3 0 0 1-3 3z" class="st12"/><path d="M261.5 38.1h-13.8c-1.7 0-3-1.3-3-3v-3.2c0-1.7 1.3-3 3-3h13.8c1.7 0 3 1.3 3 3v3.2c0 1.7-1.3 3-3 3z" class="st11"/><path d="M239 38.1h-13.8c-1.7 0-3-1.3-3-3v-3.2c0-1.7 1.3-3 3-3H239c1.7 0 3 1.3 3 3v3.2a3 3 0 0 1-3 3z" class="st12"/><path d="M44.2 20.7H30.4c-1.7 0-3-1.3-3-3v-3.2c0-1.7 1.3-3 3-3h13.8c1.7 0 3 1.3 3 3v3.2a3 3 0 0 1-3 3zM55.5 9.2H41.7c-1.7 0-3-1.3-3-3V3c0-1.7 1.3-3 3-3h13.8c1.7 0 3 1.3 3 3v3.2c0 1.6-1.4 3-3 3z" class="st11"/><path d="M174.4 249.4l-13.8.4-.1-3.7h13.9zM137.1 249.4l-14.4.7v-4h14.4zM173.3 208.2l-1.5.3c-1.6.3-3.1-.7-3.4-2.3l-1.7-8.8c-.3-1.6.7-3.1 2.3-3.4l2.6-.5c.9 4.9 1.4 9.8 1.7 14.7z" class="st4"/><path d="M261.5 192.9v-18c0-1.4-1.1-2.4-2.5-2.4h-8.8v-4c0-1.2-1-2.1-2.1-2.1h-9.2c-1.2 0-2.1 1-2.1 2.1v4H228c-1.4 0-2.4 1.1-2.4 2.4v18h-2.3v21.8h40.2v-21.8h-2z" class="st0"/><path d="M398.5 158.9H257.1V190h145.5v-31.1z" class="st3"/><path d="M398.5 158.9H257.1v4.6h145.5v-4.6z" class="st13"/><path d="M253.6 154.2H406v6.7H253.6z" class="st3"/><path d="M296.6 174.4H363v2.2h-66.4z" class="st14"/><path d="M398.5 193.3H257.1v31.1h145.5v-31.1z" class="st3"/><path d="M398.5 193.3H257.1v4.6h145.5v-4.6z" class="st13"/><path d="M253.6 188.6H406v6.7H253.6z" class="st3"/><path d="M296.6 208.8H363v2.2h-66.4z" class="st14"/><path d="M398.5 227.7H257.1v31.1h145.5v-31.1z" class="st3"/><path d="M398.5 227.7H257.1v4.6h145.5v-4.6z" class="st13"/><path d="M253.6 223H406v6.7H253.6z" class="st3"/><path d="M296.6 243.2H363v2.2h-66.4z" class="st14"/><path fill="#6c7279" d="M369.9 93.7h-81.2c-1.5 0-2.6 1.2-2.6 2.6V152h86.5V96.4c-.1-1.5-1.3-2.7-2.7-2.7zm-1.6 52.9h-78.1v-49h78.1v49z"/><path fill="#9ba3b3" d="M381.7 149.2v1.8c0 1.7-1.4 3.1-3.1 3.1h-98.7c-1.7 0-3.1-1.4-3.1-3.1v-1.8h104.9z"/><path d="M338 151.5c1.3 0 2.3-1 2.3-2.3h-22c0 1.3 1 2.3 2.3 2.3H338z" class="st14"/><path d="M300.1 104.1h57.3v42.5h-57.3z" class="st11"/><path d="M316.7 115H350v2.9h-33.3zM316.7 124.8H350v2.9h-33.3zM316.7 134.7H350v2.9h-33.3z" class="st17"/><path d="M306.5 115.7l.8.9 1.3 1.2 4.7-4.7M306.5 125.6l.8.9 1.3 1.2 4.7-4.7M306.5 135.5l.8.9 1.3 1.2 4.7-4.7" class="st18"/><circle cx="368.5" cy="96.2" r="15.1" class="st11"/><path fill="#70cf32" d="M368.5 85.4c6 0 10.8 4.8 10.8 10.8-1.9-7.7-10.3-8.8-14.1-6.8a7.4 7.4 0 0 0-3.1 9.9c-3-1.7-3.9-9.6 1.4-12.7a9.5 9.5 0 0 1 5-1.2M379 99.2c-1.1 3.9-4.3 6.9-8.3 7.7-1.1.2-2.2.2-3.3.2a10.85 10.85 0 0 1-7.5-17.4c-2.3 4.9-.6 11.1 5.3 11.2-.3 2.1 2 1.6 2.7 3.8l.2.8c-.8.9.1 1.6 1 1.2.4-.2.6-.6.4-1-.1-.2-.3-.4-.6-.5-.2-.4-.4-.9-.5-1.3-.2-1.1.2-2.1 1.6-1.5.7.3 1.3.6 2 .9 0 .3.2.6.6.8.6.2 1.3 0 1.6-.5.2-.5 0-1.1-.5-1.3h-.1c-.3-.1-.7-.1-1 .1-.7-.2-1.5-.4-2.2-.7-1.6-.6-1.1-1.5.2-1.6.7 0 1.3-.1 2-.3.5.3 1.3.2 1.6-.3.3-.4.2-1-.2-1.2-.1 0-.1-.1-.2-.1-.5-.2-1.1 0-1.3.5 0 .1-.1.2-.1.3-2.3 1.6-10.1.3-10.1-1.6.1-1.5 1.8-3 3.9-4.1.3-.8 1.6-1.4 2.3-.9 2.2-.7 5.1-.8 6.5.6 1.1.2 4.7 2.8 3.7 6.5m-8.7-4.1c-.8-.1-1.4.4-1.7 1.1-.1.6.4 1.2 1.2 1.2.7.1 1.4-.4 1.7-1.1.2-.6-.4-1.2-1.2-1.2"/><path d="M45.1 213.7v-10.5c0-2.5 2-4.5 4.5-4.5h11.8c2.5 0 4.5 2 4.5 4.5v10.5H45.1zM63 203.1c0-.9-.7-1.6-1.6-1.6H49.6c-.9 0-1.6.7-1.6 1.6v7.7h15v-7.7z" class="st0"/><path d="M34.2 211.5H77c1.4 0 2.5 1.1 2.5 2.4v15.7H31.8V214c0-1.4 1.1-2.5 2.4-2.5z" class="st0"/><path d="M46.1 209l-.6-4.3c3.3.8 5.3 4.1 4.4 7.4-.8 3.3-4.1 5.3-7.4 4.4-3.3-.8-5.3-4.1-4.4-7.4.4-1.6 1.4-3 2.8-3.8l.6 4.3 2.6 2 2-2.6zM48.1 241h.3c.1 0 .2 0 .3-.1l-.3.4-.3-.3z" class="st14"/><path d="M42.3 212.8l4-.6 3.8 26.4-.4.7v-.1c-.2-.8-1-1.3-1.8-1.2-.7.2-1.2.8-1.2 1.6v.1l-.6-.5-3.8-26.4z" class="st14"/><path d="M45.8 237.1a3.44 3.44 0 0 0 0 4.8c1.3 1.3 3.5 1.3 4.8 0 .7-.7 1.1-1.8.9-2.8-.1-1-.8-2-1.7-2.5-.6-.4-1.4-.5-2.1-.4-.7 0-1.4.4-1.9.9zm2.9 3.8c-.1 0-.2.1-.3.1h-.3c-.7 0-1.3-.5-1.4-1.2v-.1c-.1-.8.6-1.6 1.4-1.6.7 0 1.4.5 1.6 1.2v.1c0 .6-.4 1.3-1 1.5zM71.1 221.4l3.1-3.1a6.1 6.1 0 1 1-8-3.2c1.5-.6 3.2-.7 4.7 0l-3.1 3.1v3.3l3.3-.1z" class="st14"/><path d="M46.8 242.4c.1.2.3.3.5.4h-.5v-.4zM65.7 220.7l2.9 2.9-18.7 19.1-.8.1.1-.1c.6-.6.6-1.6 0-2.2-.6-.6-1.6-.6-2.2 0v.1-.8l18.7-19.1z" class="st14"/><path d="M48.5 238.2c-1.1-.1-2.1.2-2.8 1-1.3 1.3-1.3 3.5.1 4.8s3.5 1.3 4.8-.1c1.3-1.3 1.3-3.5 0-4.8-.7-.4-1.3-.8-2.1-.9zm-1.2 4.7c-.2-.1-.3-.3-.5-.4-.4-.6-.3-1.3.1-1.8v-.1c.6-.6 1.6-.6 2.2 0 .6.6.6 1.6 0 2.1l-.1.1c-.4.3-1.2.4-1.7.1z" class="st14"/><path d="M47 242.1l-1 4.3a6.1 6.1 0 0 1 7.1-9.9c2.7 2 3.4 5.8 1.4 8.5-1 1.3-2.4 2.2-4 2.5l1-4.3-1.7-2.9-2.8 1.8zM57 211.7l-.3-.1h-.3l.4-.3.2.4z" class="st14"/><path d="M51.9 240l-4-.9 6.2-26 .7-.5v.1c-.2.8.3 1.7 1.1 1.9.8.2 1.7-.3 1.9-1.1v-.1l.4.7-6.3 25.9z" class="st14"/><path d="M57.7 216.1c1.7-.8 2.5-2.8 1.7-4.5-.8-1.7-2.8-2.5-4.5-1.7-.9.4-1.6 1.3-1.9 2.3-.4 1.8.7 3.6 2.5 4.1.7.2 1.5.1 2.2-.2zm-1.4-4.6h.3l.3.1c.6.3 1 1 .8 1.6v.1c-.2.8-1 1.3-1.9 1.1-.8-.2-1.3-1-1.1-1.9v-.1c.3-.5.9-.9 1.6-.9z" class="st14"/><path d="M28.7 229.7h53.4v28.9H28.7z" class="st3"/><path d="M41.5 241.8h26.4v2.2H41.5z" class="st14"/><g class="glasses-back-translate"><g class="glasses-back-rotate"><path d="M163.3 63.3s-1.1 2.2.9 2.9c1 .3 3.6-4.6 3.6-4.6.2-.4.3-.8.2-1.2-.1-.4-.4-.7-.9-.9l-3.4-1.1-.3.9 3.3 1.2c.1 0 .1.1.2.2v.2s-1.8 3.8-2.6 3.9c-.8.2-.2-1.4-.2-1.4l1.3-3.8-1.1-.2-1 3.9z" class="st7"/><animateTransform fill="freeze" attributeName="transform" attributeType="XML" begin="120s" calcMode="spline" dur="3s" keySplines=".5 0 .5 1" type="translate" values="0 0;1.985 5.46"/></g><animateTransform fill="freeze" attributeName="transform" attributeType="XML" begin="120s" calcMode="spline" dur="6s" keySplines=".5 0 .5 1;0 0 1 1;0.5 0 1 1" keyTimes="0;0.5;0.9;1" type="rotate" values="0 165 70;13 165 70;13 165 70;52 -33 241"/></g><path d="M162.2 65.1l.9-1.3 2 6-2.7-1-.2-3.7z" class="nose st6"/><g class="glasses-front-translate"><g class="glasses-front-rotate"><path d="M160.4 65.5c-1.3-.2-2.7-1.4-2.2-2.8.4-1 .7-2 1-3.1.2-.6.3-2 1.1-2 .2 0 .5 0 .7.1 1.4.3 2.7.7 4 1.2l.5.2-.2.5c-.4 1.2-.9 2.3-1.6 3.3-.7 1.1-1.7 2.6-3.2 2.6h-.1zm.1-6.6l-1.3 4.1c-.1.4.1.8.4 1 1.4.9 2.1-.4 2.8-1.4.6-1 1.1-2 1.5-3-1.1-.4-2.2-.6-3.4-.7z" class="st7"/><path d="M147.1 56c1.9.6 12.4 4.5 12.4 4.5l.7-2.2s-14-4.9-15.5-5.5-4.7 0-5 1.2c-.3 1.2 0 2.8 1.2 2.5 1.1-.2 4.1-1.4 6.2-.5zM166.4 60.5l.4-1-3.3-1.1-.1 1z" class="st7"/><animateTransform fill="freeze" attributeName="transform" attributeType="XML" begin="120s" calcMode="spline" dur="3s" keySplines=".5 0 .5 1" type="translate" values="0 0;1.985 5.46"/></g><animateTransform fill="freeze" attributeName="transform" attributeType="XML" begin="120s" calcMode="spline" dur="6s" keySplines=".5 0 .5 1;0 0 1 1;0.5 0 1 1" keyTimes="0;0.5;0.9;1" type="rotate" values="0 165 70;13 165 70;13 165 70;52 -33 241"/></g><path d="M147.9 57.2c-2.3 1.5-4.4 3.2-5.8 5.6-.6-.9-1-2-1.1-3.2 0 0-.1-.4-.2-.9-.2-1.1-.2-2.3.1-3.5.2-.6.5-1.2 1-1.6 1-.9 2.5-.9 3.4 0 .8.9 1.6 1.9 2.2 3 .2.1.3.5.4.6z" class="st6"/><path d="M213.4 104.2l2.4-3.2c1.6 2.6.8 6.1-1.9 7.7-2.6 1.6-6.1.8-7.7-1.9a5.58 5.58 0 0 1 6.2-8.3l-2.4 3.2.4 3 3-.5z" class="st4"/><path d="M208.5 104.3l3 2.2-14.5 19.6-.7.2v-.1c.5-.6.3-1.5-.3-1.9s-1.5-.3-1.9.3v.1l-.1-.7 14.5-19.7z" class="st4"/><path d="M195.2 122.3c-1 0-1.9.5-2.4 1.2-1 1.4-.7 3.3.7 4.3s3.3.7 4.3-.7c.6-.8.8-1.8.5-2.7-.5-1.3-1.7-2.2-3.1-2.1zm-.6 4.3c-.1 0-.2-.1-.2-.1-.1-.1-.2-.1-.2-.2-.4-.5-.5-1.2-.1-1.7v-.1c.5-.6 1.3-.7 1.9-.3s.7 1.3.3 1.9v.1c-.4.5-1.1.7-1.7.4z" class="st4"/><path d="M200 112.2l3.2-4.4c.6-.9 1.9-1.1 2.8-.5.1 0 .1.1.2.1l2.6 2.1c.8.7 1 1.9.4 2.8l-3 4.3c-.6.9-1.8 1.2-2.8.6-.1-.1-.2-.1-.2-.2l-2.7-2.1c-1-.6-1.1-1.8-.5-2.7z" class="st6"/><path d="M158.4 116.4l13.7 11.1 29.4-13.8 1.2-4.5-25.8 6-23.1-16.9" class="st6"/><path d="M164.9 103.9l-10.1 12.5-26.3-21.1a7.91 7.91 0 0 1-1-11.1l1-1.2c2.8-3.3 7.8-3.8 11.1-1l25.3 21.9z" class="st3"/><path d="M151.6 108.9h18.3v3.7h-18.3z" class="st2" transform="rotate(-49.55 160.76 110.78)"/></svg>
