<svg xmlns="http://www.w3.org/2000/svg" width="37" height="27" viewBox="0 0 37 27">
    <g fill="none" fill-rule="evenodd" transform="translate(1 1)">
        <rect width="29.4" height="18.6" x="6.3" y="6.3" fill="#FFE9C1" stroke="#FFA400" stroke-width=".6" rx="3.086"/>
        <g stroke="#FFA400" stroke-linecap="round" stroke-linejoin="round" stroke-width="1.029">
            <path d="M9.617.348v2.7M3.528 7.823L.434 7.82M5.446 4.5L3.314 2.407"/>
        </g>
        <path fill="#222" fill-rule="nonzero" d="M11.87 19.046H11V12h.854l3.824 5.483h.078V12h.869v7.046h-.854l-3.824-5.464h-.078v5.464zm8.544-4.614c-.84 0-1.426.615-1.49 1.547h2.901c-.02-.932-.576-1.547-1.41-1.547zm1.387 3.252h.84c-.254.903-1.065 1.455-2.217 1.455-1.46 0-2.373-1.055-2.373-2.72 0-1.655.928-2.73 2.373-2.73 1.42 0 2.285 1.011 2.285 2.647v.322h-3.784v.04c.044 1.04.625 1.698 1.518 1.698.68 0 1.138-.249 1.358-.712zm8.847-3.902l-1.474 5.264h-.855l-1.176-4.072h-.079l-1.171 4.072h-.85l-1.475-5.264h.85l1.035 4.21h.078l1.177-4.21h.806l1.176 4.21h.079l1.035-4.21h.844z"/>
    </g>
</svg>
