<svg xmlns="http://www.w3.org/2000/svg" viewBox="0 0 669.93 34.39"><title>Asset 9</title><path fill="#fff" d="M254.23 17.33h21.47"/><path d="M275.23 17.58h-5v-.5h5zm-8 0h-5v-.5h5zm-8 0h-5v-.5h5z" fill="#18b2d6"/><path fill="#fff" d="M114.9 17.33h21.47"/><path d="M135.9 17.58h-5v-.5h5zm-8 0h-5v-.5h5zm-8 0h-5v-.5h5z" fill="#18b2d6"/><path fill="#fff" d="M393.55 17.33h21.47"/><path d="M414.55 17.58h-5v-.5h5zm-8 0h-5v-.5h5zm-8 0h-5v-.5h5z" fill="#18b2d6"/><path fill="#fff" d="M532.87 17.33h21.46"/><path d="M553.87 17.58h-5v-.5h5zm-8 0h-5v-.5h5zm-8 0h-5v-.5h5z" fill="#18b2d6"/><rect x=".25" y=".25" width="112.23" height="33.89" rx="4.83" ry="4.83" fill="#fff"/><path d="M107.66 34.39H5.08A5.08 5.08 0 0 1 0 29.31V5.08A5.08 5.08 0 0 1 5.08 0h102.58a5.08 5.08 0 0 1 5.08 5.08v24.23a5.08 5.08 0 0 1-5.08 5.08zM5.08.5A4.58 4.58 0 0 0 .5 5.08v24.23a4.58 4.58 0 0 0 4.58 4.58h102.58a4.58 4.58 0 0 0 4.58-4.58V5.08A4.58 4.58 0 0 0 107.66.5z" fill="#18b2d6"/><rect x="138.58" y=".25" width="112.23" height="33.89" rx="4.83" ry="4.83" fill="#fff"/><path d="M246 34.39H143.41a5.08 5.08 0 0 1-5.08-5.08V5.08A5.08 5.08 0 0 1 143.41 0H246a5.08 5.08 0 0 1 5.08 5.08v24.23a5.08 5.08 0 0 1-5.08 5.08zM143.41.5a4.58 4.58 0 0 0-4.58 4.58v24.23a4.58 4.58 0 0 0 4.58 4.58H246a4.58 4.58 0 0 0 4.58-4.58V5.08A4.58 4.58 0 0 0 246 .5z" fill="#18b2d6"/><rect x="278.2" y=".25" width="112.23" height="33.89" rx="4.83" ry="4.83" fill="#fff"/><path d="M385.61 34.39H283a5.08 5.08 0 0 1-5-5.08V5.08A5.08 5.08 0 0 1 283 0h102.61a5.08 5.08 0 0 1 5.08 5.08v24.23a5.08 5.08 0 0 1-5.08 5.08zM283 .5a4.58 4.58 0 0 0-4.58 4.58v24.23a4.58 4.58 0 0 0 4.58 4.58h102.61a4.58 4.58 0 0 0 4.58-4.58V5.08A4.58 4.58 0 0 0 385.61.5z" fill="#18b2d6"/><rect x="417.82" y=".25" width="112.23" height="33.89" rx="4.83" ry="4.83" fill="#fff"/><path d="M525.23 34.39H422.65a5.08 5.08 0 0 1-5.08-5.08V5.08A5.08 5.08 0 0 1 422.65 0h102.58a5.08 5.08 0 0 1 5.08 5.08v24.23a5.08 5.08 0 0 1-5.08 5.08zM422.65.5a4.58 4.58 0 0 0-4.58 4.58v24.23a4.58 4.58 0 0 0 4.58 4.58h102.58a4.58 4.58 0 0 0 4.58-4.58V5.08A4.58 4.58 0 0 0 525.23.5z" fill="#18b2d6"/><rect x="557.44" y=".25" width="112.23" height="33.89" rx="4.83" ry="4.83" fill="#fff"/><path d="M664.85 34.39H562.27a5.08 5.08 0 0 1-5.08-5.08V5.08A5.08 5.08 0 0 1 562.27 0h102.58a5.08 5.08 0 0 1 5.08 5.08v24.23a5.08 5.08 0 0 1-5.08 5.08zM562.27.5a4.58 4.58 0 0 0-4.58 4.58v24.23a4.58 4.58 0 0 0 4.58 4.58h102.58a4.58 4.58 0 0 0 4.58-4.58V5.08A4.58 4.58 0 0 0 664.85.5zM275.1 14.21v5.62l2.81-2.81-2.81-2.81zM135.77 14.21v5.62l2.81-2.81-2.81-2.81zM414.41 14.21v5.62l2.81-2.81-2.81-2.81zM551.73 14.21v5.62l2.81-2.81-2.81-2.81z" fill="#18b2d6"/><path d="M29.46 16.67a3.34 3.34 0 0 1 3.43-3.45 3 3 0 0 1 2.53 1.32l-.7.39a2.25 2.25 0 0 0-1.83-1 2.56 2.56 0 0 0-2.57 2.71 2.57 2.57 0 0 0 2.57 2.71 2.22 2.22 0 0 0 1.83-1l.71.39a3 3 0 0 1-2.54 1.32 3.34 3.34 0 0 1-3.43-3.39zM36.22 16.67a3.31 3.31 0 1 1 6.62 0 3.31 3.31 0 1 1-6.62 0zm5.76 0a2.46 2.46 0 1 0-4.9 0 2.46 2.46 0 1 0 4.9 0zM48.86 20L45 14.69V20h-.83v-6.66H45l3.84 5.21v-5.21h.83V20zM51.22 20v-6.66h4.37v.74H52v2.15h3.47V17H52v3zM56.72 20v-6.66h.83V20zM63 20l-1.7-2.65h-1.36V20h-.83v-6.66h2.68a1.94 1.94 0 0 1 2.09 2 1.84 1.84 0 0 1-1.73 1.94l1.8 2.72zm0-4.66a1.24 1.24 0 0 0-1.33-1.27h-1.73v2.55h1.75A1.25 1.25 0 0 0 63 15.35zM70.89 20v-5.48L68.62 20h-.34L66 14.52V20h-.83v-6.66h1.19l2.07 5 2.08-5h1.19V20zM73.28 20v-6.66h4.37v.74h-3.54v2.15h3.47V17h-3.47v2.3h3.54v.7zM79 20v-6.66h2.28a3.24 3.24 0 0 1 3.42 3.34A3.23 3.23 0 0 1 81.25 20zm4.84-3.33a2.44 2.44 0 0 0-2.56-2.6H79.8v5.19h1.45a2.45 2.45 0 0 0 2.56-2.59zM88.15 19.06l.49-.63a2.82 2.82 0 0 0 2.1 1c1.19 0 1.57-.64 1.57-1.15 0-1.72-3.95-.77-3.95-3.15 0-1.1 1-1.85 2.29-1.85a3.14 3.14 0 0 1 2.37.93l-.5.61a2.55 2.55 0 0 0-1.93-.8c-.8 0-1.37.43-1.37 1.06 0 1.5 3.95.64 3.95 3.13 0 1-.66 2-2.46 2a3.3 3.3 0 0 1-2.56-1.15zM94.14 16.67a3.31 3.31 0 1 1 6.62 0 3.31 3.31 0 1 1-6.62 0zm5.76 0a2.46 2.46 0 1 0-4.9 0 2.46 2.46 0 1 0 4.9 0z" fill="#141414"/><path fill="none" stroke="#8c8c8c" stroke-miterlimit="10" stroke-width=".75" d="M20.46 11.15h-9.01v12.09h12.41v-6.98"/><path fill="none" stroke="#8c8c8c" stroke-miterlimit="10" stroke-width=".75" d="M14.71 16.24l2.39 2.39 6.66-6.67"/><path d="M191.41 14l-3.89-5.32V14h-.83V7.34h.85l3.84 5.21V7.34h.83V14zM193.78 14V7.34h4.37v.74h-3.54v2.15h3.47V11h-3.47v2.3h3.54v.7zM204.56 14l-1.47-5.38-1.46 5.38h-.9l-1.9-6.67h.92l1.48 5.56 1.53-5.56h.69l1.55 5.56 1.47-5.56h.92L205.46 14zM186.7 26v-6.66h2.68a2 2 0 1 1 0 4h-1.85V26zm3.91-4.66a1.24 1.24 0 0 0-1.33-1.27h-1.75v2.54h1.75a1.24 1.24 0 0 0 1.32-1.26zM196.55 26l-.55-1.48h-3.32l-.62 1.48h-.95l2.68-6.67h1L197.5 26zm-2.25-5.8l-1.42 3.59h2.83zM197.74 22.67a3.33 3.33 0 0 1 3.43-3.45 3 3 0 0 1 2.53 1.32l-.7.39a2.25 2.25 0 0 0-1.83-1 2.56 2.56 0 0 0-2.57 2.71 2.57 2.57 0 0 0 2.57 2.71 2.22 2.22 0 0 0 1.83-1l.71.39a3 3 0 0 1-2.54 1.32 3.33 3.33 0 0 1-3.43-3.39zM208.79 26l-2.53-3-.67.76V26h-.83v-6.66h.83v3.45l2.95-3.45h1l-2.74 3.16 3 3.5zM215.53 26l-.59-1.48h-3.32L211 26h-.95l2.68-6.67h1l2.75 6.67zm-2.25-5.81l-1.42 3.59h2.83zM216.72 22.67a3.33 3.33 0 0 1 3.43-3.45 3.18 3.18 0 0 1 2.59 1.25l-.66.41a2.46 2.46 0 0 0-1.93-.92 2.56 2.56 0 0 0-2.57 2.71 2.57 2.57 0 0 0 2.57 2.72 2.63 2.63 0 0 0 1.79-.72v-1.36h-2.29v-.74h3.12V25a3.47 3.47 0 0 1-2.62 1.15 3.34 3.34 0 0 1-3.43-3.48zM224.12 26v-6.66h4.37v.74h-3.54v2.15h3.47V23h-3.47v2.3h3.54v.7z" fill="#141414"/><path fill="none" stroke="#0ead12" stroke-miterlimit="10" stroke-width=".75" d="M173.82 13.46v10.03h-12.48V13.46M159.51 10.9h15.72v2.56h-15.72zM165.58 16.57h3.95M159.59 9.4V6.8M158.67 10.2l-2.36-2.01M157.94 11.2l-2.58.14"/><path d="M333.5 14l-3.89-5.32V14h-.83V7.34h.85l3.84 5.21V7.34h.83V14zM335.59 10.67a3.31 3.31 0 1 1 6.62 0 3.31 3.31 0 1 1-6.62 0zm5.76 0a2.46 2.46 0 1 0-4.9 0 2.46 2.46 0 1 0 4.9 0zM344.89 14V8.08h-2.11v-.74h5.06v.74h-2.12V14zM328.38 25.06l.49-.63a2.82 2.82 0 0 0 2.1.95c1.19 0 1.57-.64 1.57-1.15 0-1.72-3.95-.77-3.95-3.15 0-1.1 1-1.85 2.29-1.85a3.13 3.13 0 0 1 2.37.93l-.5.61a2.55 2.55 0 0 0-1.93-.8c-.8 0-1.37.43-1.37 1.06 0 1.5 3.95.64 3.95 3.13 0 1-.66 2-2.46 2a3.3 3.3 0 0 1-2.56-1.1zM339.37 26v-3.06h-3.9V26h-.83v-6.66h.83v2.87h3.9v-2.87h.83V26zM341.76 26v-6.66h.83V26zM344.15 26v-6.66h2.68a2 2 0 1 1 0 4H345V26zm3.91-4.66a1.24 1.24 0 0 0-1.33-1.27H345v2.54h1.75a1.24 1.24 0 0 0 1.31-1.26zM350 26v-6.66h2.68a2 2 0 1 1 0 4h-1.85V26zm3.91-4.66a1.24 1.24 0 0 0-1.33-1.27h-1.75v2.54h1.75a1.24 1.24 0 0 0 1.35-1.26zM355.89 26v-6.66h4.37v.74h-3.54v2.15h3.47V23h-3.47v2.3h3.54v.7zM361.58 26v-6.66h2.28a3.33 3.33 0 1 1 0 6.67zm4.84-3.33a2.44 2.44 0 0 0-2.56-2.6h-1.45v5.19h1.45a2.45 2.45 0 0 0 2.55-2.59z" fill="#141414"/><path fill="none" stroke="#d32929" stroke-miterlimit="10" stroke-width=".75" d="M299.96 21.96h-1.12V11.02h12.34v9.38M312.24 12.29h4.44l3.07 3.07v3.63h1.09v2.75h-2.26M313.15 21.96h-6.84"/><circle cx="303" cy="21.74" r="1.62" fill="none" stroke="#d32929" stroke-miterlimit="10" stroke-width=".75"/><circle cx="316.05" cy="21.74" r="1.62" fill="none" stroke="#d32929" stroke-miterlimit="10" stroke-width=".75"/><path fill="none" stroke="#d32929" stroke-miterlimit="10" stroke-width=".75" d="M303.44 17.02l2.77-2.76M303.44 14.26l2.77 2.76M313.15 14.26v2.76h4.24l-1.99-2.74-2.25-.02z"/><path d="M468.14 19.06l.49-.63a2.82 2.82 0 0 0 2.1.95c1.19 0 1.57-.64 1.57-1.15 0-1.72-3.95-.77-3.95-3.15 0-1.1 1-1.85 2.29-1.85a3.13 3.13 0 0 1 2.37.93l-.5.61a2.55 2.55 0 0 0-1.93-.8c-.8 0-1.37.43-1.37 1.06 0 1.5 3.95.64 3.95 3.13 0 1-.66 2-2.46 2a3.3 3.3 0 0 1-2.56-1.1zM479.13 20v-3.06h-3.9V20h-.83v-6.66h.83v2.87h3.9v-2.87h.87V20zM481.52 20v-6.66h.83V20zM483.91 20v-6.66h2.68a2 2 0 1 1 0 4h-1.85V20zm3.91-4.66a1.24 1.24 0 0 0-1.33-1.27h-1.75v2.54h1.75a1.24 1.24 0 0 0 1.33-1.26zM489.78 20v-6.66h2.68a2 2 0 1 1 0 4h-1.85V20zm3.91-4.66a1.24 1.24 0 0 0-1.33-1.27h-1.75v2.54h1.75a1.24 1.24 0 0 0 1.33-1.26zM495.65 20v-6.66H500v.74h-3.54v2.15h3.47V17h-3.47v2.3H500v.7zM501.34 20v-6.66h2.28a3.24 3.24 0 0 1 3.38 3.33 3.23 3.23 0 0 1-3.38 3.33zm4.84-3.33a2.44 2.44 0 0 0-2.56-2.6h-1.45v5.19h1.45a2.45 2.45 0 0 0 2.55-2.59z" fill="#141414"/><path fill="none" stroke="#0ead12" stroke-miterlimit="10" stroke-width=".75" d="M440.42 21.82h-1.1V11.2h11.99v9.11M452.33 12.44h4.32l2.98 2.97v3.53h1.06v2.67h-2.19M453.22 21.82h-6.64"/><circle cx="443.36" cy="21.61" r="1.58" fill="none" stroke="#0ead12" stroke-miterlimit="10" stroke-width=".75"/><circle cx="456.04" cy="21.61" r="1.58" fill="none" stroke="#0ead12" stroke-miterlimit="10" stroke-width=".75"/><path fill="none" stroke="#0ead12" stroke-miterlimit="10" stroke-width=".75" d="M446.94 13.88l-3.15 3.14-1.18-1.18M453.22 14.34v2.68h4.12l-1.94-2.66-2.18-.02z"/><path d="M602.59 20v-6.66h2.28a3.24 3.24 0 0 1 3.42 3.34 3.23 3.23 0 0 1-3.42 3.32zm4.84-3.33a2.44 2.44 0 0 0-2.56-2.6h-1.45v5.19h1.45a2.45 2.45 0 0 0 2.56-2.59zM609.59 20v-6.66H614v.74h-3.54v2.15h3.47V17h-3.47v2.3H614v.7zM615.28 20v-6.66h.83v5.93h3.1V20zM620.38 20v-6.66h.83V20zM624.76 20l-2.68-6.67h.92l2.25 5.76 2.25-5.76h.95L625.79 20zM629.35 20v-6.66h4.37v.74h-3.54v2.15h3.47V17h-3.47v2.3h3.54v.7zM638.9 20l-1.7-2.65h-1.33V20H635v-6.66h2.68a1.94 1.94 0 0 1 2.09 2 1.84 1.84 0 0 1-1.73 1.94l1.8 2.72zm0-4.66a1.24 1.24 0 0 0-1.33-1.27h-1.75v2.55h1.75a1.25 1.25 0 0 0 1.38-1.27zM641.12 20v-6.66h4.37v.74h-3.54v2.15h3.47V17h-3.47v2.3h3.54v.7zM646.81 20v-6.66h2.28a3.24 3.24 0 0 1 3.42 3.34 3.23 3.23 0 0 1-3.42 3.32zm4.84-3.33a2.44 2.44 0 0 0-2.56-2.6h-1.45v5.19h1.45a2.45 2.45 0 0 0 2.56-2.59z" fill="#141414"/><path fill="none" stroke="#0ead12" stroke-miterlimit="10" stroke-width=".75" d="M594.24 13.46v10.03h-12.49V13.46M579.92 10.9h15.72v2.56h-15.72zM577.19 15.28h-4.55M577.19 17.89h-7.1"/><path fill="none" stroke="#0ead12" stroke-miterlimit="10" stroke-width=".75" d="M584.89 17.3l1.54 1.54 3.75-3.76"/></svg>