<svg width="633" height="129" viewBox="0 0 633 129" fill="none" xmlns="http://www.w3.org/2000/svg">
<g opacity="0.966034">
<path opacity="0.966034" d="M46.2686 42.8298C46.2686 43.3211 45.8708 43.719 45.3794 43.719C44.8881 43.719 44.4902 43.3211 44.4902 42.8298C44.4902 42.3385 44.8881 41.9406 45.3794 41.9406C45.8708 41.9406 46.2686 42.3385 46.2686 42.8298Z" fill="#F85E87"/>
<path opacity="0.966034" d="M54.2686 42.8298C54.2686 43.3211 53.8708 43.719 53.3794 43.719C52.8881 43.719 52.4902 43.3211 52.4902 42.8298C52.4902 42.3385 52.8881 41.9406 53.3794 41.9406C53.8708 41.9406 54.2686 42.3385 54.2686 42.8298Z" fill="#F85E87"/>
<path opacity="0.966034" d="M62.2686 42.8298C62.2686 43.3211 61.8708 43.719 61.3794 43.719C60.8881 43.719 60.4902 43.3211 60.4902 42.8298C60.4902 42.3385 60.8881 41.9406 61.3794 41.9406C61.8708 41.9406 62.2686 42.3385 62.2686 42.8298Z" fill="#F85E87"/>
<path opacity="0.966034" d="M70.2686 42.8298C70.2686 43.3211 69.8708 43.719 69.3794 43.719C68.8881 43.719 68.4902 43.3211 68.4902 42.8298C68.4902 42.3385 68.8881 41.9406 69.3794 41.9406C69.8708 41.9406 70.2686 42.3385 70.2686 42.8298Z" fill="#F85E87"/>
<path opacity="0.966034" d="M78.3878 42.8298C78.3878 43.3211 77.9899 43.719 77.4986 43.719C77.0072 43.719 76.6094 43.3211 76.6094 42.8298C76.6094 42.3385 77.0072 41.9406 77.4986 41.9406C77.9899 41.9406 78.3878 42.3385 78.3878 42.8298Z" fill="#F85E87"/>
<path opacity="0.966034" d="M86.3878 42.8298C86.3878 43.3211 85.9899 43.719 85.4986 43.719C85.0072 43.719 84.6094 43.3211 84.6094 42.8298C84.6094 42.3385 85.0072 41.9406 85.4986 41.9406C85.9899 41.9406 86.3878 42.3385 86.3878 42.8298Z" fill="#F85E87"/>
<path opacity="0.966034" d="M94.3878 42.8298C94.3878 43.3211 93.9899 43.719 93.4986 43.719C93.0072 43.719 92.6094 43.3211 92.6094 42.8298C92.6094 42.3385 93.0072 41.9406 93.4986 41.9406C93.9899 41.9406 94.3878 42.3385 94.3878 42.8298Z" fill="#F85E87"/>
<path opacity="0.966034" d="M102.388 42.8298C102.388 43.3211 101.99 43.719 101.499 43.719C101.007 43.719 100.609 43.3211 100.609 42.8298C100.609 42.3385 101.007 41.9406 101.499 41.9406C101.99 41.9406 102.388 42.3385 102.388 42.8298Z" fill="#F85E87"/>
<path opacity="0.966034" d="M110.388 42.8298C110.388 43.3211 109.99 43.719 109.499 43.719C109.007 43.719 108.609 43.3211 108.609 42.8298C108.609 42.3385 109.007 41.9406 109.499 41.9406C109.99 41.9406 110.388 42.3385 110.388 42.8298Z" fill="#F85E87"/>
<path opacity="0.966034" d="M118.388 42.8298C118.388 43.3211 117.99 43.719 117.499 43.719C117.007 43.719 116.609 43.3211 116.609 42.8298C116.609 42.3385 117.007 41.9406 117.499 41.9406C117.99 41.9406 118.388 42.3385 118.388 42.8298Z" fill="#F85E87"/>
<path opacity="0.966034" d="M126.388 42.8298C126.388 43.3211 125.99 43.719 125.499 43.719C125.007 43.719 124.609 43.3211 124.609 42.8298C124.609 42.3385 125.007 41.9406 125.499 41.9406C125.99 41.9406 126.388 42.3385 126.388 42.8298Z" fill="#F85E87"/>
<path opacity="0.966034" d="M134.388 42.8298C134.388 43.3211 133.99 43.719 133.499 43.719C133.007 43.719 132.609 43.3211 132.609 42.8298C132.609 42.3385 133.007 41.9406 133.499 41.9406C133.99 41.9406 134.388 42.3385 134.388 42.8298Z" fill="#F85E87"/>
<path opacity="0.966034" d="M142.388 42.8298C142.388 43.3211 141.99 43.719 141.499 43.719C141.007 43.719 140.609 43.3211 140.609 42.8298C140.609 42.3385 141.007 41.9406 141.499 41.9406C141.99 41.9406 142.388 42.3385 142.388 42.8298Z" fill="#F85E87"/>
<path opacity="0.966034" d="M150.388 42.8298C150.388 43.3211 149.99 43.719 149.499 43.719C149.007 43.719 148.609 43.3211 148.609 42.8298C148.609 42.3385 149.007 41.9406 149.499 41.9406C149.99 41.9406 150.388 42.3385 150.388 42.8298Z" fill="#F85E87"/>
<path opacity="0.966034" d="M158.388 42.8298C158.388 43.3211 157.99 43.719 157.499 43.719C157.007 43.719 156.609 43.3211 156.609 42.8298C156.609 42.3385 157.007 41.9406 157.499 41.9406C157.99 41.9406 158.388 42.3385 158.388 42.8298Z" fill="#F85E87"/>
<path opacity="0.966034" d="M166.388 42.8298C166.388 43.3211 165.99 43.719 165.499 43.719C165.007 43.719 164.609 43.3211 164.609 42.8298C164.609 42.3385 165.007 41.9406 165.499 41.9406C165.99 41.9406 166.388 42.3385 166.388 42.8298Z" fill="#F85E87"/>
<path opacity="0.966034" d="M174.388 42.8298C174.388 43.3211 173.99 43.719 173.499 43.719C173.007 43.719 172.609 43.3211 172.609 42.8298C172.609 42.3385 173.007 41.9406 173.499 41.9406C173.99 41.9406 174.388 42.3385 174.388 42.8298Z" fill="#F85E87"/>
<path opacity="0.966034" d="M182.388 42.8298C182.388 43.3211 181.99 43.719 181.499 43.719C181.007 43.719 180.609 43.3211 180.609 42.8298C180.609 42.3385 181.007 41.9406 181.499 41.9406C181.99 41.9406 182.388 42.3385 182.388 42.8298Z" fill="#F85E87"/>
<path opacity="0.966034" d="M190.388 42.8298C190.388 43.3211 189.99 43.719 189.499 43.719C189.007 43.719 188.609 43.3211 188.609 42.8298C188.609 42.3385 189.007 41.9406 189.499 41.9406C189.99 41.9406 190.388 42.3385 190.388 42.8298Z" fill="#F85E87"/>
<path opacity="0.966034" d="M198.388 42.8298C198.388 43.3211 197.99 43.719 197.499 43.719C197.007 43.719 196.609 43.3211 196.609 42.8298C196.609 42.3385 197.007 41.9406 197.499 41.9406C197.99 41.9406 198.388 42.3385 198.388 42.8298Z" fill="#F85E87"/>
<path opacity="0.966034" d="M206.388 42.8298C206.388 43.3211 205.99 43.719 205.499 43.719C205.007 43.719 204.609 43.3211 204.609 42.8298C204.609 42.3385 205.007 41.9406 205.499 41.9406C205.99 41.9406 206.388 42.3385 206.388 42.8298Z" fill="#F85E87"/>
<path opacity="0.966034" d="M214.388 42.8298C214.388 43.3211 213.99 43.719 213.499 43.719C213.007 43.719 212.609 43.3211 212.609 42.8298C212.609 42.3385 213.007 41.9406 213.499 41.9406C213.99 41.9406 214.388 42.3385 214.388 42.8298Z" fill="#F85E87"/>
<path opacity="0.966034" d="M222.388 42.8298C222.388 43.3211 221.99 43.719 221.499 43.719C221.007 43.719 220.609 43.3211 220.609 42.8298C220.609 42.3385 221.007 41.9406 221.499 41.9406C221.99 41.9406 222.388 42.3385 222.388 42.8298Z" fill="#F85E87"/>
<path opacity="0.966034" d="M230.388 42.8298C230.388 43.3211 229.99 43.719 229.499 43.719C229.007 43.719 228.609 43.3211 228.609 42.8298C228.609 42.3385 229.007 41.9406 229.499 41.9406C229.99 41.9406 230.388 42.3385 230.388 42.8298Z" fill="#F85E87"/>
<path opacity="0.966034" d="M238.388 42.8298C238.388 43.3211 237.99 43.719 237.499 43.719C237.007 43.719 236.609 43.3211 236.609 42.8298C236.609 42.3385 237.007 41.9406 237.499 41.9406C237.99 41.9406 238.388 42.3385 238.388 42.8298Z" fill="#F85E87"/>
<path opacity="0.966034" d="M246.388 42.8298C246.388 43.3211 245.99 43.719 245.499 43.719C245.007 43.719 244.609 43.3211 244.609 42.8298C244.609 42.3385 245.007 41.9406 245.499 41.9406C245.99 41.9406 246.388 42.3385 246.388 42.8298Z" fill="#F85E87"/>
<path opacity="0.966034" d="M254.388 42.8298C254.388 43.3211 253.99 43.719 253.499 43.719C253.007 43.719 252.609 43.3211 252.609 42.8298C252.609 42.3385 253.007 41.9406 253.499 41.9406C253.99 41.9406 254.388 42.3385 254.388 42.8298Z" fill="#F85E87"/>
<path opacity="0.966034" d="M262.388 42.8298C262.388 43.3211 261.99 43.719 261.499 43.719C261.007 43.719 260.609 43.3211 260.609 42.8298C260.609 42.3385 261.007 41.9406 261.499 41.9406C261.99 41.9406 262.388 42.3385 262.388 42.8298Z" fill="#F85E87"/>
<path opacity="0.966034" d="M270.388 42.8298C270.388 43.3211 269.99 43.719 269.499 43.719C269.007 43.719 268.609 43.3211 268.609 42.8298C268.609 42.3385 269.007 41.9406 269.499 41.9406C269.99 41.9406 270.388 42.3385 270.388 42.8298Z" fill="#F85E87"/>
<path opacity="0.966034" d="M278.388 42.8298C278.388 43.3211 277.99 43.719 277.499 43.719C277.007 43.719 276.609 43.3211 276.609 42.8298C276.609 42.3385 277.007 41.9406 277.499 41.9406C277.99 41.9406 278.388 42.3385 278.388 42.8298Z" fill="#F85E87"/>
<path opacity="0.966034" d="M286.388 42.8298C286.388 43.3211 285.99 43.719 285.499 43.719C285.007 43.719 284.609 43.3211 284.609 42.8298C284.609 42.3385 285.007 41.9406 285.499 41.9406C285.99 41.9406 286.388 42.3385 286.388 42.8298Z" fill="#F85E87"/>
<path opacity="0.966034" d="M294.388 42.8298C294.388 43.3211 293.99 43.719 293.499 43.719C293.007 43.719 292.609 43.3211 292.609 42.8298C292.609 42.3385 293.007 41.9406 293.499 41.9406C293.99 41.9406 294.388 42.3385 294.388 42.8298Z" fill="#F85E87"/>
<path opacity="0.966034" d="M302.388 42.8298C302.388 43.3211 301.99 43.719 301.499 43.719C301.007 43.719 300.609 43.3211 300.609 42.8298C300.609 42.3385 301.007 41.9406 301.499 41.9406C301.99 41.9406 302.388 42.3385 302.388 42.8298Z" fill="#F85E87"/>
<path opacity="0.966034" d="M310.388 42.8298C310.388 43.3211 309.99 43.719 309.499 43.719C309.007 43.719 308.609 43.3211 308.609 42.8298C308.609 42.3385 309.007 41.9406 309.499 41.9406C309.99 41.9406 310.388 42.3385 310.388 42.8298Z" fill="#F85E87"/>
<path opacity="0.966034" d="M318.388 42.8298C318.388 43.3211 317.99 43.719 317.499 43.719C317.007 43.719 316.609 43.3211 316.609 42.8298C316.609 42.3385 317.007 41.9406 317.499 41.9406C317.99 41.9406 318.388 42.3385 318.388 42.8298Z" fill="#F85E87"/>
</g>
<g opacity="0.966034">
<path opacity="0.966034" d="M316.269 42.8298C316.269 43.3211 315.871 43.719 315.379 43.719C314.888 43.719 314.49 43.3211 314.49 42.8298C314.49 42.3385 314.888 41.9406 315.379 41.9406C315.871 41.9406 316.269 42.3385 316.269 42.8298Z" fill="#F85E87"/>
<path opacity="0.966034" d="M324.269 42.8298C324.269 43.3211 323.871 43.719 323.379 43.719C322.888 43.719 322.49 43.3211 322.49 42.8298C322.49 42.3385 322.888 41.9406 323.379 41.9406C323.871 41.9406 324.269 42.3385 324.269 42.8298Z" fill="#F85E87"/>
<path opacity="0.966034" d="M332.269 42.8298C332.269 43.3211 331.871 43.719 331.379 43.719C330.888 43.719 330.49 43.3211 330.49 42.8298C330.49 42.3385 330.888 41.9406 331.379 41.9406C331.871 41.9406 332.269 42.3385 332.269 42.8298Z" fill="#F85E87"/>
<path opacity="0.966034" d="M340.269 42.8298C340.269 43.3211 339.871 43.719 339.379 43.719C338.888 43.719 338.49 43.3211 338.49 42.8298C338.49 42.3385 338.888 41.9406 339.379 41.9406C339.871 41.9406 340.269 42.3385 340.269 42.8298Z" fill="#F85E87"/>
<path opacity="0.966034" d="M348.388 42.8298C348.388 43.3211 347.99 43.719 347.499 43.719C347.007 43.719 346.609 43.3211 346.609 42.8298C346.609 42.3385 347.007 41.9406 347.499 41.9406C347.99 41.9406 348.388 42.3385 348.388 42.8298Z" fill="#F85E87"/>
<path opacity="0.966034" d="M356.388 42.8298C356.388 43.3211 355.99 43.719 355.499 43.719C355.007 43.719 354.609 43.3211 354.609 42.8298C354.609 42.3385 355.007 41.9406 355.499 41.9406C355.99 41.9406 356.388 42.3385 356.388 42.8298Z" fill="#F85E87"/>
<path opacity="0.966034" d="M364.388 42.8298C364.388 43.3211 363.99 43.719 363.499 43.719C363.007 43.719 362.609 43.3211 362.609 42.8298C362.609 42.3385 363.007 41.9406 363.499 41.9406C363.99 41.9406 364.388 42.3385 364.388 42.8298Z" fill="#F85E87"/>
<path opacity="0.966034" d="M372.388 42.8298C372.388 43.3211 371.99 43.719 371.499 43.719C371.007 43.719 370.609 43.3211 370.609 42.8298C370.609 42.3385 371.007 41.9406 371.499 41.9406C371.99 41.9406 372.388 42.3385 372.388 42.8298Z" fill="#F85E87"/>
<path opacity="0.966034" d="M380.388 42.8298C380.388 43.3211 379.99 43.719 379.499 43.719C379.007 43.719 378.609 43.3211 378.609 42.8298C378.609 42.3385 379.007 41.9406 379.499 41.9406C379.99 41.9406 380.388 42.3385 380.388 42.8298Z" fill="#F85E87"/>
<path opacity="0.966034" d="M388.388 42.8298C388.388 43.3211 387.99 43.719 387.499 43.719C387.007 43.719 386.609 43.3211 386.609 42.8298C386.609 42.3385 387.007 41.9406 387.499 41.9406C387.99 41.9406 388.388 42.3385 388.388 42.8298Z" fill="#F85E87"/>
<path opacity="0.966034" d="M396.388 42.8298C396.388 43.3211 395.99 43.719 395.499 43.719C395.007 43.719 394.609 43.3211 394.609 42.8298C394.609 42.3385 395.007 41.9406 395.499 41.9406C395.99 41.9406 396.388 42.3385 396.388 42.8298Z" fill="#F85E87"/>
<path opacity="0.966034" d="M404.388 42.8298C404.388 43.3211 403.99 43.719 403.499 43.719C403.007 43.719 402.609 43.3211 402.609 42.8298C402.609 42.3385 403.007 41.9406 403.499 41.9406C403.99 41.9406 404.388 42.3385 404.388 42.8298Z" fill="#F85E87"/>
<path opacity="0.966034" d="M412.388 42.8298C412.388 43.3211 411.99 43.719 411.499 43.719C411.007 43.719 410.609 43.3211 410.609 42.8298C410.609 42.3385 411.007 41.9406 411.499 41.9406C411.99 41.9406 412.388 42.3385 412.388 42.8298Z" fill="#F85E87"/>
<path opacity="0.966034" d="M420.388 42.8298C420.388 43.3211 419.99 43.719 419.499 43.719C419.007 43.719 418.609 43.3211 418.609 42.8298C418.609 42.3385 419.007 41.9406 419.499 41.9406C419.99 41.9406 420.388 42.3385 420.388 42.8298Z" fill="#F85E87"/>
<path opacity="0.966034" d="M428.388 42.8298C428.388 43.3211 427.99 43.719 427.499 43.719C427.007 43.719 426.609 43.3211 426.609 42.8298C426.609 42.3385 427.007 41.9406 427.499 41.9406C427.99 41.9406 428.388 42.3385 428.388 42.8298Z" fill="#F85E87"/>
<path opacity="0.966034" d="M436.388 42.8298C436.388 43.3211 435.99 43.719 435.499 43.719C435.007 43.719 434.609 43.3211 434.609 42.8298C434.609 42.3385 435.007 41.9406 435.499 41.9406C435.99 41.9406 436.388 42.3385 436.388 42.8298Z" fill="#F85E87"/>
<path opacity="0.966034" d="M444.388 42.8298C444.388 43.3211 443.99 43.719 443.499 43.719C443.007 43.719 442.609 43.3211 442.609 42.8298C442.609 42.3385 443.007 41.9406 443.499 41.9406C443.99 41.9406 444.388 42.3385 444.388 42.8298Z" fill="#F85E87"/>
<path opacity="0.966034" d="M452.388 42.8298C452.388 43.3211 451.99 43.719 451.499 43.719C451.007 43.719 450.609 43.3211 450.609 42.8298C450.609 42.3385 451.007 41.9406 451.499 41.9406C451.99 41.9406 452.388 42.3385 452.388 42.8298Z" fill="#F85E87"/>
<path opacity="0.966034" d="M460.388 42.8298C460.388 43.3211 459.99 43.719 459.499 43.719C459.007 43.719 458.609 43.3211 458.609 42.8298C458.609 42.3385 459.007 41.9406 459.499 41.9406C459.99 41.9406 460.388 42.3385 460.388 42.8298Z" fill="#F85E87"/>
<path opacity="0.966034" d="M468.388 42.8298C468.388 43.3211 467.99 43.719 467.499 43.719C467.007 43.719 466.609 43.3211 466.609 42.8298C466.609 42.3385 467.007 41.9406 467.499 41.9406C467.99 41.9406 468.388 42.3385 468.388 42.8298Z" fill="#F85E87"/>
<path opacity="0.966034" d="M476.388 42.8298C476.388 43.3211 475.99 43.719 475.499 43.719C475.007 43.719 474.609 43.3211 474.609 42.8298C474.609 42.3385 475.007 41.9406 475.499 41.9406C475.99 41.9406 476.388 42.3385 476.388 42.8298Z" fill="#F85E87"/>
<path opacity="0.966034" d="M484.388 42.8298C484.388 43.3211 483.99 43.719 483.499 43.719C483.007 43.719 482.609 43.3211 482.609 42.8298C482.609 42.3385 483.007 41.9406 483.499 41.9406C483.99 41.9406 484.388 42.3385 484.388 42.8298Z" fill="#F85E87"/>
<path opacity="0.966034" d="M492.388 42.8298C492.388 43.3211 491.99 43.719 491.499 43.719C491.007 43.719 490.609 43.3211 490.609 42.8298C490.609 42.3385 491.007 41.9406 491.499 41.9406C491.99 41.9406 492.388 42.3385 492.388 42.8298Z" fill="#F85E87"/>
<path opacity="0.966034" d="M500.388 42.8298C500.388 43.3211 499.99 43.719 499.499 43.719C499.007 43.719 498.609 43.3211 498.609 42.8298C498.609 42.3385 499.007 41.9406 499.499 41.9406C499.99 41.9406 500.388 42.3385 500.388 42.8298Z" fill="#F85E87"/>
<path opacity="0.966034" d="M508.388 42.8298C508.388 43.3211 507.99 43.719 507.499 43.719C507.007 43.719 506.609 43.3211 506.609 42.8298C506.609 42.3385 507.007 41.9406 507.499 41.9406C507.99 41.9406 508.388 42.3385 508.388 42.8298Z" fill="#F85E87"/>
<path opacity="0.966034" d="M516.388 42.8298C516.388 43.3211 515.99 43.719 515.499 43.719C515.007 43.719 514.609 43.3211 514.609 42.8298C514.609 42.3385 515.007 41.9406 515.499 41.9406C515.99 41.9406 516.388 42.3385 516.388 42.8298Z" fill="#F85E87"/>
<path opacity="0.966034" d="M524.388 42.8298C524.388 43.3211 523.99 43.719 523.499 43.719C523.007 43.719 522.609 43.3211 522.609 42.8298C522.609 42.3385 523.007 41.9406 523.499 41.9406C523.99 41.9406 524.388 42.3385 524.388 42.8298Z" fill="#F85E87"/>
<path opacity="0.966034" d="M532.388 42.8298C532.388 43.3211 531.99 43.719 531.499 43.719C531.007 43.719 530.609 43.3211 530.609 42.8298C530.609 42.3385 531.007 41.9406 531.499 41.9406C531.99 41.9406 532.388 42.3385 532.388 42.8298Z" fill="#F85E87"/>
<path opacity="0.966034" d="M540.388 42.8298C540.388 43.3211 539.99 43.719 539.499 43.719C539.007 43.719 538.609 43.3211 538.609 42.8298C538.609 42.3385 539.007 41.9406 539.499 41.9406C539.99 41.9406 540.388 42.3385 540.388 42.8298Z" fill="#F85E87"/>
<path opacity="0.966034" d="M548.388 42.8298C548.388 43.3211 547.99 43.719 547.499 43.719C547.007 43.719 546.609 43.3211 546.609 42.8298C546.609 42.3385 547.007 41.9406 547.499 41.9406C547.99 41.9406 548.388 42.3385 548.388 42.8298Z" fill="#F85E87"/>
<path opacity="0.966034" d="M556.388 42.8298C556.388 43.3211 555.99 43.719 555.499 43.719C555.007 43.719 554.609 43.3211 554.609 42.8298C554.609 42.3385 555.007 41.9406 555.499 41.9406C555.99 41.9406 556.388 42.3385 556.388 42.8298Z" fill="#F85E87"/>
<path opacity="0.966034" d="M564.388 42.8298C564.388 43.3211 563.99 43.719 563.499 43.719C563.007 43.719 562.609 43.3211 562.609 42.8298C562.609 42.3385 563.007 41.9406 563.499 41.9406C563.99 41.9406 564.388 42.3385 564.388 42.8298Z" fill="#F85E87"/>
<path opacity="0.966034" d="M572.388 42.8298C572.388 43.3211 571.99 43.719 571.499 43.719C571.007 43.719 570.609 43.3211 570.609 42.8298C570.609 42.3385 571.007 41.9406 571.499 41.9406C571.99 41.9406 572.388 42.3385 572.388 42.8298Z" fill="#F85E87"/>
<path opacity="0.966034" d="M580.388 42.8298C580.388 43.3211 579.99 43.719 579.499 43.719C579.007 43.719 578.609 43.3211 578.609 42.8298C578.609 42.3385 579.007 41.9406 579.499 41.9406C579.99 41.9406 580.388 42.3385 580.388 42.8298Z" fill="#F85E87"/>
<path opacity="0.966034" d="M588.388 42.8298C588.388 43.3211 587.99 43.719 587.499 43.719C587.007 43.719 586.609 43.3211 586.609 42.8298C586.609 42.3385 587.007 41.9406 587.499 41.9406C587.99 41.9406 588.388 42.3385 588.388 42.8298Z" fill="#F85E87"/>
</g>
<g filter="url(#filter0_d)">
<circle cx="58" cy="44" r="36" fill="white"/>
</g>
<mask id="mask0" mask-type="alpha" maskUnits="userSpaceOnUse" x="38" y="24" width="40" height="40">
<path d="M58 64C69.0457 64 78 55.0457 78 44C78 32.9543 69.0457 24 58 24C46.9543 24 38 32.9543 38 44C38 55.0457 46.9543 64 58 64Z" fill="white"/>
</mask>
<g mask="url(#mask0)">
<path d="M58 64C69.0457 64 78 55.0457 78 44C78 32.9543 69.0457 24 58 24C46.9543 24 38 32.9543 38 44C38 55.0457 46.9543 64 58 64Z" fill="#2026D2"/>
<path d="M80.1622 20.2163H58V67.2433H80.1622V20.2163Z" fill="#62E1FC"/>
</g>
<g filter="url(#filter1_d)">
<circle cx="575" cy="44" r="36" fill="white"/>
</g>
<g filter="url(#filter2_d)">
<circle cx="452" cy="44" r="36" fill="white"/>
</g>
<g filter="url(#filter3_d)">
<path d="M218 44C218 63.8823 201.882 80 182 80C162.118 80 146 63.8823 146 44C146 24.1177 162.118 8 182 8C201.882 8 218 24.1177 218 44Z" fill="white"/>
</g>
<path d="M575.278 60.2666C584.11 60.2666 591.269 53.1031 591.269 44.2666C591.269 35.43 584.11 28.2666 575.278 28.2666C566.447 28.2666 559.287 35.43 559.287 44.2666C559.287 53.1031 566.447 60.2666 575.278 60.2666Z" fill="#62E1FC"/>
<path fill-rule="evenodd" clip-rule="evenodd" d="M566.193 64H555V52.8L566.193 64Z" fill="#2026D2"/>
<path fill-rule="evenodd" clip-rule="evenodd" d="M583.807 24H595V35.2L583.807 24Z" fill="#2026D2"/>
<path fill-rule="evenodd" clip-rule="evenodd" d="M162 39.0547H202C202 50.1004 193.046 59.0547 182 59.0547C170.954 59.0547 162 50.1004 162 39.0547Z" fill="#2026D2"/>
<path d="M182 48.6546C187.302 48.6546 191.6 44.3565 191.6 39.0546C191.6 33.7527 187.302 29.4546 182 29.4546C176.698 29.4546 172.4 33.7527 172.4 39.0546C172.4 44.3565 176.698 48.6546 182 48.6546Z" fill="#62E1FC"/>
<g clip-path="url(#clip0)">
<path d="M442.5 62.5474C448.299 62.5474 453 57.8338 453 52.0193C453 46.2048 448.299 41.4912 442.5 41.4912C436.701 41.4912 432 46.2048 432 52.0193C432 57.8338 436.701 62.5474 442.5 62.5474Z" fill="#2026D2"/>
<path d="M464 50.014C468.418 50.014 472 46.4227 472 41.9926C472 37.5625 468.418 33.9712 464 33.9712C459.582 33.9712 456 37.5625 456 41.9926C456 46.4227 459.582 50.014 464 50.014Z" fill="#2026D2"/>
<path d="M446.5 37.4806C450.09 37.4806 453 34.5626 453 30.9632C453 27.3637 450.09 24.4458 446.5 24.4458C442.91 24.4458 440 27.3637 440 30.9632C440 34.5626 442.91 37.4806 446.5 37.4806Z" fill="#62E1FC"/>
<path d="M460.5 63.0488C462.157 63.0488 463.5 61.702 463.5 60.0407C463.5 58.3795 462.157 57.0327 460.5 57.0327C458.843 57.0327 457.5 58.3795 457.5 60.0407C457.5 61.702 458.843 63.0488 460.5 63.0488Z" fill="#62E1FC"/>
</g>
<g filter="url(#filter4_d)">
<path d="M360 42.5C360 65.9723 340.748 85 317 85C293.252 85 274 65.9723 274 42.5C274 19.0277 293.252 0 317 0C340.748 0 360 19.0277 360 42.5Z" fill="url(#paint0_linear)"/>
</g>
<path d="M330.873 26.8697V58.0889H321.71V55.1537C319.694 57.5261 316.702 58.9586 312.603 58.9586C304.597 58.9586 298 51.7837 298 42.4793C298 33.1749 304.597 26 312.603 26C316.696 26 319.694 27.4324 321.71 29.8049V26.8697H330.873ZM321.71 42.4793C321.71 37.7983 318.655 34.8951 314.437 34.8951C310.218 34.8951 307.163 37.7983 307.163 42.4793C307.163 47.1602 310.224 50.0954 314.437 50.0954C318.649 50.0954 321.71 47.1602 321.71 42.4793Z" fill="white"/>
<path d="M314.436 46.316C316.51 46.316 318.192 44.5982 318.192 42.4792C318.192 40.3602 316.51 38.6423 314.436 38.6423C312.362 38.6423 310.681 40.3602 310.681 42.4792C310.681 44.5982 312.362 46.316 314.436 46.316Z" fill="#62E1FC"/>
<defs>
<filter id="filter0_d" x="0" y="8" width="116" height="116" filterUnits="userSpaceOnUse" color-interpolation-filters="sRGB">
<feFlood flood-opacity="0" result="BackgroundImageFix"/>
<feColorMatrix in="SourceAlpha" type="matrix" values="0 0 0 0 0 0 0 0 0 0 0 0 0 0 0 0 0 0 127 0"/>
<feOffset dy="22"/>
<feGaussianBlur stdDeviation="11"/>
<feColorMatrix type="matrix" values="0 0 0 0 0 0 0 0 0 0 0 0 0 0 0 0 0 0 0.05 0"/>
<feBlend mode="normal" in2="BackgroundImageFix" result="effect1_dropShadow"/>
<feBlend mode="normal" in="SourceGraphic" in2="effect1_dropShadow" result="shape"/>
</filter>
<filter id="filter1_d" x="517" y="8" width="116" height="116" filterUnits="userSpaceOnUse" color-interpolation-filters="sRGB">
<feFlood flood-opacity="0" result="BackgroundImageFix"/>
<feColorMatrix in="SourceAlpha" type="matrix" values="0 0 0 0 0 0 0 0 0 0 0 0 0 0 0 0 0 0 127 0"/>
<feOffset dy="22"/>
<feGaussianBlur stdDeviation="11"/>
<feColorMatrix type="matrix" values="0 0 0 0 0 0 0 0 0 0 0 0 0 0 0 0 0 0 0.05 0"/>
<feBlend mode="normal" in2="BackgroundImageFix" result="effect1_dropShadow"/>
<feBlend mode="normal" in="SourceGraphic" in2="effect1_dropShadow" result="shape"/>
</filter>
<filter id="filter2_d" x="394" y="8" width="116" height="116" filterUnits="userSpaceOnUse" color-interpolation-filters="sRGB">
<feFlood flood-opacity="0" result="BackgroundImageFix"/>
<feColorMatrix in="SourceAlpha" type="matrix" values="0 0 0 0 0 0 0 0 0 0 0 0 0 0 0 0 0 0 127 0"/>
<feOffset dy="22"/>
<feGaussianBlur stdDeviation="11"/>
<feColorMatrix type="matrix" values="0 0 0 0 0 0 0 0 0 0 0 0 0 0 0 0 0 0 0.05 0"/>
<feBlend mode="normal" in2="BackgroundImageFix" result="effect1_dropShadow"/>
<feBlend mode="normal" in="SourceGraphic" in2="effect1_dropShadow" result="shape"/>
</filter>
<filter id="filter3_d" x="124" y="8" width="116" height="116" filterUnits="userSpaceOnUse" color-interpolation-filters="sRGB">
<feFlood flood-opacity="0" result="BackgroundImageFix"/>
<feColorMatrix in="SourceAlpha" type="matrix" values="0 0 0 0 0 0 0 0 0 0 0 0 0 0 0 0 0 0 127 0"/>
<feOffset dy="22"/>
<feGaussianBlur stdDeviation="11"/>
<feColorMatrix type="matrix" values="0 0 0 0 0 0 0 0 0 0 0 0 0 0 0 0 0 0 0.05 0"/>
<feBlend mode="normal" in2="BackgroundImageFix" result="effect1_dropShadow"/>
<feBlend mode="normal" in="SourceGraphic" in2="effect1_dropShadow" result="shape"/>
</filter>
<filter id="filter4_d" x="252" y="0" width="130" height="129" filterUnits="userSpaceOnUse" color-interpolation-filters="sRGB">
<feFlood flood-opacity="0" result="BackgroundImageFix"/>
<feColorMatrix in="SourceAlpha" type="matrix" values="0 0 0 0 0 0 0 0 0 0 0 0 0 0 0 0 0 0 127 0"/>
<feOffset dy="22"/>
<feGaussianBlur stdDeviation="11"/>
<feColorMatrix type="matrix" values="0 0 0 0 0 0 0 0 0 0 0 0 0 0 0 0 0 0 0.05 0"/>
<feBlend mode="normal" in2="BackgroundImageFix" result="effect1_dropShadow"/>
<feBlend mode="normal" in="SourceGraphic" in2="effect1_dropShadow" result="shape"/>
</filter>
<linearGradient id="paint0_linear" x1="274" y1="0" x2="374.854" y2="24.9465" gradientUnits="userSpaceOnUse">
<stop stop-color="#2C32D8"/>
<stop offset="1" stop-color="#1217BA"/>
</linearGradient>
<clipPath id="clip0">
<rect width="40" height="39.2157" fill="white" transform="translate(432 24)"/>
</clipPath>
</defs>
</svg>
