<svg id="Layer_1" data-name="Layer 1" xmlns="http://www.w3.org/2000/svg" viewBox="0 0 533.19 436.38"><defs><style>.cls-1{fill:#def6ff;}.cls-2{fill:#ffcfb7;}.cls-3{fill:#b26d5f;}.cls-4{fill:#494e6a;}.cls-5{fill:#9e594d;}.cls-6{fill:#ffd56a;}.cls-7{fill:#2b59ab;}.cls-8{fill:#373753;}.cls-9{opacity:0.4;}.cls-10{fill:#823e30;}.cls-11{fill:#3e4063;}.cls-12{fill:#79e3aa;}.cls-13{fill:#ccd5e2;}.cls-14{fill:#fff;}.cls-15{fill:#eef1f6;}.cls-16{fill:#63c0f9;}.cls-17{opacity:0.3;}.cls-18{fill:#ce8d4f;}.cls-19{fill:#ffeab6;}.cls-20{fill:#ffb392;}.cls-21{fill:#b9f4f3;}.cls-22{fill:#d1effd;}.cls-23{fill:#85f1b8;}.cls-24{fill:#eeebf9;}.cls-25{fill:#ff97da;}.cls-26{fill:#aa8df8;}.cls-27{fill:#879df2;}.cls-28{fill:#ffbda6;}.cls-29{fill:#c1564d;}.cls-30{fill:#d36e63;}.cls-31{fill:#ff9c73;}.cls-32{fill:#727491;}.cls-33{fill:#ff61c7;}.cls-34{fill:#b3b9ce;}.cls-35{fill:#d6dee7;}</style></defs><title>teamwork-projects-header-2</title><path class="cls-1" d="M457.39,127.67c0-2.21,2-7.58,13.4-4.71,1.76-12.26,10.27-23.49,19.67-24.89-.64-.7-1.28-1.38-1.93-2.07C399.73,2.69,355.17,5,307.22,11.43c-57.46,7.73-111.52,13.46-156.6,26.09,4.2,5,6.71,11.76,6.34,20.27,9.37,1.32,17.14,8.06,15.82,17.44-28.94-.38-63.19-2.45-95.24-3.42C47.89,95.12,29.23,129.4,26.14,182a20.4,20.4,0,0,1,8.73,17.76c10.64-8.28,30.35-2.81,32.05,12,14.85-5,19.19-4.6,21.59,9.51-19.05-.24-40.42.48-61.89,1.37q.81,11.05,2.36,23c2.34,18.16,2.71,34.87,4.87,38.68.62,1.1,9-5.59,16-5.74l14.83,1.79c.71-23.5,27.4-20.42,27.4-20.42-6.73-27.31,21.57-30,21.57-30,19.34-11.85,45.31-2.73,45.31-2.73,37.67-30.39,60.78,5.72,60.78,5.72l159.52,4.14c37.9-52.49,66.42,2.21,66.42,2.21,10.9-8,67.83.69,67.83.69,2,.23,4.14.37,5.69-.84s26-53.13-6.74-111.23Q484.91,127.32,457.39,127.67Z" transform="translate(-8.81 -8.76)"/><path class="cls-2" d="M446.82,309.76c-2.61-10.95-16.35-18.57-19.23-29.27-4.42-16.36-19.8-32.37-32.41-38.68-7.82-3.95-13.73-1.93-18.49-15.33-4.08-12.25-2.12-28.44-13.8-34.26-31.86-15.91-39.14-45.46-55-44.44h0c-20,1.3-51.94,62.66-71.56,69.7-16.86,5.52-26.27,36.09-41.88,48-12.16,9.3-55.71,43.51-55.26,44.32C139.14,309.76,447.46,312.45,446.82,309.76Z" transform="translate(-8.81 -8.76)"/><path class="cls-3" d="M231.51,238.42a3.93,3.93,0,0,1-3.92-3.93h0V186a3.94,3.94,0,0,1,7.86-.41v48.88a3.93,3.93,0,0,1-3.93,3.93Z" transform="translate(-8.81 -8.76)"/><path class="cls-4" d="M235.26,230v8.76a3.75,3.75,0,1,1-7.48.4,2.67,2.67,0,0,1,0-.4V230Z" transform="translate(-8.81 -8.76)"/><path class="cls-3" d="M271.93,214.59a3.93,3.93,0,0,1-3.93-3.92h0V162.85a3.93,3.93,0,0,1,7.85,0V210.7A3.93,3.93,0,0,1,271.93,214.59Z" transform="translate(-8.81 -8.76)"/><path class="cls-4" d="M275.67,206.15v8.75a3.75,3.75,0,1,1-7.49,0h0v-8.75Z" transform="translate(-8.81 -8.76)"/><path class="cls-4" d="M228.65,11.43h0c-5.22.1-6.31,5.72-10,10.38-6,7.35-11.69,2.78-19.66,2.78-7,0-12,5-6.91,17.9,4.68,11.83.92,11.82-.48,15.79s1.45,9.29,5.69,14.11a46.89,46.89,0,0,0,50.95,12.8c10.2-4,21.25-13.37,22.81-25.41,1.16-8.85-7.06-7.74-3-18.32,1.57-4.07,4.2-8.31,1.66-12.68-3.17-5.47-7.87-5.78-12.88-5.34C241.09,24.87,238.72,11.43,228.65,11.43Z" transform="translate(-8.81 -8.76)"/><path class="cls-5" d="M257.54,106a42.26,42.26,0,0,1-12.43-2,3.93,3.93,0,0,1,2.31-7.51c13.91,4.27,24.31-.52,27.08-7.21S272.23,75,261.45,69.39a3.93,3.93,0,0,1,3.65-7c7.46,3.9,12.69,8.63,15.59,14.05a18.35,18.35,0,0,1,1.11,15.8c-2.21,5.45-7.25,9.82-13.77,12A32.55,32.55,0,0,1,257.54,106Z" transform="translate(-8.81 -8.76)"/><path class="cls-6" d="M257.54,106.12a42.59,42.59,0,0,1-12.48-2,4.1,4.1,0,0,1,2.21-7.9l.2.06c13.8,4.26,24.15-.48,26.88-7.1s-2.31-14.09-13-19.69a4.1,4.1,0,0,1,3.8-7.26c7.5,3.92,12.76,8.67,15.66,14.12a18.45,18.45,0,0,1,1.11,15.94c-2.21,5.53-7.31,10-13.87,12.16A32.77,32.77,0,0,1,257.54,106.12Z" transform="translate(-8.81 -8.76)"/><path class="cls-7" d="M279,136.15c-.15-.78-.57-3.32-4.42-4.66-13.26-4.59-17.63-7-21.14-8.34a5,5,0,0,0-3.32.64c-3.65,3.21-27.35-2.06-27.42-1-2.21,39.09-.76,76.63-1.63,91.62,0,.27,0,3.76-.07,4-.33,4.81,15.25,8.84,21,2.21-.2-13.62,1-72.43.85-76.35,1.11-.42,1.55-.81,3-1.46a2.72,2.72,0,0,1,2.13,0c4.42,1.79,9.32,3.78,11.17,4.55a1.29,1.29,0,0,1,.76,1.11c1.05,12.55,1.92,50.53,2.58,51.16,2.9,2.85,17.91,2.29,19.41-2C282.81,194.71,279.87,139.05,279,136.15Z" transform="translate(-8.81 -8.76)"/><path class="cls-8" d="M224,134.12a8.76,8.76,0,0,1-1-.08.69.69,0,0,1-.65-.71.68.68,0,0,1,.71-.66l.14,0a6,6,0,0,0,6.58-5,.67.67,0,0,1,.76-.56h0a.69.69,0,0,1,.57.78A7.46,7.46,0,0,1,224,134.12Z" transform="translate(-8.81 -8.76)"/><path class="cls-8" d="M242.82,144.33a.68.68,0,0,1-.23-1.32h0c.37-.13,2-.9,3.47-1.6s2.92-1.38,3.46-1.59a.69.69,0,0,1,.88.38.68.68,0,0,1-.4.89h0c-.48.19-1.94.88-3.31,1.56-2,.94-3.2,1.51-3.63,1.65A.75.75,0,0,1,242.82,144.33Z" transform="translate(-8.81 -8.76)"/><path class="cls-6" d="M245,96a4,4,0,0,1,2.34.61c4.67,3,10.41,13.93,9.44,27.83-.1,1.48-33.9,3.92-34.13,1.61-1.24-12.46,5.86-28.45,11.94-29.56C235,96.4,242.27,96.11,245,96Z" transform="translate(-8.81 -8.76)"/><path class="cls-3" d="M240.93,44.06h0c-20.7-3.77-28.73,21-20.81,32,4.64,6.42,13.65,10.89,20.82,10.43,25.22-1.62,20.94-38.56,0-42.38Z" transform="translate(-8.81 -8.76)"/><path class="cls-4" d="M216.93,57.2c7.73-16.35,10.49-2.36,25.31-6.63,7-2,10.09-3,14.37,7.74l7.17-13.53-24.68-10-18.17,7.54L212.88,52Z" transform="translate(-8.81 -8.76)"/><g class="cls-9"><path class="cls-10" d="M241.26,72.86a4,4,0,0,1-.69,0,.69.69,0,0,1-.58-.77h0a.67.67,0,0,1,.75-.59h0a3,3,0,0,0,1.89-.28,17.61,17.61,0,0,0-.95-6.48.7.7,0,0,1,.42-.88.68.68,0,0,1,.86.42h0a18,18,0,0,1,1,7.44.72.72,0,0,1-.24.43A4,4,0,0,1,241.26,72.86Z" transform="translate(-8.81 -8.76)"/></g><path class="cls-10" d="M240.1,77.48a9,9,0,0,1-5.53-1.93.7.7,0,0,1-.12-1,.69.69,0,0,1,1-.13h0A7.56,7.56,0,0,0,240.87,76a.69.69,0,0,1,.75.62.67.67,0,0,1-.6.74h0A7.16,7.16,0,0,1,240.1,77.48Z" transform="translate(-8.81 -8.76)"/><path class="cls-11" d="M253.49,62.93a.78.78,0,0,1-.46-.18,8.5,8.5,0,0,0-5.11-2.21.7.7,0,0,1-.71-.66.68.68,0,0,1,.65-.71H248A10,10,0,0,1,254,61.69a.73.73,0,0,1-.46,1.24Z" transform="translate(-8.81 -8.76)"/><path class="cls-11" d="M226,62.93a.67.67,0,0,1-.51-.24.69.69,0,0,1,0-1,10,10,0,0,1,5.93-2.51.69.69,0,0,1,.8.56.67.67,0,0,1-.55.79h-.15a8.56,8.56,0,0,0-5.11,2.21A.78.78,0,0,1,226,62.93Z" transform="translate(-8.81 -8.76)"/><path class="cls-12" d="M255.83,47.14c-3-4.21-9.76-9.52-23.55-6.07s-18,10.49-19.31,15.1C211.58,61,206.21,37.07,230.78,33,255.86,28.92,259.07,51.7,255.83,47.14Z" transform="translate(-8.81 -8.76)"/><path class="cls-4" d="M246.82,68.33a3.17,3.17,0,0,1-2.41-1.4,4.28,4.28,0,0,1,1.81-5.71,2.89,2.89,0,0,1,1-.21h12.46c1.89,0,3,2.48,2.72,4.22A3.83,3.83,0,0,1,260.86,68a2.59,2.59,0,0,1-1.61.38Z" transform="translate(-8.81 -8.76)"/><path class="cls-13" d="M252.37,69.93a4.53,4.53,0,0,1-3.42-2,6.12,6.12,0,0,1,2.61-8.21A3.81,3.81,0,0,1,253,59.4h17.16c2.72,0,4.3,3.56,3.91,6.09a5.51,5.51,0,0,1-2.21,3.91,3.78,3.78,0,0,1-2.32.53Z" transform="translate(-8.81 -8.76)"/><path class="cls-14" d="M256.47,59.11c.41.49-.28.85-.8,1-7.74,1.65-11.25.82-11.15-.38C244.69,57.74,252.68,54.78,256.47,59.11Z" transform="translate(-8.81 -8.76)"/><path class="cls-15" d="M260.46,68.41a5,5,0,0,0,6.63,1.71,6.33,6.33,0,0,0,2.56-4.51c.53-3.39-2-8.39-6.17-6.63C260.14,60.34,258.58,65.43,260.46,68.41Z" transform="translate(-8.81 -8.76)"/><rect class="cls-15" x="256.19" y="49.85" width="4.71" height="12.15"/><path class="cls-14" d="M264.9,68.41a5,5,0,0,0,6.63,1.71,6.39,6.39,0,0,0,2.56-4.51c.53-3.39-2-8.39-6.17-6.63C264.58,60.34,263,65.43,264.9,68.41Z" transform="translate(-8.81 -8.76)"/><path class="cls-16" d="M266.74,66.77a2.82,2.82,0,0,0,3.71,1,3.48,3.48,0,0,0,1.43-2.52c.3-1.9-1.1-4.71-3.46-3.73A4,4,0,0,0,266.74,66.77Z" transform="translate(-8.81 -8.76)"/><path class="cls-15" d="M231.89,68.33a3.19,3.19,0,0,1-2.38-1.4,4.29,4.29,0,0,1,1.81-5.71,2.89,2.89,0,0,1,1-.21H244.8c1.89,0,3,2.48,2.7,4.22A3.79,3.79,0,0,1,246,68a2.59,2.59,0,0,1-1.61.38Z" transform="translate(-8.81 -8.76)"/><path class="cls-13" d="M237.44,69.93a4.53,4.53,0,0,1-3.42-2,6.12,6.12,0,0,1,2.65-8.21,3.81,3.81,0,0,1,1.45-.31h17.12c2.72,0,4.3,3.56,3.9,6.09a5.51,5.51,0,0,1-2.21,3.91,3.78,3.78,0,0,1-2.32.53Z" transform="translate(-8.81 -8.76)"/><path class="cls-15" d="M245.51,68.41a5,5,0,0,0,6.64,1.71,6.39,6.39,0,0,0,2.56-4.51c.53-3.39-2-8.39-6.18-6.63C245.21,60.34,243.64,65.43,245.51,68.41Z" transform="translate(-8.81 -8.76)"/><rect class="cls-15" x="241.26" y="49.85" width="4.71" height="12.15"/><path class="cls-14" d="M249.93,68.41a5,5,0,0,0,6.64,1.71,6.37,6.37,0,0,0,2.57-4.51c.52-3.39-2-8.39-6.18-6.63C249.65,60.34,248.08,65.43,249.93,68.41Z" transform="translate(-8.81 -8.76)"/><path class="cls-16" d="M251.81,66.77a2.82,2.82,0,0,0,3.71,1A3.51,3.51,0,0,0,257,65.2c.3-1.9-1.1-4.71-3.46-3.73A4,4,0,0,0,251.81,66.77Z" transform="translate(-8.81 -8.76)"/><path class="cls-5" d="M226.48,106c-16,0-24.46-7.59-25.59-15.47-.5-3.5,0-10.36,8.84-17.13,6.71-5.13,17-9.07,29.63-11.35a3.93,3.93,0,1,1,1.4,7.73c-14.47,2.62-22.27,6.81-26.24,9.86-4.15,3.17-6.27,6.73-5.83,9.78.74,5.18,9.05,9.95,23,8.41a3.93,3.93,0,1,1,.83,7.81A55.1,55.1,0,0,1,226.48,106Z" transform="translate(-8.81 -8.76)"/><path class="cls-6" d="M226.61,106.11a37.51,37.51,0,0,1-15-2.8c-5.8-2.57-9.61-6.73-10.69-11.72-1.8-8.1,3.73-19.25,24.57-26.24a4.1,4.1,0,0,1,2.62,7.73C213.39,78,207.86,85,208.9,89.8c1.42,6.49,12.77,8.84,22.72,7.8a4.1,4.1,0,0,1,.88,8.16A55.4,55.4,0,0,1,226.61,106.11Z" transform="translate(-8.81 -8.76)"/><path class="cls-14" d="M228.09,73.11l-2.62-7.73c1.59-.53,3.26-1,5-1.5l2.13,7.91C231,72.18,229.51,72.64,228.09,73.11Z" transform="translate(-8.81 -8.76)"/><g class="cls-17"><path class="cls-18" d="M234.77,105.32a.7.7,0,0,1-.47-.19c-.12-.12-3.15-3-2.91-6.71a.69.69,0,0,1,1.37-.06.76.76,0,0,1,0,.15,7.75,7.75,0,0,0,2,5.15,44,44,0,0,1,4.17-3.17.68.68,0,0,1,.7,0,38.77,38.77,0,0,1,5,3.09c1.45-1.51-.5-4.82-.52-4.85a.67.67,0,0,1,.18-1,.69.69,0,0,1,1,.18l0,.06a10.13,10.13,0,0,1,1.1,2.61c.63,2.57-.4,3.81-1.38,4.42a.67.67,0,0,1-.83-.09,29.94,29.94,0,0,0-4.79-3.06,35,35,0,0,0-4.14,3.25A.67.67,0,0,1,234.77,105.32Z" transform="translate(-8.81 -8.76)"/><path class="cls-18" d="M244.22,122.86a1,1,0,0,1-.29-.07.7.7,0,0,1-.33-.91l.09-.21a.68.68,0,0,1,.91-.32.7.7,0,0,1,.4.61.72.72,0,0,1-.06.29l-.1.21A.7.7,0,0,1,244.22,122.86Z" transform="translate(-8.81 -8.76)"/><path class="cls-18" d="M244.55,116.16a.53.53,0,0,1-.28-.07.65.65,0,0,1-.35-.87v0h0l.06-.1h0V115h0a.69.69,0,0,1,1.24.57h0v.1h0v.1h0A.69.69,0,0,1,244.55,116.16Z" transform="translate(-8.81 -8.76)"/><path class="cls-18" d="M243.9,109.47a.72.72,0,0,1-.29-.06.67.67,0,0,1-.33-.89v0h0v-.1h0v-.1h0a.67.67,0,0,1,.89-.34h0a.66.66,0,0,1,.34.87v0h0V109h0v.1h0A.68.68,0,0,1,243.9,109.47Z" transform="translate(-8.81 -8.76)"/><path class="cls-18" d="M241.69,125.24a.66.66,0,0,1-.68-.66h0v-.38c0-6,0-15.06-2-22.3a.69.69,0,0,1,.48-.84h0a.68.68,0,0,1,.83.48h0c2,7.4,2,16.57,2,22.64v.38a.68.68,0,0,1-.69.68Z" transform="translate(-8.81 -8.76)"/></g><path class="cls-3" d="M233.06,80.83c-.67,7.66-.63,12.34-1.19,18-.06.51,3.2,1.36,4.95,1.46,4.57.27,8-1,8-1.46-.13-3.47-1.37-9-1.92-18.08a1,1,0,0,0-.87-1.1C234.09,80.05,233.16,79.67,233.06,80.83Z" transform="translate(-8.81 -8.76)"/><path class="cls-19" d="M254.36,105.86a.68.68,0,0,1-.63-.42,30.74,30.74,0,0,0-2.45-4.69.67.67,0,0,1,.19-.93h0a.7.7,0,0,1,1,.21,32,32,0,0,1,2.56,4.89.68.68,0,0,1-.37.89A.58.58,0,0,1,254.36,105.86Z" transform="translate(-8.81 -8.76)"/><path class="cls-20" d="M334,310.93c53.38.1,113.06-.13,112.8-1.17-2.61-10.95-16.35-18.57-19.23-29.27-4.42-16.36-19.8-32.37-32.41-38.68-7.82-3.95-13.73-1.93-18.49-15.33-4.08-12.25-2.12-28.44-13.8-34.26-31.86-15.91-39.14-45.46-55-44.44a17.06,17.06,0,0,0-7.3,2.57c6.3,17.59,16.1,25,18.17,30.72,1.34,3.73,1,4.42.64,39.61-.17,17.38,29.27,34.26,29.84,47.9.91,21.93-8,26.52-13.7,38.67A38,38,0,0,0,334,310.93Z" transform="translate(-8.81 -8.76)"/><path class="cls-20" d="M311.35,199.65c-8.84-2.49-17.09,4.86-25.73,5.72-12.06,1.21-23.46,14.67-24.9,16.07-1.9,1.88-2.67,5.34.86,6.09,4,.85,7.74-1.55,11.64-2.77,9-2.89,33.84,6,29.59-1.67-2.63-4.75-7.8-7.24.76-14.23C306.65,206.36,310.46,203.55,311.35,199.65Z" transform="translate(-8.81 -8.76)"/><path class="cls-20" d="M297.22,266.82c9.95.1,15.23-.9,24.11-2.51,3.82,4-15.54,12.85-19.34,14.51-7.94,3.44-6.12,4.21-10.05,7.36-5.12,4.09-12.58,2.72-18.89,4.49-4.86,1.37-15.85,7.93-15.57,2.21S273,280.35,279.74,276.6C286.83,272.59,286.66,266.72,297.22,266.82Z" transform="translate(-8.81 -8.76)"/><path class="cls-20" d="M245.86,311a16.21,16.21,0,0,0-7.46-11.4c-2.64-1.55-6.18-2.95-6.4-6a5.78,5.78,0,0,1,1-3.32c1.94-3.12,5.11-5.24,7.57-8s4.2-6.75,2.54-10a8.15,8.15,0,0,1-1.3-2.88c-.1-1.67,1.49-2.9,2.91-3.79,18.4-11.61,23-13.58,21.09-16.78-2.05-3.45-5.16.65-34.16,7.14-5.53,1.24-11.16,2.43-16,5.42a25.86,25.86,0,0,0-10.32,12.78c-1.55,4.09-2.3,8.84-5.67,11.61-3.64,3-8.92,2.57-13.37,4.07-4.78,1.63-8.43,5.43-11.89,9.1L163.61,310.5C183.19,310.6,212.9,310.82,245.86,311Z" transform="translate(-8.81 -8.76)"/><path class="cls-14" d="M101.2,329.79c-1.58-11.21,7.73-19.27,18.91-20.86-2.13-49.27,76.25-48.53,74.9-9.46,9.26-7.79,28.68-6.06,32.77,8.19,0,0,22.46-21.62,47.78-.38,0,0,5.16-15.15,22.86-6.89,0,0,11.31-25.05,39.58-14.85,16.77,6.06,16.47,23.36,16.47,23.36s6.4-11.31,20.4-5.17c6-14.74,23.21-20.19,35.66-11.27,1.55-10.69,14.37-19,22.68-15.87,10.78,4.13,20.38,22.76,18.78,33.79,5.42-.4,12.16,2.67,8.84,13.46" transform="translate(-8.81 -8.76)"/><path class="cls-21" d="M354.47,310.26h0a1.36,1.36,0,0,1-1.34-1.38h0a25.9,25.9,0,0,0-1.89-9,22.31,22.31,0,0,0-13.68-13.06c-11.25-4.06-21-2.93-29.09,3.38A32.42,32.42,0,0,0,299.69,301a1.37,1.37,0,0,1-2.49-1.11,34.65,34.65,0,0,1,9.57-11.79c6.07-4.76,16.5-9.29,31.7-3.81A25.19,25.19,0,0,1,353.82,299a28.23,28.23,0,0,1,2,9.94A1.37,1.37,0,0,1,354.47,310.26Z" transform="translate(-8.81 -8.76)"/><path class="cls-22" d="M351.83,314.16a1.32,1.32,0,0,1-.62-.15,1.36,1.36,0,0,1-.6-1.83h0c5.25-10.23,13.77-13.9,23.54-10.21a24.71,24.71,0,0,1,21.13-14.5c8.24-.65,16,2.3,19.74,7.41a16.41,16.41,0,0,1,9.26-.46,1.37,1.37,0,0,1-.61,2.67,13.22,13.22,0,0,0-8.59.72,1.36,1.36,0,0,1-1.74-.54c-2.88-4.77-10.21-7.68-17.84-7.08a22.11,22.11,0,0,0-19.36,14.07,1.38,1.38,0,0,1-.75.75,1.43,1.43,0,0,1-1.11,0c-6.32-2.77-15.14-3.56-21.28,8.42A1.37,1.37,0,0,1,351.83,314.16Z" transform="translate(-8.81 -8.76)"/><path class="cls-22" d="M258.9,322.68a1.37,1.37,0,0,1-.95-2.35c4-3.84,9.45-5.53,16.19-4.9a14.71,14.71,0,0,1,3.51-14.24c5-5.19,13-5.95,21.35-2a1.37,1.37,0,0,1-1.1,2.48c-10.48-4.9-16.24-.62-18.23,1.45a11.79,11.79,0,0,0-2.14,13.36,1.36,1.36,0,0,1-.58,1.83,1.39,1.39,0,0,1-.85.14c-6.94-1.11-12.38.24-16.21,3.9A1.33,1.33,0,0,1,258.9,322.68Z" transform="translate(-8.81 -8.76)"/><path class="cls-22" d="M195,300.85h0a1.39,1.39,0,0,1-1.33-1.42c.51-14.45-10.12-21.12-16.51-23.8A45.78,45.78,0,0,0,152.45,273c-9,1.44-16.88,5.38-22.31,11.06a1.37,1.37,0,1,1-2.09-1.78l.11-.11C134,276,142.53,271.79,152,270.26a48.53,48.53,0,0,1,26.22,2.82c12,5,18.58,14.67,18.17,26.42a1.37,1.37,0,0,1-1.39,1.35Z" transform="translate(-8.81 -8.76)"/><path class="cls-1" d="M495.79,258.74a1.34,1.34,0,0,1-1.25-.81,10.4,10.4,0,0,0-6.23-5.37,9.67,9.67,0,0,0-7.74.54,1.29,1.29,0,0,1-1.19.08,1.41,1.41,0,0,1-.8-.9,20.53,20.53,0,0,0-12.87-13.95,21.28,21.28,0,0,0-19.33,2.07,1.4,1.4,0,0,1-1.11.17,1.36,1.36,0,0,1-.87-.77c-5.95-14-16.09-22.1-28.51-22.91-12.61-.81-26.33,6.38-32.65,17.1a1.36,1.36,0,0,1-1.86.48,1.38,1.38,0,0,1-.49-1.88,39.48,39.48,0,0,1,35.18-18.42c13.06.84,23.73,9,30.2,23.1a24.14,24.14,0,0,1,20.42-1.5A23.19,23.19,0,0,1,480.82,250a12.64,12.64,0,0,1,8.39-.05,12.94,12.94,0,0,1,7.87,6.85,1.35,1.35,0,0,1-1.29,1.92Z" transform="translate(-8.81 -8.76)"/><path class="cls-1" d="M91.22,260.22a1.38,1.38,0,0,1-1.33-1.1c-2.21-9.82,1.67-19.27,10.49-25.29A35.45,35.45,0,0,1,120,228a38.06,38.06,0,0,1,20.2,5.67,13.09,13.09,0,0,1,8.68-8.12,12.44,12.44,0,0,1,11.48,2.21c5.23-8.14,14.59-13.26,25.42-13.81a38.85,38.85,0,0,1,33.84,16.68,1.37,1.37,0,0,1-.64,1.83,1.35,1.35,0,0,1-1.57-.27,35.9,35.9,0,0,0-31.48-15.47c-10.51.52-19.49,5.71-24,13.89a1.42,1.42,0,0,1-1,.7,1.37,1.37,0,0,1-1.16-.42,9.76,9.76,0,0,0-10-2.67,10.24,10.24,0,0,0-7.27,7.93,1.38,1.38,0,0,1-.83,1,1.37,1.37,0,0,1-1.3-.13A35.38,35.38,0,0,0,120,230.75a32.53,32.53,0,0,0-18.11,5.37c-8,5.44-11.39,13.6-9.36,22.4a1.38,1.38,0,0,1-1,1.63A.87.87,0,0,1,91.22,260.22Z" transform="translate(-8.81 -8.76)"/><path class="cls-1" d="M35.11,285.36a1.4,1.4,0,0,1-1-.48,1.37,1.37,0,0,1,.17-1.93h0c7.17-6,19.38-7.82,29.15-4.52A21.61,21.61,0,0,1,75.55,261.2a24.39,24.39,0,0,1,25.65,2.22,1.37,1.37,0,0,1-1.59,2.21,21.71,21.71,0,0,0-22.82-2,18.86,18.86,0,0,0-10.72,16.75,1.37,1.37,0,0,1-1.89,1.22C55,277.75,42.94,279.22,36,285A1.36,1.36,0,0,1,35.11,285.36Z" transform="translate(-8.81 -8.76)"/><path class="cls-22" d="M10.19,365.24h-.06a1.37,1.37,0,0,1-1.32-1.41c.33-9.46,7.79-18.3,18.15-21.62s20.74,0,28,8.84a23.92,23.92,0,0,1,18.6-3.19,14.58,14.58,0,0,1,8.72,6.32,17.67,17.67,0,0,1,16-2.1,1.36,1.36,0,0,1-1,2.55,14.63,14.63,0,0,0-14.49,2.66,1.34,1.34,0,0,1-1.21.35,1.4,1.4,0,0,1-1-.79,11.51,11.51,0,0,0-7.73-6.36c-5.53-1.52-12.16-.18-17.37,3.51a1.35,1.35,0,0,1-1.87-.29c-9.46-12.41-21.23-10.32-25.85-8.84-9.3,2.87-16,10.76-16.26,19A1.37,1.37,0,0,1,10.19,365.24Z" transform="translate(-8.81 -8.76)"/><path class="cls-22" d="M431.51,331.16a1.36,1.36,0,0,1-1.38-1.34,1.33,1.33,0,0,1,.54-1.1,25.41,25.41,0,0,1,22.83-4,22.16,22.16,0,0,1,16-20.55,23.45,23.45,0,0,1,14.14,0A22.1,22.1,0,0,1,494.42,312,17.93,17.93,0,0,1,508.18,305a16.86,16.86,0,0,1,14.36,6.63,13.5,13.5,0,0,1,8.71-2.21,12.32,12.32,0,0,1,8.62,4.31,1.38,1.38,0,0,1-.21,1.92,1.35,1.35,0,0,1-1.91-.2h0a9.64,9.64,0,0,0-6.71-3.32,10.72,10.72,0,0,0-7.87,2.46,1.34,1.34,0,0,1-1.1.33,1.41,1.41,0,0,1-1-.61,14.27,14.27,0,0,0-12.8-6.63,14.91,14.91,0,0,0-12.62,7.45,1.41,1.41,0,0,1-1.16.71,1.38,1.38,0,0,1-1.19-.64c-6-9.57-16.14-10.5-23-8.4a19.6,19.6,0,0,0-14.11,19.89,1.36,1.36,0,0,1-1.31,1.41,1.28,1.28,0,0,1-.58-.11,22.54,22.54,0,0,0-22,2.91A1.45,1.45,0,0,1,431.51,331.16Z" transform="translate(-8.81 -8.76)"/><path class="cls-22" d="M290.12,385.14a1,1,0,0,1-.52-.11,1.36,1.36,0,0,1-.75-1.77h0c3.88-9.39,11.73-15.56,21-16.51a20.54,20.54,0,0,1,17.69,6.49,13.81,13.81,0,0,1,7.53-6.63,12.71,12.71,0,0,1,11.16.78,33.12,33.12,0,0,1,24.53-19.73,33.71,33.71,0,0,1,30.43,9.67,22.54,22.54,0,0,1,17-5.31,14.88,14.88,0,0,1,10.7,6.33,1.36,1.36,0,1,1-2.27,1.5,12.29,12.29,0,0,0-8.84-5.12c-5.34-.71-11.05,1.29-15.81,5.53a1.36,1.36,0,0,1-1.92-.11h0a31.08,31.08,0,0,0-28.82-9.78c-10.63,2-19.06,9.13-23.12,19.63a1.37,1.37,0,0,1-.92.82,1.4,1.4,0,0,1-1.2-.24,9.94,9.94,0,0,0-9.95-1.39c-3.47,1.32-6.14,4.19-6.63,7.17a1.38,1.38,0,0,1-1.59,1.1,1.4,1.4,0,0,1-.88-.57,17.69,17.69,0,0,0-16.75-7.39c-8.25.84-15.28,6.39-18.78,14.83A1.37,1.37,0,0,1,290.12,385.14Z" transform="translate(-8.81 -8.76)"/><path class="cls-22" d="M149.81,382.84a1.34,1.34,0,0,1-.4,0,1.36,1.36,0,0,1-.91-1.7,15.93,15.93,0,0,1,19.87-10.63l.36.11a20.27,20.27,0,0,1,12.32-16.49,19.29,19.29,0,0,1,19.56,2.51,11.22,11.22,0,0,1,9.89-4.83,1.36,1.36,0,1,1-.18,2.72,8.66,8.66,0,0,0-8.13,4.81,1.35,1.35,0,0,1-1.79.68,1.19,1.19,0,0,1-.42-.28,16.33,16.33,0,0,0-17.85-3.16,17.55,17.55,0,0,0-10.8,15.95,1.35,1.35,0,0,1-1.35,1.35,1.39,1.39,0,0,1-.6-.14,13.13,13.13,0,0,0-18.26,8.11A1.37,1.37,0,0,1,149.81,382.84Z" transform="translate(-8.81 -8.76)"/><path class="cls-22" d="M410.53,292.83h-.18a1.37,1.37,0,0,1-1.18-1.52,19.9,19.9,0,0,1,8.6-13.2,19.4,19.4,0,0,1,15.76-2.88,1.37,1.37,0,0,1-.43,2.71,1.41,1.41,0,0,1-.22-.06,16.68,16.68,0,0,0-13.56,2.49,17.05,17.05,0,0,0-7.44,11.24A1.36,1.36,0,0,1,410.53,292.83Z" transform="translate(-8.81 -8.76)"/><path class="cls-21" d="M227.83,309.06h-.36a1.41,1.41,0,0,1-.95-.95,15.9,15.9,0,0,0-11.14-10.85c-6.69-2-14.68-.67-19.44,3.32a1.37,1.37,0,0,1-1.76-2.09h0c5.53-4.64,14.37-6.19,22-3.84a18.6,18.6,0,0,1,12.29,10.73,42.25,42.25,0,0,1,13.35-7.12c8.35-2.62,21.13-3.32,34.68,8a1.37,1.37,0,1,1-1.76,2.09h0c-10.11-8.49-20.92-11.05-32-7.5a38.59,38.59,0,0,0-13.86,7.83A1.36,1.36,0,0,1,227.83,309.06Z" transform="translate(-8.81 -8.76)"/><path class="cls-23" d="M253.43,295.65c-6.31,7.83-6.63,17,1.5,24.76,10.06,9.67,22.43,9.18,32.58,3.31,11.32-6.52,7.43-24.4,4.42-29.51C283.09,279.22,262.61,284.27,253.43,295.65Z" transform="translate(-8.81 -8.76)"/><path class="cls-24" d="M272.81,331.16a28.72,28.72,0,0,1-20.13-8.46c-8.91-8.56-9.57-19.45-1.78-29.12h0c6.31-7.81,16.9-12.59,26.38-11.91a21.58,21.58,0,0,1,17.43,10.86c2.44,4.13,5,14.16,2.77,22.64a17.93,17.93,0,0,1-8.35,11.34A32.59,32.59,0,0,1,272.81,331.16Zm2.64-43.1a26.5,26.5,0,0,0-19.5,9.57c-5.63,7-5.19,14.2,1.22,20.37,11.4,11,23.88,5.64,28.74,2.86a11.43,11.43,0,0,0,5.31-7.38c1.8-6.84-.5-15-2.06-17.69a15.1,15.1,0,0,0-12.34-7.73,7,7,0,0,1-1.37.07Z" transform="translate(-8.81 -8.76)"/><path class="cls-19" d="M282.26,304.2c-9.67-8.53-8.78-12.49-18.67-.22-2,2.55-.12,3.48,7.35,11.29,2.82,3,5.62-1.11,11.46-7.13a2.7,2.7,0,0,0,0-3.83Z" transform="translate(-8.81 -8.76)"/><path class="cls-24" d="M252.86,318.41l18.55,27.92,16.71-22.1C269.42,340.17,252.86,317,252.86,318.41Z" transform="translate(-8.81 -8.76)"/><path class="cls-24" d="M271.41,349.68h-.1a3.32,3.32,0,0,1-2.69-1.49l-18.54-27.92a3.41,3.41,0,0,1,1-4.72,4.19,4.19,0,0,1,.51-.27c2.21-.92,3.59.48,5,1.83,6.94,6.8,17.53,14.66,29.37,4.54a3.33,3.33,0,1,1,4.85,4.57l-16.71,22.1A3.32,3.32,0,0,1,271.41,349.68Zm-5.87-18.25,6,9.11,5.73-7.59a22.78,22.78,0,0,1-11.55-1.43Z" transform="translate(-8.81 -8.76)"/><path class="cls-25" d="M405.48,198.25c-6.31,7.82-6.63,16.95,1.5,24.74,10.06,9.67,22.43,9.17,32.57,3.32,11.31-6.52,7.43-24.41,4.42-29.51C435.09,181.78,414.65,186.86,405.48,198.25Z" transform="translate(-8.81 -8.76)"/><path class="cls-24" d="M424.86,233.76a28.67,28.67,0,0,1-20.13-8.44c-8.91-8.56-9.57-19.45-1.78-29.11l2.53,2-2.53-2c6.3-7.81,16.9-12.6,26.37-11.91a21.59,21.59,0,0,1,17.44,10.86c2.43,4.11,5,14.15,2.75,22.62a17.92,17.92,0,0,1-8.34,11.34A32.57,32.57,0,0,1,424.86,233.76Zm2.63-43.09A26.5,26.5,0,0,0,408,200.28c-5.62,7-5.19,14.2,1.22,20.37,11.4,10.95,23.87,5.64,28.74,2.86a11.51,11.51,0,0,0,5.31-7.38c1.79-6.84-.51-15-2.08-17.68a15,15,0,0,0-12.32-7.74c-.44,0-.89,0-1.35,0Z" transform="translate(-8.81 -8.76)"/><path class="cls-26" d="M434.93,200.49a2.31,2.31,0,0,0-1.58.6c-5.61,4.66-7.07,7.31-12.48,12.15-.73-.79-1.43-1.6-2.08-2.46a9.29,9.29,0,0,1-1-1.86c-1-2.54-5.39-.64-3.93,2.1.68,1.75,4.9,7.48,6.78,7.53,3.32.09,9.38-8.93,15.75-14.23a2.21,2.21,0,0,0,.19-3.12,2.18,2.18,0,0,0-1.64-.74Z" transform="translate(-8.81 -8.76)"/><path class="cls-24" d="M405.24,220.92l18.2,27.28L444,222.7l-4.49,4C420.81,242.68,405.24,219.54,405.24,220.92Z" transform="translate(-8.81 -8.76)"/><path class="cls-24" d="M423.44,251.59h-.15a3.31,3.31,0,0,1-2.63-1.48l-18.22-27.33a3.33,3.33,0,0,1-.56-1.86,3.38,3.38,0,0,1,2.12-3.16c2.21-.88,3.62.59,4.88,1.89,1.92,2,5.89,6.08,11.05,8.15,6,2.41,11.72,1.22,17.39-3.62l4.47-4a3.33,3.33,0,1,1,4.83,4.59h0l-20.55,25.5A3.34,3.34,0,0,1,423.44,251.59Zm-5.25-17.25,5.52,8.25,5.81-7.19a21.61,21.61,0,0,1-11.32-1.1Z" transform="translate(-8.81 -8.76)"/><path class="cls-24" d="M120,234.33l19.41,25.59,19.52-23.67-4.27,3.26C136.88,254.68,120,234.35,120,234.33Z" transform="translate(-8.81 -8.76)"/><path class="cls-24" d="M139.42,263.17h-.06a3.16,3.16,0,0,1-2.52-1.28L117.45,236.3a3.24,3.24,0,0,1,4-4.87,3.41,3.41,0,0,1,1.1.82,33.11,33.11,0,0,0,10,7.67c7.12,3.32,13.85,2.4,20-2.86l.14-.12,4.27-3.26a3.25,3.25,0,0,1,4.47,4.64L142,262A3.31,3.31,0,0,1,139.42,263.17ZM134,247.39l5.52,7.31,5.53-6.75a22.73,22.73,0,0,1-11.08-.56Z" transform="translate(-8.81 -8.76)"/><path class="cls-27" d="M120.64,211.89c-6.31,7.83-6.63,17,1.5,24.75,10.07,9.68,22.44,9.18,32.59,3.31,11.3-6.53,7.43-24.41,4.42-29.51C150.25,195.42,129.81,200.51,120.64,211.89Z" transform="translate(-8.81 -8.76)"/><path class="cls-24" d="M140,247.42A28.66,28.66,0,0,1,119.89,239c-8.91-8.57-9.59-19.46-1.78-29.13h0c6.3-7.81,16.9-12.6,26.37-11.91a21.59,21.59,0,0,1,17.44,10.87c2.43,4.11,5,14.15,2.77,22.62a18,18,0,0,1-8.35,11.32A32.61,32.61,0,0,1,140,247.42Zm-16.86-33.49c-5.63,7-5.19,14.21,1.22,20.38,11.4,10.95,23.87,5.64,28.74,2.85a11.47,11.47,0,0,0,5.31-7.37c1.8-6.86-.5-15-2.07-17.69A15.06,15.06,0,0,0,144,204.37c-7.33-.53-15.9,3.38-20.85,9.51Z" transform="translate(-8.81 -8.76)"/><path class="cls-6" d="M462,341.1c-6.3,7.82-6.63,17,1.5,24.74,10.07,9.67,22.43,9.18,32.58,3.31,11.3-6.52,7.42-24.39,4.42-29.49C491.62,324.64,471.19,329.73,462,341.1Z" transform="translate(-8.81 -8.76)"/><path class="cls-24" d="M481.4,376.63a28.67,28.67,0,0,1-20.13-8.44c-8.91-8.56-9.57-19.45-1.78-29.12h0c6.3-7.81,16.89-12.6,26.36-11.91A21.56,21.56,0,0,1,503.29,338c2.43,4.12,5,14.15,2.76,22.62a18,18,0,0,1-8.35,11.41A32.5,32.5,0,0,1,481.4,376.63Zm-16.86-33.48c-5.63,7-5.19,14.2,1.22,20.36,11.39,10.95,23.86,5.64,28.74,2.86a11.42,11.42,0,0,0,5.3-7.37c1.8-6.84-.5-15-2.07-17.69a15,15,0,0,0-12.32-7.73c-7.32-.53-15.89,3.38-20.84,9.51Z" transform="translate(-8.81 -8.76)"/><path class="cls-27" d="M484,346.63c2.68,0,3.95-.08,6.54-.07a1.62,1.62,0,0,1,1.58,1.46,97,97,0,0,1,.68,12.16,1.59,1.59,0,0,1-1.51,1.52,178,178,0,0,1-20.66-.39,1.61,1.61,0,0,1-1.5-1.44,93.23,93.23,0,0,1,0-16.37,1.58,1.58,0,0,1,1.55-1.39c2.82-.05,7.48.13,9.4.22a1.61,1.61,0,0,1,1.33.83c.2.36.89,2,1.11,2.51A1.58,1.58,0,0,0,484,346.63Z" transform="translate(-8.81 -8.76)"/><path class="cls-24" d="M460.76,363.58l19.52,26.95L500.8,365l-4.42,4C477.64,385,460.76,362.16,460.76,363.58Z" transform="translate(-8.81 -8.76)"/><path class="cls-24" d="M480.28,393.87h-.08a3.3,3.3,0,0,1-2.63-1.39l-19.52-26.94a3.37,3.37,0,0,1-.63-2,3.42,3.42,0,0,1,2-3.14c2.14-.91,3.6.46,5,1.78,7.07,6.63,17.84,14.37,29.67,4.29l4.42-4a3.34,3.34,0,0,1,4.83,4.6h0l-20.55,25.49A3.29,3.29,0,0,1,480.28,393.87Zm-5.9-17.19,6,8.33,5.9-7.32A23.1,23.1,0,0,1,474.38,376.68Z" transform="translate(-8.81 -8.76)"/><path class="cls-27" d="M464.68,254.08c-4.11,55,68.46,42.07,73.57,10.53C545.86,217.48,468.29,205.5,464.68,254.08Z" transform="translate(-8.81 -8.76)"/><path class="cls-24" d="M497.3,295a44.31,44.31,0,0,1-5.52-.32c-9.38-1.1-17.16-5-22.5-11.34-6.14-7.26-8.78-17.2-7.86-29.55,1.11-14.36,8.32-25.18,20.43-30.6,14.14-6.32,32.93-3.89,45.68,5.9,11.3,8.7,16.24,21.48,13.9,36-1.49,9.21-8,17.45-18.33,23.21A54,54,0,0,1,497.3,295Zm-32.62-41,3.23.23c-.79,10.6,1.35,19,6.35,24.89,5.37,6.35,12.91,8.45,18.29,9.08A47.24,47.24,0,0,0,520,282.64c8.45-4.68,14-11.44,15.08-18.55,2-12-2.12-22.63-11.44-29.84-11-8.41-27-10.52-39.08-5.13-6.95,3.12-15.47,10-16.58,25.16Z" transform="translate(-8.81 -8.76)"/><path class="cls-6" d="M517.9,268.59c.78-.43,12.68-23.71-3.6-22.79.78-5.88-2.48-12.73-8.43-12.83h0c-7.49-.13-20.07,10.4-27.2,9.53-2.49-.69-.9,3.12.72,5.27,3.58,4.72,4,1.29,1,4.27a6.53,6.53,0,0,0-1.81,3.89c-.82,5.88,7.13,12.83,7,12.82Z" transform="translate(-8.81 -8.76)"/><path class="cls-28" d="M489.34,277.63c6.46,1.92,16.65,1.52,21.42,0,6.63-2.07,7.59-5.31,7.17-15.61-.6-14.21-5.78-11.87-25.07-11.67-6.22.07-7.24,6.93-7.24,13.26C485.62,267.49,485,276.36,489.34,277.63Z" transform="translate(-8.81 -8.76)"/><path class="cls-6" d="M490.85,249.79s8.84,8.69,21.21-.14Z" transform="translate(-8.81 -8.76)"/><path class="cls-29" d="M494.5,264.44a1.22,1.22,0,0,0-1.12,1.33s0,.07,0,.1a1.17,1.17,0,0,0,1.39.84,1.32,1.32,0,0,0,.93-1.62,1.18,1.18,0,0,0-.19-.39,1.09,1.09,0,0,0-1-.26Z" transform="translate(-8.81 -8.76)"/><path class="cls-29" d="M508.41,264.65a1.31,1.31,0,0,0-.83,1.65,1.22,1.22,0,0,0,.07.17,1.25,1.25,0,0,0,1.68.45,1.11,1.11,0,0,0,.65-1.42,1.12,1.12,0,0,0-.48-.57,1.09,1.09,0,0,0-1.1-.28Z" transform="translate(-8.81 -8.76)"/><path class="cls-29" d="M498.3,270.81c1.69,4.64,5.13,4.63,6.39,0a.58.58,0,0,0-.39-.72l-.17,0-5.27-.06a.59.59,0,0,0-.56.8Z" transform="translate(-8.81 -8.76)"/><g class="cls-9"><path class="cls-30" d="M501.14,269H501a.72.72,0,1,1-.1-1.43h.17a2.08,2.08,0,0,0,1.1-.35l-.29-.21a2.74,2.74,0,0,1-1.41-2.88v-2.3a.72.72,0,0,1,1.42-.18.54.54,0,0,1,0,.18v2.35a.28.28,0,0,1,0,.13c-.14.77.2,1,.83,1.51.44.31,1,.69,1,1.4a1.42,1.42,0,0,1-.49,1A3.35,3.35,0,0,1,501.14,269Z" transform="translate(-8.81 -8.76)"/></g><path class="cls-4" d="M494.29,270.61a5.9,5.9,0,0,1-3.47-1.11,4.41,4.41,0,0,1-1.34-5.68h0a6,6,0,0,1,5.68-3.31,4.63,4.63,0,0,1,4.2,3.31,5.33,5.33,0,0,1-1.51,5.39A5.23,5.23,0,0,1,494.29,270.61Zm-3.52-6.17a3,3,0,0,0,.9,3.9,4.21,4.21,0,0,0,5.2-.14,3.9,3.9,0,0,0,1.11-3.9,3.15,3.15,0,0,0-2.93-2.31,4.58,4.58,0,0,0-4.29,2.45Z" transform="translate(-8.81 -8.76)"/><path class="cls-4" d="M508.91,270.87a5.88,5.88,0,0,1-3.46-1.1,4.42,4.42,0,0,1-1.34-5.69h0a5.94,5.94,0,0,1,5.68-3.32,4.61,4.61,0,0,1,4.19,3.32,5.29,5.29,0,0,1-1.5,5.38A5.17,5.17,0,0,1,508.91,270.87Zm-3.51-6.17a2.93,2.93,0,0,0,.9,3.9,4.22,4.22,0,0,0,5.2-.15,3.89,3.89,0,0,0,1.11-3.9,3.16,3.16,0,0,0-2.93-2.31,4.58,4.58,0,0,0-4.29,2.46Z" transform="translate(-8.81 -8.76)"/><path class="cls-4" d="M504.32,266a.89.89,0,0,1-.23,0,7.8,7.8,0,0,0-5-.11.74.74,0,0,1-.94-.41.72.72,0,0,1,.41-.93h0a9.25,9.25,0,0,1,5.95.08.72.72,0,0,1-.23,1.4Z" transform="translate(-8.81 -8.76)"/><path class="cls-4" d="M485.57,267.06a.72.72,0,1,1-.06-1.43l4.11-.33a.72.72,0,0,1,.77.65h0a.72.72,0,0,1-.66.77l-4.11.32Z" transform="translate(-8.81 -8.76)"/><path class="cls-4" d="M518,267.68h-.08l-4.53-.52a.7.7,0,0,1-.63-.77h0a.71.71,0,0,1,.79-.64l4.53.52a.71.71,0,0,1,.59.82.72.72,0,0,1-.67.6Z" transform="translate(-8.81 -8.76)"/><g class="cls-17"><path class="cls-14" d="M492.24,244.52a.72.72,0,0,1,0-1.44h0a22.67,22.67,0,0,0,12.93-4.7.72.72,0,0,1,.89,1.11,24.3,24.3,0,0,1-13.76,5Z" transform="translate(-8.81 -8.76)"/><path class="cls-14" d="M499.79,248.92a.76.76,0,0,1-.67-.46.72.72,0,0,1,.39-.93,21.82,21.82,0,0,0,7.19-4.71.7.7,0,0,1,1,0,.71.71,0,0,1,0,1h0a23.65,23.65,0,0,1-7.65,5Z" transform="translate(-8.81 -8.76)"/><path class="cls-14" d="M483,257a.72.72,0,0,1-.71-.65,7.4,7.4,0,0,1,1-4.48.72.72,0,1,1,1.28.65l-.05.09a5.91,5.91,0,0,0-.82,3.6.74.74,0,0,1-.64.79Z" transform="translate(-8.81 -8.76)"/><path class="cls-14" d="M519.81,255.7h0a.72.72,0,0,1-.69-.74h0a9.79,9.79,0,0,0-.66-3.86.72.72,0,0,1,1.33-.53,11,11,0,0,1,.77,4.42.72.72,0,0,1-.73.71Z" transform="translate(-8.81 -8.76)"/></g><path class="cls-28" d="M505.86,284.14s-.69-5.71-1.24-8.77c-.14-.82-.81-.56-7.13-.91a.75.75,0,0,0-.71.74c-.76,9.2-1.38,8.58-1.39,9.61A32.34,32.34,0,0,0,505.86,284.14Z" transform="translate(-8.81 -8.76)"/><path class="cls-24" d="M496,309.4l-24.13-28c0-1.58,22.91,27,43.67,9.27l14.89-11.7-20.93,25.42S500.63,302.67,496,309.4Z" transform="translate(-8.81 -8.76)"/><path class="cls-24" d="M496,312.75a3.31,3.31,0,0,1-2.54-1.11l-24.13-28a3.33,3.33,0,0,1-.81-2.21,3.42,3.42,0,0,1,2-3.12c2.13-.94,3.53.34,5.52,2.12,2.82,2.58,8.67,7.92,15.67,10.81,8.2,3.38,15.29,2.36,21.66-3.08l.11-.09,14.89-11.71a3.33,3.33,0,0,1,4.65,4.76h0L512.11,306.5a3.38,3.38,0,0,1-3.21,1.16c-.26-.05-6.8-1.1-10.13,3.66a3.29,3.29,0,0,1-2.57,1.45Zm-5.53-14.86,5.58,6.5a17.73,17.73,0,0,1,12-3.54l2.61-3.18c-6.16,2.74-13,2.83-20.1.22Z" transform="translate(-8.81 -8.76)"/><path class="cls-24" d="M68.41,349l27.91,37.25,30-43.26-12.65,15C90.67,377.92,68.41,346.84,68.41,349Z" transform="translate(-8.81 -8.76)"/><path class="cls-24" d="M96.32,389.57a3.37,3.37,0,0,1-2.68-1.33L65.68,351a3.25,3.25,0,0,1-.66-2,3.42,3.42,0,0,1,2.07-3.18,3.92,3.92,0,0,1,4.19,1c.41.35.91.84,1.53,1.44,2.82,2.72,8.67,8.4,15.75,11.29,8.24,3.31,15.65,2.09,22.67-3.9l12.48-14.81a3.34,3.34,0,1,1,5.31,4.05L99.08,388.13a3.38,3.38,0,0,1-2.7,1.44Zm-11.6-24.43L96.26,380.5l9.71-14a27,27,0,0,1-19.89-.74C85.62,365.54,85.16,365.35,84.72,365.14Z" transform="translate(-8.81 -8.76)"/><path class="cls-25" d="M62.23,324.06c-3.09,54.22,66.94,38.56,68,7.11C131.74,283.16,65,276.18,62.23,324.06Z" transform="translate(-8.81 -8.76)"/><path class="cls-24" d="M92.12,363.06a34.88,34.88,0,0,1-19-5.19c-7.07-4.55-15.24-14.15-14.1-34l3.23.18L59,323.88c.65-11.54,4.9-21,12.27-27.42a34.85,34.85,0,0,1,24.58-8.2A39.56,39.56,0,0,1,122.18,300c5.43,5.53,11.78,15.47,11.28,31.3-.34,10.34-7.44,20.14-19,26.19A49.3,49.3,0,0,1,93.61,363Zm2-68.37a28.16,28.16,0,0,0-18.58,6.63c-6,5.23-9.51,13.14-10.06,22.89-.76,13.26,3.09,23,11.14,28.17,9,5.8,23,5.52,34.82-.69,9.46-5,15.26-12.69,15.47-20.65.79-22.87-15.18-35.58-31.35-36.35Z" transform="translate(-8.81 -8.76)"/><path class="cls-8" d="M111.69,332.08c12.83-17.53.89-18.12,1.38-18.09,1.39-4.72-1.3-7.17-5.89-6.44-.08-2.73-1.81-4-5.73-3.59a13.84,13.84,0,0,0-5.2,1.34c.6-3.48-1-5.17-3.88-5.17h0c-10.82-.39-12.69,13.09-12.69,13.09-5.18,0-8.7,10.5-.51,18.86Z" transform="translate(-8.81 -8.76)"/><path class="cls-3" d="M102.88,315.09c-5.76,0-14.62-1.41-19.89,1.55-1.56.86-1.73,2.89-2.45,4.54-1.1,2.53-4.54,20.29,6.63,23,2,.51,15,.66,19-1.25a9.08,9.08,0,0,0,3.09-2.33c3-3.49,2.57-10.28,2.34-14.82-.51-9.68-3.23-10.71-8.66-10.71Z" transform="translate(-8.81 -8.76)"/><path class="cls-3" d="M89.91,352.83A102.34,102.34,0,0,1,91,341.78c.09-.44,9.12-.87,9.24,0,.26,2,0,1.79,1.25,10.08a31.12,31.12,0,0,1-11.36,1" transform="translate(-8.81 -8.76)"/><path class="cls-8" d="M85.74,314.42c6,6.63,14.65,6.93,21,0Z" transform="translate(-8.81 -8.76)"/><path class="cls-10" d="M89.57,330.59a1.11,1.11,0,0,0-1,1.21.2.2,0,0,0,0,.07,1,1,0,0,0,1.22.71,1.1,1.1,0,0,0,.85-1.31,1.21,1.21,0,0,0-.23-.47A1,1,0,0,0,89.57,330.59Z" transform="translate(-8.81 -8.76)"/><path class="cls-10" d="M102.71,330.55a1.12,1.12,0,0,0-.74,1.38,1.47,1.47,0,0,0,.1.22,1.05,1.05,0,1,0,1.75-1.15,1.11,1.11,0,0,0-1.11-.45Z" transform="translate(-8.81 -8.76)"/><g class="cls-9"><path class="cls-10" d="M96.41,335.31a4.45,4.45,0,0,1-.73,0,.7.7,0,0,1-.58-.83.72.72,0,0,1,.74-.59,4.13,4.13,0,0,0,1.94-.2l-.94-5.91a.72.72,0,1,1,1.43-.22l1,6.43a.73.73,0,0,1-.3.69A4.59,4.59,0,0,1,96.41,335.31Z" transform="translate(-8.81 -8.76)"/></g><path class="cls-10" d="M96.1,339.93a6.85,6.85,0,0,1-3.77-1.1,1,1,0,0,1-.24-1.35,1,1,0,0,1,1.35-.24,4.94,4.94,0,0,0,3.65.71,1,1,0,0,1,.36,1.88A6.77,6.77,0,0,1,96.1,339.93Z" transform="translate(-8.81 -8.76)"/><path class="cls-8" d="M86.15,327.5a.71.71,0,0,1-.71-.73.7.7,0,0,1,.23-.52,7.32,7.32,0,0,1,4.42-1.85.72.72,0,1,1,.1,1.43,6,6,0,0,0-3.54,1.49A.66.66,0,0,1,86.15,327.5Z" transform="translate(-8.81 -8.76)"/><path class="cls-8" d="M106.78,327.5a.7.7,0,0,1-.48-.18,5.88,5.88,0,0,0-3.52-1.49.72.72,0,1,1,.1-1.43,7.34,7.34,0,0,1,4.42,1.85.72.72,0,0,1,0,1h0A.68.68,0,0,1,106.78,327.5Z" transform="translate(-8.81 -8.76)"/><path class="cls-24" d="M329,403.41l28.3,38.48,30.84-38.48-8.76,7.74C352.91,433.76,329.06,403.43,329,403.41Z" transform="translate(-8.81 -8.76)"/><path class="cls-24" d="M357.31,445.14h-.08a3.19,3.19,0,0,1-2.54-1.32L326.4,405.33a3.24,3.24,0,1,1,5.16-3.92h0c1.1,1.38,11.57,13.59,25.13,14.78,7.09.61,14-1.9,20.58-7.5L386,401a3.25,3.25,0,0,1,4.67,4.42l-30.84,38.5A3.29,3.29,0,0,1,357.31,445.14ZM345,419.72l12.4,16.86,12.84-16a30.72,30.72,0,0,1-14.13,2.09A35.1,35.1,0,0,1,345,419.71Z" transform="translate(-8.81 -8.76)"/><path class="cls-31" d="M323.18,378.55c-3.14,55.05,69.19,40.89,73.75,9.25C403.72,340.53,326,329.91,323.18,378.55Z" transform="translate(-8.81 -8.76)"/><path class="cls-24" d="M355.66,419.05c-1.56,0-3.11-.08-4.66-.23-9.43-.94-17.3-4.74-22.76-11-6.27-7.17-9.1-17.09-8.4-29.48l3.32.2-3.32-.2c.82-14.37,7.91-25.42,20-31,14.07-6.64,32.93-4.48,45.89,5.11,11.49,8.52,16.66,21.25,14.56,35.84-1.34,9.27-7.73,17.68-18,23.57A53.91,53.91,0,0,1,355.66,419.05Zm2.21-68.88a35.88,35.88,0,0,0-15.2,3.21c-6.88,3.22-15.24,10.22-16.11,25.35-.6,10.58,1.66,18.89,6.76,24.69,5.46,6.25,13,8.2,18.37,8.73a47.16,47.16,0,0,0,27.27-6.1c8.31-4.81,13.67-11.63,14.68-18.73,1.74-12.05-2.49-22.52-11.92-29.51a40.44,40.44,0,0,0-23.88-7.64Z" transform="translate(-8.81 -8.76)"/><path class="cls-4" d="M361,354.66c-10.4-.21-19.73,5.61-25.47,20.61-10.83,28.35,12.62,28.11,24,28.13,26,.08,29.68-10.42,25.35-27.63C382.19,365,374,354.92,361,354.66Z" transform="translate(-8.81 -8.76)"/><path class="cls-28" d="M357.5,363c-15.48,2.69-18.61,28.83,0,30,5.29.32,11.93-2.83,15.36-7.37,5.82-7.74-.09-25.27-15.36-22.6Z" transform="translate(-8.81 -8.76)"/><path class="cls-28" d="M363.43,391.66c.62,4.48,2.14,8.84,2.21,10.28h0a1.67,1.67,0,0,1-1.52,1.68,32.85,32.85,0,0,1-4.06.5,24.88,24.88,0,0,1-4.14-.1c-1.11-.13-1.93-.95-1.75-1.84a92.29,92.29,0,0,0,1.45-10.59.64.64,0,0,1,.68-.58C362.66,391.22,363.34,391,363.43,391.66Z" transform="translate(-8.81 -8.76)"/><path class="cls-4" d="M373.19,367.48c-12.35-2.83-24.31,19.29-31.84,11.29l5.83-13.64,20.87-6.82Z" transform="translate(-8.81 -8.76)"/><path class="cls-29" d="M353.4,377.47a1.11,1.11,0,0,0-1,1.22v0a1,1,0,0,0,1.22.71,1.1,1.1,0,0,0,.81-1.33,1.3,1.3,0,0,0-.2-.43,1,1,0,0,0-.85-.21Z" transform="translate(-8.81 -8.76)"/><path class="cls-29" d="M365.46,377.45a1.11,1.11,0,0,0-.72,1.39,1.54,1.54,0,0,0,.08.19,1,1,0,1,0,1.64-1.18A1.15,1.15,0,0,0,365.46,377.45Z" transform="translate(-8.81 -8.76)"/><path class="cls-29" d="M356.79,382.94c1.53,4,4.51,3.94,5.52-.07a.52.52,0,0,0-.38-.63h-4.69a.5.5,0,0,0-.49.54A.47.47,0,0,0,356.79,382.94Z" transform="translate(-8.81 -8.76)"/><g class="cls-9"><path class="cls-30" d="M359,381.19a.69.69,0,0,1,0-1.36h.33a2.32,2.32,0,0,0,.87-.11,12.31,12.31,0,0,0-.67-4.42.66.66,0,0,1,.39-.86h0a.68.68,0,0,1,.87.4h0a13,13,0,0,1,.71,5.36.72.72,0,0,1-.28.46,3,3,0,0,1-1.89.52H359Z" transform="translate(-8.81 -8.76)"/></g><path class="cls-19" d="M175.33,384.14c-6.72,8.32-7,18.06,1.6,26.34,10.71,10.3,23.88,9.77,34.69,3.55,12-6.95,7.9-26,4.7-31.42C206.84,366.6,185.11,372.05,175.33,384.14Z" transform="translate(-8.81 -8.76)"/><path class="cls-24" d="M196,421.78a30.43,30.43,0,0,1-21.29-8.94c-9.4-9-10.1-20.52-1.87-30.72h0c6.63-8.27,17.88-13.33,27.89-12.6A22.73,22.73,0,0,1,219.11,381c2.57,4.35,5.27,15,2.91,23.92a18.89,18.89,0,0,1-8.84,12A34.7,34.7,0,0,1,196,421.78Zm2.81-45.84a28.41,28.41,0,0,0-20.92,10.25c-6.07,7.52-5.6,15.32,1.31,22,12.24,11.76,25.63,6.07,30.83,3.08a12.37,12.37,0,0,0,5.74-8c1.94-7.35-.53-16.13-2.21-19a16.26,16.26,0,0,0-13.26-8.3c-.52-.05-1-.06-1.49-.06Z" transform="translate(-8.81 -8.76)"/><path class="cls-26" d="M198.58,404.23c5.28-.43,9.11.67,10.45-4.31a25.51,25.51,0,0,0,.72-6.57c-.09-8.23-2.56-9-11-9-5.53,0-12.16-1.2-15.15,1.79-2.29,2.3-1.68,7.74-1.35,14,.18,3.41,4.6,4.42,8.26,4.24,1.64-.08,1.18,3.38,1.17,3.37a1.21,1.21,0,0,0,1.31,1.09,1.3,1.3,0,0,0,.68-.29C197.9,404.94,198.05,404.27,198.58,404.23Z" transform="translate(-8.81 -8.76)"/><path class="cls-14" d="M188.41,395.6a1.33,1.33,0,0,0,1.4,1.23,1.37,1.37,0,0,0,.28-.05,1.41,1.41,0,0,0,.94-.63,1.56,1.56,0,0,0,.2-.82,1.1,1.1,0,0,0-.55-1,1.47,1.47,0,0,0-2,.44A1.45,1.45,0,0,0,188.41,395.6Z" transform="translate(-8.81 -8.76)"/><path class="cls-14" d="M194.36,395.6a1.32,1.32,0,0,0,1.41,1.23,1.26,1.26,0,0,0,.28-.05,1.41,1.41,0,0,0,.94-.63,1.56,1.56,0,0,0,.2-.82,1.1,1.1,0,0,0-.55-1,1.49,1.49,0,0,0-2,.45A1.52,1.52,0,0,0,194.36,395.6Z" transform="translate(-8.81 -8.76)"/><path class="cls-14" d="M200.32,395.6a1.32,1.32,0,0,0,1.41,1.23,1.37,1.37,0,0,0,.28-.05,1.46,1.46,0,0,0,.94-.63,1.55,1.55,0,0,0,.19-.82,1.1,1.1,0,0,0-.55-1,1.47,1.47,0,0,0-2,.45A1.52,1.52,0,0,0,200.32,395.6Z" transform="translate(-8.81 -8.76)"/><path class="cls-24" d="M175.41,409.62l19.1,27.14,20.55-25.49-4.5,4C191.87,431.27,175.44,409.62,175.41,409.62Z" transform="translate(-8.81 -8.76)"/><path class="cls-24" d="M194.51,440.13h-.11a3.36,3.36,0,0,1-2.63-1.41l-19.09-27.15a3.31,3.31,0,0,1,4.21-4.93,3.2,3.2,0,0,1,1.17,1c.76.95,7.66,9.3,16.65,10.17,4.65.44,9.25-1.24,13.65-5l4.48-4a3.34,3.34,0,0,1,4.83,4.6l-20.56,25.5A3.29,3.29,0,0,1,194.51,440.13Zm-5.3-16.69,5.52,7.79,5.73-7.1a22.41,22.41,0,0,1-6.33.3A24.25,24.25,0,0,1,189.21,423.44Z" transform="translate(-8.81 -8.76)"/><path class="cls-22" d="M454.86,328.08a1.37,1.37,0,0,1-1.37-1.32,22.23,22.23,0,0,1,16-22.56,23.53,23.53,0,0,1,14.14.06A22,22,0,0,1,494.42,312,17.93,17.93,0,0,1,508.18,305a16.94,16.94,0,0,1,15.19,7.84,1.36,1.36,0,0,1-.53,1.86,1.38,1.38,0,0,1-1.77-.38,14.24,14.24,0,0,0-12.79-6.63,14.91,14.91,0,0,0-12.62,7.45,1.37,1.37,0,0,1-2.36.07c-6-9.57-16.13-10.5-23-8.4a19.59,19.59,0,0,0-14.11,19.89,1.38,1.38,0,0,1-1.32,1.41Z" transform="translate(-8.81 -8.76)"/><path class="cls-14" d="M326.3,40c-.2.32-6.32,37.05-3,39a3.07,3.07,0,0,0,2.31.33c4.73-1,36.41-8.07,37.76-12.73,1.74-6.14-31.13-28.25-34.64-28A2.94,2.94,0,0,0,326.3,40Z" transform="translate(-8.81 -8.76)"/><path class="cls-32" d="M323.8,33.09c-1.69,1.65.43,4-7.65,69.21-7,56.85-8,54.71-6.57,56.21.19.18,2.35,1.64,3.81.22a2.18,2.18,0,0,0,.66-1.56c3.06-22.87,6.14-45.72,8.84-68.63,2.1-17.85,4-35.73,5.36-53.65a2.19,2.19,0,0,0-.63-1.57,2.17,2.17,0,0,0-1.55-.67h-.16a3.84,3.84,0,0,0-2.09.43Z" transform="translate(-8.81 -8.76)"/><path class="cls-33" d="M340.07,67.41c-7.05,0-9.16-12.83,0-12.83C346.08,54.58,348.57,67.41,340.07,67.41Z" transform="translate(-8.81 -8.76)"/><path class="cls-14" d="M132.21,234.27a1.72,1.72,0,0,1-1.72-1.72c0-21.75-.61-22.27,1.72-22.27H144.1a10.35,10.35,0,0,1,2.21,1.86c1.1,1,2.14,2.05,2.14,2.52v17.89C148.47,235.58,144.27,233.7,132.21,234.27Z" transform="translate(-8.81 -8.76)"/><path class="cls-34" d="M139.3,221.23h-5.76a.68.68,0,0,1-.68-.68.69.69,0,0,1,.68-.69h5.76a.69.69,0,0,1,.69.69A.68.68,0,0,1,139.3,221.23Z" transform="translate(-8.81 -8.76)"/><path class="cls-34" d="M145.42,225.23H133.54a.68.68,0,0,1-.68-.68.69.69,0,0,1,.68-.69h11.88a.69.69,0,0,1,.69.69A.68.68,0,0,1,145.42,225.23Z" transform="translate(-8.81 -8.76)"/><path class="cls-34" d="M145.42,229.23H133.54a.68.68,0,0,1-.68-.68.69.69,0,0,1,.68-.69h11.88a.69.69,0,0,1,.69.69A.68.68,0,0,1,145.42,229.23Z" transform="translate(-8.81 -8.76)"/><path class="cls-35" d="M147.61,215.27c-1.72-.26-4.06.42-4.06-1.2,0-.32-.37-4.83.95-3.6C146.61,212.43,150.17,215.27,147.61,215.27Z" transform="translate(-8.81 -8.76)"/></svg>